<svg width="355" height="163" fill="none" xmlns="http://www.w3.org/2000/svg"><path d="M311.133 119.254c-1.132 0-2.157-.226-2.897-.589-.742-.365-1.194-.865-1.194-1.412 0-.547.453-1.046 1.195-1.41.741-.363 1.766-.589 2.896-.59v-.016.016c1.133 0 2.157.224 2.898.588.741.363 1.194.864 1.194 1.412 0 .549-.454 1.049-1.196 1.413-.74.363-1.765.588-2.896.588Z" fill="#322689" stroke="#322689" stroke-width=".031"/><mask id="a" fill="#fff"><path d="M298.449 57.786s-9.03-3.311-12.394-2.792c-2.098 3.025-4.916 5.377-7.208 5.557-2.632.205-6.505-.805-7.731-2.634-.689-1.027-.206-2.599.479-3.27.825-.808 2.627-.903 4.157-.797 2.565-5.413 4.523-8.594 9.171-9.487 6.278-1.204 14.196 2.49 17.329 4.953"/></mask><path d="M298.449 57.786s-9.03-3.311-12.394-2.792c-2.098 3.025-4.916 5.377-7.208 5.557-2.632.205-6.505-.805-7.731-2.634-.689-1.027-.206-2.599.479-3.27.825-.808 2.627-.903 4.157-.797 2.565-5.413 4.523-8.594 9.171-9.487 6.278-1.204 14.196 2.49 17.329 4.953" fill="#fff"/><path d="m286.055 54.994-.004-.03-.013.001-.008.011.025.018Zm-7.208 5.557.002.03-.002-.03Zm-7.731-2.634.026-.017-.026.017Zm.479-3.27.021.023-.021-.022Zm4.157-.797-.002.03.021.002.009-.02-.028-.012Zm9.171-9.487-.006-.03.006.03Zm13.526 13.423.011-.028h-.001l-.001-.001-.005-.002-.019-.007-.077-.027-.292-.105a79.146 79.146 0 0 0-4.543-1.45c-1.34-.382-2.785-.747-4.106-.985-1.32-.238-2.519-.348-3.365-.218l.009.061c.836-.129 2.026-.02 3.345.217 1.318.237 2.762.602 4.1.984a79.527 79.527 0 0 1 4.831 1.553l.077.028.019.007.005.002h.001l.011-.029Zm-12.419-2.81c-1.047 1.511-2.274 2.853-3.525 3.84-1.251.986-2.523 1.615-3.661 1.704l.005.061c1.155-.09 2.438-.727 3.694-1.718 1.256-.99 2.487-2.337 3.538-3.852l-.051-.035Zm-7.186 5.544c-1.311.102-2.933-.098-4.38-.553-1.449-.454-2.715-1.161-3.322-2.067l-.051.034c.619.923 1.902 1.636 3.354 2.092 1.454.456 3.084.658 4.404.555l-.005-.06Zm-7.702-2.62c-.339-.505-.391-1.145-.272-1.745.12-.6.409-1.155.746-1.485l-.043-.044c-.347.34-.642.907-.763 1.517-.121.61-.07 1.268.281 1.791l.051-.034Zm.474-3.23c.406-.398 1.055-.623 1.798-.734.742-.111 1.572-.108 2.336-.056l.004-.06c-.766-.054-1.601-.057-2.349.056-.747.111-1.412.339-1.832.75l.043.044Zm4.164-.807c1.282-2.706 2.412-4.851 3.8-6.431 1.386-1.579 3.032-2.594 5.349-3.039l-.012-.06c-2.331.448-3.988 1.47-5.384 3.058-1.394 1.587-2.526 3.74-3.809 6.446l.056.026Zm9.149-9.47c3.131-.6 6.675.02 9.828 1.1 3.153 1.08 5.912 2.618 7.476 3.848l.038-.049c-1.57-1.234-4.336-2.775-7.494-3.857-3.159-1.082-6.713-1.706-9.86-1.102l.012.06Z" fill="#322689" mask="url(#a)"/><path d="M271.131 57.905c-.27-.4-.36-.88-.325-1.357.051-.749.392-1.486.805-1.893.411-.401 1.065-.626 1.809-.738.744-.111 1.574-.109 2.337-.056h.01l.005-.008c1.282-2.707 2.412-4.854 3.802-6.436 1.389-1.582 3.037-2.599 5.357-3.043 3.136-.601 6.681.02 9.835 1.1 3.147 1.077 5.902 2.612 7.469 3.843l-2.479 5.518-1.313 2.928-.013-.004-.076-.028c-.067-.024-.166-.06-.293-.104a78.885 78.885 0 0 0-4.542-1.45c-1.339-.382-2.783-.747-4.104-.985-1.32-.237-2.517-.348-3.36-.217l-.001-.007-.009.013c-1.049 1.514-2.277 2.857-3.529 3.844-1.252.987-2.527 1.617-3.669 1.707-1.313.104-2.936-.097-4.385-.553-1.449-.455-2.719-1.164-3.331-2.074Z" fill="#fff" stroke="#322689" stroke-width=".031"/><mask id="b" fill="#fff"><path d="M309.508 35.118c-8.598-.103-13.098-2.133-13.935-2.638-2.156-1.295-5.044-3.502-5.959-4.261-.421-.35-4.08-3.506-6.244-3.785-1.981-.254-2.374.97-2.024 1.857-1.386.29-1.553 1.437-.93 2.164-1.647.82-1.312 2.542.265 2.705.86.339 1.307.724 1.307.724s3.321 5.642 8.206 8.78c7.069 4.544 16.769 4.265 16.769 4.265"/></mask><path d="M309.508 35.118c-8.598-.103-13.098-2.133-13.935-2.638-2.156-1.295-5.044-3.502-5.959-4.261-.421-.35-4.08-3.506-6.244-3.785-1.981-.254-2.374.97-2.024 1.857-1.386.29-1.553 1.437-.93 2.164-1.647.82-1.312 2.542.265 2.705.86.339 1.307.724 1.307.724s3.321 5.642 8.206 8.78c7.069 4.544 16.769 4.265 16.769 4.265" fill="#fff"/><path d="m295.573 32.48.016-.026-.016.026Zm-5.959-4.261-.02.023.02-.023Zm-6.244-3.785.004-.03-.004.03Zm-2.024 1.857.006.03.036-.007-.013-.034-.029.011Zm-.93 2.164.014.028.035-.018-.026-.03-.023.02Zm.265 2.705.011-.03h-.008l-.003.03Zm1.307.724.028-.017-.008-.007-.02.024Zm8.206 8.78.016-.026-.016.026Zm19.315-5.577c-8.595-.102-13.089-2.132-13.92-2.633l-.032.053c.843.508 5.348 2.539 13.951 2.641l.001-.061Zm-13.92-2.633c-2.155-1.295-5.042-3.5-5.956-4.259l-.039.047c.916.76 3.805 2.968 5.963 4.265l.032-.053Zm-5.956-4.259c-.209-.174-1.23-1.052-2.469-1.92a18.04 18.04 0 0 0-1.95-1.208c-.655-.342-1.293-.593-1.84-.663l-.008.06c.536.07 1.167.317 1.82.657.652.34 1.324.77 1.942 1.204 1.237.867 2.256 1.742 2.466 1.917l.039-.047Zm-6.259-3.791c-.996-.128-1.603.115-1.914.512-.311.396-.32.936-.142 1.386l.057-.022c-.173-.436-.161-.952.133-1.326.293-.374.874-.616 1.858-.49l.008-.06Zm-2.034 1.857c-.701.146-1.1.512-1.241.938-.141.426-.024.906.294 1.276l.046-.04c-.305-.357-.415-.814-.282-1.216s.511-.755 1.195-.898l-.012-.06Zm-.938 2.167c-.831.413-1.17 1.06-1.093 1.63.077.57.569 1.05 1.368 1.132l.007-.06c-.777-.08-1.241-.544-1.314-1.08-.073-.537.245-1.162 1.06-1.567l-.028-.055Zm.267 2.76c.428.169.754.349.972.487a3.9 3.9 0 0 1 .307.215l.016.013.003.003h.001l.02-.022.02-.024-.001-.001-.004-.003-.016-.014a3.784 3.784 0 0 0-.314-.22 5.849 5.849 0 0 0-.981-.49l-.023.056Zm1.319.696-.026.015.001.001.001.003a.108.108 0 0 1 .008.013l.029.048a24.533 24.533 0 0 0 .557.868c.388.578.956 1.382 1.677 2.284 1.442 1.804 3.496 4.002 5.942 5.574l.033-.052c-2.438-1.566-4.487-3.759-5.927-5.56-.72-.9-1.287-1.704-1.674-2.28a24.113 24.113 0 0 1-.442-.682l-.114-.184-.029-.048-.007-.012-.002-.003v-.001l-.027.016Zm8.189 8.806c3.54 2.275 7.737 3.342 11.047 3.841 1.656.25 3.09.357 4.111.401a30.558 30.558 0 0 0 1.6.029h.021l.006-.001h.001v-.03l-.001-.031h-.028a10.984 10.984 0 0 1-.402.003 30.592 30.592 0 0 1-1.194-.03 39.587 39.587 0 0 1-4.105-.402c-3.306-.498-7.493-1.563-11.023-3.832l-.033.052Z" fill="#322689" mask="url(#b)"/><path d="M286.027 28.646c-.001.556.047 1.092.073 1.291l-4.251 1.23c.703-.012 1.101-.133 1.298-.31a.46.46 0 0 0 .157-.312.73.73 0 0 0-.072-.35c-.103-.234-.297-.466-.465-.64a4.453 4.453 0 0 0-.274-.258c.377.027.676.02.909-.013.243-.034.416-.096.532-.179a.45.45 0 0 0 .197-.303.718.718 0 0 0-.053-.364c-.096-.25-.293-.506-.464-.7a4.408 4.408 0 0 0-.225-.235l-.049-.048c.537.143.918.145 1.189.064a.804.804 0 0 0 .53-.457 1.41 1.41 0 0 0 .101-.592c-.002-.088-.009-.165-.014-.223l-.001-.015c-.003-.022-.004-.041-.005-.056l-.001-.023v-.01a.254.254 0 0 1 .06.046c.037.037.087.091.151.16l.065.072c.188.204.466.497.841.802-.088.138-.144.35-.179.596-.036.253-.05.543-.05.827ZM285.31 33.7a.231.231 0 0 0-.095-.004c-.022.005-.035.016-.042.03-.008.016-.01.039-.004.07a.52.52 0 0 0 .039.111c.081.176.276.444.561.778.569.668 1.497 1.595 2.586 2.563 1.089.967 2.339 1.976 3.556 2.806 1.217.83 2.399 1.481 3.351 1.736 1.909.509 3.975.959 5.557 1.124.791.083 1.46.094 1.926.007.234-.044.415-.112.536-.207a.42.42 0 0 0 .175-.368L285.31 33.7Zm0 0c.348.069.789.29 1.32.616.476.291 1.023.665 1.638 1.085l.218.15c1.41.962 3.158 2.137 5.213 3.122 2.951 1.416 5.349 1.906 7.031 2.25M285.31 33.7l15.42 7.222m0 0 .067.014m-.067-.014.067.014m0 0c.842.172 1.498.31 1.949.512m-1.949-.512 1.949.512m0 0c.225.101.397.218.516.364m-.516-.364.516.364m0 0a.88.88 0 0 1 .194.534l-.194-.534Z" fill="#E4E4E3" stroke="#322689" stroke-width=".031"/><path d="M309.508 35.118c-8.598-.103-13.098-2.133-13.935-2.638-2.156-1.295-5.044-3.502-5.959-4.261-.421-.35-4.08-3.506-6.244-3.785-1.981-.254-2.374.97-2.024 1.857-1.386.29-1.553 1.437-.93 2.164-1.647.82-1.312 2.542.265 2.705.86.339 1.307.724 1.307.724s3.321 5.642 8.206 8.78c7.069 4.544 16.769 4.265 16.769 4.265" stroke="#322689" stroke-width=".765" stroke-miterlimit="10" stroke-linecap="round" stroke-linejoin="round"/><mask id="c" fill="#fff"><path d="M289.398 28.82s-.292-3.217-2.161-4.046c-1.156-.512-1.856.098-1.934.73-.113.897.989 1.614 1.004 1.716.012.1-.592 1.317-.159 2.73"/></mask><path d="M289.398 28.82s-.292-3.217-2.161-4.046c-1.156-.512-1.856.098-1.934.73-.113.897.989 1.614 1.004 1.716.012.1-.592 1.317-.159 2.73" fill="#fff"/><path d="m287.237 24.774.013-.028-.013.028Zm-1.934.73.03.004-.03-.003Zm1.004 1.716.031-.003-.001-.001-.03.004Zm3.091 1.6.03-.003v-.003l-.001-.007-.002-.027-.013-.104a8.548 8.548 0 0 0-.365-1.578c-.307-.91-.85-1.932-1.797-2.352l-.025.056c.922.409 1.458 1.41 1.764 2.316a8.518 8.518 0 0 1 .362 1.566l.013.103.002.027a.02.02 0 0 1 .001.006v.002l.031-.002Zm-2.148-4.074c-.585-.26-1.059-.236-1.398-.063a1.072 1.072 0 0 0-.58.818l.061.007c.038-.306.227-.608.547-.77.319-.163.773-.19 1.345.064l.025-.056Zm-1.978.755c-.058.461.197.874.462 1.18.132.153.269.281.373.377.052.048.095.087.126.118a.426.426 0 0 1 .043.048c.002.003.001.003.001.001l.06-.01a.05.05 0 0 0-.008-.021.552.552 0 0 0-.053-.061c-.031-.032-.076-.073-.127-.12a4.468 4.468 0 0 1-.369-.373c-.262-.302-.501-.697-.447-1.132l-.061-.007Zm1.005 1.723-.004.02-.016.055-.026.08-.034.101c-.048.151-.109.358-.157.607-.096.496-.14 1.16.078 1.872l.059-.018a3.804 3.804 0 0 1-.077-1.843 5.04 5.04 0 0 1 .189-.7l.026-.08.017-.059a.13.13 0 0 0 .006-.042l-.061.007Z" fill="#322689" mask="url(#c)"/><path d="M289.165 28.834a24.717 24.717 0 0 1-.296-.789 34.066 34.066 0 0 0-.206-.556c-.167-.437-.343-.873-.585-1.252-.242-.38-.544-.71-.889-.905a1.794 1.794 0 0 0-.55-.204.804.804 0 0 0-.437.026.534.534 0 0 0-.264.236.608.608 0 0 0-.056.392c.023.148.107.316.224.482.118.175.266.33.449.514l.082.085h.001v.001a.42.42 0 0 1 .071.082h.001c.007.01.022.031.034.051.007.015.019.035.026.052l.001.002.005.013.002.005.007.022h.001c.006.014.009.03.013.046l2.366 1.697Zm0 0 .008.018a.249.249 0 0 0 .311.133.233.233 0 0 0 .15-.186c.128-1.034-.128-2.044-.652-3.009-.268-.475-.632-.957-1.182-1.304a2.869 2.869 0 0 0-.922-.376 2.192 2.192 0 0 0-.556-.05 1.784 1.784 0 0 0-.591.123 1.59 1.59 0 0 0-.513.315c-.146.133-.258.29-.343.455a1.47 1.47 0 0 0-.108 1.04v.001c.169.62.599 1.03.978 1.352l.016-.06.023-.086v-.011l.004-.02v-.012h.001l.004-.01.03.006V27.17h-.001l-.007.034V27.262l.003.03.012.052c.002.01.004.018.007.024l.001.005.002.004.001.003.001.004c.003.012.01.027.016.036l.003.003a.06.06 0 0 0 .008.016l.005.008.002.002.002.002.009.013.002.003.002.005s.002.003.001.008c0 .002-.002.006-.006.01-.003.002-.008.003-.01.003a.014.014 0 0 1-.007-.002l-.002-.002-.004-.003-.054-.045m3.356 1.394-3.356-1.394m-.119.232.016.002c-.047.26-.066.524-.055.788.027.514.175 1.027.483 1.445.043-.5.117-.95.238-1.385.063-.223.133-.439.215-.654l-.951.594c-.012-.264.008-.53.054-.79Zm0 0c.018-.094.037-.19.06-.282l.013.01m-.073.272.016.002c.016-.09.035-.183.057-.273m0 0 .046.039m-.046-.04.046.04m.142-2.042a.521.521 0 0 1 .257-.23.786.786 0 0 1 .428-.024c.175.031.382.106.545.2.343.195.643.523.884.901s.416.812.584 1.25c.069.182.137.368.205.555.096.263.192.528.297.79l-3.2-3.442Zm-.18 1.97.018-.067.011.049.015-.003-.044.02Z" fill="#322689" stroke="#322689" stroke-width=".031"/><path d="M295.938 32.497s-.062 6.966-4.963 8.562" stroke="#322689" stroke-width=".612" stroke-miterlimit="10" stroke-linecap="round" stroke-linejoin="round"/><path d="M281.508 26.82c.298.21.624.34.935.446.138.047.275.089.41.13l.052.016c.152.047.302.094.449.147m-1.846-.74 1.841.755m-1.841-.754a2.266 2.266 0 0 1-.707-.819l.936-.279c.04.218.127.427.284.618.157.197.384.374.642.537m-1.155-.057 1.155.057m.691.682-.005.015m.005-.015-.005.015m.005-.015c.253.09.501.202.724.357m-.729-.342c.269.095.533.216.766.388a1.271 1.271 0 0 0-.037-.046m0 0a3.056 3.056 0 0 0-.617-.538 9.363 9.363 0 0 0-.449-.284c-.119-.072-.237-.144-.349-.217m1.415 1.04c.016.01.032.022.048.034a2.955 2.955 0 0 0-.657-.586c-.147-.1-.3-.193-.449-.284-.119-.072-.237-.144-.349-.217l-.008.013M282.387 29.138h.001c.191.1.359.244.464.407a1.171 1.171 0 0 0-.548-.217c-.148-.026-.3-.034-.457-.043-.08-.005-.162-.01-.245-.017a3.605 3.605 0 0 1-.771-.14 3.224 3.224 0 0 1-.727-.334l.674-.65c.111.141.241.275.393.393.161.12.345.22.556.309.069.03.141.06.215.09.146.06.298.122.445.202ZM280.513 31.169c-.276.038-.537.005-.803-.036l.23-.628c.182.076.373.155.569.175.196.025.405.018.595-.05.189-.068.367-.193.486-.366a.808.808 0 0 0 .146-.508.836.836 0 0 1 .002.565c-.073.223-.23.432-.453.582-.22.15-.497.234-.772.266Z" fill="#322689" stroke="#322689" stroke-width=".031"/><path d="M271.129 57.903c-.262-.386-.353-.848-.331-1.317.689 1.025 2.04 1.747 3.459 2.163 1.438.422 2.949.53 3.919.322 2.035-.44 3.544-1.816 4.707-3.119a36.322 36.322 0 0 0 .901-1.056c.216-.26.418-.503.607-.718.216-.245.415-.453.601-.61.187-.157.358-.26.518-.298.729-.17 1.607-.119 2.565.017.479.068.977.156 1.486.248l.117.02c.471.086.951.172 1.433.246 2.081.32 4.195.411 5.77-.855l2.868 1.9-1.308 2.916-.013-.005-.076-.027-.292-.104a78.947 78.947 0 0 0-4.542-1.45c-1.34-.382-2.784-.748-4.104-.985-1.32-.238-2.517-.348-3.361-.218l-.001-.006-.009.013c-1.048 1.513-2.276 2.857-3.528 3.844-1.253.987-2.528 1.617-3.67 1.706-1.313.104-2.936-.096-4.384-.552-1.449-.456-2.72-1.165-3.332-2.075Z" fill="#E4E4E3" stroke="#322689" stroke-width=".031"/><path d="M286.303 55.44a19.966 19.966 0 0 1-1.871 2.268c-.751.776-1.567 1.502-2.512 2.116-.47.307-.975.582-1.523.8a5.98 5.98 0 0 1-.858.268c-.151.035-.303.06-.458.08-.065.01-.133.016-.197.022l-.036.003-.221.014c-1.17.057-2.317-.08-3.433-.338a12.708 12.708 0 0 1-1.641-.505 8.746 8.746 0 0 1-1.542-.771c-.482-.317-.943-.694-1.292-1.186a2.301 2.301 0 0 1-.383-.842 3.03 3.03 0 0 1-.062-.871c.046-.57.217-1.114.523-1.624a2.74 2.74 0 0 1 .267-.373c.105-.119.229-.238.36-.34.267-.2.557-.34.852-.446l14.027 1.726Zm0 0a4.055 4.055 0 0 0-.184.023l-.01-.028.346-.208.021.022-.109.155m-5.965 5.234a8.674 8.674 0 0 0 1.526-.801c.946-.615 1.764-1.342 2.515-2.119a19.911 19.911 0 0 0 1.88-2.28l-5.921 5.2Z" fill="#322689" stroke="#322689" stroke-width=".031"/><path d="M282.237 45.27c3.71.057 5.025 6.087 3.636 9.985" stroke="#322689" stroke-width=".765" stroke-miterlimit="10" stroke-linecap="round" stroke-linejoin="round"/><mask id="d" fill="#fff"><path d="M298.621 58.847s9.05 9.434 14.496 9.162c6.664-.335 19.342-16.35 18.182-22.879-.744-4.18-12.156-9.783-19.385-10.874"/></mask><path d="M298.621 58.847s9.05 9.434 14.496 9.162c6.664-.335 19.342-16.35 18.182-22.879-.744-4.18-12.156-9.783-19.385-10.874" fill="#fff"/><path d="m313.117 68.009.002.03-.002-.03Zm18.182-22.879.03-.005-.03.005Zm-32.678 13.717-.022.021h.001l.001.002.005.005.02.02.077.08.296.299c.259.257.634.625 1.101 1.065.934.88 2.236 2.052 3.708 3.215 1.473 1.163 3.116 2.318 4.733 3.165 1.615.847 3.208 1.389 4.578 1.32l-.003-.06c-1.354.067-2.934-.469-4.547-1.314-1.612-.845-3.252-1.998-4.723-3.16a56.946 56.946 0 0 1-5.1-4.574l-.076-.078-.02-.02-.005-.005-.001-.002-.023.021Zm14.498 9.193c1.675-.085 3.724-1.154 5.832-2.805 2.11-1.652 4.285-3.892 6.215-6.324 1.93-2.432 3.615-5.059 4.746-7.486 1.13-2.426 1.709-4.658 1.417-6.3l-.06.01c.288 1.623-.283 3.84-1.412 6.264-1.129 2.422-2.812 5.045-4.739 7.474-1.928 2.43-4.099 4.665-6.205 6.314-2.106 1.65-4.141 2.708-5.797 2.791l.003.062Zm18.21-22.915c-.188-1.056-1.047-2.196-2.336-3.327-1.29-1.132-3.014-2.26-4.94-3.29-3.852-2.061-8.516-3.736-12.134-4.282l-.009.06c3.61.545 8.267 2.218 12.114 4.276 1.923 1.03 3.643 2.154 4.929 3.282 1.286 1.13 2.132 2.258 2.316 3.292l.06-.01Z" fill="#322689" mask="url(#d)"/><path d="m298.659 58.863-.019-.019 13.287-24.571c4.605.697 10.902 3.223 15.058 6.044 1.183.804 2.192 1.632 2.939 2.447.747.814 1.23 1.616 1.364 2.37.211 1.19-.039 2.698-.631 4.372s-1.526 3.51-2.68 5.358c-2.307 3.694-5.494 7.425-8.587 9.963-2.273 1.86-4.492 3.079-6.274 3.167-1.357.067-2.941-.47-4.554-1.316-1.613-.845-3.254-1.998-4.725-3.16a57.088 57.088 0 0 1-5.102-4.576l-.076-.079Z" fill="#fff" stroke="#322689" stroke-width=".031"/><path d="M319.378 64.837c-2.269 1.854-4.483 3.069-6.262 3.157-1.357.067-2.941-.47-4.554-1.316-1.613-.845-3.254-1.998-4.725-3.16a57.088 57.088 0 0 1-5.102-4.576l-.076-.079-.019-.019 13.283-24.571c4.604.697 10.899 3.221 15.055 6.042.665 1.32.596 3 .091 4.841-.504 1.843-1.443 3.845-2.513 5.808-.908 1.666-1.91 3.302-2.819 4.788l-.478.781c-1.025 1.683-1.878 3.128-2.251 4.134-.4 1.077-.461 1.942-.344 2.628a3.15 3.15 0 0 0 .714 1.542Z" fill="#E4E4E3" stroke="#322689" stroke-width=".031"/><path d="M298.621 58.847s9.05 9.434 14.496 9.162c6.664-.335 19.342-16.35 18.182-22.879-.744-4.18-12.156-9.783-19.385-10.874" stroke="#322689" stroke-width=".765" stroke-miterlimit="10" stroke-linecap="round"/><path d="M319.419 57.442c.117-.067.274-.089.453-.077.178.012.375.057.57.122.389.13.764.336.951.503v.001l.005.006.017.021a14.839 14.839 0 0 1 .296.39c.191.256.444.61.695.994.25.384.496.8.674 1.18.178.382.285.727.259.973-.037.342-.273.842-.637 1.4a12.52 12.52 0 0 1-1.4 1.744c-.544.571-1.141 1.098-1.718 1.48-.577.384-1.131.62-1.59.615-.91-.012-1.767-.403-2.43-.983-.664-.581-1.133-1.35-1.268-2.118l-.015.003.015-.003a.524.524 0 0 1 .015-.205 1.7 1.7 0 0 1 .1-.283c.092-.212.235-.466.416-.749.361-.565.873-1.242 1.435-1.917a27.79 27.79 0 0 1 1.733-1.901c.56-.555 1.068-.991 1.424-1.196Z" fill="#fff" stroke="#322689" stroke-width=".031"/><path d="M314.296 63.691a.547.547 0 0 1 .018-.219c.023-.088.061-.19.113-.305.103-.228.262-.503.462-.808.4-.61.961-1.339 1.564-2.052a26.765 26.765 0 0 1 1.636-1.764c.523-.51.995-.91 1.33-1.103.117-.067.274-.089.453-.077.178.012.376.057.57.122.389.13.764.336.951.503l.001.001.004.006.017.021a14.1 14.1 0 0 1 .296.39c.191.256.445.61.695.994.25.384.496.8.674 1.18.178.382.285.727.259.973-.032.296-.213.712-.499 1.182-.285.47-.673.992-1.116 1.502-.887 1.019-1.991 1.984-2.93 2.373-.287.12-.557.186-.8.183-.91-.013-1.767-.404-2.43-.984-.664-.581-1.133-1.35-1.268-2.118Z" fill="#fff" stroke="#322689" stroke-width=".031"/><path d="M314.296 63.688a.547.547 0 0 1 .018-.218c.023-.089.061-.19.113-.305.103-.229.262-.504.462-.808.395-.602.946-1.319 1.54-2.021.008.117-.012.255-.065.424-.097.305-.143.549-.148.742-.006.193.03.337.096.44.132.206.384.241.656.2.272-.043.569-.162.803-.274.147-.07.27-.137.344-.18-.161.196-.617.78-.971 1.48-.213.421-.39.884-.442 1.33-.053.445.019.875.303 1.226.496.614 1.156.84 1.732.906a1.977 1.977 0 0 1-.743.16c-.91-.013-1.767-.404-2.43-.984-.664-.58-1.133-1.35-1.268-2.117Z" fill="#E4E4E3" stroke="#322689" stroke-width=".031"/><path d="M323.354 61.556c.105-.999-1.95-3.576-1.95-3.576-.378-.34-1.51-.83-1.993-.551-1.429.823-5.29 5.356-5.13 6.267.272 1.543 1.884 3.09 3.713 3.114 1.853.021 5.212-3.87 5.36-5.254Z" stroke="#322689" stroke-width=".765" stroke-miterlimit="10" stroke-linecap="round"/><path d="M320.121 59.928c-.275.242-.559.476-.842.71a39.1 39.1 0 0 0-.756.634c-.603.515-1.191 1.052-1.715 1.647-.265.3-.513.614-.723.962-.205.349-.383.735-.434 1.176a1.169 1.169 0 0 1-.007.085l-.001.004-.007.076.008.172c0 .087.022.171.044.258l.022.085a.397.397 0 0 0 .027.083l.016.035.022.049.032.07.005.013a.716.716 0 0 0 .04.081l.101.151.05.078c.019.024.038.044.057.065.317.369.732.608 1.14.798a.517.517 0 0 0 .665-.198c.123-.22.027-.49-.219-.603l2.475-6.43Zm0 0c-.174.188-.355.37-.534.552a7.576 7.576 0 0 0-.085.085l.619-.637Zm-3.401 5.934c.216.203.529.355.868.472l-.868-.472Z" fill="#322689" stroke="#322689" stroke-width=".031"/><path d="M298.016 58.032c-1.853-.997-3.305-2.402-3.894-4.628l1.12-5.482c.705-1.922 2.091-2.837 3.655-3.87l.179-.118c1.636-1.082 3.44-2.335 4.837-5.019h.001v-.003l-.014-.004.014.004h.001v-.003l.003-.01.011-.036c.01-.032.026-.079.048-.14.046-.12.118-.292.226-.5a6.134 6.134 0 0 1 1.15-1.537c1.148-1.129 3.156-2.29 6.593-2.416 3.44-.122 6.323 1.357 8.346 2.868a18.524 18.524 0 0 1 2.352 2.092 14.795 14.795 0 0 1 .78.89l.041.05.01.014.001.005.001.025.006.1a30.976 30.976 0 0 1 .028 1.804 35.653 35.653 0 0 1-.374 4.696c-.547 3.678-1.848 8.072-4.865 10.947l.01.011-.01-.01c-.972.927-2.433 2.093-4.664 2.75-2.232.659-5.236.809-9.296-.297l-.287-.078c-2.097-.57-4.236-1.15-6.009-2.105Z" fill="#fff" stroke="#322689" stroke-width=".031"/><path d="m303.904 38.916.015.004.001-.003.002-.009.011-.037c.011-.032.026-.079.049-.139.045-.12.117-.293.225-.5a6.101 6.101 0 0 1 1.149-1.539c1.147-1.13 3.155-2.291 6.594-2.415 3.437-.123 6.318 1.355 8.342 2.865a18.588 18.588 0 0 1 2.352 2.092 15.602 15.602 0 0 1 .781.89l.04.05.01.014h.001v.005l.002.025.006.1c.004.088.01.218.015.385.011.335.02.82.012 1.419a35.854 35.854 0 0 1-.375 4.696c-.548 3.677-1.849 8.071-4.864 10.947-.972.926-2.432 2.092-4.664 2.75-2.232.659-5.236.81-9.295-.297a347.45 347.45 0 0 1-.306-.083c-2.091-.569-4.221-1.149-5.988-2.1-1.852-.997-3.304-2.4-3.893-4.627l1.12-5.478c.031-.081.062-.161.097-.238.707-1.712 1.983-2.592 3.428-3.545.043-.03.086-.058.13-.087 1.68-1.11 3.565-2.356 5.017-5.138l.001-.003-.015-.004Z" fill="#fff" stroke="#322689" stroke-width=".031"/><path d="m303.904 38.916.015.004.001-.003.002-.009.011-.037c.011-.032.026-.079.049-.139.045-.12.117-.293.225-.5a6.101 6.101 0 0 1 1.149-1.539c1.147-1.13 3.155-2.291 6.594-2.415 3.437-.123 6.318 1.355 8.342 2.865a18.588 18.588 0 0 1 2.352 2.092 15.602 15.602 0 0 1 .781.89l.04.05.01.014h.001l.001.01.002.043.009.166c.007.146.015.36.021.632.011.544.011 1.323-.033 2.26-.087 1.875-.349 4.382-1.047 6.914-.747 2.703-1.987 5.43-4.044 7.443a1.937 1.937 0 0 0-.056.054h-.001a1.277 1.277 0 0 1-.055.055h-.001c-.972.926-2.432 2.092-4.664 2.75-2.232.659-5.236.81-9.295-.297a347.45 347.45 0 0 1-.306-.083c-2.091-.569-4.221-1.149-5.988-2.1-1.852-.997-3.304-2.4-3.893-4.627l1.12-5.478c.031-.081.062-.161.097-.238.707-1.712 1.983-2.592 3.428-3.545.043-.03.086-.058.13-.087 1.68-1.11 3.565-2.356 5.017-5.138l.001-.003-.015-.004Z" fill="#fff" stroke="#322689" stroke-width=".031"/><path d="m303.904 38.916.015.004.001-.003.002-.009.011-.037c.011-.032.026-.079.049-.139.045-.12.117-.293.225-.5a6.101 6.101 0 0 1 1.149-1.539c1.147-1.13 3.155-2.291 6.594-2.415 3.437-.123 6.318 1.355 8.342 2.865a18.588 18.588 0 0 1 2.352 2.092 15.602 15.602 0 0 1 .781.89l.04.05.01.014h.001l.001.01.002.043.009.166c.007.146.015.36.021.632.011.544.011 1.323-.033 2.26-.087 1.875-.349 4.382-1.047 6.914-.747 2.703-1.987 5.43-4.044 7.443a1.937 1.937 0 0 0-.056.054h-.001a1.277 1.277 0 0 1-.055.055h-.001c-.972.926-2.432 2.092-4.664 2.75-2.232.659-5.236.81-9.295-.297a347.45 347.45 0 0 1-.306-.083c-2.091-.569-4.221-1.149-5.988-2.1-1.852-.997-3.304-2.4-3.893-4.627l1.12-5.478c.031-.081.062-.161.097-.238.707-1.712 1.983-2.592 3.428-3.545.043-.03.086-.058.13-.087 1.68-1.11 3.565-2.356 5.017-5.138l.001-.003-.015-.004Z" fill="#fff" stroke="#322689" stroke-width=".031"/><path d="m303.904 38.916.015.004.001-.003.002-.009.011-.037c.011-.032.026-.079.049-.139.045-.12.117-.293.225-.5a6.101 6.101 0 0 1 1.149-1.539c1.147-1.13 3.155-2.291 6.594-2.415 3.437-.123 6.318 1.355 8.342 2.865a18.588 18.588 0 0 1 2.352 2.092 15.602 15.602 0 0 1 .781.89l.04.05.01.014h.001l.001.01.002.043.009.166c.007.146.015.36.021.632.011.544.011 1.323-.033 2.26-.087 1.875-.349 4.382-1.047 6.914-.747 2.703-1.987 5.43-4.044 7.443a1.937 1.937 0 0 0-.056.054h-.001a1.277 1.277 0 0 1-.055.055h-.001c-.972.926-2.432 2.092-4.664 2.75-2.232.659-5.236.81-9.295-.297a347.45 347.45 0 0 1-.306-.083c-2.091-.569-4.221-1.149-5.988-2.1-1.852-.997-3.304-2.4-3.893-4.627l1.12-5.478c.031-.081.062-.161.097-.238.707-1.712 1.983-2.592 3.428-3.545.043-.03.086-.058.13-.087 1.68-1.11 3.565-2.356 5.017-5.138l.001-.003-.015-.004Z" fill="#fff" stroke="#322689" stroke-width=".031"/><path d="m303.912 38.916.015.004.001-.003.002-.009.011-.037a4.332 4.332 0 0 1 .273-.64 6.15 6.15 0 0 1 1.149-1.538c1.148-1.13 3.156-2.291 6.595-2.415 3.438-.123 6.32 1.355 8.343 2.865a18.596 18.596 0 0 1 2.352 2.092 16.108 16.108 0 0 1 .78.89.93.93 0 0 0 .027.033l.013.018.01.013h.001v.01l.003.043.009.166c.007.146.015.36.02.632.011.544.011 1.323-.032 2.26-.087 1.875-.349 4.382-1.047 6.914-.747 2.703-1.988 5.43-4.044 7.443l-.01.01c-.035.035-.067.067-.103.099l-.104.096-.001.001-.109.1c-1.007.923-2.486 2.02-4.692 2.62-2.206.6-5.14.704-9.057-.363-.24-.063-.478-.129-.717-.195l-.167-.045c-2.049-.562-4.102-1.166-5.779-2.15-1.676-.983-2.978-2.344-3.528-4.42l1.128-5.48c.027-.08.058-.16.093-.237.706-1.712 1.987-2.592 3.427-3.545l.123-.082c1.686-1.112 3.575-2.357 5.028-5.142h.001l.001-.004-.015-.004Z" fill="#fff" stroke="#322689" stroke-width=".031"/><path d="m321.285 49.875.002-.005.009.002.065.021.24.077.787.254c-.746 2.695-1.984 5.411-4.031 7.42-1.421-.951-3.476-2.34-4.896-3.354-.711-.509-1.262-.922-1.494-1.138a.609.609 0 0 1-.108-.12c-.004-.007-.005-.011-.006-.015v-.002h.001a.04.04 0 0 1 .014-.002.633.633 0 0 1 .168.051c.084.034.195.085.337.154 1.613.795 2.977.983 4.117.817 1.14-.166 2.053-.686 2.765-1.305a7.762 7.762 0 0 0 1.552-1.901c.165-.282.287-.525.367-.698.04-.086.069-.155.089-.202l.022-.054ZM306.399 49.909l-6.706 2.65-.004-.003-.031-.015a10.169 10.169 0 0 1-.539-.31c-.353-.217-.831-.54-1.333-.958-1.003-.836-2.099-2.056-2.476-3.594.705-1.7 1.981-2.58 3.42-3.534l7.669 5.764Z" fill="#E4E4E3" stroke="#322689" stroke-width=".031"/><path d="M322.998 40.206h-.001c.027.442.035.908.039 1.364 0 .46-.008.918-.023 1.378a35.418 35.418 0 0 1-.211 2.744c-.21 1.823-.564 3.635-1.129 5.384l-.015-.005.015.005c-.565 1.745-1.344 3.438-2.455 4.922a11.988 11.988 0 0 1-1.921 2.026 10.69 10.69 0 0 1-2.382 1.527c-.865.404-1.797.68-2.755.849h-.001c-.479.081-.966.134-1.457.166l12.296-20.36Zm0 0-.002-.004-.003-.008c-.01-.244.196-.456.468-.47.274-.013.507.18.522.424.027.483.038.946.038 1.419a35.74 35.74 0 0 1-.237 4.217c-.214 1.867-.58 3.73-1.163 5.544a20.164 20.164 0 0 1-1.07 2.67c-.424.868-.921 1.711-1.516 2.505a13.17 13.17 0 0 1-2.069 2.179 11.744 11.744 0 0 1-2.604 1.668 12.14 12.14 0 0 1-3.021.93c-.525.089-1.05.145-1.578.18-.529.029-1.058.036-1.583.014a20.708 20.708 0 0 1-3.112-.373l-.381-.075-.377-.084-.378-.085-.377-.095-.378-.092-.366-.095-.735-.19 19.922-20.179Zm.801 5.58c-.214 1.867-.58 3.731-1.164 5.546a20.06 20.06 0 0 1-1.07 2.673 15.462 15.462 0 0 1-1.518 2.507 13.186 13.186 0 0 1-2.071 2.182 11.745 11.745 0 0 1-2.608 1.67l8.431-14.578Zm0 0c.109-.936.179-1.872.214-2.81l-.214 2.81ZM306.28 60.223c.974.188 1.959.322 2.945.354l-6.149-.193c-.985-.258-1.973-.533-2.934-.903a17.717 17.717 0 0 1-1.415-.618c-.463-.229-.918-.476-1.345-.758-.859-.557-1.632-1.247-2.195-2.061a6.345 6.345 0 0 1-1.035-2.494 7.44 7.44 0 0 0 1.396 2.259c.632.697 1.412 1.252 2.262 1.705.425.222.865.427 1.317.608.452.18.919.339 1.387.494.905.297 1.828.567 2.758.839l.103.03.728.208c.245.071.487.138.724.202l.362.095h.001l.362.081.362.082.366.07ZM295.438 47.578l-.091.14-.017.026a3.2 3.2 0 0 1-.074.113c.072-.489.243-.973.5-1.428.26-.475.609-.912 1.005-1.3.666-.654 1.433-1.17 2.176-1.67l.434-.294c.88-.594 1.71-1.209 2.458-1.919a18.03 18.03 0 0 0 1.079-1.117c.24-.268.468-.549.7-.833.087-.106.174-.214.263-.321a6.792 6.792 0 0 1-.237.661v.001a6.822 6.822 0 0 1-.317.68l-.017.035a9.134 9.134 0 0 1-.89 1.336c-.68.85-1.539 1.575-2.445 2.193a34.257 34.257 0 0 1-1.362.884c-.451.286-.892.57-1.305.878a8.319 8.319 0 0 0-1.271 1.166l-.025.03-.1.116a5.952 5.952 0 0 0-.137.174 4.943 4.943 0 0 1-.101.13l-.226.319Z" fill="#322689" stroke="#322689" stroke-width=".031"/><path d="M289.458 64.775c.164-.326.417-.505.715-.583.298-.077.643-.054.989.027.694.161 1.391.55 1.734.798.167.12.266.357.298.661.033.304-.001.67-.096 1.047-.19.754-.624 1.54-1.256 1.927-.581.354-1.102.313-1.501.144-.4-.17-.677-.468-.766-.625-.106-.187-.301-.709-.387-1.348-.085-.64-.061-1.394.27-2.048Z" fill="#E4E4E3" stroke="#322689" stroke-width=".031"/><path d="M291.047 57.193c-1.758 1.229-2.653 3.267-3.05 5.428-.397 2.161-.295 4.444-.061 6.159l.002.015-.005-.004c-.092.124-.2.263-.317.414-.569.734-1.372 1.769-1.75 2.841-.229.647-.302 1.305-.078 1.918.223.613.744 1.184 1.711 1.653 2.25.985 4.107.85 5.652-.102 1.546-.953 2.782-2.724 3.786-5.016v-.001c.498-.989.944-2.506 1.325-3.833l.063-.22c.166-.578.318-1.11.456-1.533.078-.239.151-.443.22-.6l-7.954-7.12Zm0 0c1.403-.982 3.281-1.556 4.809-1.884a23.235 23.235 0 0 1 2.496-.394l.154-.014.04-.003h.012l20.238 2.358c-4.192 4.67-8.752 6.043-12.432 6.402-1.718.168-3.243.114-4.451.072a366.44 366.44 0 0 0-.261-.009c-.623-.021-1.152-.034-1.568-.003-.414.031-.719.106-.89.265l-8.147-6.79Z" fill="#fff" stroke="#322689" stroke-width=".031"/><path d="M289.491 67.97c-.126-.428-.239-1.364-.11-2.168.064-.402.189-.769.401-1.023.211-.252.51-.394.926-.346.412.05.754.29 1.025.635.271.345.468.793.591 1.255.123.461.171.935.142 1.33a2.006 2.006 0 0 1-.1.522.754.754 0 0 1-.214.334c-.367.296-.971.374-1.516.27-.545-.104-1.023-.39-1.145-.81ZM298.489 61.11c.316 1.846.297 3.25.157 4.276.107-.355.206-.665.298-.905.048-.124.093-.23.137-.313a.688.688 0 0 1 .126-.185l.011.01c.355-.33 1.322-.297 2.709-.248 3.651.127 10.213.355 16.177-5.718l-19.615 3.083Zm0 0a.475.475 0 0 1 .017-.246.45.45 0 0 1 .138-.187c.13-.109.333-.185.592-.241.444-.096 1.045-.13 1.708-.168l.338-.02c.794-.047 1.648-.114 2.405-.304.758-.19 1.421-.505 1.829-1.05.401-.532.465-1.077.257-1.636-.208-.557-.686-1.126-1.368-1.707-1.116-.955-2.769-1.945-4.686-2.98 1.071-1.461 3.057-3.007 6.589-2.656 1.82.18 3.791 1.19 5.681 2.544 1.89 1.354 3.697 3.051 5.189 4.604.316.328.62.653.905.964l-19.594 3.083Z" fill="#E4E4E3" stroke="#322689" stroke-width=".031"/><path d="M304.307 60.215h-.001a61.719 61.719 0 0 1-.715-.193l-.107-.03c.848-.182 1.597-.504 2.049-1.098.364-.483.449-.979.304-1.485-.144-.505-.518-1.02-1.068-1.545-1.098-1.048-2.907-2.144-5.033-3.293 1.07-1.461 3.057-3.007 6.589-2.656 2.004.199 4.191 1.402 6.25 2.963 2.055 1.557 3.981 3.469 5.47 5.092-1.005.92-2.481 2.011-4.68 2.61-2.206.6-5.141.703-9.058-.364Z" fill="#E4E4E3" stroke="#322689" stroke-width=".031"/><path d="M288.759 58.876a9.539 9.539 0 0 0-1.049 2.411 13.739 13.739 0 0 0-.463 2.515 17.362 17.362 0 0 0-.058 2.525c.032.77.11 1.537.231 2.298l.088-.117.027.013-.082.318-.03-.002a6.5 6.5 0 0 1-.022-.137l-.223.29c-.185.239-.375.484-.556.736-.3.417-.587.847-.832 1.308a5.528 5.528 0 0 0-.559 1.486c-.105.531-.097 1.121.127 1.665.217.547.631 1.008 1.097 1.346.236.172.477.313.737.447.268.13.52.225.785.32a7.933 7.933 0 0 0 1.651.402l-.002.015.002-.015c.571.074 1.165.07 1.747-.025a5.658 5.658 0 0 0 1.65-.542c.508-.26.967-.585 1.375-.944.815-.722 1.441-1.568 1.97-2.443.264-.437.502-.885.723-1.34l.164-.343.151-.335a1.36 1.36 0 0 1 .053-.11l.025-.053h.001l.081-.176c.055-.116.105-.236.152-.352.381-.939.661-1.884.937-2.824l.405-1.405.056-.186c.05-.17.1-.338.154-.506h.001a7.43 7.43 0 0 1 .233-.65m-10.747-5.59 13.187 5.316-.145-.005a23.133 23.133 0 0 0-1.412-.02c-.246.007-.491.029-.654.078l-.004-.015c-.044.011-.076.026-.1.036a.168.168 0 0 0-.018.01h-.004l-.004.002-.004.002-.002.003-.008.008.002.002a1.33 1.33 0 0 0-.087.173m-10.747-5.59a7.4 7.4 0 0 1 .824-1.092c.31-.338.668-.652 1.056-.927.777-.535 1.628-.927 2.507-1.223.878-.292 1.78-.49 2.69-.614a14.738 14.738 0 0 1 2.635-.132m-9.712 3.988-.312 9.84m11.059-4.25.015.005-.015-.006Zm-8.171-6.844c.642-.484 1.401-.873 2.191-1.204 1.553-.647 3.255-1.114 5-1.527a6.707 6.707 0 0 0-.055-.003m-7.136 2.733 7.19-2.746-.054.013m-7.136 2.733a6.082 6.082 0 0 0-1.55 1.755c-.4.675-.688 1.416-.906 2.175l2.456-3.93Zm7.136-2.733c-1.727.41-3.412.875-4.951 1.515-.791.333-1.551.721-2.195 1.206a6.108 6.108 0 0 0-1.553 1.76c-.401.675-.69 1.418-.908 2.178a14.47 14.47 0 0 0-.441 2.347c-.167 1.593-.136 3.215.024 4.822m0 0v.07a.409.409 0 0 1-.079.237c-.117.155-.233.306-.348.455-.191.247-.378.489-.555.735-.285.396-.55.796-.768 1.206a4.58 4.58 0 0 0-.473 1.254c-.082.422-.066.835.083 1.202.149.37.428.69.791.957.18.13.387.255.59.358h.001c.199.095.441.187.67.272h.001c.928.333 1.923.489 2.86.333.938-.153 1.797-.613 2.507-1.247.71-.633 1.295-1.411 1.79-2.231.249-.41.475-.834.685-1.269l.156-.325.152-.335c.017-.042.038-.085.059-.127l.023-.046.074-.159c.035-.075.067-.152.1-.229l.04-.096c.359-.88.635-1.81.908-2.742l.404-1.409c.067-.236.137-.469.214-.709.078-.24.156-.476.265-.73.027-.063.058-.13.096-.2l-.013-.007m-10.233 4.782 9.657-3.14c.066-.236.136-.47.214-.71a8.26 8.26 0 0 1 .264-.73c.028-.064.059-.131.098-.202m0 0 .015-.027c.037-.066.077-.136.179-.241m-.194.268.013.008a.367.367 0 0 1 .016-.027c.037-.066.075-.134.176-.238m-.011-.011.011.011m-.011-.011c.187-.173.386-.247.557-.3l-.557.3Zm.011.011c.184-.17.38-.244.55-.296m-.55.296.55-.296m0 0c.326-.091.606-.105.882-.118l-.882.118Zm-11.949 5.207-.044.173a3.08 3.08 0 0 1-.016-.094l.06-.08Zm14.502-5.302c1.063.039 2.11.063 3.15.014l-3.373-.037.223.008v.015Z" fill="#322689" stroke="#322689" stroke-width=".031"/><path d="M289.852 58.293c2.807-.953 8.276-.515 9.218 6.016" stroke="#322689" stroke-width=".765" stroke-miterlimit="10" stroke-linecap="round" stroke-linejoin="round"/><path d="M296.859 43.805c.568-.603 1.401-.617 2.096-.477a5.118 5.118 0 0 1 1.148.383l.072.035.007.004-2.566 2.947-.013-.008a4.201 4.201 0 0 1-.289-.234 3.52 3.52 0 0 1-.585-.66c-.182-.273-.319-.59-.327-.929-.008-.338.115-.699.457-1.06Z" fill="#fff" stroke="#322689" stroke-width=".031"/><path d="M300.207 43.745s-2.211-1.168-3.359.05c-1.378 1.458.77 2.923.77 2.923l2.589-2.973Z" stroke="#322689" stroke-width=".765" stroke-miterlimit="10" stroke-linecap="round"/><mask id="e" fill="#fff"><path d="M296.889 46.582s-.097 2.49.218 2.747c.693.572 7.583 4.569 8.871 5.222 1.974 1 3.359-.943 4.488-2.362 1.199-1.508 2.421-2.853 2.273-3.404-.171-.65-1.623-2.506-1.623-2.506"/></mask><path d="M296.889 46.582s-.097 2.49.218 2.747c.693.572 7.583 4.569 8.871 5.222 1.974 1 3.359-.943 4.488-2.362 1.199-1.508 2.421-2.853 2.273-3.404-.171-.65-1.623-2.506-1.623-2.506" fill="#fff"/><path d="m297.107 49.33.02-.024-.02.023Zm8.871 5.22-.014.028.014-.027Zm4.488-2.361.024.02-.024-.02Zm2.273-3.404-.029.008.029-.008Zm-15.85-2.203h-.03v.001l-.001.005v.021a3.408 3.408 0 0 0-.003.08l-.007.286c-.004.237-.006.557.001.885.008.327.025.664.061.935.018.136.04.256.068.35a.434.434 0 0 0 .11.208l.039-.048c-.032-.025-.063-.084-.09-.177a2.211 2.211 0 0 1-.066-.34 9.087 9.087 0 0 1-.06-.93 21.699 21.699 0 0 1 .008-1.247l.001-.02v-.007l-.031-.002Zm.199 2.77c.175.146.738.504 1.501.969.763.465 1.73 1.039 2.715 1.615 1.97 1.152 4.015 2.315 4.66 2.642l.028-.054c-.643-.327-2.687-1.488-4.657-2.64a187.74 187.74 0 0 1-2.715-1.616c-.764-.466-1.322-.821-1.493-.962l-.039.047Zm8.876 5.226c.499.253.962.32 1.394.255.431-.064.829-.26 1.199-.531.739-.541 1.37-1.386 1.933-2.094l-.048-.038c-.565.711-1.191 1.547-1.921 2.082-.365.267-.753.458-1.172.52-.418.063-.869-.001-1.357-.248l-.028.054Zm4.526-2.37c.599-.752 1.205-1.467 1.643-2.061a5.79 5.79 0 0 0 .51-.796c.113-.228.166-.424.126-.573l-.059.015c.034.126-.01.305-.122.531-.111.225-.287.49-.505.786-.436.593-1.04 1.305-1.641 2.06l.048.038Zm2.279-3.43c-.044-.167-.169-.409-.329-.674-.161-.267-.359-.56-.551-.833-.193-.273-.38-.526-.519-.71-.069-.093-.127-.168-.167-.22l-.046-.06-.012-.016-.003-.004h-.001v-.001l-.025.019-.024.019h.001l.003.005a14.245 14.245 0 0 1 1.291 1.833c.161.265.281.5.323.657l.059-.015Z" fill="#322689" mask="url(#e)"/><path d="M297.121 49.32c-.035-.028-.067-.091-.095-.184a2.264 2.264 0 0 1-.066-.343 9.13 9.13 0 0 1-.06-.93 21.723 21.723 0 0 1 .005-1.17l.003-.079v-.013l6.167-.13c1.815 1.125 5.353 2.878 7.049 3.718l.741.368c.015.008.031.021.048.04.018.02.036.044.054.072.034.053.069.117.104.183l.007.012c.037.069.075.138.113.192a.44.44 0 0 0 .056.07.183.183 0 0 0 .04.031l-.225.277a50.832 50.832 0 0 0-.777.969c-.52.657-1.093 1.383-1.751 1.865-.366.268-.757.46-1.179.523-.421.064-.875-.002-1.365-.25-.644-.327-2.688-1.489-4.658-2.641a182.33 182.33 0 0 1-2.715-1.615c-.764-.466-1.323-.822-1.496-.964Z" fill="#E8E8E8" stroke="#322689" stroke-width=".031"/><path d="M296.889 46.582s-.097 2.49.218 2.747c.693.572 7.583 4.569 8.871 5.222 1.974 1 3.359-.943 4.488-2.362 1.199-1.508 2.421-2.853 2.273-3.404-.171-.65-1.623-2.506-1.623-2.506" stroke="#322689" stroke-width=".765" stroke-miterlimit="10" stroke-linecap="round" stroke-linejoin="round"/><path d="M307.542 52.262c-.614.7-1.715.861-2.542.374l-.008.014.008-.014-7.252-4.268c-.992-.582-1.177-1.827-.394-2.628l3.355-3.418c.599-.609 1.588-.76 2.372-.36l7.353 3.756c1.035.53 1.3 1.771.56 2.614l-3.452 3.93Z" fill="#fff" stroke="#322689" stroke-width=".031"/><path d="m297.343 45.73 3.355-3.418c.604-.614 1.6-.766 2.39-.364l7.353 3.757c1.043.533 1.312 1.786.565 2.637l-3.453 3.93c-.619.706-1.728.868-2.561.378l-7.252-4.27c-1-.585-1.187-1.842-.397-2.65Z" stroke="#322689" stroke-width=".765" stroke-miterlimit="10" stroke-linecap="round" stroke-linejoin="round"/><path d="M305.633 49.549c.157.173.395.299.699.337.38.049.79-.042 1.146-.23.356-.186.656-.47.816-.803.2-.419.133-.817-.13-1.077a1.146 1.146 0 0 0-.664-.303l-1.867 2.076Zm0 0-.045-.055-.004-.006h.001l-.002-.002-.493-.597.073-.192.4-.24.002.001.004-.008c.297-.556.981-.956 1.641-.987l-1.577 2.086Z" fill="#3870B6" stroke="#322689" stroke-width=".031"/><path d="M308.307 48.859c-.323.674-1.21 1.14-1.977 1.041-.307-.038-.549-.166-.708-.342l-.047-.056-.004-.008-.498-.603.078-.205.404-.244c.3-.561.989-.964 1.655-.995l.475-.286.494.603c.265.265.331.671.128 1.095Z" stroke="#322689" stroke-width=".459" stroke-miterlimit="10" stroke-linecap="round" stroke-linejoin="round"/><path d="M306.96 46.821c.381.05.659.229.801.478.143.248.152.569-.007.902-.16.334-.46.617-.816.804a1.97 1.97 0 0 1-1.146.229c-.38-.049-.657-.229-.8-.477-.143-.25-.154-.57.006-.903.16-.334.46-.616.816-.804a1.969 1.969 0 0 1 1.146-.229Z" fill="#3BA1DA" stroke="#322689" stroke-width=".031"/><path d="M306.687 47.221c-.625-.081-1.32.206-1.741.674a.702.702 0 0 1 .02-.04h.001c.159-.334.459-.617.815-.805a1.97 1.97 0 0 1 1.146-.229c.382.05.659.229.802.478.143.248.152.569-.008.902-.038.08-.083.155-.136.229a.91.91 0 0 0-.105-.765c-.156-.233-.43-.397-.794-.444Zm0 0-.002.016.002-.016Zm-1.734.627a.77.77 0 0 0-.038.083l.038-.084Zm0 0c.323-.675 1.21-1.14 1.977-1.042l-1.977 1.041Z" fill="#fff" stroke="#322689" stroke-width=".031" opacity=".7"/><path d="M306.099 48.59c.63.08 1.336-.214 1.754-.69a1.254 1.254 0 0 1-.099.301c-.16.334-.46.617-.816.804a1.97 1.97 0 0 1-1.146.229c-.38-.049-.657-.229-.8-.477-.143-.25-.154-.57.006-.903.047-.093.102-.184.168-.27a.866.866 0 0 0 .205.647c.162.188.412.318.728.36Z" fill="#3870B6" stroke="#322689" stroke-width=".031"/><path d="M307.767 48.208c-.323.674-1.21 1.14-1.977 1.041-.767-.099-1.129-.727-.806-1.402.323-.674 1.211-1.14 1.978-1.041.77.099 1.128.727.805 1.402Z" stroke="#322689" stroke-width=".459" stroke-miterlimit="10" stroke-linecap="round" stroke-linejoin="round"/><path d="m300.027 49.724 2.087-2.14c.385-.395.537-.935.412-1.454a1.543 1.543 0 0 1 .401-1.444l1.818-1.893" stroke="#322689" stroke-width=".612" stroke-miterlimit="10" stroke-linecap="round" stroke-linejoin="round"/><path d="m311.876 50.456.004-.014-.006.014h.001l.003.002.011.004.043.018.164.072c.143.065.351.16.607.289.514.256 1.225.64 2.017 1.151 1.582 1.021 3.483 2.548 4.76 4.57.187.812.115 1.38-.095 1.778-.211.398-.562.627-.938.755a3.267 3.267 0 0 1-1.083.15 4.127 4.127 0 0 1-.481-.035l-.028-.005h-.003c-1.672-2.387-3.506-3.849-4.921-4.714a12.429 12.429 0 0 0-1.74-.891 8.036 8.036 0 0 0-.666-.24l-.006-.001h-.001l-.01-.014-.04-.053a3.153 3.153 0 0 1-.445-.863c-.174-.534-.197-1.201.4-1.743.386-.35.997-.409 1.516-.379a4.995 4.995 0 0 1 .864.13l.054.014.014.004.004.001h.001Z" fill="#fff" stroke="#322689" stroke-width=".031"/><mask id="f" fill="#fff"><path d="M309.212 52.906c.151.283.299.466.299.466s3.99 1.07 7.334 5.847c0 0 3.406.593 2.65-2.666a12.063 12.063 0 0 0-1.432-1.836c-2.651-2.835-6.181-4.275-6.181-4.275s-1.686-.477-2.468.233c-.802.727-.498 1.673-.202 2.231Z"/></mask><path d="M309.212 52.906c.151.283.299.466.299.466s3.99 1.07 7.334 5.847c0 0 3.406.593 2.65-2.666a12.063 12.063 0 0 0-1.432-1.836c-2.651-2.835-6.181-4.275-6.181-4.275s-1.686-.477-2.468.233c-.802.727-.498 1.673-.202 2.231Z" fill="#fff"/><path d="m309.212 52.906-.028.014.028-.014Zm.299.466-.024.02.007.007.009.003.008-.03Zm7.334 5.847-.025.017.007.01.012.003.006-.03Zm2.65-2.666.032-.007-.006-.01-.026.017Zm-1.432-1.836-.022.021.022-.02Zm-6.181-4.275.011-.029h-.003l-.008.029Zm-2.698 2.479c.077.142.153.26.209.342l.068.095.019.025c.003.002.004.005.005.006l.002.002.024-.019.024-.019-.001-.002-.005-.006-.019-.024a3.444 3.444 0 0 1-.271-.43l-.055.03Zm.327.451-.008.03h.003l.008.003.034.01c.03.009.074.022.131.042.115.038.284.098.496.185.425.175 1.027.457 1.733.888 1.412.863 3.242 2.322 4.912 4.706l.05-.035c-1.675-2.392-3.511-3.857-4.93-4.723a12.437 12.437 0 0 0-1.741-.892 8.118 8.118 0 0 0-.633-.23l-.035-.01-.009-.003h-.003l-.008.03Zm7.334 5.847-.006.03h.003l.008.002.028.004.108.014c.093.01.224.02.379.022.309.005.715-.023 1.098-.154.384-.131.746-.367.964-.778.218-.411.288-.994.098-1.813l-.059.014c.187.81.115 1.376-.093 1.77-.209.394-.556.621-.93.75a3.25 3.25 0 0 1-1.078.15 4.086 4.086 0 0 1-.506-.04h-.007l-.002-.001-.005.03Zm2.676-2.682a12.04 12.04 0 0 0-1.436-1.84l-.044.041a12.034 12.034 0 0 1 1.428 1.832l.052-.033Zm-1.436-1.84c-1.328-1.421-2.876-2.492-4.091-3.207a20.783 20.783 0 0 0-1.506-.806 14.088 14.088 0 0 0-.584-.266l-.008-.004h-.003l-.011.028-.012.028h.001l.002.001.007.003.03.013.116.05a20.56 20.56 0 0 1 1.937 1.006c1.212.714 2.755 1.78 4.078 3.195l.044-.042Zm-6.203-4.255.008-.03h-.001l-.004-.001a5.03 5.03 0 0 0-.942-.15c-.52-.03-1.149.027-1.55.391l.042.045c.381-.345.986-.405 1.504-.374a4.963 4.963 0 0 1 .862.13l.054.013.014.004.003.001h.001l.009-.03Zm-2.489.21c-.408.37-.535.798-.523 1.203.013.404.165.785.314 1.066l.055-.03c-.147-.276-.295-.647-.307-1.038-.013-.39.109-.799.503-1.156l-.042-.045Z" fill="#322689" mask="url(#f)"/><path d="M309.422 53.237a3.61 3.61 0 0 1-.198-.324c.365-.178.797-.166 1.269-.031.479.136.996.398 1.52.712.477.286.959.615 1.424.932l.141.096c.508.345.992.67 1.421.9.683.368 1.288.364 1.804.17.509-.192.929-.568 1.252-.951.52.553 1.001 1.158 1.417 1.819.188.81.116 1.38-.095 1.778-.21.398-.561.627-.938.756a3.265 3.265 0 0 1-1.083.152 4.138 4.138 0 0 1-.48-.036l-.028-.004h-.003c-1.672-2.388-3.506-3.85-4.922-4.715a12.362 12.362 0 0 0-1.739-.89 8.095 8.095 0 0 0-.666-.24l-.007-.002-.003-.004-.019-.025a3.441 3.441 0 0 1-.067-.093Z" fill="#E4E4E3" stroke="#322689" stroke-width=".031"/><path d="M311.88 50.442s-1.685-.477-2.468.233c-1.206 1.094.098 2.697.098 2.697s3.989 1.07 7.333 5.847c0 0 3.406.597 2.651-2.662-2.557-4.053-7.614-6.115-7.614-6.115Z" stroke="#322689" stroke-width=".765" stroke-miterlimit="10" stroke-linecap="round"/><path d="m337.127 58.45-.007.014-.025.003a13.039 13.039 0 0 1-.479.032 22.288 22.288 0 0 1-5.959-.557c-3.537-.833-7.676-2.811-10.093-7.389l2.226-12.164c2.3 1.399 3.81 3 5.331 4.614.48.51.961 1.02 1.468 1.525 2.119 2.111 4.695 4.135 9.557 5.626.214.065.345.24.409.502.065.263.062.61.009 1.012-.107.806-.414 1.83-.777 2.838-.362 1.008-.78 2-1.107 2.74-.164.369-.304.676-.404.89l-.117.248-.032.066Z" fill="#fff" stroke="#322689" stroke-width=".031"/><path d="M321.964 52.71h.001l-.007-.01a13.89 13.89 0 0 1-1.394-2.147l2.226-12.164c2.3 1.399 3.81 3 5.331 4.614.48.51.961 1.02 1.468 1.525 2.119 2.111 4.694 4.135 9.557 5.626.252.078.39.309.438.654.049.346.007.802-.097 1.32-.206 1.038-.656 2.32-1.11 3.46a47.323 47.323 0 0 1-1.232 2.828l-.021.044-.004.008-.019.002a12.98 12.98 0 0 1-.403.028c-.278.016-.681.03-1.182.025a22.563 22.563 0 0 1-3.953-.386c-3.119-.59-6.909-2.03-9.599-5.427Z" fill="#fff" stroke="#322689" stroke-width=".031"/><path d="M321.945 52.707h.001l-.006-.009-.211-.309c-.131-.19-.24-.349-.327-.48a3.153 3.153 0 0 1-.245-.402.166.166 0 0 1-.014-.045c-.002-.011 0-.016.001-.018 0 0 .002-.003.009-.003.008 0 .02.001.036.006.032.01.077.032.135.063.058.032.129.073.213.123l.22.134c.75.456 2.168 1.319 4.287 2.133a15.09 15.09 0 0 0 7.594.849c.977-.142 1.77-.354 2.319-.53a10.386 10.386 0 0 0 .798-.294l.042-.018.004-.002 1.554 1.69a47.74 47.74 0 0 1-1.228 2.819l-.022.044-.003.007-.02.002a11.919 11.919 0 0 1-.402.029c-.278.015-.681.029-1.182.025a22.555 22.555 0 0 1-3.953-.387c-3.119-.59-6.909-2.03-9.6-5.427Z" fill="#E4E4E3" stroke="#322689" stroke-width=".031"/><path d="m336.725 58.015-.244.011c-.199.007-.401.01-.604.01l.848-.021Zm0 0-.122.254-.025.05.047-.03.448-.3.049-.033-.059.004c-.089.007-.187.015-.288.02m-6.869-.731c.385.106.775.201 1.168.286l-7.402-3.523a16.028 16.028 0 0 0 3.982 2.449c.728.31 1.48.572 2.252.788Zm-6.805-2.73c-1.12-1.13-1.98-2.458-2.501-3.869l18.511.324a1.026 1.026 0 0 0-.055-.308.235.235 0 0 0-.041-.082.048.048 0 0 0-.011-.015.031.031 0 0 0-.006-.004l-.003-.001-.836-.272a68.21 68.21 0 0 1-.918-.324 23.764 23.764 0 0 1-3.509-1.64 20.184 20.184 0 0 1-3.111-2.22c-.954-.825-1.817-1.722-2.658-2.611l-.022-.024c-.829-.882-1.652-1.756-2.536-2.562a21.98 21.98 0 0 0-1.391-1.159 20.13 20.13 0 0 0-1.507-1.02l-.002-.002-.007-.003c-.226-.137-.285-.416-.131-.62a.526.526 0 0 1 .688-.12c.548.34 1.081.696 1.591 1.08.505.388.992.794 1.458 1.214.874.796 1.673 1.642 2.461 2.477l.15.16c.837.886 1.675 1.755 2.59 2.543a19.236 19.236 0 0 0 2.961 2.112 22.871 22.871 0 0 0 3.353 1.566h.001l.195.07c.229.082.458.164.688.244h.001l.447.145.222.07.113.036.085.028a.902.902 0 0 1 .107.045h.001a.984.984 0 0 1 .341.271c.081.105.138.21.176.31.078.2.101.381.116.554.02.344-.011.657-.058.967a12.465 12.465 0 0 1-.432 1.778c-.178.575-.377 1.14-.591 1.7a47.997 47.997 0 0 1-1.405 3.318.525.525 0 0 1-.426.291h-.005a19.383 19.383 0 0 1-2.582.046 22.72 22.72 0 0 1-2.544-.26 19.26 19.26 0 0 1-2.49-.562 17.46 17.46 0 0 1-2.38-.882 15.537 15.537 0 0 1-1.127-.568 13.298 13.298 0 0 1-1.07-.652 12.415 12.415 0 0 1-1.901-1.57Z" fill="#322689" stroke="#322689" stroke-width=".031"/><path d="M340.073 58.9v-.001l-.005.001c-1.919.528-3.371.052-4.207-1.078-.363-.491-.602-1.137-.822-1.73l-.126-.336c-.129-.335-.258-.638-.409-.862-.151-.224-.325-.371-.546-.39-.157-.014-.354.049-.58.135l-.212.084c-.17.069-.353.142-.547.205-.554.18-1.188.268-1.823-.115-.411-.248-.494-.765-.313-1.363.182-.597.627-1.269 1.261-1.818 1.829-1.581 5.038-2.593 8.742-1.021a6.206 6.206 0 0 1 3.291 3.557c.496 1.393.408 2.796-.203 3.626-.641.869-1.74 1.211-3.501 1.105Z" fill="#fff" stroke="#322689" stroke-width=".031"/><path d="M333.173 54.736c-.658.264-1.52.61-2.384.09-.32-.19-.444-.54-.405-.96l2.789.87Zm0 0c.316-.127.585-.235.784-.217m-.784.217.784-.217m0 0c.496.043.76.753 1.064 1.572m-1.064-1.572 1.064 1.572m0 0c.22.594.461 1.245.828 1.74l-.828-1.74Zm-4.224-1.278h-.001c-.312-.187-.435-.53-.397-.946.062-.683.557-1.556 1.346-2.235 1.829-1.586 5.038-2.594 8.741-1.026 2.847 1.304 3.941 4.248 3.53 6.162a2.681 2.681 0 0 1-.441 1.025c-.642.87-1.74 1.215-3.502 1.106v-.001l-.005.001c-1.918.529-3.371.053-4.207-1.078-.365-.492-.605-1.14-.826-1.734a14.854 14.854 0 0 0-.124-.331c-.128-.336-.256-.639-.407-.863-.15-.223-.325-.37-.546-.39-.156-.013-.354.049-.579.135l-.213.084c-.17.068-.353.142-.547.204-.554.18-1.188.268-1.822-.113Z" fill="#fff" stroke="#322689" stroke-width=".031"/><path d="M330.797 54.813h-.001c-.304-.182-.429-.512-.4-.913.485.475 1.137.407 1.817.24.158-.038.317-.082.477-.126l.046-.013c.176-.049.351-.096.524-.137.346-.08.683-.13.995-.093.336.04.563.155.742.332.179.177.31.418.452.71l.092.193c.265.558.601 1.266 1.344 2.044.416.436.837.655 1.235.737.397.082.77.028 1.09-.082a2.992 2.992 0 0 0 .994-.583l.058-.052.012-.012c1.269.577 2.752.161 3.735-.261-.086.382-.231.72-.434.996-.642.87-1.74 1.215-3.502 1.106v-.001l-.005.001c-1.918.529-3.371.053-4.207-1.078-.365-.492-.605-1.14-.826-1.734a14.854 14.854 0 0 0-.124-.331c-.128-.336-.256-.639-.407-.863-.15-.223-.325-.37-.546-.39-.156-.013-.354.049-.579.135l-.213.084c-.17.068-.353.142-.547.204-.554.18-1.188.268-1.822-.113Z" fill="#E4E4E3" stroke="#322689" stroke-width=".031"/><path d="M331.734 51.62c-1.273 1.102-1.787 2.698-.946 3.206 1.281.773 2.558-.36 3.169-.307.856.074 1.023 2.136 1.891 3.312.841 1.137 2.301 1.613 4.224 1.084 1.763.106 2.869-.237 3.515-1.112 1.23-1.67.346-5.635-3.095-7.206-3.709-1.575-6.925-.562-8.758 1.023Z" stroke="#322689" stroke-width=".765" stroke-miterlimit="10" stroke-linecap="round" stroke-linejoin="round"/><path d="m300.588 20.613-.015-.003.015.003c1.773-9.177 11.39-15.313 21.477-13.697 10.086 1.62 16.82 10.372 15.043 19.552-1.773 9.181-11.39 15.313-21.477 13.697-10.086-1.619-16.82-10.371-15.043-19.552Z" fill="#fff" stroke="#322689" stroke-width=".031"/><path d="M318.847 40.435c10.25 0 18.56-7.564 18.56-16.894 0-9.33-8.31-16.894-18.56-16.894-10.25 0-18.559 7.564-18.559 16.894 0 9.33 8.309 16.894 18.559 16.894Z" stroke="#322689" stroke-width=".765" stroke-miterlimit="10" stroke-linecap="round" stroke-linejoin="round"/><path d="M300.307 23.083c.024-.815.117-1.64.277-2.47.789-4.077 3.122-7.555 6.362-10.013a18.77 18.77 0 0 1 3.275-1.997c3.508-1.683 7.635-2.357 11.843-1.683 10.086 1.62 16.821 10.372 15.044 19.552-1.774 9.178-11.391 15.31-21.477 13.694-8.561-1.373-14.705-7.885-15.285-15.436a14.807 14.807 0 0 1-.039-1.647Z" fill="#fff" stroke="#322689" stroke-width=".031"/><path d="M300.346 24.73c-.043-.544-.054-1.094-.043-1.648.024-.815.117-1.64.277-2.469.789-4.077 3.122-7.555 6.358-10.018a18.775 18.775 0 0 1 3.275-1.996c3.512-1.683 7.639-2.357 11.847-1.683 10.086 1.616 16.824 10.372 15.047 19.552a15.763 15.763 0 0 1-1.633 4.55l.014.008-.014-.008c-3.55 6.554-11.539 10.477-19.843 9.144l-.003.015.003-.015c-7.966-1.274-13.838-7.003-15.083-13.874a13.886 13.886 0 0 1-.202-1.559Z" fill="#fff" stroke="#322689" stroke-width=".031"/><path d="m300.541 26.291.007.013.01-.005-.002-.01-.015.002Zm34.933 4.742a.2.2 0 0 0 .014.006l.007-.013-.014-.006-.007.013Z" fill="#E4E4E3" stroke="#322689" stroke-width=".031"/><path d="M300.568 20.61a15.454 15.454 0 0 0-.237 4.12c.58 7.56 6.73 14.077 15.297 15.45 10.094 1.618 19.72-4.518 21.495-13.705 1.779-9.19-4.963-17.95-15.056-19.57-4.212-.675-8.342 0-11.853 1.684a18.789 18.789 0 0 0-3.277 1.998c-3.243 2.461-5.578 5.942-6.369 10.024Z" stroke="#322689" stroke-width=".765" stroke-miterlimit="10" stroke-linecap="round" stroke-linejoin="round"/><path d="M300.346 24.729c.077 1.022.256 2.023.532 2.993 1.132 2.542 3.115 4.866 5.845 6.697 2.902 1.945 6.66 2.895 10.317 2.914 3.656.02 7.209-.893 9.702-2.67.27-.29.57-.595.885-.916.595-.606 1.24-1.263 1.821-1.961.889-1.069 1.624-2.231 1.793-3.447l.015.003-.015-.003c.906-6.506-.991-11.089-3.947-14.114-2.957-3.025-6.974-4.492-10.309-4.764-6.231-.508-9.976 1.242-12.269 3.142-2.072 2.211-3.542 4.941-4.133 8.01l-.237 4.116Zm0 0a15.285 15.285 0 0 1-.039-1.648l.039 1.648Z" fill="#4629D9" stroke="#4629D9" stroke-width=".031"/><path d="M300.346 24.726c.077 1.023.256 2.024.532 2.994 1.132 2.542 3.115 4.866 5.845 6.697 2.902 1.945 6.66 2.895 10.317 2.914 3.656.019 7.209-.893 9.702-2.67.27-.29.57-.596.885-.917.595-.605 1.24-1.262 1.821-1.96.889-1.069 1.624-2.231 1.793-3.447.032-.229.061-.457.086-.684-.735 1.122-1.758 2.165-2.661 3.085-.314.321-.614.627-.882.916l-.003.003c-2.5 1.781-5.987 2.595-9.611 2.527-3.624-.068-7.388-1.02-10.444-2.77-1.455-.834-3.348-2.181-4.7-4.376-1.352-2.195-2.162-5.237-1.453-9.46a5.15 5.15 0 0 1 .068-.342 15.957 15.957 0 0 0-1.058 3.378l-.237 4.112Zm0 0a15.242 15.242 0 0 1-.039-1.643l.039 1.643Z" fill="#322689" stroke="#322689" stroke-width=".031"/><path d="M326.104 23.063c1.357.2 2.252 1.529 1.996 2.969-.259 1.44-1.568 2.443-2.929 2.243-1.357-.2-2.251-1.529-1.996-2.969.26-1.444 1.572-2.447 2.929-2.243ZM323.285 30.48c.413.513.221 1.284-.44 1.725-.661.439-1.527.377-1.941-.138-.413-.513-.221-1.283.44-1.725.661-.438 1.531-.373 1.941.138ZM307.019 16.311c1.957-1.584 4.494-2.474 7.548-2.647l.001.015a22.62 22.62 0 0 1 3.114.05l-10.663 2.582Zm0 0-.002.002c-1.859 2.014-3.105 4.457-3.608 7.065-.13.666-.209 1.34-.239 2.008a12.07 12.07 0 0 1-.077-.739l3.926-8.336Zm18.549.146c.371.416.702.85 1.003 1.306l-23.513 5.505c.023-.687.101-1.386.233-2.073.474-2.454 1.644-4.746 3.39-6.64 1.838-1.487 4.224-2.323 7.094-2.489a21.058 21.058 0 0 1 2.929.046c3.386.275 6.703 1.898 8.864 4.345Z" fill="#fff" stroke="#322689" stroke-width=".031" opacity=".5"/><path d="M332.619 29.469s2.561-8.188-2.623-14.829c-5.769-7.393-14.013-7.404-20.346-5.78M327.811 35.908c-2.838 2.627-16.629 6.45-24.507-3.104" stroke="#322689" stroke-width=".765" stroke-miterlimit="10" stroke-linecap="round"/><path d="M327.75 31.264c.893-1.355 2.159-2.36 3.485-2.89 1.327-.53 2.713-.585 3.848-.042 1.766.843 2.42 2.892 1.802 5.045a7.192 7.192 0 0 1-.878 1.902c-.889 1.373-2.16 2.393-3.494 2.933s-2.731.599-3.874.052c-1.143-.546-1.819-1.596-1.986-2.853-.168-1.257.172-2.722 1.062-4.094l.035-.053Z" fill="#fff" stroke="#322689" stroke-width=".031"/><path d="m332.471 31.622.003-.001.017.006.065.026.253.1.936.373c.792.316 1.894.759 3.14 1.267a7.31 7.31 0 0 1-.878 1.89c-.889 1.372-2.16 2.392-3.494 2.931-1.334.54-2.731.6-3.874.053-1.143-.547-1.819-1.596-1.986-2.853-.168-1.258.172-2.722 1.062-4.094l.014-.021c.077.396.299.846.88 1.005.263.072.636.064 1.048.013.411-.051.862-.146 1.28-.25a20.368 20.368 0 0 0 1.419-.407l.091-.03.024-.008Z" fill="#E4E4E3" stroke="#322689" stroke-width=".031"/><path d="M336.02 35.288c-1.783 2.75-5.091 4.088-7.388 2.99-2.296-1.098-2.713-4.22-.93-6.97s5.091-4.088 7.388-2.99c2.3 1.098 2.717 4.22.93 6.97Z" stroke="#322689" stroke-width=".765" stroke-miterlimit="10" stroke-linecap="round"/><path d="M336.101 35.785c-.73 1.117-1.744 1.962-2.791 2.426-1.048.464-2.128.546-2.993.139-.866-.406-1.356-1.224-1.447-2.22-.09-.998.219-2.174.951-3.29.73-1.118 1.744-1.963 2.792-2.427 1.047-.464 2.128-.546 2.992-.139.864.407 1.353 1.226 1.444 2.223.091.998-.218 2.173-.948 3.288Z" fill="#fff" stroke="#322689" stroke-width=".031"/><path d="M330.317 38.35c-.866-.405-1.356-1.222-1.447-2.218-.09-.997.219-2.172.951-3.289.288-.439.622-.84.985-1.19-.852 1.954-.468 3.904 1.055 4.62 1.344.631 3.179.117 4.625-1.15a6.697 6.697 0 0 1-.381.662c-.732 1.117-1.746 1.962-2.793 2.426-1.048.464-2.128.546-2.995.139Z" fill="#E4E4E3" stroke="#322689" stroke-width=".031"/><path d="M336.114 35.793c-1.464 2.239-4.064 3.39-5.804 2.57-1.743-.815-1.969-3.294-.502-5.532 1.464-2.239 4.064-3.39 5.804-2.57 1.74.819 1.966 3.297.502 5.532Z" stroke="#322689" stroke-width=".765" stroke-miterlimit="10" stroke-linecap="round"/><path d="M307.027 117.185c0 1.073 1.837 1.945 4.106 1.945 2.266 0 4.107-.872 4.107-1.945s-1.837-1.945-4.107-1.945c-2.265 0-4.106.872-4.106 1.945Z" stroke="#322689" stroke-width=".765" stroke-miterlimit="10" stroke-linecap="round" stroke-linejoin="round"/><path d="M339.896 55.276c.132.253.257.515.353.787.12.306.202.627.268.951.066.324.097.655.108.993l-.729-2.73Zm0 0c.062.276.113.55.133.826.032.316.028.627.008.938-.019.308-.07.613-.144.91a5.061 5.061 0 0 1-.125.436l-.034.09-.044.118c-.012.036-.028.069-.043.1h-.001l-.023.047a.172.172 0 0 0-.011.022l.94.273a.886.886 0 0 0 .011-.06v-.001l.012-.067.01-.067-.689-3.565Zm.715 3.329c-.005.056-.009.111-.017.169l.017-.17Zm-1.002.129-.012.025.123-.288c-.015.04-.029.08-.045.118-.011.035-.027.067-.042.099l-.024.046Z" fill="#322689" stroke="#322689" stroke-width=".031"/><path d="M332.474 46.986c-4.258-.194-8.586 7.337-3.289 10.571" stroke="#322689" stroke-width=".918" stroke-miterlimit="10" stroke-linecap="round" stroke-linejoin="round"/><path d="m322.312 61.406-.009.012c.303.227.354.69.181 1.26-.173.57-.568 1.243-1.145 1.881-.575.638-1.222 1.121-1.803 1.386-.291.133-.564.21-.803.226-.24.016-.443-.03-.596-.145-.303-.227-.354-.69-.181-1.26.173-.57.567-1.243 1.144-1.881.577-.638 1.225-1.12 1.805-1.385.291-.132.564-.21.803-.226.238-.016.442.03.595.144l.009-.012Zm0 0c.623.466.195 1.885-.961 3.163l-3.223 1.47c-.623-.467-.195-1.886.961-3.164 1.156-1.279 2.596-1.935 3.223-1.47Z" fill="#fff" stroke="#322689" stroke-width=".031"/><path d="M318.128 66.042c.627.47 2.071-.19 3.223-1.469.6-.664 1.005-1.363 1.168-1.949.152-.544.093-.988-.206-1.214m-4.185 4.632.01-.013h-.001m-.009.013c-.451-.34-.354-1.169.172-2.08.198-.356.467-.727.79-1.084m-.962 3.164.962-3.164m-.953 3.151c.153.115.357.162.596.146.239-.016.513-.094.803-.226.581-.265 1.229-.748 1.804-1.386.598-.663 1.002-1.36 1.164-1.943.152-.542.091-.978-.201-1.198m-4.166 4.608c-.219-.165-.307-.451-.274-.812.033-.36.188-.794.45-1.248.198-.356.466-.725.788-1.081.577-.638 1.224-1.121 1.805-1.386.29-.133.564-.21.802-.226.239-.016.443.03.595.145m-4.166 4.608.953-3.152m3.213-1.456h.001l.009-.012m-.01.012.01-.012m0 0c-.627-.47-2.067.19-3.223 1.468" fill="#fff" stroke="#322689" stroke-width=".031"/><path d="M321.338 64.56c-.575.638-1.222 1.121-1.803 1.386-.291.133-.564.21-.804.227-.239.015-.442-.031-.595-.146-.22-.165-.308-.45-.276-.811.033-.356.183-.782.437-1.23a.697.697 0 0 0 .626.231c.297-.038.679-.244 1.169-.755.847-.887 1.826-.912 2.406-.828-.166.58-.567 1.27-1.16 1.926Z" fill="#E4E4E3" stroke="#322689" stroke-width=".031"/><path d="M319.089 62.875c-1.156 1.278-1.584 2.697-.961 3.163.626.47 2.07-.19 3.223-1.469 1.156-1.278 1.584-2.697.961-3.163-.627-.466-2.067.19-3.223 1.469Z" stroke="#322689" stroke-width=".765" stroke-miterlimit="10" stroke-linecap="round" stroke-linejoin="round"/><path d="m311.094 88.328.013.007-.013-.007c-1.958 3.48-1.524 8.332-.364 12.922 1.744 6.905 2.117 11.003 2.156 14.186a74.727 74.727 0 0 1-.037 2.984l-.013.517a8.148 8.148 0 0 1-1.729.181 7.984 7.984 0 0 1-1.705-.177l.004-.609c.007-1.022.013-1.978.004-2.917-.043-4.026-.398-7.675-2.395-14.427-1.342-4.549-1.4-9.526.244-13.127 1.837-4.022 5.314-6.356 8.706-8.085a80.57 80.57 0 0 1 3.001-1.429c.63-.29 1.236-.568 1.806-.844 1.436-.696 2.636-1.377 3.382-2.178 1.046-1.124 1.433-2.188 1.388-3.182-.045-.993-.52-1.914-1.191-2.75-.672-.837-1.54-1.59-2.373-2.25-.344-.271-.682-.527-.997-.765-.45-.341-.855-.648-1.168-.919-.148-.124-.161-.363-.051-.656.109-.293.337-.632.659-.949.323-.318.678-.553.99-.675.155-.061.3-.094.424-.096a.448.448 0 0 1 .301.09c.505.459 1.078.93 1.674 1.42.361.298.731.601 1.099.914.976.828 1.944 1.717 2.721 2.695.777.979 1.363 2.045 1.576 3.23.214 1.183.055 2.485-.659 3.936-.75 1.52-1.964 2.646-3.428 3.592-1.384.894-2.989 1.626-4.634 2.375l-.287.131c-3.488 1.592-7.105 3.31-9.104 6.862Z" fill="#fff" stroke="#322689" stroke-width=".031"/><path d="m310.73 101.25.015-.003-.015.003c1.744 6.905 2.117 11.003 2.156 14.186a74.727 74.727 0 0 1-.037 2.984l-.013.517a8.148 8.148 0 0 1-1.729.181 7.984 7.984 0 0 1-1.705-.177l.004-.609c.007-1.022.013-1.978.004-2.917-.043-4.023-.398-7.675-2.395-14.427-1.342-4.549-1.4-9.526.244-13.127 1.837-4.022 5.314-6.356 8.706-8.085a80.57 80.57 0 0 1 3.001-1.429c.63-.29 1.236-.568 1.806-.844 1.436-.696 2.636-1.377 3.382-2.178 1.046-1.124 1.433-2.188 1.388-3.182-.045-.993-.52-1.914-1.191-2.75-.672-.837-1.54-1.59-2.373-2.25-.344-.271-.682-.527-.997-.766-.45-.34-.855-.647-1.168-.918-.148-.124-.161-.363-.051-.656.109-.293.337-.632.659-.949.323-.318.678-.553.989-.675.156-.061.301-.094.425-.096a.448.448 0 0 1 .301.09c.506.46 1.081.933 1.679 1.425l.381.313c.734.606 1.488 1.242 2.184 1.921 1.393 1.359 2.55 2.888 2.843 4.69.19 1.157.019 2.432-.676 3.846-.75 1.52-1.964 2.646-3.428 3.592-1.384.894-2.989 1.626-4.634 2.375l-.287.131c-3.488 1.592-7.105 3.31-9.104 6.862-1.19 2.108-1.497 4.72-1.295 7.472.129 1.791.475 3.642.931 5.45Z" fill="#fff" stroke="#322689" stroke-width=".031"/><path d="M312.884 116.368a89.71 89.71 0 0 1-.036 2.007l-.014.562a8.141 8.141 0 0 1-1.729.181 7.99 7.99 0 0 1-1.705-.177l.006-.989c.004-.611.008-1.2.006-1.778 0-.254 0-.508-.008-.752-.043-4.026-.397-7.675-2.394-14.434-1.343-4.549-1.4-9.526.244-13.127 1.837-4.022 5.314-6.356 8.706-8.085 1.024-.522 2.04-.988 3-1.429.631-.29 1.237-.568 1.807-.844 1.436-.696 2.636-1.377 3.382-2.178 1.046-1.124 1.432-2.188 1.388-3.182-.045-.993-.52-1.914-1.192-2.75-.671-.837-1.539-1.59-2.373-2.25a62.077 62.077 0 0 0-.996-.765c-.45-.341-.855-.648-1.169-.919-.148-.124-.16-.363-.051-.656.109-.293.337-.632.659-.949.324-.318.679-.553.99-.675.156-.061.3-.094.425-.096a.445.445 0 0 1 .3.09 47.48 47.48 0 0 0 1.673 1.418l.389.32c.735.606 1.489 1.242 2.185 1.921 1.391 1.359 2.547 2.888 2.84 4.69.191 1.157.02 2.432-.675 3.846-.75 1.52-1.964 2.646-3.428 3.592-1.384.894-2.989 1.626-4.634 2.375a55.57 55.57 0 0 0-.287.131c-3.488 1.592-7.105 3.31-9.105 6.862-1.189 2.108-1.497 4.72-1.294 7.472.128 1.791.475 3.642.931 5.45l.014-.003-.014.003c1.743 6.905 2.117 11.003 2.156 14.186v.01c.004.315.007.622.003.922Z" fill="#fff" stroke="#322689" stroke-width=".031"/><path d="M323.329 76.044c-.928.68-2.184 1.294-3.598 1.95l-.763.35c-1.209.556-2.505 1.15-3.795 1.846-3.131 1.687-6.22 3.962-7.913 7.671l-.014-.006.013.006c-1.644 3.6-1.586 8.578-.244 13.127 1.997 6.759 2.352 10.408 2.395 14.434m13.919-39.378-13.935 39.378m13.935-39.378v.002l.009-.006c.312-.23.586-.467.816-.715l-.825.719Zm-13.919 39.378h-.016m.016 0h-.016m.016 0c.003.244.003.498.003.752h-.015c0-.254 0-.508-.004-.752m11.023-51.568c.324-.318.678-.553.99-.675.155-.061.3-.094.424-.096a.448.448 0 0 1 .301.09c.505.459 1.077.929 1.673 1.418l.389.32c.734.606 1.488 1.242 2.184 1.921 1.392 1.359 2.548 2.888 2.841 4.69.19 1.157.02 2.432-.676 3.846-.75 1.52-1.964 2.646-3.428 3.592-1.383.894-2.989 1.626-4.634 2.375l-.287.131c-3.488 1.592-7.105 3.31-9.104 6.862-1.19 2.108-1.497 4.72-1.295 7.472.129 1.791.476 3.642.931 5.45l.015-.003-.015.003c1.744 6.905 2.117 11.003 2.156 14.186v.01c.004.315.008.622.004.922-.003.7-.02 1.361-.036 2.007l-.014.562a8.148 8.148 0 0 1-1.729.181 7.984 7.984 0 0 1-1.705-.177c.001-.337.003-.666.006-.989.004-.611.008-1.2.005-1.778l11.004-52.32Zm0 0-.011-.01.011.01Zm-.217.212c-.495.575-.674 1.175-.397 1.405.313.27.719.578 1.169.92 2.613 1.978 6.733 5.099 3.171 8.923-.23.247-.502.484-.814.713L320.2 64.066Z" fill="#fff" stroke="#322689" stroke-width=".031"/><path d="M319.811 65.457c.314.27.719.577 1.169.918.315.24.653.495.996.766.834.66 1.702 1.413 2.374 2.25.671.836 1.146 1.756 1.191 2.75.044.994-.342 2.058-1.388 3.181m-4.342-9.865 3.61 10.499c.273-.208.514-.422.721-.644l.011.01m-4.342-9.865c-.129-.11-.154-.31-.082-.558.07-.241.231-.524.468-.802m-.386 1.36.386-1.36m3.956 11.225a5.462 5.462 0 0 1-.625.57c.396-.241 1.278-.836 1.961-1.723.443-.575.803-1.274.894-2.078.09-.804-.089-1.715-.725-2.716-.891-1.404-2.098-2.281-3.163-3.031l-.118-.083c-.488-.343-.942-.662-1.316-.997-.396-.355-.703-.728-.864-1.167m3.956 11.225-3.956-11.225M311.108 119.119a7.99 7.99 0 0 1-1.705-.177l.001-.112c.008-.924.015-1.792.011-2.631 1.454.377 2.638.334 3.472.189-.003.692-.02 1.348-.036 1.989l-.014.561a8.141 8.141 0 0 1-1.729.181ZM309.819 95.547c-.52-2.936-.208-5.308.624-7.253.854-1.997 2.258-3.544 3.876-4.787 1.619-1.244 3.451-2.183 5.163-2.963.622-.284 1.228-.546 1.802-.795 1.006-.436 1.913-.83 2.634-1.217 2.627-1.414 3.97-3.166 4.656-4.566a7.6 7.6 0 0 0 .615-1.749c.047-.218.072-.393.086-.513l.005-.05c.156 1.122-.028 2.353-.696 3.712-.75 1.52-1.964 2.647-3.428 3.592-1.384.894-2.989 1.626-4.634 2.376l-.287.13c-3.488 1.592-7.105 3.31-9.105 6.862-1.153 2.044-1.477 4.561-1.311 7.22Z" fill="#E4E4E3" stroke="#322689" stroke-width=".031"/><path d="M309.394 115.415c.012 1.126 0 2.277-.008 3.538.522.116 1.106.18 1.721.18.623 0 1.214-.067 1.744-.184.027-1.105.066-2.235.05-3.513-.039-3.184-.412-7.283-2.156-14.189-1.16-4.59-1.592-9.438.362-12.912 3.994-7.093 14.449-6.867 17.454-12.96 2.861-5.812-3.173-9.269-6.415-12.213-.311-.261-1.086.042-1.736.681-.646.636-.919 1.367-.607 1.628 2.133 1.843 8.516 5.36 4.34 9.843-2.974 3.195-13.219 4.488-16.897 12.541-1.647 3.605-1.589 8.587-.246 13.137 1.997 6.751 2.351 10.398 2.394 14.423Z" stroke="#322689" stroke-width=".765" stroke-miterlimit="10" stroke-linecap="round" stroke-linejoin="round"/><path d="M289.726 69.397a5.384 5.384 0 0 1-.293-.121 6.928 6.928 0 0 0-.252-.105 6.35 6.35 0 0 1-.204-.087c-.112-.05-.228-.1-.355-.143l.011.02m1.093.436-.006.014m.006-.014-.005.014h-.001m.006-.014c.354.155.712.275 1.07.395h.001c.358.12.724.219 1.101.31m-2.178-.691a5.466 5.466 0 0 1-.27-.11 7.485 7.485 0 0 0-.274-.115l-.001-.001a6.146 6.146 0 0 1-.205-.087 4.5 4.5 0 0 0-.337-.137m1.087.45c.355.155.714.275 1.071.395h.001c.358.12.725.22 1.102.312m-3.261-1.157a.813.813 0 0 1-.022-.007c.045.084.096.163.15.241l.022.033c.05.074.1.146.165.211.14.148.284.3.455.42.331.261.724.452 1.137.586.412.138.852.201 1.288.194.428-.003.859-.071 1.239-.26l-.024-.005m-4.41-1.413c.042.078.089.152.14.226l.023.032c.05.074.099.146.162.21h.001c.14.148.283.299.453.418h.001c.329.26.72.45 1.131.584.411.137.849.2 1.284.193.42-.003.842-.07 1.215-.25m0 0 .022-.011a28.705 28.705 0 0 1-1.167-.26m1.145.27a27.859 27.859 0 0 1-1.149-.255m0 0 .004-.015m-.004.015.004-.015" fill="#322689" stroke="#322689" stroke-width=".031"/><path d="m344.92 40.736-.001-.013-.013-.001a4.169 4.169 0 0 1-.561-.101 5.648 5.648 0 0 1-.213-.056l.021-.005a4.584 4.584 0 0 1 .748-.122h.014l.001-.015c.013-.267.058-.597.099-.861l.055-.33.01-.05.009.051c.015.083.035.199.056.331.042.265.087.597.098.867l.001.013.013.001c.196.02.401.062.558.1l.191.051.02.006-.02.005a4.277 4.277 0 0 1-.752.122h-.014l-.001.014c-.013.264-.057.591-.097.852-.02.13-.04.245-.054.326l-.008.047a9.12 9.12 0 0 1-.16-1.232ZM281.178 63.696v-.013l-.014-.001a2.73 2.73 0 0 1-.469-.094l.115-.026c.1-.021.23-.044.354-.05l.014-.002v-.014c.008-.17.036-.38.062-.548l.035-.21.001-.001v.002l.035.21c.026.17.055.38.062.551l.001.013.013.002a2.683 2.683 0 0 1 .469.093 3.012 3.012 0 0 1-.468.077l-.014.001-.001.014a6.196 6.196 0 0 1-.098.748l-.035-.208a5.52 5.52 0 0 1-.062-.544ZM304.652 1.638l-.001-.014h-.013a4.2 4.2 0 0 1-.752-.152.53.53 0 0 1-.021-.006 3.925 3.925 0 0 1 .769-.127h.013l.001-.014c.014-.267.058-.598.1-.862a11.22 11.22 0 0 1 .064-.38l.01.052c.014.082.035.198.056.33.041.266.086.598.098.867v.013l.013.002a4.942 4.942 0 0 1 .749.15l.02.006-.02.005a4.261 4.261 0 0 1-.752.122l-.014.001v.014c-.014.264-.057.59-.098.852-.02.13-.039.244-.054.326l-.008.047-.008-.048a11.65 11.65 0 0 1-.054-.328 9.12 9.12 0 0 1-.098-.856ZM334.165 65.233l-.001-.013-.013-.002a4.198 4.198 0 0 1-.561-.1 5.897 5.897 0 0 1-.192-.05l-.02-.006a4.994 4.994 0 0 1 .769-.127l.013-.001.001-.014c.014-.267.058-.598.1-.862a11.239 11.239 0 0 1 .064-.38l.009.052c.015.083.035.198.056.33.042.266.087.598.098.867l.001.013.013.002a4.194 4.194 0 0 1 .749.15l.02.006-.02.005a4.295 4.295 0 0 1-.752.122l-.014.001v.014a9.38 9.38 0 0 1-.098.852c-.02.13-.04.244-.054.326l-.008.047a9.12 9.12 0 0 1-.16-1.232ZM304.59 75.213l-.001-.013-.013-.001a4.169 4.169 0 0 1-.561-.1 5.61 5.61 0 0 1-.213-.057l.021-.005a4.782 4.782 0 0 1 .748-.122h.014l.001-.014c.013-.268.058-.598.099-.862.021-.132.041-.247.055-.329l.01-.051.009.052c.015.082.035.198.056.33.042.265.087.597.098.867l.001.013.013.001a4.178 4.178 0 0 1 .749.151l.02.006-.02.005a4.295 4.295 0 0 1-.752.122h-.014l-.001.014c-.013.264-.057.591-.097.852-.02.13-.04.245-.054.326l-.008.048a1.345 1.345 0 0 1-.009-.048c-.014-.082-.034-.197-.054-.328a9.119 9.119 0 0 1-.097-.857ZM294.788 80.247h-.013l-.002.013a3.445 3.445 0 0 1-.185.679l-.008.023-.007-.023c-.011-.043-.027-.104-.043-.176a3.171 3.171 0 0 1-.077-.506l-.001-.013h-.013c-.294-.02-.655-.069-.944-.112-.144-.022-.27-.043-.359-.058l-.045-.008.046-.005c.091-.012.218-.027.365-.043.292-.031.658-.064.955-.07h.013l.002-.012a3.44 3.44 0 0 1 .125-.507l.059-.172.009-.024.007.024c.011.043.027.103.043.175.032.144.065.332.073.51l.001.013h.013c.29.02.647.069.933.112.143.022.267.043.356.058l.043.007-.044.006c-.09.011-.216.026-.361.041-.289.03-.65.062-.941.068Z" fill="#fff" stroke="#322689" stroke-width=".031"/><path d="M411.227 156.487c-43.055-56.01-126.521-94.032-222.421-94.032-103.183 0-191.938 43.974-231.513 107.046V208.1h453.934v-51.613Z" fill="url(#g)"/><path d="M381.844 153.732c-37.488-48.77-110.143-81.861-193.702-81.861-89.868 0-167.163 38.288-201.588 93.232v33.624h395.243v-44.995h.047Z" fill="url(#h)"/><path d="M359.944 154.622c-33.312-40.641-97.941-68.225-172.22-68.225-79.893 0-148.605 31.892-179.226 77.686v27.983h351.446v-37.444Z" fill="url(#i)"/><path d="M65.06 120.332c-1.67 16.968 49.875 19.1 108.612 13.903 58.783-5.197 100.029 14.169 127.124-.222 10.717-5.686 10.207-13.681 4.547-21.454-32.756-16.434-73.491-26.162-117.613-26.162-45.7 0-87.78 10.438-121.139 27.939-.789 1.954-1.345 3.953-1.531 5.996Z" fill="url(#j)"/><path opacity=".5" d="M267.016 111.669c-.557 3.731-8.491 5.597-17.816 4.175-9.279-1.421-16.378-5.596-15.868-9.372.557-3.731 8.491-5.596 17.816-4.175 9.326 1.421 16.424 5.597 15.868 9.372Zm-171.571-5.063c-8.769 3.464-14.847 9.149-13.501 12.703 1.299 3.553 9.465 3.598 18.28.133 8.815-3.464 14.846-9.15 13.501-12.703-1.346-3.554-9.511-3.598-18.28-.133Zm29.693 6.085c-6.31 2.354-10.717 6.307-9.836 8.839.882 2.532 6.728 2.709 13.037.399 6.31-2.354 10.718-6.307 9.836-8.839-.881-2.531-6.727-2.709-13.037-.399Zm14.197-18.522c-4.779 1.554-8.166 4.353-7.609 6.307.603 1.91 4.918 2.221 9.697.666 4.779-1.554 8.165-4.353 7.609-6.307-.557-1.954-4.918-2.22-9.697-.666Zm153.384 21.986c-4.593-2.087-8.955-2.309-9.743-.444-.789 1.866 2.273 5.019 6.866 7.151 4.593 2.088 8.955 2.31 9.743.444.789-1.865-2.273-5.063-6.866-7.151Zm-21.76 7.951c-5.66-.666-10.439.622-10.717 2.887-.232 2.265 4.129 4.664 9.789 5.33 5.661.666 10.439-.622 10.718-2.887.232-2.265-4.13-4.664-9.79-5.33Z" fill="url(#k)"/><path d="M102.852 119.132c-4.036 1.599-7.887 2.443-11.089 2.576 2.552-.355 5.429-1.155 8.352-2.309 8.768-3.465 14.846-9.15 13.501-12.704-.696-1.91-3.433-2.798-7.191-2.665 5.103-.755 9 .045 9.882 2.399 1.392 3.553-4.64 9.239-13.455 12.703Zm30.157-8.084c2.691-.044 4.686.622 5.15 1.999.882 2.532-3.526 6.485-9.836 8.839a28.49 28.49 0 0 1-5.196 1.377c2.273-.045 5.011-.578 7.887-1.644 6.31-2.354 10.718-6.307 9.836-8.839-.603-1.776-3.804-2.354-7.841-1.732Zm118.17-8.75c9.279 1.421 16.377 5.596 15.867 9.372-.325 2.221-3.201 3.775-7.47 4.397 5.66-.266 9.743-1.998 10.161-4.619.557-3.731-6.542-7.951-15.867-9.372-3.805-.578-7.424-.622-10.347-.178 2.32-.178 4.918-.044 7.656.4Zm44.215 13.592c-3.48-1.599-6.867-2.088-8.584-1.422 1.717.134 3.758.711 5.893 1.688 4.593 2.088 7.655 5.286 6.866 7.151-.185.444-.603.755-1.113.977 1.948.178 3.387-.222 3.804-1.199.789-1.865-2.273-5.063-6.866-7.195Zm-21.76 7.95c-2.273-.266-4.408-.222-6.171.089 1.114-.044 2.274 0 3.48.178 5.66.666 10.022 3.065 9.79 5.33-.14 1.377-1.903 2.354-4.501 2.798 4.037-.089 7.006-1.288 7.238-3.065.185-2.265-4.176-4.663-9.836-5.33ZM144.979 93.148c2.181 0 3.712.577 4.037 1.643.603 1.91-2.831 4.753-7.609 6.308-1.021.311-1.995.577-2.97.755 1.624 0 3.619-.311 5.661-.977 4.778-1.555 8.165-4.353 7.609-6.308-.418-1.51-3.248-1.999-6.728-1.421Z" fill="url(#l)"/><path opacity=".5" d="M278.695 131.524c-1.763-.888-4.129-1.599-6.82-1.91-3.526-.4-6.728-.089-8.676.8 1.763.888 4.129 1.599 6.82 1.91 3.526.444 6.727.088 8.676-.8Z" fill="url(#m)"/><path opacity=".5" d="M266.139 113.358c-2.645-2.443-7.841-4.619-14.012-5.552-7.701-1.199-14.521-.089-16.934 2.443 2.645 2.443 7.841 4.62 14.012 5.552 7.748 1.244 14.568.134 16.934-2.443Z" fill="url(#n)"/><path opacity=".5" d="M285.491 120.155c1.16.977 2.691 1.91 4.407 2.709 3.248 1.466 6.356 1.999 8.212 1.555-1.16-.977-2.691-1.91-4.407-2.709-3.248-1.511-6.403-2.044-8.212-1.555Z" fill="url(#o)"/><path opacity=".5" d="M83.624 121.042c3.109 1.643 9.65 1.066 16.563-1.643 6.078-2.399 10.857-5.864 12.759-8.928-3.108-1.644-9.65-1.066-16.563 1.643-6.031 2.399-10.81 5.863-12.759 8.928Z" fill="url(#p)"/><path opacity=".5" d="M140.277 99.678c-1.995.622-3.711 1.51-5.011 2.443 1.717.089 3.898-.222 6.217-.977 1.995-.622 3.712-1.51 5.011-2.443-1.716-.089-3.897.222-6.217.977Z" fill="url(#q)"/><path opacity=".5" d="M117.74 123.309c2.459.621 6.449.177 10.624-1.377 3.619-1.333 6.635-3.243 8.352-5.064-2.459-.622-6.449-.178-10.625 1.377-3.619 1.332-6.635 3.198-8.351 5.064Z" fill="url(#r)"/><path opacity=".25" d="M108.537 123.308c.418 1.421-2.087 3.465-5.614 4.619-3.526 1.155-6.773.933-7.19-.444-.418-1.421 2.087-3.464 5.613-4.619 3.572-1.199 6.774-.977 7.191.444Z" fill="url(#s)"/><path opacity=".25" d="M241.006 97.233c-.186 1.465-3.341 2.22-7.006 1.688-3.665-.533-6.496-2.133-6.31-3.598.186-1.466 3.34-2.221 7.006-1.688 3.665.533 6.495 2.132 6.31 3.598Z" fill="url(#t)"/><path opacity=".25" d="M318.022 126.859c-.742 1.243-3.897.666-7.099-1.333-3.155-1.999-5.15-4.619-4.407-5.907.742-1.244 3.897-.667 7.098 1.332 3.202 1.999 5.15 4.664 4.408 5.908Z" fill="url(#u)"/><path opacity=".25" d="M249.742 98.746c-.092.622-1.438.933-2.969.71-1.577-.222-2.737-.888-2.691-1.51.093-.621 1.438-.932 2.969-.71 1.578.222 2.784.888 2.691 1.51Z" fill="url(#v)"/><path opacity=".25" d="M264.945 119.842c-.093.622-1.439.933-2.97.711-1.577-.222-2.737-.889-2.691-1.511.093-.621 1.439-.932 2.97-.71 1.577.177 2.783.888 2.691 1.51Z" fill="url(#w)"/><path opacity=".25" d="M279.747 105.852c-.092.622-1.438.932-2.969.71-1.531-.222-2.737-.888-2.691-1.51.093-.622 1.438-.933 2.969-.711 1.578.223 2.738.889 2.691 1.511Z" fill="url(#x)"/><path opacity=".25" d="M292.181 127.662c-.232.577-1.577.577-3.062-.045-1.484-.621-2.459-1.554-2.227-2.132.232-.577 1.578-.577 3.062.045 1.439.577 2.459 1.554 2.227 2.132Z" fill="url(#y)"/><path opacity=".25" d="M288.924 110.915c-.232.977-2.459 1.199-4.872.533-2.459-.667-4.222-2.043-3.943-2.976.278-.933 2.459-1.199 4.871-.533 2.413.666 4.176 1.999 3.944 2.976Z" fill="url(#z)"/><path opacity=".25" d="M243.243 117.443c-.139.977-2.32 1.466-4.779 1.066-2.505-.399-4.408-1.554-4.222-2.532.139-.977 2.32-1.465 4.779-1.066 2.459.445 4.361 1.555 4.222 2.532Z" fill="url(#A)"/><path opacity=".25" d="M142.612 105.139c.232.889-1.392 2.044-3.619 2.665-2.227.578-4.176.356-4.408-.533-.231-.888 1.392-2.043 3.619-2.665 2.227-.577 4.176-.355 4.408.533Z" fill="url(#B)"/><path opacity=".25" d="M140.337 121.797c.232.888-1.392 2.043-3.619 2.665-2.227.577-4.176.355-4.407-.533-.232-.889 1.391-2.044 3.618-2.665 2.227-.578 4.176-.356 4.408.533Z" fill="url(#C)"/><path opacity=".25" d="M144.885 117.712c.139.533-.882 1.288-2.227 1.643-1.392.355-2.598.222-2.737-.311-.14-.533.881-1.288 2.227-1.643 1.391-.356 2.598-.223 2.737.311Z" fill="url(#D)"/><path opacity=".25" d="M131.365 95.77c.14.533-.881 1.288-2.227 1.644-1.391.355-2.598.222-2.737-.311-.139-.533.882-1.288 2.227-1.644 1.346-.355 2.598-.222 2.737.311Z" fill="url(#E)"/><path opacity=".25" d="M113.956 117.712c.139.533-.881 1.288-2.227 1.643-1.392.355-2.598.222-2.737-.311-.139-.533.881-1.288 2.227-1.643 1.345-.356 2.598-.222 2.737.311Z" fill="url(#F)"/><path opacity=".25" d="M161.725 102.876c.417 1.421-2.088 3.465-5.614 4.619-3.526 1.155-6.774.933-7.191-.444-.418-1.421 2.087-3.464 5.613-4.619 3.573-1.199 6.774-.977 7.192.444Z" fill="url(#G)"/><path opacity=".25" d="M167.174 97.278c.139.533-.882 1.288-2.227 1.643-1.392.355-2.598.222-2.737-.31-.14-.534.881-1.289 2.227-1.644 1.345-.356 2.598-.222 2.737.31Z" fill="url(#H)"/><path opacity=".25" d="M114.866 100.075c.139.533-.882 1.288-2.227 1.644-1.392.355-2.598.222-2.737-.311-.14-.533.881-1.288 2.227-1.644 1.391-.4 2.598-.266 2.737.311Z" fill="url(#I)"/><defs><radialGradient id="g" cx="0" cy="0" r="1" gradientUnits="userSpaceOnUse" gradientTransform="matrix(234.591 0 0 251.073 181.356 61.296)"><stop stop-color="#4A289C" stop-opacity="0"/><stop offset=".963" stop-color="#322689"/></radialGradient><radialGradient id="h" cx="0" cy="0" r="1" gradientUnits="userSpaceOnUse" gradientTransform="matrix(204.276 0 0 218.628 181.714 70.854)"><stop stop-color="#4A289C" stop-opacity="0"/><stop offset=".963" stop-color="#322689"/></radialGradient><radialGradient id="i" cx="0" cy="0" r="1" gradientUnits="userSpaceOnUse" gradientTransform="matrix(181.622 0 0 182.167 176.503 63.004)"><stop stop-color="#3925AE"/><stop offset=".963" stop-color="#553AF5"/></radialGradient><radialGradient id="j" cx="0" cy="0" r="1" gradientUnits="userSpaceOnUse" gradientTransform="matrix(117.001 0 0 112.013 181.78 74.67)"><stop stop-color="#553AF5"/><stop offset=".963" stop-color="#322689"/></radialGradient><radialGradient id="k" cx="0" cy="0" r="1" gradientUnits="userSpaceOnUse" gradientTransform="matrix(99.80803 15.32687 -15.80636 102.93043 191.291 83.15)"><stop stop-color="#4A289C"/><stop offset=".963" stop-color="#00092B"/></radialGradient><radialGradient id="l" cx="0" cy="0" r="1" gradientUnits="userSpaceOnUse" gradientTransform="matrix(75.6639 0 0 78.1392 197.099 112.577)"><stop stop-color="#4A289C"/><stop offset=".963" stop-color="#00092B"/></radialGradient><radialGradient id="m" cx="0" cy="0" r="1" gradientUnits="userSpaceOnUse" gradientTransform="matrix(93.4732 0 0 96.531 222.825 62.514)"><stop stop-color="#4A289C"/><stop offset=".963" stop-color="#00092B"/></radialGradient><radialGradient id="n" cx="0" cy="0" r="1" gradientUnits="userSpaceOnUse" gradientTransform="matrix(93.4723 0 0 96.53 222.842 62.516)"><stop stop-color="#4A289C"/><stop offset=".963" stop-color="#00092B"/></radialGradient><radialGradient id="o" cx="0" cy="0" r="1" gradientUnits="userSpaceOnUse" gradientTransform="matrix(93.4727 0 0 96.5307 222.847 62.516)"><stop stop-color="#4A289C"/><stop offset=".963" stop-color="#00092B"/></radialGradient><radialGradient id="p" cx="0" cy="0" r="1" gradientUnits="userSpaceOnUse" gradientTransform="matrix(93.4727 0 0 96.5304 222.847 62.515)"><stop stop-color="#4A289C"/><stop offset=".963" stop-color="#00092B"/></radialGradient><radialGradient id="q" cx="0" cy="0" r="1" gradientUnits="userSpaceOnUse" gradientTransform="matrix(93.4729 0 0 96.5311 222.852 62.516)"><stop stop-color="#4A289C"/><stop offset=".963" stop-color="#00092B"/></radialGradient><radialGradient id="r" cx="0" cy="0" r="1" gradientUnits="userSpaceOnUse" gradientTransform="matrix(93.4725 0 0 96.5302 222.862 62.516)"><stop stop-color="#4A289C"/><stop offset=".963" stop-color="#00092B"/></radialGradient><radialGradient id="s" cx="0" cy="0" r="1" gradientUnits="userSpaceOnUse" gradientTransform="matrix(28.5215 0 0 29.4546 99.75 109.209)"><stop stop-color="#4A289C"/><stop offset=".963" stop-color="#00092B"/></radialGradient><radialGradient id="t" cx="0" cy="0" r="1" gradientUnits="userSpaceOnUse" gradientTransform="rotate(26.021 -54.995 557.205) scale(28.6932 29.2762)"><stop stop-color="#4A289C"/><stop offset=".963" stop-color="#00092B"/></radialGradient><radialGradient id="u" cx="0" cy="0" r="1" gradientUnits="userSpaceOnUse" gradientTransform="matrix(18.7802 22.1683 -22.0617 18.6899 322.498 110.752)"><stop stop-color="#4A289C"/><stop offset=".963" stop-color="#00092B"/></radialGradient><radialGradient id="v" cx="0" cy="0" r="1" gradientUnits="userSpaceOnUse" gradientTransform="matrix(10.94498 5.34324 -5.45177 11.1673 248.828 91.709)"><stop stop-color="#4A289C"/><stop offset=".963" stop-color="#00092B"/></radialGradient><radialGradient id="w" cx="0" cy="0" r="1" gradientUnits="userSpaceOnUse" gradientTransform="matrix(10.94498 5.34324 -5.45177 11.1673 264.054 112.78)"><stop stop-color="#4A289C"/><stop offset=".963" stop-color="#00092B"/></radialGradient><radialGradient id="x" cx="0" cy="0" r="1" gradientUnits="userSpaceOnUse" gradientTransform="matrix(10.94498 5.34324 -5.45177 11.1673 278.828 98.803)"><stop stop-color="#4A289C"/><stop offset=".963" stop-color="#00092B"/></radialGradient><radialGradient id="y" cx="0" cy="0" r="1" gradientUnits="userSpaceOnUse" gradientTransform="rotate(40.091 -18.775 461.704) scale(12.2663 12.3401)"><stop stop-color="#4A289C"/><stop offset=".963" stop-color="#00092B"/></radialGradient><radialGradient id="z" cx="0" cy="0" r="1" gradientUnits="userSpaceOnUse" gradientTransform="rotate(33.438 -21.215 530.565) scale(19.6141 19.8726)"><stop stop-color="#4A289C"/><stop offset=".963" stop-color="#00092B"/></radialGradient><radialGradient id="A" cx="0" cy="0" r="1" gradientUnits="userSpaceOnUse" gradientTransform="matrix(17.3749 8.97539 -9.14754 17.70817 242.032 106.116)"><stop stop-color="#4A289C"/><stop offset=".963" stop-color="#00092B"/></radialGradient><radialGradient id="B" cx="0" cy="0" r="1" gradientUnits="userSpaceOnUse" gradientTransform="matrix(17.47578 .96855 -1.00006 18.0443 137.668 96.22)"><stop stop-color="#4A289C"/><stop offset=".963" stop-color="#00092B"/></radialGradient><radialGradient id="C" cx="0" cy="0" r="1" gradientUnits="userSpaceOnUse" gradientTransform="matrix(17.47568 .96855 -1.00006 18.0442 135.391 112.866)"><stop stop-color="#4A289C"/><stop offset=".963" stop-color="#00092B"/></radialGradient><radialGradient id="D" cx="0" cy="0" r="1" gradientUnits="userSpaceOnUse" gradientTransform="rotate(3.172 -1954.545 2616.485) scale(10.9031 11.2578)"><stop stop-color="#4A289C"/><stop offset=".963" stop-color="#00092B"/></radialGradient><radialGradient id="E" cx="0" cy="0" r="1" gradientUnits="userSpaceOnUse" gradientTransform="matrix(10.8864 .60335 -.62299 11.24065 128.268 90.23)"><stop stop-color="#4A289C"/><stop offset=".963" stop-color="#00092B"/></radialGradient><radialGradient id="F" cx="0" cy="0" r="1" gradientUnits="userSpaceOnUse" gradientTransform="rotate(3.172 -1970.007 2057.83) scale(10.9031 11.2579)"><stop stop-color="#4A289C"/><stop offset=".963" stop-color="#00092B"/></radialGradient><radialGradient id="G" cx="0" cy="0" r="1" gradientUnits="userSpaceOnUse" gradientTransform="matrix(28.5216 0 0 29.4546 152.935 88.777)"><stop stop-color="#4A289C"/><stop offset=".963" stop-color="#00092B"/></radialGradient><radialGradient id="H" cx="0" cy="0" r="1" gradientUnits="userSpaceOnUse" gradientTransform="matrix(10.8864 .60335 -.62298 11.24065 164.073 91.735)"><stop stop-color="#4A289C"/><stop offset=".963" stop-color="#00092B"/></radialGradient><radialGradient id="I" cx="0" cy="0" r="1" gradientUnits="userSpaceOnUse" gradientTransform="matrix(10.8864 .60335 -.62298 11.24055 111.8 94.495)"><stop stop-color="#4A289C"/><stop offset=".963" stop-color="#00092B"/></radialGradient></defs></svg>