<svg width="465" height="427" viewBox="0 0 465 427" fill="none" xmlns="http://www.w3.org/2000/svg">
<path d="M461.806 120.99C461.518 115.907 460.929 110.906 460.058 106.006L459.708 106.068C459.145 102.904 458.464 99.7815 457.67 96.7056L458.014 96.6167C456.746 91.7083 455.191 86.9179 453.366 82.2643L453.035 82.394C451.865 79.4097 450.584 76.4818 449.198 73.6153L449.518 73.4605C447.318 68.9123 444.852 64.518 442.142 60.2975L441.843 60.4896C440.115 57.7978 438.287 55.1768 436.364 52.6319L436.647 52.4176C433.609 48.3967 430.336 44.565 426.848 40.9426L426.592 41.1891C424.377 38.8882 422.075 36.6719 419.691 34.5456L419.928 34.2803C416.175 30.9328 412.222 27.8075 408.089 24.9245L407.885 25.216C405.269 23.3913 402.581 21.6639 399.825 20.039L400.006 19.7328C395.685 17.1851 391.2 14.8886 386.572 12.8631L386.429 13.1887C383.512 11.9121 380.538 10.7435 377.511 9.68769L377.628 9.3521C372.908 7.70573 368.062 6.33308 363.109 5.25283L363.034 5.60009C359.93 4.92315 356.784 4.36136 353.6 3.91935L353.649 3.5673C348.719 2.88277 343.7 2.4847 338.609 2.39019L338.603 2.74555C337.01 2.71599 335.411 2.71621 333.805 2.74674C332.199 2.77727 330.601 2.83783 329.011 2.9279L328.99 2.57304C323.907 2.86097 318.906 3.44951 314.006 4.32092L314.068 4.67086C310.904 5.23354 307.781 5.91449 304.706 6.7089L304.617 6.36477C299.708 7.63248 294.918 9.18832 290.264 11.0129L290.394 11.3438C287.41 12.5138 284.482 13.7947 281.615 15.1812L281.461 14.8613C276.912 17.0612 272.518 19.5265 268.298 22.2366L268.49 22.5356C265.798 24.2641 263.177 26.0924 260.632 28.0152L260.418 27.7317C256.397 30.7697 252.565 34.043 248.943 37.5307L249.189 37.7868C246.888 40.0022 244.672 42.3043 242.546 44.6878L242.28 44.4512C238.933 48.2035 235.808 52.1569 232.924 56.2903L233.216 56.4937C231.391 59.1099 229.664 61.7984 228.039 64.5539L227.733 64.3734C225.185 68.6939 222.889 73.1786 220.863 77.8072L221.189 77.9497C219.912 80.8669 218.743 83.8413 217.688 86.8679L217.352 86.7509C215.706 91.4705 214.333 96.3165 213.253 101.27L213.6 101.345C212.923 104.449 212.361 107.595 211.919 110.779L211.567 110.73C210.883 115.66 210.485 120.679 210.39 125.77L210.746 125.776C210.716 127.369 210.716 128.968 210.747 130.574C210.777 132.18 210.838 133.778 210.928 135.368L210.573 135.388C210.861 140.472 211.45 145.473 212.321 150.373L212.671 150.311C213.234 153.475 213.915 156.597 214.709 159.673L214.365 159.762C215.633 164.671 217.188 169.461 219.013 174.115L219.344 173.985C220.514 176.969 221.795 179.897 223.181 182.764L222.861 182.918C225.061 187.467 227.527 191.861 230.237 196.081L230.536 195.889C232.264 198.581 234.092 201.202 236.015 203.747L235.732 203.961C238.77 207.982 242.043 211.814 245.531 215.436L245.787 215.19C248.002 217.491 250.304 219.707 252.688 221.833L252.451 222.099C256.204 225.446 260.157 228.571 264.29 231.454L264.494 231.163C267.11 232.988 269.798 234.715 272.554 236.34L272.373 236.646C276.694 239.194 281.179 241.49 285.807 243.516L285.95 243.19C288.867 244.467 291.841 245.635 294.868 246.691L294.751 247.027C299.471 248.673 304.317 250.046 309.27 251.126L309.345 250.779C312.449 251.456 315.595 252.018 318.779 252.46L318.73 252.812C323.66 253.496 328.679 253.894 333.77 253.989L333.776 253.633C335.369 253.663 336.968 253.663 338.574 253.632C340.18 253.602 341.778 253.541 343.368 253.451L343.389 253.806C348.472 253.518 353.473 252.929 358.373 252.058L358.311 251.708C361.475 251.145 364.597 250.464 367.673 249.67L367.762 250.014C372.671 248.746 377.461 247.191 382.115 245.366L381.985 245.035C384.969 243.865 387.897 242.584 390.764 241.198L390.918 241.518C395.467 239.318 399.861 236.852 404.081 234.142L403.889 233.843C406.581 232.115 409.202 230.287 411.747 228.364L411.961 228.647C415.982 225.609 419.814 222.336 423.436 218.848L423.19 218.592C425.491 216.377 427.707 214.075 429.833 211.691L430.099 211.928C433.446 208.175 436.571 204.222 439.454 200.089L439.163 199.885C440.988 197.269 442.715 194.581 444.34 191.825L444.646 192.006C447.194 187.685 449.49 183.2 451.516 178.572L451.19 178.429C452.467 175.512 453.635 172.538 454.691 169.511L455.027 169.628C456.673 164.908 458.046 160.062 459.126 155.109L458.779 155.034C459.456 151.93 460.018 148.784 460.46 145.6L460.812 145.649C461.496 140.719 461.894 135.7 461.989 130.609L461.633 130.602C461.663 129.01 461.663 127.411 461.632 125.805C461.602 124.199 461.541 122.601 461.451 121.011L461.806 120.99ZM426.096 126.48C426.061 124.636 425.971 122.806 425.827 120.991L425.118 121.047C425.261 122.848 425.351 124.664 425.385 126.494C425.42 128.324 425.4 130.142 425.325 131.947L426.035 131.976C426.11 130.157 426.131 128.325 426.096 126.48ZM422.825 104.018C421.836 100.463 420.634 96.9979 419.235 93.6374L418.579 93.9106C419.967 97.2444 421.159 100.682 422.14 104.208L422.825 104.018ZM411.107 78.4353C409.074 75.3802 406.859 72.4574 404.479 69.6821L403.939 70.1449C406.301 72.8984 408.498 75.7981 410.515 78.8292L411.107 78.4353ZM392.059 57.7257C389.195 55.4525 386.191 53.3505 383.06 51.435L382.689 52.0413C385.795 53.9417 388.776 56.0271 391.617 58.2825L392.059 57.7257ZM367.56 43.8907C364.149 42.6202 360.641 41.5511 357.051 40.6978L356.887 41.3894C360.448 42.2359 363.928 43.2964 367.312 44.5568L367.56 43.8907ZM339.976 38.3436C338.157 38.2686 336.325 38.2479 334.48 38.2829C332.636 38.318 330.806 38.4083 328.991 38.5524L329.047 39.261C330.848 39.1181 332.664 39.0284 334.494 38.9936C336.324 38.9589 338.142 38.9794 339.947 39.0538L339.976 38.3436ZM312.018 41.5539C308.463 42.543 304.998 43.7446 301.637 45.1439L301.911 45.8001C305.244 44.412 308.682 43.22 312.208 42.2387L312.018 41.5539ZM286.435 53.2718C283.38 55.3049 280.457 57.5196 277.682 59.9L278.145 60.4396C280.898 58.0779 283.798 55.8807 286.829 53.8636L286.435 53.2718ZM265.726 72.3198C263.453 75.1836 261.351 78.1884 259.435 81.3186L260.041 81.6896C261.942 78.5842 264.027 75.603 266.283 72.7618L265.726 72.3198ZM251.891 96.8186C250.62 100.23 249.551 103.738 248.698 107.328L249.389 107.492C250.236 103.931 251.296 100.451 252.557 97.0667L251.891 96.8186ZM246.344 124.403C246.269 126.222 246.248 128.054 246.283 129.899C246.318 131.743 246.408 133.573 246.552 135.388L247.261 135.332C247.118 133.531 247.028 131.715 246.994 129.885C246.959 128.055 246.979 126.237 247.054 124.432L246.344 124.403ZM249.554 152.361C250.543 155.916 251.745 159.381 253.144 162.742L253.8 162.468C252.412 159.135 251.22 155.697 250.239 152.171L249.554 152.361ZM261.272 177.944C263.305 180.999 265.52 183.922 267.9 186.697L268.44 186.234C266.078 183.481 263.881 180.581 261.864 177.55L261.272 177.944ZM280.32 198.653C283.184 200.926 286.188 203.028 289.319 204.944L289.69 204.338C286.584 202.437 283.603 200.352 280.762 198.096L280.32 198.653ZM304.819 212.488C308.23 213.759 311.738 214.828 315.328 215.681L315.492 214.99C311.931 214.143 308.451 213.083 305.067 211.822L304.819 212.488ZM332.403 218.035C334.222 218.11 336.054 218.131 337.899 218.096C339.743 218.061 341.573 217.971 343.388 217.827L343.332 217.118C341.531 217.261 339.715 217.35 337.885 217.385C336.055 217.42 334.237 217.4 332.432 217.325L332.403 218.035ZM360.361 214.825C363.916 213.836 367.381 212.634 370.742 211.235L370.468 210.579C367.135 211.967 363.697 213.159 360.171 214.14L360.361 214.825ZM385.944 203.107C388.999 201.074 391.922 198.859 394.697 196.479L394.234 195.939C391.481 198.301 388.581 200.498 385.55 202.515L385.944 203.107ZM406.653 184.059C408.926 181.195 411.028 178.191 412.944 175.06L412.338 174.689C410.437 177.795 408.352 180.776 406.096 183.617L406.653 184.059ZM420.488 159.56C421.759 156.149 422.828 152.641 423.681 149.051L422.99 148.887C422.143 152.448 421.083 155.928 419.822 159.312L420.488 159.56ZM404.064 126.899C404.03 125.156 403.932 123.429 403.77 121.72L403.062 121.787C403.222 123.478 403.32 125.187 403.353 126.913C403.386 128.638 403.353 130.35 403.257 132.045L403.967 132.085C404.064 130.372 404.097 128.643 404.064 126.899ZM400.311 105.84C399.166 102.553 397.775 99.3819 396.162 96.3492L395.535 96.683C397.131 99.6839 398.507 102.821 399.64 106.074L400.311 105.84ZM386.866 83.0163C384.564 80.4367 382.069 78.0346 379.404 75.8327L378.951 76.3807C381.589 78.5597 384.058 80.9368 386.336 83.4896L386.866 83.0163ZM365.727 67.05C362.636 65.5532 359.414 64.2844 356.085 63.265L355.877 63.9446C359.171 64.9533 362.358 66.2087 365.418 67.6898L365.727 67.05ZM340.085 60.4118C338.372 60.3151 336.643 60.2822 334.899 60.3154C333.156 60.3485 331.429 60.4471 329.72 60.6088L329.787 61.3165C331.478 61.1565 333.187 61.0589 334.913 61.0261C336.638 60.9933 338.35 61.0258 340.045 61.1215L340.085 60.4118ZM313.84 64.068C310.553 65.2132 307.382 66.6035 304.349 68.2168L304.683 68.8444C307.684 67.2481 310.821 65.8724 314.074 64.7393L313.84 64.068ZM291.016 77.5129C288.437 79.8146 286.035 82.3097 283.833 84.975L284.381 85.4277C286.56 82.7902 288.937 80.321 291.49 78.0433L291.016 77.5129ZM275.05 98.6515C273.553 101.743 272.284 104.965 271.265 108.294L271.945 108.502C272.953 105.208 274.209 102.021 275.69 98.9612L275.05 98.6515ZM268.412 124.293C268.315 126.007 268.282 127.736 268.315 129.48C268.349 131.223 268.447 132.95 268.609 134.659L269.317 134.592C269.157 132.901 269.059 131.192 269.026 129.466C268.993 127.741 269.026 126.029 269.122 124.333L268.412 124.293ZM272.068 150.539C273.213 153.826 274.604 156.997 276.217 160.03L276.844 159.696C275.248 156.695 273.872 153.558 272.739 150.305L272.068 150.539ZM285.513 173.363C287.815 175.942 290.31 178.344 292.975 180.546L293.428 179.998C290.79 177.819 288.321 175.442 286.043 172.889L285.513 173.363ZM306.652 189.329C309.743 190.826 312.965 192.095 316.294 193.114L316.502 192.434C313.208 191.426 310.021 190.17 306.961 188.689L306.652 189.329ZM332.293 195.967C334.007 196.064 335.736 196.097 337.48 196.064C339.223 196.03 340.95 195.932 342.659 195.77L342.592 195.062C340.901 195.222 339.192 195.32 337.466 195.353C335.741 195.386 334.029 195.353 332.334 195.257L332.293 195.967ZM358.539 192.311C361.826 191.166 364.997 189.775 368.03 188.162L367.696 187.535C364.695 189.131 361.558 190.507 358.305 191.64L358.539 192.311ZM381.363 178.866C383.942 176.564 386.344 174.069 388.546 171.404L387.998 170.951C385.819 173.589 383.442 176.058 380.889 178.336L381.363 178.866ZM397.329 157.727C398.826 154.636 400.095 151.414 401.114 148.085L400.434 147.877C399.426 151.171 398.17 154.358 396.689 157.418L397.329 157.727ZM445.996 126.102C445.966 124.496 445.901 122.898 445.802 121.31L445.093 121.354C445.191 122.932 445.255 124.519 445.286 126.116C445.316 127.712 445.312 129.301 445.274 130.881L445.985 130.898C446.023 129.307 446.027 127.708 445.996 126.102ZM443.849 106.385C443.215 103.233 442.445 100.13 441.548 97.0841L440.866 97.285C441.758 100.311 442.522 103.393 443.152 106.525L443.849 106.385ZM436.309 82.9768C434.988 80.0558 433.543 77.2038 431.982 74.4271L431.362 74.7755C432.914 77.5342 434.349 80.3677 435.661 83.2696L436.309 82.9768ZM423.722 61.8448C421.788 59.2975 419.746 56.8376 417.602 54.472L417.075 54.9494C419.205 57.2997 421.234 59.7437 423.156 62.2747L423.722 61.8448ZM406.76 44.0342C404.314 41.9819 401.778 40.0344 399.159 38.1986L398.751 38.7807C401.354 40.6047 403.873 42.5396 406.303 44.5787L406.76 44.0342ZM386.272 30.423C383.438 28.9681 380.533 27.633 377.564 26.4242L377.296 27.0826C380.246 28.2835 383.132 29.6099 385.948 31.0554L386.272 30.423ZM363.268 21.7249C360.19 20.9439 357.061 20.2932 353.887 19.7788L353.773 20.4805C356.926 20.9915 360.035 21.638 363.093 22.414L363.268 21.7249ZM338.898 18.3943C337.307 18.3562 335.708 18.3521 334.102 18.3827C332.496 18.4132 330.898 18.4781 329.31 18.5766L329.354 19.2861C330.932 19.1882 332.519 19.1237 334.116 19.0934C335.712 19.063 337.301 19.0671 338.881 19.105L338.898 18.3943ZM314.385 20.5297C311.233 21.1644 308.13 21.9336 305.084 22.831L305.285 23.5129C308.311 22.6213 311.393 21.8571 314.525 21.2266L314.385 20.5297ZM290.977 28.0702C288.056 29.3909 285.204 30.8355 282.427 32.3971L282.776 33.0167C285.534 31.4652 288.368 30.0301 291.27 28.7179L290.977 28.0702ZM269.845 40.6569C267.297 42.5909 264.838 44.6333 262.472 46.7771L262.949 47.3038C265.3 45.1738 267.744 43.1446 270.275 41.223L269.845 40.6569ZM252.034 57.6194C249.982 60.0648 248.034 62.6005 246.199 65.2195L246.781 65.6275C248.605 63.0254 250.54 60.506 252.579 58.0764L252.034 57.6194ZM238.423 78.1066C236.968 80.9406 235.633 83.8456 234.424 86.8146L235.083 87.0826C236.283 84.1329 237.61 81.2469 239.055 78.4312L238.423 78.1066ZM229.725 101.111C228.944 104.189 228.293 107.318 227.779 110.492L228.481 110.606C228.992 107.453 229.638 104.344 230.414 101.286L229.725 101.111ZM226.394 125.481C226.356 127.072 226.352 128.671 226.383 130.277C226.413 131.883 226.478 133.481 226.577 135.069L227.286 135.025C227.188 133.447 227.124 131.86 227.093 130.263C227.063 128.667 227.067 127.078 227.105 125.498L226.394 125.481ZM228.53 149.994C229.164 153.146 229.934 156.249 230.831 159.295L231.513 159.094C230.621 156.067 229.857 152.986 229.227 149.854L228.53 149.994ZM236.07 173.402C237.391 176.323 238.836 179.175 240.397 181.952L241.017 181.603C239.465 178.845 238.03 176.011 236.718 173.109L236.07 173.402ZM248.657 194.534C250.591 197.081 252.633 199.541 254.777 201.907L255.304 201.43C253.174 199.079 251.145 196.635 249.223 194.104L248.657 194.534ZM265.619 212.345C268.065 214.397 270.601 216.344 273.22 218.18L273.628 217.598C271.025 215.774 268.506 213.839 266.076 211.8L265.619 212.345ZM286.107 225.956C288.941 227.411 291.846 228.746 294.815 229.955L295.083 229.296C292.133 228.095 289.247 226.769 286.431 225.324L286.107 225.956ZM309.111 234.654C312.189 235.435 315.318 236.086 318.492 236.6L318.606 235.898C315.453 235.387 312.344 234.741 309.286 233.965L309.111 234.654ZM333.481 237.985C335.072 238.023 336.671 238.027 338.277 237.996C339.883 237.966 341.481 237.901 343.069 237.802L343.025 237.093C341.447 237.191 339.86 237.255 338.263 237.286C336.667 237.316 335.078 237.312 333.498 237.274L333.481 237.985ZM357.994 235.849C361.146 235.215 364.249 234.445 367.295 233.548L367.094 232.866C364.068 233.758 360.986 234.522 357.854 235.152L357.994 235.849ZM381.402 228.309C384.323 226.988 387.175 225.543 389.952 223.982L389.603 223.362C386.845 224.914 384.011 226.349 381.109 227.661L381.402 228.309ZM402.534 215.722C405.081 213.788 407.541 211.746 409.907 209.602L409.43 209.075C407.079 211.205 404.635 213.234 402.104 215.156L402.534 215.722ZM420.345 198.759C422.397 196.314 424.345 193.778 426.18 191.159L425.598 190.751C423.774 193.354 421.839 195.873 419.8 198.302L420.345 198.759ZM433.956 178.272C435.411 175.438 436.746 172.533 437.955 169.564L437.296 169.296C436.095 172.246 434.769 175.132 433.324 177.948L433.956 178.272ZM442.654 155.268C443.435 152.19 444.086 149.061 444.6 145.887L443.898 145.773C443.387 148.926 442.741 152.035 441.965 155.093L442.654 155.268ZM386.296 127.237C386.263 125.518 386.144 123.82 385.943 122.149L385.237 122.233C385.435 123.881 385.553 125.555 385.585 127.25C385.617 128.946 385.563 130.623 385.428 132.277L386.137 132.335C386.274 130.657 386.328 128.956 386.296 127.237ZM381.525 106.801C380.063 103.706 378.293 100.787 376.257 98.0817L375.689 98.5092C377.697 101.176 379.441 104.054 380.882 107.105L381.525 106.801ZM364.753 87.0066C361.972 85.0746 358.987 83.4175 355.839 82.0738L355.56 82.7276C358.664 84.0521 361.606 85.6857 364.347 87.5904L364.753 87.0066ZM340.335 78.2423C338.657 78.1051 336.956 78.0508 335.237 78.0834C333.518 78.1161 331.82 78.235 330.149 78.436L330.233 79.1417C331.881 78.9436 333.555 78.8264 335.25 78.7942C336.946 78.7619 338.623 78.8155 340.277 78.9508L340.335 78.2423ZM314.802 82.854C311.706 84.3163 308.787 86.0856 306.082 88.122L306.509 88.6899C309.176 86.6824 312.054 84.9382 315.105 83.4967L314.802 82.854ZM295.007 99.6262C293.075 102.407 291.418 105.392 290.074 108.54L290.728 108.819C292.052 105.715 293.686 102.773 295.59 100.032L295.007 99.6262ZM286.242 124.044C286.105 125.722 286.051 127.423 286.083 129.142C286.116 130.861 286.235 132.559 286.436 134.23L287.142 134.146C286.944 132.497 286.826 130.824 286.794 129.128C286.762 127.433 286.816 125.756 286.951 124.102L286.242 124.044ZM290.854 149.577C292.316 152.673 294.086 155.592 296.122 158.297L296.69 157.87C294.682 155.203 292.938 152.325 291.497 149.274L290.854 149.577ZM307.626 169.372C310.407 171.304 313.392 172.961 316.54 174.305L316.819 173.651C313.715 172.327 310.773 170.693 308.032 168.789L307.626 169.372ZM332.044 178.137C333.722 178.274 335.423 178.328 337.142 178.295C338.861 178.263 340.559 178.144 342.23 177.943L342.146 177.237C340.498 177.435 338.824 177.553 337.128 177.585C335.433 177.617 333.756 177.563 332.102 177.428L332.044 178.137ZM357.577 173.525C360.673 172.063 363.592 170.293 366.297 168.257L365.87 167.689C363.203 169.697 360.325 171.441 357.274 172.882L357.577 173.525ZM377.372 156.753C379.304 153.972 380.961 150.987 382.305 147.839L381.651 147.56C380.327 150.663 378.693 153.606 376.789 156.347L377.372 156.753Z" stroke="url(#paint0_linear_3605_9502)" stroke-width="0.710852" stroke-dasharray="9.95 15.64"/>
<g filter="url(#filter0_d_3605_9502)">
<circle cx="341.961" cy="127.166" r="40.7284" fill="url(#paint1_linear_3605_9502)"/>
<circle cx="341.961" cy="127.166" r="39.9139" stroke="#1D2729" stroke-width="1.62914"/>
</g>
<g clip-path="url(#clip0_3605_9502)">
<path d="M343.003 129.631C343.095 128.003 343.892 126.567 345.095 125.547C346.278 124.548 347.866 123.937 349.601 123.937C351.336 123.937 352.924 124.548 354.107 125.547C354.716 126.048 355.216 126.669 355.576 127.372C355.936 128.074 356.148 128.843 356.199 129.631C356.291 131.305 355.619 132.863 354.436 134.014C353.135 135.256 351.4 135.941 349.601 135.923C347.683 135.923 345.966 135.187 344.762 134.014C343.583 132.863 342.908 131.305 343.003 129.631Z" fill="white"/>
<path d="M332.493 132.93C332.506 133.565 332.71 134.805 333.013 135.774C333.672 137.859 334.779 139.776 336.257 141.388C337.841 143.13 339.775 144.519 341.932 145.463C344.257 146.492 346.774 147.018 349.382 147.012C351.991 147.006 354.511 146.474 356.833 145.439C359.041 144.449 360.95 143.065 362.505 141.345C363.98 139.727 365.086 137.807 365.746 135.719C366.067 134.698 366.272 133.645 366.357 132.579C366.436 131.54 366.403 130.498 366.256 129.46C365.969 127.435 365.267 125.531 364.188 123.8C363.199 122.208 361.928 120.815 360.416 119.639L360.419 119.636L345.155 107.912C344.11 107.112 342.427 107.115 341.327 107.885C340.228 108.655 340.087 109.953 341.077 110.765L341.074 110.768L347.443 115.949L328.034 115.97C326.402 115.97 324.863 117.027 324.554 118.356C324.243 119.712 325.333 120.833 326.998 120.843L326.995 120.849L336.834 120.83L319.279 134.304L319.212 134.353C317.556 135.621 317.022 137.732 318.063 139.067C319.123 140.423 321.371 140.426 323.045 139.073L332.628 131.234C332.628 131.234 332.487 132.294 332.499 132.93H332.493ZM357.111 136.473C355.137 138.486 352.376 139.626 349.382 139.632C346.389 139.638 343.624 138.508 341.651 136.498C340.686 135.517 339.977 134.393 339.54 133.193C339.113 132.013 338.945 130.764 339.055 129.503C339.162 128.268 339.525 127.092 340.115 126.026C340.712 124.954 341.51 124.007 342.464 123.234C344.424 121.658 346.867 120.806 349.382 120.821C351.939 120.818 354.38 121.658 356.301 123.216C357.279 124.013 358.073 124.954 358.647 125.999C359.24 127.07 359.601 128.253 359.707 129.472C359.817 130.734 359.649 131.983 359.221 133.162C358.785 134.365 358.076 135.49 357.111 136.473Z" fill="#FF7021"/>
</g>
<path d="M191.873 302.467C191.656 298.624 191.211 294.843 190.552 291.139L190.287 291.186C189.862 288.794 189.347 286.433 188.747 284.108L189.007 284.041C188.048 280.33 186.872 276.709 185.493 273.191L185.243 273.289C184.358 271.033 183.39 268.819 182.342 266.652L182.584 266.535C180.92 263.097 179.057 259.775 177.008 256.584L176.782 256.729C175.475 254.694 174.093 252.713 172.639 250.789L172.854 250.627C170.557 247.587 168.083 244.69 165.446 241.952L165.252 242.138C163.577 240.399 161.837 238.723 160.035 237.116L160.214 236.915C157.377 234.385 154.389 232.022 151.264 229.843L151.11 230.063C149.132 228.683 147.1 227.378 145.017 226.149L145.153 225.918C141.887 223.992 138.497 222.256 134.997 220.724L134.89 220.97C132.684 220.005 130.436 219.122 128.148 218.324L128.236 218.07C124.668 216.825 121.005 215.788 117.26 214.971L117.203 215.234C114.857 214.722 112.478 214.297 110.072 213.963L110.109 213.697C106.382 213.179 102.587 212.878 98.7385 212.807L98.7335 213.076C97.5297 213.053 96.3206 213.053 95.1065 213.077C93.8925 213.1 92.6842 213.145 91.4821 213.213L91.4669 212.945C87.6238 213.163 83.8435 213.608 80.1388 214.267L80.1859 214.531C77.7937 214.956 75.4333 215.471 73.1079 216.072L73.0408 215.812C69.33 216.77 65.7086 217.946 62.1905 219.326L62.2886 219.576C60.0325 220.46 57.8191 221.429 55.652 222.477L55.535 222.235C52.0966 223.898 48.7747 225.762 45.584 227.811L45.7292 228.037C43.6942 229.343 41.7128 230.725 39.7889 232.179L39.6269 231.965C36.5872 234.261 33.6905 236.736 30.952 239.373L31.1384 239.566C29.3989 241.241 27.7234 242.981 26.1159 244.783L25.9154 244.604C23.3848 247.441 21.022 250.43 18.8425 253.555L19.0629 253.708C17.6834 255.686 16.3776 257.719 15.1492 259.802L14.9177 259.665C12.9917 262.932 11.2556 266.322 9.72433 269.821L9.97049 269.929C9.00541 272.134 8.12192 274.383 7.32376 276.671L7.07006 276.582C5.82544 280.15 4.78773 283.814 3.97108 287.558L4.2336 287.615C3.72185 289.962 3.29714 292.34 2.96299 294.747L2.69684 294.71C2.17935 298.437 1.87841 302.231 1.80696 306.08L2.07561 306.085C2.05327 307.289 2.05343 308.498 2.07651 309.712C2.09959 310.926 2.14538 312.134 2.21346 313.336L1.9452 313.352C2.16286 317.195 2.60779 320.975 3.26657 324.68L3.53111 324.633C3.95649 327.025 4.47128 329.385 5.07184 331.711L4.81168 331.778C5.77005 335.488 6.94624 339.11 8.32557 342.628L8.57573 342.53C9.46027 344.786 10.4286 346.999 11.4768 349.166L11.2349 349.283C12.898 352.722 14.7617 356.044 16.8105 359.235L17.0366 359.089C18.3433 361.124 19.7255 363.106 21.1791 365.03L20.9647 365.192C23.2614 368.231 25.736 371.128 28.3727 373.867L28.5662 373.68C30.241 375.42 31.9814 377.095 33.7833 378.703L33.6044 378.903C36.4411 381.434 39.4298 383.796 42.5546 385.976L42.7084 385.756C44.6862 387.135 46.7186 388.441 48.8018 389.669L48.6653 389.901C51.9315 391.827 55.3219 393.563 58.8211 395.094L58.9288 394.848C61.1341 395.813 63.3828 396.697 65.6708 397.495L65.5823 397.748C69.1503 398.993 72.8138 400.031 76.5582 400.847L76.6155 400.585C78.962 401.097 81.3403 401.521 83.7469 401.856L83.7099 402.122C87.4369 402.639 91.2314 402.94 95.08 403.012L95.085 402.743C96.2888 402.765 97.498 402.765 98.712 402.742C99.9261 402.719 101.134 402.673 102.336 402.605L102.352 402.873C106.195 402.656 109.975 402.211 113.68 401.552L113.633 401.287C116.025 400.862 118.385 400.347 120.711 399.747L120.778 400.007C124.488 399.048 128.11 397.872 131.628 396.493L131.53 396.243C133.786 395.358 135.999 394.39 138.166 393.342L138.283 393.584C141.722 391.92 145.044 390.057 148.235 388.008L148.089 387.782C150.124 386.475 152.106 385.093 154.03 383.639L154.192 383.854C157.231 381.557 160.128 379.083 162.867 376.446L162.68 376.252C164.42 374.577 166.095 372.837 167.703 371.035L167.903 371.214C170.434 368.377 172.796 365.389 174.976 362.264L174.756 362.11C176.135 360.132 177.441 358.1 178.669 356.017L178.901 356.153C180.827 352.887 182.563 349.497 184.094 345.997L183.848 345.89C184.813 343.684 185.697 341.436 186.495 339.148L186.748 339.236C187.993 335.668 189.031 332.005 189.847 328.26L189.585 328.203C190.097 325.857 190.521 323.478 190.856 321.072L191.122 321.109C191.639 317.382 191.94 313.587 192.012 309.738L191.743 309.733C191.765 308.53 191.765 307.321 191.742 306.107C191.719 304.892 191.673 303.684 191.605 302.482L191.873 302.467ZM164.877 306.617C164.851 305.223 164.782 303.839 164.674 302.467L164.138 302.51C164.246 303.871 164.314 305.244 164.34 306.627C164.366 308.011 164.351 309.386 164.294 310.75L164.831 310.772C164.888 309.397 164.904 308.012 164.877 306.617ZM162.404 289.636C161.657 286.948 160.748 284.329 159.69 281.788L159.194 281.995C160.244 284.515 161.145 287.114 161.887 289.78L162.404 289.636ZM153.546 270.296C152.009 267.986 150.335 265.777 148.535 263.679L148.127 264.028C149.913 266.11 151.574 268.302 153.098 270.594L153.546 270.296ZM139.146 254.64C136.981 252.921 134.709 251.332 132.343 249.884L132.062 250.342C134.41 251.779 136.664 253.356 138.812 255.061L139.146 254.64ZM120.625 244.181C118.046 243.22 115.394 242.412 112.68 241.767L112.556 242.29C115.248 242.93 117.879 243.731 120.438 244.684L120.625 244.181ZM99.7721 239.987C98.3969 239.93 97.0115 239.915 95.6172 239.941C94.2229 239.968 92.8391 240.036 91.4671 240.145L91.5096 240.681C92.8709 240.573 94.2439 240.505 95.6274 240.479C97.011 240.452 98.3855 240.468 99.7499 240.524L99.7721 239.987ZM78.6356 242.414C75.9482 243.162 73.3289 244.07 70.7884 245.128L70.995 245.624C73.5152 244.575 76.1137 243.674 78.7797 242.932L78.6356 242.414ZM59.2959 251.273C56.9863 252.81 54.7767 254.484 52.6786 256.284L53.0285 256.691C55.1101 254.906 57.3022 253.245 59.5936 251.72L59.2959 251.273ZM43.6398 265.673C41.9212 267.838 40.3322 270.109 38.8841 272.476L39.3425 272.756C40.7791 270.408 42.3557 268.155 44.0607 266.007L43.6398 265.673ZM33.1807 284.193C32.2202 286.772 31.412 289.424 30.7669 292.138L31.2897 292.262C31.9297 289.57 32.7314 286.939 33.6843 284.381L33.1807 284.193ZM28.9872 305.046C28.9305 306.422 28.9148 307.807 28.9413 309.201C28.9678 310.596 29.0361 311.979 29.145 313.351L29.6807 313.309C29.5727 311.948 29.5049 310.575 29.4786 309.191C29.4523 307.808 29.4679 306.433 29.5241 305.069L28.9872 305.046ZM31.4141 326.183C32.1619 328.87 33.0703 331.49 34.1281 334.03L34.6242 333.824C33.5748 331.303 32.6737 328.705 31.9318 326.039L31.4141 326.183ZM40.2727 345.523C41.8097 347.832 43.4839 350.042 45.2835 352.14L45.6914 351.79C43.906 349.708 42.245 347.516 40.7201 345.225L40.2727 345.523ZM54.6727 361.179C56.8376 362.897 59.1092 364.486 61.4756 365.934L61.7561 365.476C59.4084 364.039 57.1547 362.463 55.0068 360.758L54.6727 361.179ZM73.1934 371.638C75.7722 372.598 78.4241 373.406 81.138 374.052L81.2623 373.529C78.57 372.889 75.9392 372.087 73.3809 371.134L73.1934 371.638ZM94.0465 375.831C95.4216 375.888 96.807 375.904 98.2013 375.877C99.5957 375.851 100.979 375.782 102.351 375.674L102.309 375.138C100.948 375.246 99.5747 375.314 98.1911 375.34C96.8076 375.366 95.433 375.351 94.0686 375.294L94.0465 375.831ZM115.183 373.404C117.87 372.657 120.49 371.748 123.03 370.69L122.824 370.194C120.303 371.244 117.705 372.145 115.039 372.887L115.183 373.404ZM134.523 364.546C136.832 363.009 139.042 361.335 141.14 359.535L140.79 359.127C138.708 360.913 136.516 362.574 134.225 364.098L134.523 364.546ZM150.179 350.146C151.897 347.981 153.486 345.709 154.934 343.343L154.476 343.062C153.039 345.41 151.463 347.664 149.758 349.812L150.179 350.146ZM160.638 331.625C161.598 329.046 162.406 326.394 163.052 323.68L162.529 323.556C161.889 326.248 161.087 328.879 160.134 331.438L160.638 331.625ZM148.221 306.934C148.196 305.616 148.121 304.31 147.999 303.019L147.464 303.069C147.585 304.347 147.659 305.639 147.684 306.944C147.709 308.249 147.684 309.543 147.612 310.824L148.148 310.855C148.221 309.559 148.246 308.252 148.221 306.934ZM145.384 291.014C144.518 288.528 143.467 286.131 142.248 283.838L141.773 284.091C142.98 286.36 144.02 288.731 144.877 291.191L145.384 291.014ZM135.22 273.759C133.48 271.809 131.594 269.993 129.579 268.328L129.236 268.743C131.23 270.39 133.097 272.187 134.819 274.117L135.22 273.759ZM119.24 261.689C116.902 260.557 114.467 259.598 111.95 258.827L111.793 259.341C114.283 260.104 116.692 261.053 119.005 262.172L119.24 261.689ZM99.8546 256.67C98.5595 256.597 97.252 256.572 95.9338 256.597C94.6157 256.623 93.3101 256.697 92.0187 256.819L92.0693 257.354C93.3473 257.233 94.6394 257.16 95.9441 257.135C97.2487 257.11 98.5427 257.135 99.8243 257.207L99.8546 256.67ZM80.0137 259.434C77.5284 260.3 75.1312 261.351 72.8385 262.571L73.0909 263.045C75.3595 261.839 77.7314 260.799 80.1905 259.942L80.0137 259.434ZM62.7591 269.599C60.8089 271.339 58.993 273.225 57.3284 275.24L57.7427 275.582C59.3899 273.588 61.187 271.721 63.1169 270L62.7591 269.599ZM50.6888 285.579C49.5572 287.916 48.598 290.352 47.8273 292.868L48.3412 293.026C49.1037 290.536 50.0528 288.126 51.1725 285.813L50.6888 285.579ZM45.6704 304.964C45.5973 306.259 45.5724 307.567 45.5975 308.885C45.6225 310.203 45.6971 311.508 45.8193 312.8L46.3543 312.749C46.2334 311.471 46.1596 310.179 46.1348 308.874C46.11 307.57 46.1346 306.276 46.2069 304.994L45.6704 304.964ZM48.4345 324.805C49.3002 327.29 50.3513 329.687 51.5709 331.98L52.0453 331.728C50.8385 329.459 49.7985 327.087 48.9419 324.628L48.4345 324.805ZM58.5986 342.059C60.3386 344.01 62.2249 345.826 64.2398 347.49L64.5821 347.076C62.5881 345.429 60.7215 343.632 58.9996 341.702L58.5986 342.059ZM74.579 354.13C76.9165 355.261 79.3518 356.221 81.8683 356.991L82.0256 356.477C79.5357 355.715 77.126 354.766 74.8132 353.646L74.579 354.13ZM93.9639 359.148C95.259 359.221 96.5666 359.246 97.8847 359.221C99.2028 359.196 100.508 359.121 101.8 358.999L101.749 358.464C100.471 358.585 99.1791 358.659 97.8745 358.684C96.5699 358.709 95.2758 358.684 93.9942 358.612L93.9639 359.148ZM113.805 356.384C116.29 355.518 118.687 354.467 120.98 353.248L120.728 352.773C118.459 353.98 116.087 355.02 113.628 355.877L113.805 356.384ZM131.059 346.22C133.01 344.48 134.826 342.594 136.49 340.579L136.076 340.236C134.429 342.23 132.632 344.097 130.702 345.819L131.059 346.22ZM143.13 330.24C144.261 327.902 145.221 325.467 145.991 322.95L145.477 322.793C144.715 325.283 143.766 327.692 142.646 330.005L143.13 330.24ZM179.922 306.331C179.898 305.117 179.849 303.909 179.775 302.708L179.239 302.742C179.313 303.935 179.361 305.135 179.384 306.341C179.407 307.548 179.404 308.749 179.375 309.944L179.913 309.957C179.941 308.754 179.945 307.546 179.922 306.331ZM178.298 291.425C177.819 289.042 177.237 286.697 176.559 284.394L176.043 284.546C176.717 286.834 177.295 289.164 177.772 291.531L178.298 291.425ZM172.598 273.729C171.599 271.521 170.507 269.365 169.327 267.266L168.858 267.529C170.031 269.615 171.116 271.757 172.108 273.951L172.598 273.729ZM163.083 257.754C161.62 255.828 160.076 253.968 158.456 252.18L158.058 252.541C159.668 254.318 161.202 256.165 162.655 258.079L163.083 257.754ZM150.259 244.289C148.41 242.738 146.493 241.265 144.514 239.878L144.205 240.318C146.172 241.697 148.077 243.159 149.914 244.701L150.259 244.289ZM134.771 233.999C132.629 232.899 130.433 231.89 128.188 230.976L127.985 231.474C130.215 232.382 132.397 233.385 134.526 234.477L134.771 233.999ZM117.38 227.424C115.053 226.833 112.688 226.341 110.288 225.952L110.202 226.483C112.586 226.869 114.936 227.358 117.248 227.945L117.38 227.424ZM98.9571 224.906C97.7544 224.877 96.5456 224.874 95.3312 224.897C94.1168 224.92 92.909 224.969 91.7083 225.044L91.7416 225.58C92.9346 225.506 94.1348 225.457 95.3414 225.434C96.5481 225.411 97.7492 225.414 98.9442 225.443L98.9571 224.906ZM80.4251 226.52C78.0423 227 75.6971 227.581 73.3941 228.26L73.546 228.775C75.8339 228.101 78.1638 227.524 80.5311 227.047L80.4251 226.52ZM62.7292 232.221C60.521 233.219 58.3649 234.311 56.2657 235.492L56.5291 235.96C58.6147 234.787 60.7568 233.702 62.9506 232.71L62.7292 232.221ZM46.7537 241.736C44.828 243.198 42.9684 244.742 41.18 246.363L41.5409 246.761C43.3177 245.151 45.1654 243.617 47.0787 242.164L46.7537 241.736ZM33.2892 254.559C31.7376 256.408 30.2654 258.325 28.8776 260.305L29.3176 260.613C30.6965 258.646 32.1593 256.742 33.7008 254.905L33.2892 254.559ZM22.9993 270.047C21.8994 272.19 20.8901 274.386 19.9763 276.63L20.474 276.833C21.3819 274.603 22.3846 272.421 23.4774 270.293L22.9993 270.047ZM16.4237 287.438C15.8333 289.765 15.3413 292.131 14.9525 294.53L15.483 294.616C15.8693 292.233 16.358 289.882 16.9446 287.57L16.4237 287.438ZM13.9058 305.861C13.877 307.064 13.8739 308.273 13.897 309.487C13.9201 310.702 13.9692 311.909 14.0436 313.11L14.58 313.077C14.506 311.884 14.4573 310.684 14.4343 309.477C14.4114 308.27 14.4145 307.069 14.4431 305.874L13.9058 305.861ZM15.5202 324.393C15.9999 326.776 16.5814 329.121 17.2599 331.424L17.7754 331.273C17.1014 328.985 16.5236 326.655 16.047 324.287L15.5202 324.393ZM21.2207 342.089C22.2191 344.298 23.3112 346.454 24.4917 348.553L24.9601 348.289C23.7872 346.204 22.7023 344.062 21.7103 341.868L21.2207 342.089ZM30.736 358.065C32.1981 359.991 33.7421 361.85 35.3628 363.639L35.761 363.278C34.1507 361.501 32.6167 359.653 31.164 357.74L30.736 358.065ZM43.5594 371.529C45.4081 373.081 47.325 374.553 49.305 375.941L49.6134 375.501C47.6463 374.122 45.7417 372.659 43.9049 371.118L43.5594 371.529ZM59.0474 381.819C61.1899 382.919 63.386 383.928 65.6305 384.842L65.8331 384.344C63.6032 383.437 61.4214 382.434 59.2928 381.341L59.0474 381.819ZM76.4383 388.395C78.7653 388.985 81.1309 389.477 83.5303 389.866L83.6162 389.336C81.2325 388.949 78.8823 388.46 76.5704 387.874L76.4383 388.395ZM94.8615 390.913C96.0641 390.941 97.2729 390.945 98.4873 390.922C99.7017 390.898 100.909 390.849 102.11 390.775L102.077 390.239C100.884 390.313 99.6838 390.361 98.4771 390.384C97.2704 390.407 96.0693 390.404 94.8743 390.375L94.8615 390.913ZM113.393 389.298C115.776 388.819 118.121 388.237 120.424 387.559L120.273 387.043C117.985 387.717 115.655 388.295 113.287 388.772L113.393 389.298ZM131.089 383.598C133.298 382.599 135.454 381.507 137.553 380.327L137.289 379.858C135.204 381.031 133.062 382.116 130.868 383.108L131.089 383.598ZM147.065 374.083C148.991 372.62 150.85 371.076 152.639 369.456L152.278 369.058C150.501 370.668 148.653 372.202 146.74 373.655L147.065 374.083ZM160.529 361.259C162.081 359.41 163.553 357.493 164.941 355.514L164.501 355.205C163.122 357.172 161.659 359.077 160.118 360.914L160.529 361.259ZM170.819 345.771C171.919 343.629 172.928 341.433 173.842 339.188L173.344 338.985C172.437 341.215 171.434 343.397 170.341 345.526L170.819 345.771ZM177.395 328.38C177.985 326.053 178.477 323.688 178.866 321.288L178.336 321.202C177.949 323.586 177.46 325.936 176.874 328.248L177.395 328.38ZM134.789 307.189C134.764 305.889 134.674 304.606 134.522 303.342L133.989 303.407C134.138 304.652 134.227 305.918 134.251 307.199C134.276 308.481 134.235 309.749 134.133 310.999L134.669 311.043C134.772 309.775 134.813 308.489 134.789 307.189ZM131.182 291.74C130.077 289.4 128.739 287.193 127.2 285.148L126.77 285.471C128.288 287.488 129.607 289.663 130.696 291.97L131.182 291.74ZM118.503 276.776C116.4 275.315 114.144 274.062 111.764 273.047L111.553 273.541C113.899 274.542 116.124 275.777 118.196 277.217L118.503 276.776ZM100.043 270.15C98.7747 270.046 97.4889 270.005 96.1892 270.03C94.8895 270.055 93.6062 270.144 92.3425 270.296L92.4066 270.83C93.6525 270.68 94.9177 270.592 96.1994 270.567C97.4811 270.543 98.7488 270.583 99.9995 270.686L100.043 270.15ZM80.7403 273.636C78.4004 274.742 76.1934 276.079 74.1482 277.619L74.4714 278.048C76.4877 276.531 78.6634 275.212 80.9698 274.122L80.7403 273.636ZM65.7757 286.316C64.3151 288.418 63.0623 290.674 62.0466 293.055L62.5408 293.265C63.5421 290.919 64.7771 288.695 66.217 286.623L65.7757 286.316ZM59.15 304.775C59.0462 306.044 59.0052 307.33 59.0299 308.629C59.0546 309.929 59.1445 311.212 59.2964 312.476L59.8299 312.412C59.6802 311.166 59.5916 309.901 59.5672 308.619C59.5428 307.337 59.5833 306.07 59.6856 304.819L59.15 304.775ZM62.6363 324.078C63.7418 326.418 65.0794 328.625 66.6189 330.67L67.0482 330.347C65.5305 328.331 64.212 326.155 63.1222 323.849L62.6363 324.078ZM75.3159 339.043C77.4181 340.503 79.6744 341.756 82.0545 342.772L82.2655 342.278C79.9193 341.276 77.695 340.041 75.6225 338.602L75.3159 339.043ZM93.7753 345.669C95.0439 345.772 96.3296 345.813 97.6293 345.789C98.9291 345.764 100.212 345.674 101.476 345.522L101.412 344.989C100.166 345.138 98.9008 345.227 97.6191 345.251C96.3375 345.276 95.0697 345.235 93.8191 345.133L93.7753 345.669ZM113.078 342.182C115.418 341.077 117.625 339.739 119.67 338.2L119.347 337.77C117.331 339.288 115.155 340.607 112.849 341.696L113.078 342.182ZM128.043 329.503C129.503 327.4 130.756 325.144 131.772 322.764L131.278 322.553C130.276 324.899 129.041 327.124 127.602 329.196L128.043 329.503Z" stroke="url(#paint2_linear_3605_9502)" stroke-width="0.537393" stroke-dasharray="7.52 11.82"/>
<g filter="url(#filter1_d_3605_9502)">
<circle cx="93.0418" cy="299.042" r="31.9578" fill="url(#paint3_linear_3605_9502)"/>
<circle cx="93.0418" cy="299.042" r="31.3187" stroke="#1D2729" stroke-width="1.27831"/>
</g>
<g clip-path="url(#clip1_3605_9502)">
<path d="M81.6329 294.059L93.0419 316.419L73.8672 294.057L81.6329 294.059Z" fill="#EA6C00"/>
<path d="M104.452 294.059L93.043 316.419L112.218 294.057L104.452 294.059Z" fill="#EA6C00"/>
<path d="M81.6328 294.059H104.448L93.0418 316.419L81.6328 294.059Z" fill="#FDAD00"/>
<path d="M93.0418 281.665L82.2344 282.808L81.6328 294.057L93.0418 281.665Z" fill="#FDD231"/>
<path d="M93.041 281.665L103.848 282.808L104.45 294.057L93.041 281.665Z" fill="#FDD231"/>
<path d="M112.217 294.057L103.849 282.808L104.451 294.057H112.217ZM73.8672 294.057L82.2345 282.808L81.6353 294.057H73.8672Z" fill="#FDAD00"/>
<path d="M93.0418 281.665L81.6328 294.057H104.448L93.0418 281.665Z" fill="#FEEEB7"/>
</g>
<g filter="url(#filter2_d_3605_9502)">
<path d="M119 385L112 353L141.5 369.5L127.5 372.5L119 385Z" fill="#4629D9"/>
<path d="M119 385L112 353L141.5 369.5L127.5 372.5L119 385Z" stroke="white" stroke-width="3"/>
</g>
<g filter="url(#filter3_d_3605_9502)">
<path d="M151 389C151 386.791 152.791 385 155 385H247C249.209 385 251 386.791 251 389V418C251 420.209 249.209 422 247 422H155C152.791 422 151 420.209 151 418V389Z" fill="#4629D9"/>
</g>
<path d="M170.725 394.272V406.632C170.725 408.008 170.301 409.112 169.453 409.944C168.605 410.76 167.485 411.168 166.093 411.168C164.685 411.168 163.557 410.752 162.709 409.92C161.861 409.072 161.437 407.92 161.437 406.464H163.621C163.637 407.28 163.845 407.944 164.245 408.456C164.661 408.968 165.277 409.224 166.093 409.224C166.909 409.224 167.517 408.984 167.917 408.504C168.317 408.008 168.517 407.384 168.517 406.632V394.272H170.725ZM174.212 404.376C174.212 403.032 174.484 401.856 175.028 400.848C175.572 399.824 176.316 399.032 177.26 398.472C178.22 397.912 179.284 397.632 180.452 397.632C181.604 397.632 182.604 397.88 183.452 398.376C184.3 398.872 184.932 399.496 185.348 400.248V397.848H187.556V411H185.348V408.552C184.916 409.32 184.268 409.96 183.404 410.472C182.556 410.968 181.564 411.216 180.428 411.216C179.26 411.216 178.204 410.928 177.26 410.352C176.316 409.776 175.572 408.968 175.028 407.928C174.484 406.888 174.212 405.704 174.212 404.376ZM185.348 404.4C185.348 403.408 185.148 402.544 184.748 401.808C184.348 401.072 183.804 400.512 183.116 400.128C182.444 399.728 181.7 399.528 180.884 399.528C180.068 399.528 179.324 399.72 178.652 400.104C177.98 400.488 177.444 401.048 177.044 401.784C176.644 402.52 176.444 403.384 176.444 404.376C176.444 405.384 176.644 406.264 177.044 407.016C177.444 407.752 177.98 408.32 178.652 408.72C179.324 409.104 180.068 409.296 180.884 409.296C181.7 409.296 182.444 409.104 183.116 408.72C183.804 408.32 184.348 407.752 184.748 407.016C185.148 406.264 185.348 405.392 185.348 404.4ZM207.062 397.608C208.086 397.608 208.998 397.824 209.798 398.256C210.598 398.672 211.23 399.304 211.694 400.152C212.158 401 212.39 402.032 212.39 403.248V411H210.23V403.56C210.23 402.248 209.902 401.248 209.246 400.56C208.606 399.856 207.734 399.504 206.63 399.504C205.494 399.504 204.59 399.872 203.918 400.608C203.246 401.328 202.91 402.376 202.91 403.752V411H200.75V403.56C200.75 402.248 200.422 401.248 199.766 400.56C199.126 399.856 198.254 399.504 197.15 399.504C196.014 399.504 195.11 399.872 194.438 400.608C193.766 401.328 193.43 402.376 193.43 403.752V411H191.246V397.848H193.43V399.744C193.862 399.056 194.438 398.528 195.158 398.16C195.894 397.792 196.702 397.608 197.582 397.608C198.686 397.608 199.662 397.856 200.51 398.352C201.358 398.848 201.99 399.576 202.406 400.536C202.774 399.608 203.382 398.888 204.23 398.376C205.078 397.864 206.022 397.608 207.062 397.608ZM227.973 403.92C227.973 404.336 227.949 404.776 227.901 405.24H217.389C217.469 406.536 217.909 407.552 218.709 408.288C219.525 409.008 220.509 409.368 221.661 409.368C222.605 409.368 223.389 409.152 224.013 408.72C224.653 408.272 225.101 407.68 225.357 406.944H227.709C227.357 408.208 226.653 409.24 225.597 410.04C224.541 410.824 223.229 411.216 221.661 411.216C220.413 411.216 219.293 410.936 218.301 410.376C217.325 409.816 216.557 409.024 215.997 408C215.437 406.96 215.157 405.76 215.157 404.4C215.157 403.04 215.429 401.848 215.973 400.824C216.517 399.8 217.277 399.016 218.253 398.472C219.245 397.912 220.381 397.632 221.661 397.632C222.909 397.632 224.013 397.904 224.973 398.448C225.933 398.992 226.669 399.744 227.181 400.704C227.709 401.648 227.973 402.72 227.973 403.92ZM225.717 403.464C225.717 402.632 225.533 401.92 225.165 401.328C224.797 400.72 224.293 400.264 223.653 399.96C223.029 399.64 222.333 399.48 221.565 399.48C220.461 399.48 219.517 399.832 218.733 400.536C217.965 401.24 217.525 402.216 217.413 403.464H225.717ZM235.512 411.216C234.504 411.216 233.6 411.048 232.8 410.712C232 410.36 231.368 409.88 230.904 409.272C230.44 408.648 230.184 407.936 230.136 407.136H232.392C232.456 407.792 232.76 408.328 233.304 408.744C233.864 409.16 234.592 409.368 235.488 409.368C236.32 409.368 236.976 409.184 237.456 408.816C237.936 408.448 238.176 407.984 238.176 407.424C238.176 406.848 237.92 406.424 237.408 406.152C236.896 405.864 236.104 405.584 235.032 405.312C234.056 405.056 233.256 404.8 232.632 404.544C232.024 404.272 231.496 403.88 231.048 403.368C230.616 402.84 230.4 402.152 230.4 401.304C230.4 400.632 230.6 400.016 231 399.456C231.4 398.896 231.968 398.456 232.704 398.136C233.44 397.8 234.28 397.632 235.224 397.632C236.68 397.632 237.856 398 238.752 398.736C239.648 399.472 240.128 400.48 240.192 401.76H238.008C237.96 401.072 237.68 400.52 237.168 400.104C236.672 399.688 236 399.48 235.152 399.48C234.368 399.48 233.744 399.648 233.28 399.984C232.816 400.32 232.584 400.76 232.584 401.304C232.584 401.736 232.72 402.096 232.992 402.384C233.28 402.656 233.632 402.88 234.048 403.056C234.48 403.216 235.072 403.4 235.824 403.608C236.768 403.864 237.536 404.12 238.128 404.376C238.72 404.616 239.224 404.984 239.64 405.48C240.072 405.976 240.296 406.624 240.312 407.424C240.312 408.144 240.112 408.792 239.712 409.368C239.312 409.944 238.744 410.4 238.008 410.736C237.288 411.056 236.456 411.216 235.512 411.216Z" fill="white"/>
<defs>
<filter id="filter0_d_3605_9502" x="282.497" y="70.9605" width="118.927" height="118.927" filterUnits="userSpaceOnUse" color-interpolation-filters="sRGB">
<feFlood flood-opacity="0" result="BackgroundImageFix"/>
<feColorMatrix in="SourceAlpha" type="matrix" values="0 0 0 0 0 0 0 0 0 0 0 0 0 0 0 0 0 0 127 0" result="hardAlpha"/>
<feMorphology radius="5.70198" operator="dilate" in="SourceAlpha" result="effect1_dropShadow_3605_9502"/>
<feOffset dy="3.25827"/>
<feGaussianBlur stdDeviation="6.51655"/>
<feComposite in2="hardAlpha" operator="out"/>
<feColorMatrix type="matrix" values="0 0 0 0 0 0 0 0 0 0 0 0 0 0 0 0 0 0 0.25 0"/>
<feBlend mode="normal" in2="BackgroundImageFix" result="effect1_dropShadow_3605_9502"/>
<feBlend mode="normal" in="SourceGraphic" in2="effect1_dropShadow_3605_9502" result="shape"/>
</filter>
<filter id="filter1_d_3605_9502" x="46.3834" y="254.94" width="93.3172" height="93.3169" filterUnits="userSpaceOnUse" color-interpolation-filters="sRGB">
<feFlood flood-opacity="0" result="BackgroundImageFix"/>
<feColorMatrix in="SourceAlpha" type="matrix" values="0 0 0 0 0 0 0 0 0 0 0 0 0 0 0 0 0 0 127 0" result="hardAlpha"/>
<feMorphology radius="4.4741" operator="dilate" in="SourceAlpha" result="effect1_dropShadow_3605_9502"/>
<feOffset dy="2.55663"/>
<feGaussianBlur stdDeviation="5.11326"/>
<feComposite in2="hardAlpha" operator="out"/>
<feColorMatrix type="matrix" values="0 0 0 0 0 0 0 0 0 0 0 0 0 0 0 0 0 0 0.25 0"/>
<feBlend mode="normal" in2="BackgroundImageFix" result="effect1_dropShadow_3605_9502"/>
<feBlend mode="normal" in="SourceGraphic" in2="effect1_dropShadow_3605_9502" result="shape"/>
</filter>
<filter id="filter2_d_3605_9502" x="107.322" y="349.563" width="40.8828" height="43.6636" filterUnits="userSpaceOnUse" color-interpolation-filters="sRGB">
<feFlood flood-opacity="0" result="BackgroundImageFix"/>
<feColorMatrix in="SourceAlpha" type="matrix" values="0 0 0 0 0 0 0 0 0 0 0 0 0 0 0 0 0 0 127 0" result="hardAlpha"/>
<feOffset dy="2"/>
<feGaussianBlur stdDeviation="1.25"/>
<feComposite in2="hardAlpha" operator="out"/>
<feColorMatrix type="matrix" values="0 0 0 0 0 0 0 0 0 0 0 0 0 0 0 0 0 0 0.19 0"/>
<feBlend mode="normal" in2="BackgroundImageFix" result="effect1_dropShadow_3605_9502"/>
<feBlend mode="normal" in="SourceGraphic" in2="effect1_dropShadow_3605_9502" result="shape"/>
</filter>
<filter id="filter3_d_3605_9502" x="148.5" y="384.5" width="105" height="42" filterUnits="userSpaceOnUse" color-interpolation-filters="sRGB">
<feFlood flood-opacity="0" result="BackgroundImageFix"/>
<feColorMatrix in="SourceAlpha" type="matrix" values="0 0 0 0 0 0 0 0 0 0 0 0 0 0 0 0 0 0 127 0" result="hardAlpha"/>
<feOffset dy="2"/>
<feGaussianBlur stdDeviation="1.25"/>
<feComposite in2="hardAlpha" operator="out"/>
<feColorMatrix type="matrix" values="0 0 0 0 0 0 0 0 0 0 0 0 0 0 0 0 0 0 0.19 0"/>
<feBlend mode="normal" in2="BackgroundImageFix" result="effect1_dropShadow_3605_9502"/>
<feBlend mode="normal" in="SourceGraphic" in2="effect1_dropShadow_3605_9502" result="shape"/>
</filter>
<linearGradient id="paint0_linear_3605_9502" x1="443.36" y1="24.8374" x2="252.591" y2="218.651" gradientUnits="userSpaceOnUse">
<stop stop-color="#6155FF" stop-opacity="0.35"/>
<stop offset="0.7787" stop-color="white" stop-opacity="0"/>
</linearGradient>
<linearGradient id="paint1_linear_3605_9502" x1="341.961" y1="35.5267" x2="341.961" y2="167.894" gradientUnits="userSpaceOnUse">
<stop stop-color="#1E1353"/>
<stop offset="1" stop-color="#13191B"/>
</linearGradient>
<linearGradient id="paint2_linear_3605_9502" x1="177.929" y1="229.777" x2="33.7105" y2="376.297" gradientUnits="userSpaceOnUse">
<stop stop-color="#6155FF" stop-opacity="0.35"/>
<stop offset="0.7787" stop-color="white" stop-opacity="0"/>
</linearGradient>
<linearGradient id="paint3_linear_3605_9502" x1="93.0418" y1="227.137" x2="93.0418" y2="331" gradientUnits="userSpaceOnUse">
<stop stop-color="#1E1353"/>
<stop offset="1" stop-color="#13191B"/>
</linearGradient>
<clipPath id="clip0_3605_9502">
<rect width="48.8741" height="48.8741" fill="white" transform="translate(317.523 102.729)"/>
</clipPath>
<clipPath id="clip1_3605_9502">
<rect width="38.3494" height="38.3494" fill="white" transform="translate(73.8672 279.867)"/>
</clipPath>
</defs>
</svg>
