<svg width="322" height="522" viewBox="0 0 322 522" fill="none" xmlns="http://www.w3.org/2000/svg">
<path d="M221.973 14.6051C218.092 14.1389 214.233 13.9111 210.412 13.9105L210.412 14.1834C207.945 14.183 205.493 14.2777 203.061 14.4644L203.041 14.1923C199.16 14.4902 195.33 15.0217 191.568 15.7748L191.621 16.0423C189.208 16.5252 186.823 17.0995 184.47 17.7618L184.396 17.4992C180.662 18.5501 177.009 19.8223 173.455 21.3029L173.56 21.5548C171.293 22.4991 169.066 23.5284 166.884 24.6394L166.76 24.3962C163.312 26.1515 159.976 28.1101 156.769 30.2589L156.921 30.4856C154.884 31.8505 152.899 33.2924 150.971 34.8078L150.803 34.5933C147.768 36.9791 144.874 39.5467 142.139 42.283L142.332 42.4759C140.601 44.2078 138.933 46.0075 137.335 47.8715L137.127 47.6939C134.621 50.6167 132.282 53.6974 130.128 56.9233L130.355 57.0748C128.998 59.1079 127.714 61.1989 126.509 63.3444L126.271 63.2108C124.392 66.5564 122.703 70.0345 121.22 73.6328L121.472 73.7368C120.543 75.9916 119.695 78.2939 118.933 80.6405L118.674 80.5562C117.493 84.1902 116.517 87.9304 115.761 91.7654L116.028 91.8182C115.792 93.0177 115.577 94.2266 115.384 95.4445C115.191 96.6624 115.022 97.8785 114.876 99.0925L114.605 99.0599C114.139 102.941 113.911 106.8 113.911 110.621L114.183 110.621C114.183 113.088 114.278 115.539 114.464 117.971L114.192 117.992C114.49 121.872 115.022 125.702 115.775 129.465L116.042 129.412C116.525 131.824 117.099 134.21 117.762 136.563L117.499 136.637C118.55 140.37 119.822 144.023 121.303 147.578L121.555 147.473C122.499 149.74 123.528 151.967 124.639 154.149L124.396 154.273C126.151 157.72 128.11 161.057 130.259 164.264L130.486 164.112C131.85 166.149 133.292 168.134 134.808 170.061L134.593 170.23C136.979 173.265 139.547 176.159 142.283 178.894L142.476 178.701C144.208 180.432 146.007 182.099 147.872 183.698L147.694 183.905C150.617 186.412 153.697 188.751 156.923 190.904L157.075 190.678C159.108 192.035 161.199 193.318 163.344 194.523L163.211 194.761C166.556 196.64 170.034 198.33 173.633 199.813L173.737 199.56C175.992 200.489 178.294 201.337 180.64 202.099L180.556 202.359C184.19 203.54 187.93 204.516 191.765 205.272L191.818 205.004C193.018 205.241 194.227 205.456 195.444 205.649C196.662 205.842 197.878 206.011 199.092 206.157L199.06 206.427C202.941 206.894 206.8 207.122 210.621 207.122L210.621 206.849C213.088 206.85 215.539 206.755 217.971 206.568L217.992 206.84C221.872 206.542 225.702 206.011 229.465 205.258L229.411 204.99C231.824 204.507 234.21 203.933 236.563 203.271L236.637 203.533C240.37 202.482 244.023 201.21 247.578 199.73L247.473 199.478C249.74 198.534 251.967 197.504 254.149 196.393L254.273 196.636C257.72 194.881 261.057 192.923 264.264 190.774L264.112 190.547C266.149 189.182 268.134 187.74 270.061 186.225L270.23 186.439C273.265 184.054 276.159 181.486 278.894 178.75L278.701 178.557C280.432 176.825 282.099 175.025 283.698 173.161L283.905 173.339C286.412 170.416 288.751 167.335 290.904 164.109L290.677 163.958C292.035 161.925 293.318 159.834 294.523 157.688L294.761 157.822C296.64 154.476 298.33 150.998 299.812 147.4L299.56 147.296C300.489 145.041 301.337 142.739 302.099 140.392L302.359 140.476C303.54 136.842 304.516 133.102 305.272 129.267L305.004 129.214C305.241 128.015 305.456 126.806 305.649 125.588C305.842 124.37 306.011 123.154 306.157 121.94L306.427 121.973C306.894 118.092 307.122 114.233 307.122 110.412L306.849 110.412C306.85 107.945 306.755 105.493 306.568 103.062L306.84 103.041C306.542 99.1602 306.011 95.3303 305.258 91.5676L304.99 91.6211C304.507 89.2082 303.933 86.8229 303.271 84.4699L303.533 84.3959C302.482 80.6623 301.21 77.0095 299.73 73.455L299.478 73.5599C298.534 71.2929 297.504 69.066 296.393 66.8839L296.636 66.7601C294.881 63.3123 292.922 59.976 290.774 56.7689L290.547 56.9208C289.182 54.8837 287.74 52.899 286.225 50.9712L286.439 50.8026C284.054 47.7677 281.486 44.8737 278.75 42.1387L278.557 42.3317C276.825 40.6006 275.025 38.9334 273.161 37.3346L273.339 37.1275C270.416 34.6207 267.335 32.2817 264.109 30.1282L263.958 30.3551C261.925 28.9978 259.834 27.7144 257.688 26.5093L257.822 26.2714C254.476 24.3922 250.998 22.7028 247.4 21.2201L247.296 21.4724C245.041 20.5432 242.739 19.6954 240.392 18.9331L240.476 18.6736C236.842 17.4931 233.102 16.517 229.267 15.7608L229.214 16.0285C228.015 15.792 226.806 15.577 225.588 15.384C224.37 15.1911 223.154 15.0219 221.94 14.876L221.973 14.6051ZM221.318 42.3337C219.92 42.1121 218.524 41.9342 217.133 41.7989L217.08 42.3421C218.46 42.4763 219.845 42.6528 221.233 42.8727C222.621 43.0926 223.992 43.3527 225.347 43.6517L225.464 43.1188C224.099 42.8175 222.717 42.5553 221.318 42.3337ZM203.901 41.7843C201.081 42.0537 198.3 42.4958 195.572 43.1014L195.691 43.6341C198.397 43.0334 201.155 42.5948 203.953 42.3275L203.901 41.7843ZM182.989 47.1997C180.406 48.3254 177.899 49.606 175.482 51.0319L175.759 51.502C178.158 50.0873 180.645 48.8167 183.207 47.6999L182.989 47.1997ZM164.774 58.8106C162.671 60.6693 160.678 62.6577 158.809 64.7658L159.217 65.1278C161.071 63.0363 163.049 61.0636 165.136 59.2195L164.774 58.8106ZM151.022 75.4661C149.603 77.8735 148.323 80.381 147.195 82.9795L147.696 83.1968C148.814 80.619 150.084 78.1314 151.492 75.7432L151.022 75.4661ZM143.119 95.5684C142.817 96.9331 142.555 98.3154 142.334 99.7141C142.112 101.113 141.934 102.508 141.799 103.9L142.342 103.952C142.476 102.572 142.653 101.187 142.873 99.7995C143.093 98.4116 143.353 97.0401 143.652 95.686L143.119 95.5684ZM141.784 117.132C142.054 119.952 142.496 122.732 143.101 125.46L143.634 125.342C143.033 122.636 142.595 119.877 142.328 117.08L141.784 117.132ZM147.2 138.044C148.325 140.626 149.606 143.133 151.032 145.551L151.502 145.274C150.087 142.875 148.817 140.388 147.7 137.825L147.2 138.044ZM158.811 156.258C160.669 158.362 162.658 160.355 164.766 162.224L165.128 161.815C163.036 159.961 161.064 157.984 159.22 155.897L158.811 156.258ZM175.466 170.011C177.873 171.43 180.381 172.71 182.979 173.838L183.197 173.337C180.619 172.218 178.131 170.948 175.743 169.541L175.466 170.011ZM195.568 177.914C196.933 178.215 198.315 178.477 199.714 178.699C201.113 178.921 202.508 179.098 203.9 179.234L203.952 178.691C202.572 178.556 201.187 178.38 199.8 178.16C198.412 177.94 197.04 177.68 195.686 177.381L195.568 177.914ZM217.132 179.248C219.952 178.979 222.732 178.537 225.46 177.931L225.342 177.399C222.636 177.999 219.877 178.438 217.08 178.705L217.132 179.248ZM238.044 173.833C240.626 172.707 243.133 171.427 245.551 170.001L245.274 169.531C242.875 170.945 240.388 172.216 237.825 173.333L238.044 173.833ZM256.258 162.222C258.362 160.363 260.355 158.375 262.224 156.267L261.815 155.905C259.961 157.996 257.984 159.969 255.897 161.813L256.258 162.222ZM270.011 145.567C271.43 143.159 272.71 140.652 273.838 138.053L273.337 137.836C272.218 140.414 270.948 142.901 269.541 145.289L270.011 145.567ZM277.914 125.464C278.215 124.099 278.477 122.717 278.699 121.318C278.921 119.92 279.098 118.524 279.234 117.133L278.691 117.08C278.556 118.46 278.38 119.845 278.16 121.233C277.94 122.621 277.68 123.993 277.381 125.347L277.914 125.464ZM279.248 103.901C278.979 101.081 278.537 98.3005 277.931 95.5724L277.398 95.6906C277.999 98.397 278.438 101.155 278.705 103.953L279.248 103.901ZM273.833 82.9891C272.707 80.4065 271.427 77.8995 270.001 75.4817L269.531 75.7589C270.945 78.1577 272.216 80.6449 273.333 83.2071L273.833 82.9891ZM262.222 64.7742C260.363 62.6708 258.375 60.6779 256.267 58.8091L255.905 59.2174C257.996 61.0715 259.969 63.0487 261.813 65.1355L262.222 64.7742ZM245.566 51.0219C243.159 49.6028 240.652 48.3229 238.053 47.195L237.836 47.6956C240.414 48.8145 242.901 50.0842 245.289 51.492L245.566 51.0219ZM218.671 59.0425C217.349 58.833 216.03 58.6752 214.718 58.5676L214.673 59.1115C215.972 59.218 217.277 59.3741 218.586 59.5815C219.895 59.7888 221.184 60.0437 222.452 60.344L222.578 59.813C221.296 59.5095 219.994 59.252 218.671 59.0425ZM202.25 59.046C199.611 59.4693 197.027 60.0937 194.518 60.905L194.686 61.4242C197.169 60.6214 199.725 60.0037 202.336 59.5849L202.25 59.046ZM183.191 66.1377C180.931 67.5303 178.78 69.093 176.757 70.8113L177.111 71.2272C179.112 69.5268 181.241 67.9803 183.477 66.6022L183.191 66.1377ZM168.28 79.9668C166.732 82.1023 165.34 84.3665 164.122 86.7452L164.607 86.994C165.813 84.6404 167.19 82.4001 168.721 80.2869L168.28 79.9668ZM159.813 98.4544C159.509 99.7362 159.252 101.039 159.042 102.361C158.833 103.684 158.675 105.002 158.568 106.315L159.111 106.36C159.218 105.06 159.374 103.755 159.581 102.447C159.789 101.138 160.044 99.8486 160.344 98.5801L159.813 98.4544ZM159.046 118.783C159.469 121.421 160.094 124.005 160.905 126.514L161.424 126.346C160.621 123.864 160.004 121.307 159.585 118.696L159.046 118.783ZM166.138 137.842C167.53 140.101 169.093 142.252 170.811 144.275L171.227 143.922C169.527 141.92 167.98 139.792 166.602 137.556L166.138 137.842ZM179.967 152.753C182.102 154.3 184.366 155.693 186.745 156.911L186.994 156.425C184.64 155.22 182.4 153.842 180.287 152.311L179.967 152.753ZM198.454 161.22C199.736 161.523 201.039 161.781 202.361 161.99C203.684 162.2 205.002 162.357 206.315 162.465L206.36 161.921C205.06 161.815 203.755 161.659 202.447 161.451C201.138 161.244 199.849 160.989 198.58 160.689L198.454 161.22ZM218.783 161.987C221.421 161.563 224.005 160.939 226.514 160.128L226.346 159.608C223.864 160.411 221.307 161.029 218.696 161.448L218.783 161.987ZM237.842 154.895C240.101 153.502 242.252 151.94 244.275 150.221L243.922 149.805C241.92 151.506 239.791 153.052 237.556 154.43L237.842 154.895ZM252.753 141.066C254.3 138.93 255.693 136.666 256.911 134.287L256.425 134.039C255.22 136.392 253.842 138.633 252.311 140.746L252.753 141.066ZM261.22 122.578C261.523 121.296 261.781 119.994 261.99 118.671C262.2 117.349 262.357 116.03 262.465 114.718L261.921 114.673C261.815 115.972 261.658 117.277 261.451 118.586C261.244 119.895 260.989 121.184 260.689 122.452L261.22 122.578ZM261.987 102.25C261.563 99.6111 260.939 97.0275 260.128 94.5183L259.608 94.6862C260.411 97.169 261.029 99.7254 261.448 102.336L261.987 102.25ZM254.895 83.1906C253.502 80.9313 251.94 78.7801 250.221 76.7573L249.805 77.1106C251.506 79.1124 253.052 81.2411 254.43 83.477L254.895 83.1906ZM241.066 68.2795C238.93 66.7323 236.666 65.34 234.287 64.1217L234.039 64.6074C236.392 65.8128 238.633 67.1905 240.746 68.7215L241.066 68.2795ZM223.709 27.2419C222.491 27.0489 221.275 26.883 220.061 26.7438L219.999 27.286C221.205 27.4243 222.414 27.5891 223.624 27.7809C224.835 27.9727 226.035 28.1895 227.224 28.4307L227.333 27.8958C226.136 27.6531 224.928 27.4349 223.709 27.2419ZM208.518 26.2123C206.05 26.268 203.602 26.4321 201.179 26.7006L201.239 27.243C203.646 26.9762 206.079 26.8132 208.53 26.7579L208.518 26.2123ZM189.812 28.7628C187.426 29.3681 185.076 30.0763 182.768 30.883L182.948 31.3982C185.241 30.5967 187.576 29.8931 189.946 29.2918L189.812 28.7628ZM172.147 35.4334C169.961 36.5525 167.827 37.7653 165.751 39.0674L166.041 39.5297C168.104 38.236 170.224 37.031 172.395 35.9191L172.147 35.4334ZM156.403 45.8581C154.523 47.4303 152.71 49.0848 150.97 50.8174L151.355 51.2041C153.084 49.4827 154.885 47.8388 156.753 46.2768L156.403 45.8581ZM143.36 59.5117C141.879 61.458 140.479 63.474 139.166 65.5554L139.628 65.8465C140.932 63.7787 142.323 61.7758 143.794 59.8421L143.36 59.5117ZM133.691 75.7286C132.687 77.9501 131.774 80.2276 130.958 82.5572L131.474 82.7376C132.284 80.4231 133.191 78.1604 134.189 75.9534L133.691 75.7286ZM127.896 93.6997C127.653 94.897 127.435 96.1049 127.242 97.3231C127.049 98.5414 126.883 99.7576 126.744 100.971L127.286 101.033C127.424 99.8275 127.589 98.619 127.781 97.4085C127.973 96.198 128.189 94.9978 128.431 93.8081L127.896 93.6997ZM126.212 112.515C126.268 114.982 126.432 117.431 126.701 119.854L127.243 119.794C126.976 117.386 126.813 114.954 126.758 112.502L126.212 112.515ZM128.763 131.221C129.368 133.606 130.076 135.956 130.883 138.265L131.398 138.085C130.597 135.791 129.893 133.457 129.292 131.087L128.763 131.221ZM135.433 148.886C136.552 151.071 137.765 153.205 139.067 155.282L139.53 154.992C138.236 152.929 137.031 150.809 135.919 148.637L135.433 148.886ZM145.858 164.629C147.43 166.509 149.085 168.322 150.817 170.062L151.204 169.677C149.483 167.949 147.839 166.147 146.277 164.279L145.858 164.629ZM159.512 177.673C161.458 179.154 163.474 180.553 165.555 181.866L165.847 181.405C163.779 180.1 161.776 178.71 159.842 177.238L159.512 177.673ZM175.729 187.341C177.95 188.346 180.228 189.258 182.557 190.074L182.738 189.559C180.423 188.749 178.16 187.842 175.953 186.844L175.729 187.341ZM193.7 193.137C194.897 193.38 196.105 193.598 197.323 193.791C198.541 193.984 199.758 194.15 200.971 194.289L201.033 193.747C199.828 193.608 198.619 193.444 197.409 193.252C196.198 193.06 194.998 192.843 193.808 192.602L193.7 193.137ZM212.515 194.82C214.982 194.765 217.431 194.601 219.854 194.332L219.794 193.79C217.386 194.056 214.954 194.219 212.502 194.275L212.515 194.82ZM231.221 192.27C233.606 191.665 235.956 190.956 238.265 190.15L238.085 189.634C235.791 190.436 233.457 191.14 231.087 191.741L231.221 192.27ZM248.886 185.599C251.071 184.48 253.205 183.267 255.282 181.965L254.992 181.503C252.929 182.797 250.809 184.002 248.637 185.113L248.886 185.599ZM264.629 175.174C266.509 173.602 268.322 171.948 270.062 170.215L269.677 169.829C267.949 171.55 266.147 173.194 264.279 174.756L264.629 175.174ZM277.673 161.521C279.154 159.575 280.553 157.559 281.866 155.477L281.405 155.186C280.1 157.254 278.71 159.257 277.238 161.191L277.673 161.521ZM287.341 145.304C288.346 143.083 289.258 140.805 290.074 138.475L289.559 138.295C288.749 140.61 287.842 142.872 286.844 145.079L287.341 145.304ZM293.137 127.333C293.38 126.136 293.598 124.928 293.791 123.709C293.984 122.491 294.15 121.275 294.289 120.061L293.747 119.999C293.608 121.205 293.444 122.414 293.252 123.624C293.06 124.835 292.843 126.035 292.602 127.224L293.137 127.333ZM294.82 108.518C294.765 106.05 294.601 103.602 294.332 101.179L293.79 101.239C294.056 103.646 294.219 106.079 294.275 108.53L294.82 108.518ZM292.27 89.8116C291.664 87.4263 290.956 85.0763 290.15 82.7676L289.634 82.9476C290.436 85.2413 291.139 87.576 291.741 89.9458L292.27 89.8116ZM285.599 72.1466C284.48 69.9611 283.267 67.8272 281.965 65.7509L281.503 66.0408C282.797 68.1038 284.002 70.224 285.113 72.3954L285.599 72.1466ZM275.174 56.4033C273.602 54.5232 271.948 52.7102 270.215 50.9704L269.829 51.3555C271.55 53.0841 273.194 54.8854 274.756 56.7534L275.174 56.4033ZM261.521 43.3599C259.575 41.8791 257.559 40.4792 255.477 39.1662L255.186 39.6278C257.254 40.9322 259.257 42.323 261.19 43.7942L261.521 43.3599ZM245.304 33.6913C243.083 32.687 240.805 31.7742 238.475 30.9585L238.295 31.4736C240.609 32.2839 242.872 33.1908 245.079 34.1886L245.304 33.6913ZM216.536 72.5173C215.233 72.3107 213.934 72.1723 212.643 72.0993L212.612 72.6441C213.885 72.7161 215.165 72.8526 216.451 73.0563C217.737 73.26 218.997 73.526 220.229 73.8508L220.368 73.3232C219.118 72.9937 217.84 72.7239 216.536 72.5173ZM200.449 73.374C197.913 74.0629 195.469 75.0075 193.15 76.1827L193.397 76.6694C195.683 75.5109 198.093 74.5797 200.592 73.9006L200.449 73.374ZM183.232 83.388C181.398 85.2298 179.744 87.2627 178.305 89.4616L178.761 89.7604C180.18 87.5929 181.81 85.5889 183.619 83.7731L183.232 83.388ZM173.323 100.664C172.994 101.914 172.724 103.192 172.517 104.496C172.311 105.8 172.172 107.099 172.099 108.389L172.644 108.42C172.716 107.148 172.853 105.867 173.056 104.582C173.26 103.296 173.526 102.036 173.851 100.803L173.323 100.664ZM173.374 120.583C174.063 123.119 175.007 125.564 176.183 127.882L176.669 127.636C175.511 125.35 174.58 122.94 173.901 120.44L173.374 120.583ZM183.388 137.801C185.23 139.635 187.263 141.289 189.462 142.728L189.76 142.271C187.593 140.853 185.589 139.222 183.773 137.414L183.388 137.801ZM200.664 147.709C201.914 148.039 203.192 148.309 204.496 148.515C205.8 148.722 207.099 148.86 208.389 148.933L208.42 148.389C207.148 148.317 205.867 148.18 204.581 147.976C203.296 147.773 202.036 147.507 200.803 147.182L200.664 147.709ZM220.583 147.659C223.119 146.97 225.564 146.025 227.882 144.85L227.636 144.363C225.35 145.522 222.94 146.453 220.44 147.132L220.583 147.659ZM237.801 137.645C239.635 135.803 241.289 133.77 242.728 131.571L242.271 131.272C240.853 133.44 239.222 135.444 237.414 137.26L237.801 137.645ZM247.709 120.368C248.039 119.118 248.309 117.84 248.515 116.536C248.722 115.233 248.86 113.934 248.933 112.643L248.388 112.612C248.317 113.885 248.18 115.165 247.976 116.451C247.773 117.737 247.507 118.997 247.182 120.229L247.709 120.368ZM247.659 100.449C246.97 97.9133 246.025 95.4688 244.85 93.1501L244.363 93.3969C245.522 95.6827 246.453 98.0926 247.132 100.592L247.659 100.449ZM237.645 83.2319C235.803 81.3976 233.77 79.7437 231.571 78.3046L231.272 78.7612C233.44 80.1798 235.444 81.8102 237.26 83.6186L237.645 83.2319Z" stroke="url(#paint0_linear_3605_9501)" stroke-width="0.545716" stroke-dasharray="7.64 12.01"/>
<path d="M208.152 125.214C224.952 125.214 238.572 110.839 238.572 93.1072C238.572 75.3748 224.952 61 208.152 61C191.352 61 177.732 75.3748 177.732 93.1072C177.732 110.839 191.352 125.214 208.152 125.214Z" fill="url(#paint1_radial_3605_9501)"/>
<path d="M208.152 119.417C221.919 119.417 233.079 107.638 233.079 93.1072C233.079 78.5765 221.919 66.7971 208.152 66.7971C194.385 66.7971 183.225 78.5765 183.225 93.1072C183.225 107.638 194.385 119.417 208.152 119.417Z" fill="url(#paint2_radial_3605_9501)"/>
<path opacity="0.45" d="M184.351 94.445C184.351 79.8778 195.477 68.1349 209.278 68.1349C216.179 68.1349 222.517 71.1078 227.023 76.013C222.517 70.3646 215.616 66.7971 208.152 66.7971C194.35 66.7971 183.225 78.54 183.225 93.1072C183.225 100.242 185.9 106.782 190.407 111.539C186.605 106.931 184.351 100.985 184.351 94.445Z" fill="#E0A326"/>
<path opacity="0.45" d="M193.365 107.377C193.365 94.445 203.223 84.0399 215.475 84.0399C221.39 84.0399 226.883 86.5668 230.826 90.5802C229.136 79.5805 219.982 71.1078 208.997 71.1078C196.745 71.1078 186.887 81.5129 186.887 94.445C186.887 100.985 189.422 106.931 193.647 111.242C193.506 109.904 193.365 108.566 193.365 107.377Z" fill="#E0A326"/>
<path opacity="0.5" d="M223.643 72.4456C224.348 74.6753 224.629 77.2022 224.629 79.7292C224.629 92.9585 214.489 103.81 201.815 103.81C194.069 103.81 187.168 99.6476 183.084 93.4045C183.225 107.823 194.351 119.417 208.011 119.417C221.813 119.417 232.938 107.674 232.938 93.1072C233.079 84.7831 229.277 77.3509 223.643 72.4456Z" fill="url(#paint3_radial_3605_9501)"/>
<path opacity="0.5" d="M228.995 81.8102C229.84 84.3372 230.262 87.1614 230.262 89.9857C230.262 103.661 219.7 114.809 206.743 114.809C197.73 114.809 189.844 109.309 185.9 101.431C189.14 111.093 197.871 118.079 208.011 118.079C220.967 118.079 231.53 106.931 231.53 93.2558C231.671 89.0938 230.685 85.2291 228.995 81.8102Z" fill="url(#paint4_radial_3605_9501)"/>
<path opacity="0.5" d="M224.347 80.9184C223.361 83.7426 219.418 84.7831 215.756 83.1481C212.094 81.6616 209.982 78.0941 210.968 75.2699C211.954 72.4456 215.897 71.4051 219.559 73.0402C223.361 74.5267 225.473 78.0941 224.347 80.9184ZM208.855 80.6211C207.165 79.8779 205.335 80.3238 204.912 81.6616C204.49 82.9994 205.475 84.6345 207.165 85.2291C208.855 85.9723 210.686 85.5263 211.109 84.1885C211.531 82.9994 210.545 81.3643 208.855 80.6211Z" fill="url(#paint5_radial_3605_9501)"/>
<path opacity="0.5" d="M208.856 80.6211C207.166 79.8779 205.335 80.3238 204.912 81.6616C204.771 81.8103 204.771 82.1075 204.771 82.2562C205.476 81.513 206.884 81.2157 208.292 81.8103C209.701 82.4049 210.686 83.7427 210.546 84.7832C210.686 84.6345 210.827 84.3372 210.968 84.1885C211.531 82.9994 210.546 81.3643 208.856 80.6211Z" fill="url(#paint6_radial_3605_9501)"/>
<path opacity="0.5" d="M219.56 73.0402C215.898 71.5538 212.096 72.4457 210.969 75.2699C210.969 75.4185 210.828 75.5672 210.828 75.7159C212.236 73.4862 215.757 72.743 218.996 74.0808C222.517 75.5672 224.489 78.6887 223.925 81.3643C224.066 81.067 224.207 80.9184 224.348 80.6211C225.475 78.0942 223.362 74.5267 219.56 73.0402Z" fill="url(#paint7_radial_3605_9501)"/>
<path opacity="0.5" d="M216.319 109.755C216.178 112.134 213.503 113.769 210.404 113.62C207.306 113.323 204.912 111.242 205.053 109.012C205.194 106.634 207.869 104.999 210.968 105.147C214.066 105.296 216.46 107.377 216.319 109.755Z" fill="url(#paint8_radial_3605_9501)"/>
<path opacity="0.5" d="M215.756 107.823C215.756 107.972 215.756 108.12 215.756 108.12C215.615 110.499 212.939 112.134 209.841 111.985C207.588 111.836 205.757 110.647 205.053 109.161C205.194 111.39 207.447 113.174 210.404 113.471C213.503 113.769 216.178 111.985 216.319 109.607C216.319 109.012 216.178 108.418 215.756 107.823Z" fill="url(#paint9_radial_3605_9501)"/>
<path opacity="0.5" d="M229.558 91.7694C231.248 92.5126 231.389 96.2287 229.84 100.093C228.432 103.958 225.897 106.634 224.207 105.891C222.517 105.147 222.376 101.431 223.925 97.5665C225.474 93.5531 228.009 91.0262 229.558 91.7694ZM222.798 109.161C221.672 110.201 221.108 111.39 221.531 111.836C221.953 112.282 223.221 111.985 224.207 110.944C225.333 109.904 225.897 108.715 225.474 108.269C225.192 107.823 223.925 108.12 222.798 109.161ZM227.164 86.5668C227.587 88.6478 228.573 90.1343 229.417 89.9857C230.262 89.837 230.685 88.0533 230.262 85.9723C229.84 83.8912 228.854 82.4048 228.009 82.5534C227.164 82.7021 226.882 84.4858 227.164 86.5668ZM224.207 90.4316C223.643 91.7694 223.643 93.1072 224.207 93.4045C224.77 93.7018 225.756 92.8099 226.319 91.4721C226.883 90.1343 226.883 88.7965 226.319 88.4992C225.756 88.2019 224.911 89.0938 224.207 90.4316Z" fill="url(#paint10_radial_3605_9501)"/>
<path opacity="0.5" d="M229.418 85.6749C229.7 87.6073 229.418 89.2424 228.714 89.6883C228.996 89.9856 229.277 89.9856 229.559 89.9856C230.404 89.837 230.826 88.0532 230.404 85.9722C229.981 83.8912 228.996 82.4047 228.151 82.5534C228.151 82.5534 228.01 82.5534 228.01 82.702C228.573 83.1479 229.136 84.3371 229.418 85.6749Z" fill="url(#paint11_radial_3605_9501)"/>
<path opacity="0.5" d="M225.334 91.3234C224.912 92.2153 224.348 92.9585 223.926 93.2558C223.926 93.4044 224.067 93.5531 224.207 93.5531C224.771 93.8504 225.757 92.9585 226.32 91.6207C226.883 90.2829 226.883 88.9451 226.32 88.6478C226.179 88.4992 225.897 88.6478 225.616 88.7965C225.897 89.2424 225.757 90.2829 225.334 91.3234Z" fill="url(#paint12_radial_3605_9501)"/>
<path opacity="0.5" d="M224.63 108.12C224.911 108.715 224.489 109.755 223.362 110.796C222.799 111.39 222.095 111.688 221.531 111.836C221.954 112.282 223.221 111.985 224.207 110.944C225.334 109.904 225.897 108.715 225.475 108.269C225.334 108.12 225.052 107.972 224.63 108.12Z" fill="url(#paint13_radial_3605_9501)"/>
<path opacity="0.5" d="M229.559 91.7693C229.277 91.6207 228.996 91.6207 228.855 91.6207C230.263 92.5125 230.263 96.08 228.855 99.7961C227.587 103.066 225.616 105.445 224.066 105.742C224.207 105.742 224.207 105.891 224.348 105.891C226.038 106.634 228.432 103.958 229.981 100.093C231.39 96.08 231.249 92.3639 229.559 91.7693Z" fill="url(#paint14_radial_3605_9501)"/>
<path opacity="0.5" d="M198.998 72.4456C200.406 73.6348 199.42 77.2022 196.885 80.4724C194.35 83.7426 191.252 85.3777 189.844 84.1885C188.435 82.9994 189.421 79.4319 191.956 76.1617C194.491 72.8916 197.589 71.2565 198.998 72.4456ZM202.518 70.216C201.251 70.8105 200.265 71.851 200.547 72.4456C200.828 73.0402 202.096 73.0402 203.363 72.4456C204.631 71.851 205.617 70.8105 205.335 70.216C205.194 69.6214 203.927 69.6214 202.518 70.216ZM186.182 86.1209C185.478 87.4587 185.337 88.7965 185.9 89.0938C186.464 89.3911 187.449 88.6479 188.154 87.3101C188.858 85.9723 188.999 84.6345 188.435 84.3372C187.872 84.0399 186.886 84.7831 186.182 86.1209Z" fill="url(#paint15_radial_3605_9501)"/>
<path opacity="0.5" d="M186.745 87.31C187.309 86.1208 188.154 85.3776 188.717 85.3776C188.717 84.9317 188.576 84.4857 188.435 84.3371C187.872 84.0398 186.886 84.7831 186.182 86.1209C185.478 87.4587 185.337 88.7965 185.9 89.0937C186.041 89.0937 186.041 89.0937 186.182 89.0937C186.182 88.6478 186.464 87.9046 186.745 87.31Z" fill="url(#paint16_radial_3605_9501)"/>
<path opacity="0.5" d="M192.52 77.3508C195.055 74.0807 198.153 72.4456 199.561 73.6347C199.421 73.1888 199.28 72.7428 198.998 72.4455C197.59 71.2564 194.491 72.8915 191.957 76.1616C189.422 79.4318 188.577 82.9993 189.844 84.1884C189.562 82.5533 190.548 79.7291 192.52 77.3508Z" fill="url(#paint17_radial_3605_9501)"/>
<path opacity="0.5" d="M203.081 71.2565C203.926 70.9592 204.771 70.8105 205.194 70.8105C205.335 70.5132 205.335 70.3646 205.335 70.0673C205.053 69.4727 203.786 69.4727 202.518 70.0673C201.251 70.6618 200.265 71.7024 200.546 72.2969C200.687 72.5942 200.828 72.7429 201.251 72.7429C201.532 72.297 202.236 71.7024 203.081 71.2565Z" fill="url(#paint18_radial_3605_9501)"/>
<path opacity="0.5" d="M196.323 111.836C195.337 112.877 192.802 111.985 190.689 109.904C188.436 107.674 187.45 105.147 188.436 104.107C189.422 103.066 191.957 103.958 194.069 106.039C196.182 108.12 197.309 110.796 196.323 111.836ZM201.111 112.728C199.843 111.985 198.576 111.836 198.154 112.431C197.731 113.026 198.576 114.215 199.844 115.107C201.111 115.85 202.378 115.998 202.801 115.404C203.223 114.809 202.378 113.62 201.111 112.728ZM190.689 99.2016C189.704 98.0124 188.577 97.2692 188.014 97.8638C187.45 98.4584 187.732 99.6475 188.718 100.985C189.704 102.175 190.83 102.918 191.394 102.323C191.957 101.729 191.675 100.391 190.689 99.2016Z" fill="url(#paint19_radial_3605_9501)"/>
<path opacity="0.5" d="M191.394 102.323C191.534 102.174 191.675 101.877 191.675 101.58C191.112 101.58 190.126 100.985 189.422 100.093C188.859 99.2016 188.436 98.3097 188.436 97.7151C188.295 97.7151 188.155 97.7152 188.014 97.8638C187.45 98.3097 187.732 99.6475 188.718 100.985C189.704 102.026 190.83 102.769 191.394 102.323Z" fill="url(#paint20_radial_3605_9501)"/>
<path opacity="0.5" d="M200.547 114.215C199.561 113.62 198.857 112.728 198.857 112.134C198.575 112.134 198.434 112.282 198.293 112.431C197.871 113.026 198.716 114.215 199.983 115.107C201.251 115.85 202.518 115.998 202.941 115.404C203.082 115.255 203.082 115.107 203.082 114.958C202.237 114.958 201.392 114.809 200.547 114.215Z" fill="url(#paint21_radial_3605_9501)"/>
<path opacity="0.5" d="M191.253 109.012C189.422 107.228 188.436 104.999 188.718 103.661C188.577 103.661 188.436 103.81 188.296 103.958C187.31 104.999 188.296 107.674 190.549 109.755C192.802 111.985 195.337 112.728 196.182 111.688C196.323 111.539 196.464 111.39 196.464 111.093C195.478 111.836 193.225 110.945 191.253 109.012Z" fill="url(#paint22_radial_3605_9501)"/>
<g opacity="0.45">
<g opacity="0.45">
<path d="M198.857 78.0941C200.125 79.2833 199.562 82.2561 197.59 84.6344C195.618 87.0128 192.802 88.0533 191.534 86.8641C190.267 85.675 190.83 82.7021 192.802 80.3238C194.773 77.7968 197.59 76.9049 198.857 78.0941Z" fill="#E0A326"/>
</g>
<g opacity="0.45">
<path d="M205.757 73.3375C206.18 74.2293 205.335 75.7158 203.786 76.6076C202.237 77.4995 200.547 77.4995 199.983 76.459C199.561 75.5671 200.406 74.0807 201.955 73.1888C203.645 72.2969 205.335 72.4456 205.757 73.3375Z" fill="#E0A326"/>
</g>
</g>
<path d="M250.964 69.3241C248.851 65.0134 237.585 66.3512 222.938 71.9997C223.783 72.5943 224.488 73.3375 225.192 74.0807C234.627 71.1078 241.387 70.6619 242.936 73.7834C245.471 78.986 231.529 91.918 211.813 102.769C192.096 113.62 174.07 118.228 171.535 113.174C169.986 109.904 174.915 103.512 183.787 96.526C183.506 95.4855 183.365 94.5937 183.365 93.5532C169.423 103.512 161.113 113.174 163.367 117.634C166.465 123.877 188.576 118.228 212.798 104.999C236.881 91.4721 254.062 75.5671 250.964 69.3241Z" fill="#E0A326"/>
<path opacity="0.54" d="M227.023 71.4052C227.023 71.1079 227.023 70.8106 227.023 70.5133C225.614 70.9592 224.206 71.5538 222.798 71.9997C223.643 72.5943 224.347 73.3375 225.051 74.0808C234.487 71.1079 241.247 70.6619 242.796 73.7835C245.331 78.986 231.388 91.9181 211.672 102.769C191.956 113.62 173.929 118.228 171.394 113.174C169.845 109.904 174.774 103.512 183.647 96.5261C183.365 95.4856 183.224 94.5937 183.224 93.5532C175.619 99.053 169.564 104.404 166.184 108.864C170.268 104.85 177.45 98.0125 177.732 99.3503C178.013 101.283 161.677 111.539 172.239 115.999C182.661 120.458 209.982 104.999 220.404 98.7557C230.825 92.6613 243.641 81.6616 246.317 74.0808C248.852 66.4999 227.868 74.824 227.023 71.4052Z" fill="#E0A326"/>
<g opacity="0.54">
<path d="M172.098 117.188C172.098 117.336 171.676 117.336 170.972 117.336C170.267 117.336 169.422 117.634 168.437 117.485C167.451 117.485 166.324 117.039 165.761 116.444C165.479 116.147 165.197 115.701 165.197 115.404C165.057 115.107 165.057 114.958 165.057 114.958C165.057 114.958 165.057 114.809 165.057 114.512C165.057 114.215 165.057 113.917 165.197 113.471C165.338 112.58 165.902 111.688 166.465 110.944C167.451 109.309 168.718 107.972 168.859 108.12C169 108.269 168.155 109.904 167.451 111.539C167.028 112.431 166.747 113.174 166.747 113.769C166.606 114.363 166.747 114.661 166.747 114.661C166.747 114.661 166.747 114.958 167.028 115.404C167.31 115.85 168.014 116.147 168.718 116.296C169.563 116.444 170.408 116.444 171.112 116.593C171.676 116.89 172.098 117.188 172.098 117.188Z" fill="#E0A326"/>
</g>
<g opacity="0.54">
<path d="M244.204 81.5129C244.063 81.3643 245.894 78.986 247.443 76.459C248.288 75.1212 248.992 73.9321 249.133 72.8916C249.274 72.4456 249.274 71.9997 249.274 71.7024C249.274 71.4051 249.274 71.2565 249.274 71.2565C249.274 71.2565 249.274 71.1078 249.133 70.8105C249.133 70.5132 248.992 70.216 248.71 69.9187C248.429 69.6214 248.006 69.3241 247.443 69.1754C246.88 69.0268 246.175 68.8781 245.471 68.7295C244.063 68.5808 242.655 68.5808 241.528 68.8781C240.401 69.0268 239.697 69.3241 239.697 69.1754C239.697 69.0268 240.261 68.5809 241.387 68.2836C242.514 67.8376 243.922 67.5404 245.471 67.689C246.175 67.689 247.021 67.8376 247.725 67.9863C248.429 68.1349 249.133 68.5809 249.696 69.0268C250.26 69.4727 250.4 70.0673 250.541 70.5132C250.682 70.9592 250.682 71.1078 250.682 71.1078C250.682 71.1078 250.682 71.4051 250.682 71.7024C250.682 72.1483 250.682 72.7429 250.4 73.3375C250.119 74.6753 249.133 76.0131 248.288 77.2022C246.598 79.5805 244.345 81.6616 244.204 81.5129Z" fill="#E0A326"/>
</g>
<path d="M158.882 253.025C153.827 252.417 148.801 252.121 143.823 252.12L143.823 252.475C140.609 252.475 137.416 252.598 134.248 252.841L134.221 252.487C129.167 252.875 124.178 253.567 119.276 254.548L119.346 254.897C116.203 255.526 113.096 256.274 110.031 257.137L109.935 256.794C105.071 258.163 100.313 259.821 95.6828 261.749L95.8195 262.077C92.8665 263.307 89.9658 264.648 87.1233 266.095L86.962 265.779C82.471 268.065 78.125 270.616 73.9475 273.415L74.1453 273.711C71.4918 275.489 68.9065 277.367 66.3954 279.341L66.1757 279.061C62.2225 282.169 58.4528 285.514 54.8901 289.078L55.1415 289.329C52.8865 291.585 50.7148 293.93 48.6322 296.358L48.3624 296.126C45.0971 299.934 42.0503 303.947 39.2451 308.149L39.5407 308.346C37.7727 310.994 36.1009 313.718 34.5312 316.513L34.2213 316.339C31.7734 320.697 29.5728 325.227 27.6414 329.914L27.97 330.05C26.7597 332.987 25.6553 335.986 24.6624 339.043L24.3243 338.933C22.7866 343.667 21.5151 348.539 20.5301 353.534L20.8788 353.603C20.5707 355.165 20.2906 356.74 20.0393 358.326C19.7879 359.913 19.5675 361.497 19.3776 363.078L19.0247 363.036C18.4174 368.091 18.1206 373.118 18.1199 378.095L18.4753 378.095C18.4748 381.309 18.5982 384.502 18.8413 387.67L18.4869 387.697C18.875 392.752 19.5673 397.74 20.5482 402.642L20.8968 402.572C21.5258 405.715 22.2738 408.822 23.1366 411.887L22.7945 411.984C24.1635 416.847 25.8206 421.605 27.7492 426.235L28.0773 426.099C29.3074 429.052 30.6482 431.952 32.0953 434.795L31.7786 434.956C34.0651 439.447 36.6163 443.793 39.4154 447.971L39.7106 447.773C41.4886 450.426 43.3668 453.012 45.3408 455.523L45.0614 455.743C48.1691 459.696 51.5137 463.465 55.078 467.028L55.3293 466.777C57.5853 469.032 59.9295 471.203 62.3577 473.286L62.1263 473.556C65.9335 476.821 69.9465 479.868 74.1486 482.673L74.3459 482.378C76.9943 484.146 79.7179 485.817 82.5127 487.387L82.3386 487.697C86.6968 490.145 91.2273 492.345 95.9145 494.277L96.0499 493.948C98.9871 495.159 101.986 496.263 105.043 497.256L104.933 497.594C109.667 499.132 114.539 500.403 119.534 501.388L119.603 501.039C121.165 501.348 122.74 501.628 124.326 501.879C125.913 502.13 127.497 502.351 129.078 502.541L129.036 502.894C134.091 503.501 139.118 503.798 144.095 503.798L144.095 503.443C147.309 503.443 150.502 503.32 153.67 503.077L153.697 503.431C158.752 503.043 163.741 502.351 168.642 501.37L168.572 501.021C171.715 500.392 174.822 499.644 177.887 498.782L177.984 499.124C182.847 497.755 187.605 496.098 192.235 494.169L192.099 493.841C195.052 492.611 197.952 491.27 200.795 489.823L200.956 490.14C205.447 487.853 209.793 485.302 213.971 482.503L213.773 482.208C216.426 480.43 219.012 478.551 221.523 476.577L221.743 476.857C225.696 473.749 229.465 470.405 233.028 466.84L232.777 466.589C235.032 464.333 237.203 461.989 239.286 459.561L239.556 459.792C242.821 455.985 245.868 451.972 248.673 447.77L248.378 447.572C250.146 444.924 251.817 442.2 253.387 439.406L253.697 439.58C256.145 435.221 258.345 430.691 260.277 426.004L259.948 425.868C261.159 422.931 262.263 419.932 263.256 416.876L263.594 416.985C265.132 412.252 266.403 407.38 267.388 402.384L267.039 402.315C267.348 400.753 267.628 399.178 267.879 397.592C268.13 396.005 268.351 394.421 268.541 392.84L268.894 392.882C269.501 387.827 269.798 382.801 269.798 377.823L269.443 377.823C269.443 374.609 269.32 371.416 269.077 368.248L269.431 368.221C269.043 363.167 268.351 358.178 267.37 353.276L267.021 353.346C266.392 350.203 265.644 347.096 264.782 344.031L265.124 343.935C263.755 339.071 262.098 334.313 260.169 329.683L259.841 329.819C258.611 326.866 257.27 323.966 255.823 321.123L256.14 320.962C253.853 316.471 251.302 312.125 248.503 307.948L248.208 308.145C246.43 305.492 244.551 302.906 242.577 300.395L242.857 300.176C239.749 296.222 236.405 292.453 232.84 288.89L232.589 289.141C230.333 286.887 227.989 284.715 225.561 282.632L225.792 282.362C221.985 279.097 217.972 276.05 213.77 273.245L213.572 273.541C210.924 271.773 208.2 270.101 205.406 268.531L205.58 268.221C201.221 265.773 196.691 263.573 192.004 261.641L191.868 261.97C188.931 260.76 185.932 259.655 182.876 258.662L182.985 258.324C178.252 256.787 173.38 255.515 168.384 254.53L168.315 254.879C166.753 254.571 165.178 254.291 163.592 254.039C162.005 253.788 160.421 253.568 158.84 253.378L158.882 253.025ZM158.03 289.144C156.208 288.855 154.39 288.624 152.578 288.447L152.509 289.155C154.307 289.33 156.111 289.56 157.919 289.846C159.727 290.133 161.513 290.471 163.277 290.861L163.43 290.167C161.653 289.774 159.852 289.433 158.03 289.144ZM135.342 288.428C131.668 288.779 128.047 289.355 124.493 290.144L124.647 290.838C128.172 290.055 131.765 289.484 135.409 289.136L135.342 288.428ZM108.102 295.482C104.738 296.949 101.472 298.617 98.3228 300.474L98.6839 301.087C101.809 299.244 105.048 297.589 108.386 296.134L108.102 295.482ZM84.3752 310.607C81.6353 313.028 79.0393 315.618 76.605 318.364L77.1369 318.836C79.5521 316.111 82.1275 313.542 84.8459 311.14L84.3752 310.607ZM66.4614 332.303C64.6128 335.438 62.9457 338.705 61.4765 342.09L62.1286 342.373C63.586 339.015 65.2399 335.774 67.0738 332.664L66.4614 332.303ZM56.1668 358.488C55.7742 360.266 55.4327 362.066 55.1441 363.888C54.8554 365.71 54.6236 367.528 54.4474 369.34L55.155 369.409C55.3298 367.611 55.5597 365.807 55.8461 363.999C56.1326 362.191 56.4714 360.405 56.8609 358.641L56.1668 358.488ZM54.4284 386.577C54.7794 390.25 55.3553 393.872 56.144 397.425L56.838 397.271C56.0555 393.746 55.4842 390.153 55.136 386.509L54.4284 386.577ZM61.4825 413.816C62.9488 417.18 64.6171 420.446 66.4744 423.595L67.0867 423.234C65.244 420.11 63.5889 416.87 62.1341 413.532L61.4825 413.816ZM76.607 437.543C79.0281 440.283 81.6182 442.879 84.3643 445.313L84.8358 444.781C82.1114 442.366 79.5418 439.791 77.1397 437.072L76.607 437.543ZM98.3025 455.457C101.438 457.305 104.705 458.973 108.09 460.442L108.373 459.79C105.015 458.332 101.774 456.678 98.6635 454.844L98.3025 455.457ZM124.488 465.751C126.266 466.144 128.066 466.486 129.888 466.774C131.71 467.063 133.528 467.295 135.34 467.471L135.409 466.763C133.611 466.588 131.807 466.358 129.999 466.072C128.191 465.786 126.405 465.447 124.641 465.057L124.488 465.751ZM152.577 467.49C156.25 467.139 159.872 466.563 163.425 465.774L163.271 465.08C159.746 465.863 156.153 466.434 152.509 466.782L152.577 467.49ZM179.816 460.436C183.18 458.969 186.446 457.301 189.595 455.444L189.234 454.832C186.11 456.674 182.87 458.329 179.532 459.784L179.816 460.436ZM203.543 445.311C206.283 442.89 208.879 440.3 211.313 437.554L210.781 437.082C208.366 439.807 205.791 442.376 203.072 444.779L203.543 445.311ZM221.457 423.616C223.305 420.48 224.973 417.213 226.442 413.829L225.79 413.546C224.332 416.903 222.678 420.144 220.844 423.255L221.457 423.616ZM231.751 397.43C232.144 395.653 232.486 393.852 232.774 392.03C233.063 390.208 233.295 388.39 233.471 386.578L232.763 386.509C232.588 388.307 232.359 390.111 232.072 391.919C231.786 393.727 231.447 395.513 231.057 397.277L231.751 397.43ZM233.49 369.342C233.139 365.668 232.563 362.047 231.774 358.493L231.08 358.647C231.863 362.172 232.434 365.765 232.782 369.409L233.49 369.342ZM226.436 342.102C224.969 338.738 223.301 335.472 221.444 332.323L220.832 332.684C222.674 335.809 224.329 339.048 225.784 342.386L226.436 342.102ZM211.311 318.375C208.89 315.635 206.3 313.039 203.554 310.605L203.082 311.137C205.807 313.552 208.376 316.128 210.779 318.846L211.311 318.375ZM189.616 300.461C186.48 298.613 183.214 296.946 179.829 295.476L179.546 296.129C182.904 297.586 186.144 299.24 189.255 301.074L189.616 300.461ZM154.582 310.909C152.859 310.636 151.142 310.431 149.432 310.29L149.374 310.999C151.066 311.138 152.766 311.341 154.471 311.611C156.175 311.881 157.855 312.213 159.507 312.604L159.671 311.913C158.001 311.517 156.304 311.182 154.582 310.909ZM133.191 310.914C129.754 311.465 126.389 312.278 123.12 313.335L123.339 314.012C126.573 312.966 129.903 312.161 133.304 311.616L133.191 310.914ZM108.365 320.151C105.421 321.965 102.619 324.001 99.9845 326.239L100.445 326.781C103.052 324.566 105.825 322.552 108.738 320.756L108.365 320.151ZM88.9413 338.165C86.9258 340.947 85.1122 343.896 83.5253 346.995L84.158 347.319C85.7281 344.253 87.5227 341.335 89.5169 338.582L88.9413 338.165ZM77.9127 362.247C77.5173 363.917 77.1819 365.614 76.909 367.336C76.6361 369.059 76.4306 370.776 76.2905 372.487L76.9989 372.545C77.1376 370.852 77.341 369.152 77.6111 367.448C77.8812 365.743 78.2132 364.063 78.6044 362.411L77.9127 362.247ZM76.9137 388.727C77.4651 392.164 78.2783 395.53 79.3352 398.798L80.0115 398.58C78.9658 395.345 78.1611 392.015 77.6155 388.614L76.9137 388.727ZM86.1513 413.554C87.9653 416.497 90.0009 419.299 92.2391 421.934L92.7809 421.474C90.566 418.866 88.5515 416.093 86.7564 413.181L86.1513 413.554ZM104.165 432.977C106.947 434.992 109.896 436.806 112.995 438.393L113.319 437.76C110.253 436.19 107.335 434.396 104.582 432.401L104.165 432.977ZM128.247 444.006C129.917 444.401 131.614 444.736 133.336 445.009C135.059 445.282 136.776 445.488 138.487 445.628L138.545 444.919C136.852 444.781 135.152 444.577 133.448 444.307C131.743 444.037 130.063 443.705 128.411 443.314L128.247 444.006ZM154.727 445.005C158.164 444.453 161.53 443.64 164.798 442.583L164.58 441.907C161.345 442.952 158.015 443.757 154.614 444.303L154.727 445.005ZM179.554 435.767C182.497 433.953 185.299 431.917 187.934 429.679L187.474 429.137C184.866 431.352 182.093 433.367 179.181 435.162L179.554 435.767ZM198.977 417.753C200.992 414.971 202.806 412.022 204.393 408.923L203.76 408.599C202.19 411.665 200.396 414.583 198.401 417.336L198.977 417.753ZM210.006 393.671C210.401 392.001 210.736 390.304 211.009 388.582C211.282 386.859 211.488 385.142 211.628 383.432L210.919 383.374C210.781 385.066 210.577 386.766 210.307 388.471C210.037 390.175 209.705 391.855 209.314 393.507L210.006 393.671ZM211.005 367.191C210.453 363.754 209.64 360.389 208.583 357.12L207.907 357.339C208.952 360.573 209.757 363.903 210.303 367.304L211.005 367.191ZM201.767 342.365C199.953 339.421 197.917 336.619 195.679 333.984L195.137 334.445C197.352 337.052 199.367 339.825 201.162 342.738L201.767 342.365ZM183.753 322.941C180.971 320.926 178.022 319.112 174.923 317.525L174.599 318.158C177.665 319.728 180.583 321.523 183.336 323.517L183.753 322.941ZM161.145 269.485C159.558 269.234 157.973 269.018 156.392 268.837L156.311 269.543C157.882 269.723 159.457 269.938 161.033 270.187C162.61 270.437 164.174 270.72 165.723 271.034L165.865 270.337C164.305 270.021 162.731 269.737 161.145 269.485ZM141.356 268.144C138.142 268.217 134.953 268.431 131.796 268.78L131.874 269.487C135.01 269.139 138.178 268.927 141.372 268.855L141.356 268.144ZM116.989 271.467C113.882 272.255 110.821 273.177 107.813 274.228L108.048 274.899C111.036 273.855 114.077 272.939 117.164 272.156L116.989 271.467ZM93.9786 280.156C91.1317 281.613 88.3521 283.193 85.6475 284.889L86.0251 285.492C88.7123 283.806 91.4741 282.237 94.3026 280.788L93.9786 280.156ZM73.4713 293.735C71.0222 295.783 68.6606 297.938 66.3943 300.195L66.8959 300.699C69.1476 298.456 71.494 296.315 73.9273 294.28L73.4713 293.735ZM56.4808 311.52C54.5518 314.055 52.7284 316.681 51.0181 319.393L51.6193 319.772C53.3185 317.078 55.1301 314.469 57.0466 311.951L56.4808 311.52ZM43.8865 332.644C42.5782 335.538 41.3892 338.505 40.3267 341.539L40.9976 341.774C42.0532 338.76 43.2345 335.812 44.5342 332.937L43.8865 332.644ZM36.3373 356.054C36.021 357.613 35.7368 359.187 35.4854 360.774C35.234 362.36 35.0179 363.945 34.8366 365.526L35.5428 365.607C35.723 364.036 35.9377 362.462 36.1875 360.885C36.4373 359.308 36.7197 357.745 37.0339 356.195L36.3373 356.054ZM34.1443 380.562C34.2168 383.777 34.4305 386.966 34.7803 390.122L35.4868 390.044C35.1393 386.908 34.927 383.74 34.855 380.546L34.1443 380.562ZM37.4665 404.929C38.255 408.036 39.1775 411.097 40.2284 414.105L40.8994 413.87C39.8554 410.882 38.9389 407.841 38.1556 404.754L37.4665 404.929ZM46.1557 427.94C47.6134 430.786 49.1932 433.566 50.8893 436.271L51.4915 435.893C49.8064 433.206 48.2367 430.444 46.7884 427.616L46.1557 427.94ZM59.735 448.447C61.7829 450.896 63.9381 453.258 66.195 455.524L66.6987 455.022C64.4564 452.771 62.3151 450.424 60.2803 447.991L59.735 448.447ZM77.5202 465.437C80.0555 467.366 82.6815 469.19 85.3928 470.9L85.772 470.299C83.0784 468.6 80.4695 466.788 77.9506 464.872L77.5202 465.437ZM98.6445 478.032C101.538 479.34 104.505 480.529 107.539 481.592L107.774 480.921C104.76 479.865 101.812 478.684 98.9373 477.384L98.6445 478.032ZM122.054 485.581C123.613 485.897 125.187 486.181 126.774 486.433C128.36 486.684 129.945 486.9 131.526 487.082L131.607 486.375C130.036 486.195 128.462 485.981 126.885 485.731C125.308 485.481 123.745 485.199 122.195 484.884L122.054 485.581ZM146.562 487.774C149.777 487.701 152.966 487.488 156.122 487.138L156.044 486.431C152.908 486.779 149.74 486.991 146.546 487.063L146.562 487.774ZM170.929 484.452C174.036 483.663 177.097 482.741 180.105 481.69L179.87 481.019C176.882 482.063 173.841 482.979 170.754 483.763L170.929 484.452ZM193.94 475.763C196.786 474.305 199.566 472.725 202.271 471.029L201.893 470.427C199.206 472.112 196.444 473.681 193.616 475.13L193.94 475.763ZM214.447 462.183C216.896 460.135 219.258 457.98 221.524 455.723L221.022 455.22C218.771 457.462 216.424 459.603 213.991 461.638L214.447 462.183ZM231.437 444.398C233.366 441.863 235.19 439.237 236.9 436.525L236.299 436.146C234.6 438.84 232.788 441.449 230.872 443.968L231.437 444.398ZM244.032 423.274C245.34 420.38 246.529 417.413 247.592 414.379L246.921 414.144C245.865 417.159 244.684 420.106 243.384 422.981L244.032 423.274ZM251.581 399.865C251.897 398.305 252.181 396.731 252.433 395.145C252.684 393.558 252.9 391.973 253.082 390.392L252.375 390.311C252.195 391.882 251.981 393.457 251.731 395.033C251.481 396.61 251.199 398.174 250.884 399.723L251.581 399.865ZM253.774 375.356C253.701 372.142 253.488 368.953 253.138 365.796L252.431 365.874C252.779 369.01 252.991 372.178 253.063 375.372L253.774 375.356ZM250.452 350.989C249.663 347.882 248.741 344.821 247.69 341.813L247.019 342.048C248.063 345.036 248.979 348.077 249.763 351.164L250.452 350.989ZM241.763 327.979C240.305 325.132 238.725 322.352 237.029 319.647L236.427 320.025C238.112 322.712 239.681 325.474 241.13 328.303L241.763 327.979ZM228.183 307.471C226.135 305.022 223.98 302.661 221.723 300.394L221.22 300.896C223.462 303.148 225.603 305.494 227.638 307.927L228.183 307.471ZM210.398 290.481C207.863 288.552 205.237 286.728 202.525 285.018L202.146 285.619C204.84 287.318 207.449 289.13 209.968 291.047L210.398 290.481ZM189.274 277.886C186.38 276.578 183.413 275.389 180.379 274.327L180.144 274.998C183.159 276.053 186.106 277.234 188.981 278.534L189.274 277.886ZM151.801 328.461C150.103 328.192 148.411 328.012 146.73 327.917L146.689 328.627C148.347 328.72 150.015 328.898 151.69 329.163C153.365 329.429 155.006 329.775 156.611 330.198L156.792 329.511C155.164 329.082 153.499 328.73 151.801 328.461ZM130.846 329.577C127.542 330.475 124.358 331.705 121.338 333.236L121.659 333.87C124.637 332.361 127.776 331.148 131.032 330.263L130.846 329.577ZM108.418 342.622C106.029 345.021 103.875 347.669 102 350.533L102.595 350.922C104.443 348.099 106.566 345.488 108.922 343.123L108.418 342.622ZM95.5111 365.126C95.0819 366.754 94.7305 368.419 94.4614 370.117C94.1923 371.816 94.012 373.508 93.9169 375.189L94.6266 375.229C94.7203 373.572 94.8982 371.903 95.1635 370.228C95.4288 368.554 95.7754 366.912 96.1985 365.307L95.5111 365.126ZM95.5773 391.072C96.4747 394.376 97.7052 397.56 99.2359 400.58L99.87 400.259C98.3609 397.281 97.1479 394.142 96.2633 390.886L95.5773 391.072ZM108.622 413.5C111.021 415.889 113.669 418.044 116.533 419.918L116.922 419.323C114.099 417.476 111.489 415.352 109.123 412.996L108.622 413.5ZM131.126 426.407C132.754 426.836 134.419 427.188 136.117 427.457C137.816 427.726 139.508 427.906 141.189 428.001L141.229 427.292C139.572 427.198 137.903 427.02 136.228 426.755C134.554 426.489 132.912 426.143 131.307 425.72L131.126 426.407ZM157.072 426.341C160.376 425.443 163.56 424.213 166.58 422.682L166.259 422.048C163.281 423.557 160.142 424.77 156.886 425.655L157.072 426.341ZM179.5 413.297C181.889 410.897 184.044 408.249 185.918 405.385L185.323 404.996C183.476 407.819 181.352 410.43 178.996 412.795L179.5 413.297ZM192.407 390.792C192.836 389.164 193.188 387.499 193.457 385.801C193.726 384.103 193.906 382.411 194.001 380.73L193.292 380.689C193.198 382.347 193.02 384.015 192.755 385.69C192.489 387.365 192.143 389.006 191.72 390.611L192.407 390.792ZM192.341 364.846C191.444 361.542 190.213 358.358 188.682 355.338L188.048 355.659C189.557 358.637 190.77 361.776 191.655 365.032L192.341 364.846ZM179.297 342.418C176.897 340.029 174.249 337.875 171.385 336L170.996 336.595C173.819 338.443 176.43 340.566 178.795 342.922L179.297 342.418Z" stroke="url(#paint23_linear_3605_9501)" stroke-width="0.710852" stroke-dasharray="9.95 15.64"/>
<g filter="url(#filter0_d_3605_9501)">
<circle cx="145.5" cy="372.5" r="36.5" fill="url(#paint24_linear_3605_9501)"/>
<circle cx="145.5" cy="372.5" r="35.77" stroke="#1D2729" stroke-width="1.46"/>
</g>
<g clip-path="url(#clip0_3605_9501)">
<path d="M138.209 394.4C140.145 394.398 142.001 393.628 143.369 392.259C144.738 390.89 145.508 389.035 145.51 387.099V379.798H138.209C136.273 379.8 134.418 380.57 133.049 381.939C131.68 383.308 130.91 385.163 130.908 387.099C130.91 389.035 131.68 390.89 133.049 392.259C134.418 393.628 136.273 394.398 138.209 394.4Z" fill="#0ACF83"/>
<path d="M130.908 372.5C130.91 370.564 131.68 368.709 133.049 367.34C134.418 365.971 136.273 365.201 138.209 365.199H145.51V379.798H138.209C136.274 379.796 134.419 379.026 133.05 377.658C131.681 376.29 130.911 374.435 130.908 372.5Z" fill="#A259FF"/>
<path d="M130.908 357.901C130.91 355.965 131.68 354.109 133.049 352.741C134.418 351.372 136.273 350.602 138.209 350.6H145.51V365.199H138.209C136.274 365.197 134.419 364.427 133.05 363.059C131.681 361.691 130.911 359.836 130.908 357.901Z" fill="#F24E1E"/>
<path d="M145.51 350.6H152.811C154.746 350.602 156.602 351.372 157.971 352.741C159.34 354.109 160.109 355.965 160.112 357.901C160.109 359.837 159.34 361.692 157.971 363.061C156.602 364.43 154.746 365.2 152.811 365.202H145.51V350.6Z" fill="#FF7262"/>
<path d="M160.109 372.5C160.107 374.436 159.337 376.291 157.968 377.66C156.599 379.029 154.744 379.799 152.808 379.801C150.873 379.798 149.018 379.028 147.65 377.659C146.281 376.291 145.512 374.435 145.51 372.5C145.512 370.564 146.282 368.709 147.651 367.34C149.019 365.971 150.875 365.201 152.811 365.199C154.746 365.202 156.601 365.972 157.969 367.341C159.337 368.709 160.107 370.565 160.109 372.5Z" fill="#1ABCFE"/>
</g>
<g filter="url(#filter1_d_3605_9501)">
<path d="M156 441L149 409L178.5 425.5L164.5 428.5L156 441Z" fill="#CC2DB4"/>
<path d="M156 441L149 409L178.5 425.5L164.5 428.5L156 441Z" stroke="white" stroke-width="3"/>
</g>
<g filter="url(#filter2_d_3605_9501)">
<path d="M188 445C188 442.791 189.791 441 192 441H284C286.209 441 288 442.791 288 445V474C288 476.209 286.209 478 284 478H192C189.791 478 188 476.209 188 474V445Z" fill="#CC2DB4"/>
</g>
<path d="M207.441 467.168C206.337 467.168 205.345 466.976 204.465 466.592C203.601 466.192 202.921 465.648 202.425 464.96C201.929 464.256 201.673 463.448 201.657 462.536H203.985C204.065 463.32 204.385 463.984 204.945 464.528C205.521 465.056 206.353 465.32 207.441 465.32C208.481 465.32 209.297 465.064 209.889 464.552C210.497 464.024 210.801 463.352 210.801 462.536C210.801 461.896 210.625 461.376 210.273 460.976C209.921 460.576 209.481 460.272 208.953 460.064C208.425 459.856 207.713 459.632 206.817 459.392C205.713 459.104 204.825 458.816 204.153 458.528C203.497 458.24 202.929 457.792 202.449 457.184C201.985 456.56 201.753 455.728 201.753 454.688C201.753 453.776 201.985 452.968 202.449 452.264C202.913 451.56 203.561 451.016 204.393 450.632C205.241 450.248 206.209 450.056 207.297 450.056C208.865 450.056 210.145 450.448 211.137 451.232C212.145 452.016 212.713 453.056 212.841 454.352H210.441C210.361 453.712 210.025 453.152 209.433 452.672C208.841 452.176 208.057 451.928 207.081 451.928C206.169 451.928 205.425 452.168 204.849 452.648C204.273 453.112 203.985 453.768 203.985 454.616C203.985 455.224 204.153 455.72 204.489 456.104C204.841 456.488 205.265 456.784 205.761 456.992C206.273 457.184 206.985 457.408 207.897 457.664C209.001 457.968 209.889 458.272 210.561 458.576C211.233 458.864 211.809 459.32 212.289 459.944C212.769 460.552 213.009 461.384 213.009 462.44C213.009 463.256 212.793 464.024 212.361 464.744C211.929 465.464 211.289 466.048 210.441 466.496C209.593 466.944 208.593 467.168 207.441 467.168ZM217.351 451.712C216.935 451.712 216.583 451.568 216.295 451.28C216.007 450.992 215.863 450.64 215.863 450.224C215.863 449.808 216.007 449.456 216.295 449.168C216.583 448.88 216.935 448.736 217.351 448.736C217.751 448.736 218.087 448.88 218.359 449.168C218.647 449.456 218.791 449.808 218.791 450.224C218.791 450.64 218.647 450.992 218.359 451.28C218.087 451.568 217.751 451.712 217.351 451.712ZM218.407 453.848V467H216.223V453.848H218.407ZM237.945 453.608C238.969 453.608 239.881 453.824 240.681 454.256C241.481 454.672 242.113 455.304 242.577 456.152C243.041 457 243.273 458.032 243.273 459.248V467H241.113V459.56C241.113 458.248 240.785 457.248 240.129 456.56C239.489 455.856 238.617 455.504 237.513 455.504C236.377 455.504 235.473 455.872 234.801 456.608C234.129 457.328 233.793 458.376 233.793 459.752V467H231.633V459.56C231.633 458.248 231.305 457.248 230.649 456.56C230.009 455.856 229.137 455.504 228.033 455.504C226.897 455.504 225.993 455.872 225.321 456.608C224.649 457.328 224.313 458.376 224.313 459.752V467H222.129V453.848H224.313V455.744C224.745 455.056 225.321 454.528 226.041 454.16C226.777 453.792 227.585 453.608 228.465 453.608C229.569 453.608 230.545 453.856 231.393 454.352C232.241 454.848 232.873 455.576 233.289 456.536C233.657 455.608 234.265 454.888 235.113 454.376C235.961 453.864 236.905 453.608 237.945 453.608ZM252.592 467.216C251.36 467.216 250.24 466.936 249.232 466.376C248.24 465.816 247.456 465.024 246.88 464C246.32 462.96 246.04 461.76 246.04 460.4C246.04 459.056 246.328 457.872 246.904 456.848C247.496 455.808 248.296 455.016 249.304 454.472C250.312 453.912 251.44 453.632 252.688 453.632C253.936 453.632 255.064 453.912 256.072 454.472C257.08 455.016 257.872 455.8 258.448 456.824C259.04 457.848 259.336 459.04 259.336 460.4C259.336 461.76 259.032 462.96 258.424 464C257.832 465.024 257.024 465.816 256 466.376C254.976 466.936 253.84 467.216 252.592 467.216ZM252.592 465.296C253.376 465.296 254.112 465.112 254.8 464.744C255.488 464.376 256.04 463.824 256.456 463.088C256.888 462.352 257.104 461.456 257.104 460.4C257.104 459.344 256.896 458.448 256.48 457.712C256.064 456.976 255.52 456.432 254.848 456.08C254.176 455.712 253.448 455.528 252.664 455.528C251.864 455.528 251.128 455.712 250.456 456.08C249.8 456.432 249.272 456.976 248.872 457.712C248.472 458.448 248.272 459.344 248.272 460.4C248.272 461.472 248.464 462.376 248.848 463.112C249.248 463.848 249.776 464.4 250.432 464.768C251.088 465.12 251.808 465.296 252.592 465.296ZM268.615 453.608C270.215 453.608 271.511 454.096 272.503 455.072C273.495 456.032 273.991 457.424 273.991 459.248V467H271.831V459.56C271.831 458.248 271.503 457.248 270.847 456.56C270.191 455.856 269.295 455.504 268.159 455.504C267.007 455.504 266.087 455.864 265.399 456.584C264.727 457.304 264.391 458.352 264.391 459.728V467H262.207V453.848H264.391V455.72C264.823 455.048 265.407 454.528 266.143 454.16C266.895 453.792 267.719 453.608 268.615 453.608Z" fill="white"/>
<defs>
<filter id="filter0_d_3605_9501" x="92.21" y="322.13" width="106.58" height="106.58" filterUnits="userSpaceOnUse" color-interpolation-filters="sRGB">
<feFlood flood-opacity="0" result="BackgroundImageFix"/>
<feColorMatrix in="SourceAlpha" type="matrix" values="0 0 0 0 0 0 0 0 0 0 0 0 0 0 0 0 0 0 127 0" result="hardAlpha"/>
<feMorphology radius="5.11" operator="dilate" in="SourceAlpha" result="effect1_dropShadow_3605_9501"/>
<feOffset dy="2.92"/>
<feGaussianBlur stdDeviation="5.84"/>
<feComposite in2="hardAlpha" operator="out"/>
<feColorMatrix type="matrix" values="0 0 0 0 0 0 0 0 0 0 0 0 0 0 0 0 0 0 0.25 0"/>
<feBlend mode="normal" in2="BackgroundImageFix" result="effect1_dropShadow_3605_9501"/>
<feBlend mode="normal" in="SourceGraphic" in2="effect1_dropShadow_3605_9501" result="shape"/>
</filter>
<filter id="filter1_d_3605_9501" x="144.322" y="405.563" width="40.8828" height="43.6636" filterUnits="userSpaceOnUse" color-interpolation-filters="sRGB">
<feFlood flood-opacity="0" result="BackgroundImageFix"/>
<feColorMatrix in="SourceAlpha" type="matrix" values="0 0 0 0 0 0 0 0 0 0 0 0 0 0 0 0 0 0 127 0" result="hardAlpha"/>
<feOffset dy="2"/>
<feGaussianBlur stdDeviation="1.25"/>
<feComposite in2="hardAlpha" operator="out"/>
<feColorMatrix type="matrix" values="0 0 0 0 0 0 0 0 0 0 0 0 0 0 0 0 0 0 0.19 0"/>
<feBlend mode="normal" in2="BackgroundImageFix" result="effect1_dropShadow_3605_9501"/>
<feBlend mode="normal" in="SourceGraphic" in2="effect1_dropShadow_3605_9501" result="shape"/>
</filter>
<filter id="filter2_d_3605_9501" x="185.5" y="440.5" width="105" height="42" filterUnits="userSpaceOnUse" color-interpolation-filters="sRGB">
<feFlood flood-opacity="0" result="BackgroundImageFix"/>
<feColorMatrix in="SourceAlpha" type="matrix" values="0 0 0 0 0 0 0 0 0 0 0 0 0 0 0 0 0 0 127 0" result="hardAlpha"/>
<feOffset dy="2"/>
<feGaussianBlur stdDeviation="1.25"/>
<feComposite in2="hardAlpha" operator="out"/>
<feColorMatrix type="matrix" values="0 0 0 0 0 0 0 0 0 0 0 0 0 0 0 0 0 0 0.19 0"/>
<feBlend mode="normal" in2="BackgroundImageFix" result="effect1_dropShadow_3605_9501"/>
<feBlend mode="normal" in="SourceGraphic" in2="effect1_dropShadow_3605_9501" result="shape"/>
</filter>
<linearGradient id="paint0_linear_3605_9501" x1="146.818" y1="15.6124" x2="267.643" y2="185.87" gradientUnits="userSpaceOnUse">
<stop stop-color="#6155FF" stop-opacity="0.35"/>
<stop offset="0.7787" stop-color="white" stop-opacity="0"/>
</linearGradient>
<radialGradient id="paint1_radial_3605_9501" cx="0" cy="0" r="1" gradientUnits="userSpaceOnUse" gradientTransform="translate(208.301 92.1804) scale(30.7383 32.4436)">
<stop offset="0.0518519" stop-color="#E0A326"/>
<stop offset="0.4493" stop-color="#E0A128" stop-opacity="0.5808"/>
<stop offset="0.5925" stop-color="#DF9C2F" stop-opacity="0.4298"/>
<stop offset="0.6945" stop-color="#DD923A" stop-opacity="0.3222"/>
<stop offset="0.777" stop-color="#DB844B" stop-opacity="0.2352"/>
<stop offset="0.8477" stop-color="#D87261" stop-opacity="0.1607"/>
<stop offset="0.9102" stop-color="#D45B7D" stop-opacity="0.0946935"/>
<stop offset="0.9654" stop-color="#CF419C" stop-opacity="0.0364942"/>
<stop offset="1" stop-color="#CC2DB4" stop-opacity="0"/>
</radialGradient>
<radialGradient id="paint2_radial_3605_9501" cx="0" cy="0" r="1" gradientUnits="userSpaceOnUse" gradientTransform="translate(198.339 74.3237) scale(54.819 57.8603)">
<stop stop-color="#F20074"/>
<stop offset="0.1407" stop-color="#ED0376"/>
<stop offset="0.3069" stop-color="#DF0B7D"/>
<stop offset="0.486" stop-color="#C71887"/>
<stop offset="0.6741" stop-color="#A62A96"/>
<stop offset="0.8675" stop-color="#7B42A9"/>
<stop offset="0.8985" stop-color="#7446AC"/>
</radialGradient>
<radialGradient id="paint3_radial_3605_9501" cx="0" cy="0" r="1" gradientUnits="userSpaceOnUse" gradientTransform="translate(198.343 79.2091) scale(51.3194 54.1665)">
<stop stop-color="#F20074"/>
<stop offset="0.1407" stop-color="#ED0376"/>
<stop offset="0.3069" stop-color="#DF0B7D"/>
<stop offset="0.486" stop-color="#C71887"/>
<stop offset="0.6741" stop-color="#A62A96"/>
<stop offset="0.8675" stop-color="#7B42A9"/>
<stop offset="0.8985" stop-color="#7446AC"/>
</radialGradient>
<radialGradient id="paint4_radial_3605_9501" cx="0" cy="0" r="1" gradientUnits="userSpaceOnUse" gradientTransform="translate(199.824 87.0485) scale(43.1226 45.5149)">
<stop stop-color="#F20074"/>
<stop offset="0.1407" stop-color="#ED0376"/>
<stop offset="0.3069" stop-color="#DF0B7D"/>
<stop offset="0.486" stop-color="#C71887"/>
<stop offset="0.6741" stop-color="#A62A96"/>
<stop offset="0.8675" stop-color="#7B42A9"/>
<stop offset="0.8985" stop-color="#7446AC"/>
</radialGradient>
<radialGradient id="paint5_radial_3605_9501" cx="0" cy="0" r="1" gradientUnits="userSpaceOnUse" gradientTransform="translate(201.578 48.687) scale(33.8062 35.6818)">
<stop stop-color="#F20074"/>
<stop offset="0.1407" stop-color="#ED0376"/>
<stop offset="0.3069" stop-color="#DF0B7D"/>
<stop offset="0.486" stop-color="#C71887"/>
<stop offset="0.6741" stop-color="#A62A96"/>
<stop offset="0.8675" stop-color="#7B42A9"/>
<stop offset="0.8985" stop-color="#7446AC"/>
</radialGradient>
<radialGradient id="paint6_radial_3605_9501" cx="0" cy="0" r="1" gradientUnits="userSpaceOnUse" gradientTransform="translate(203.796 72.195) scale(11.3667 11.9974)">
<stop stop-color="#F20074"/>
<stop offset="0.1407" stop-color="#ED0376"/>
<stop offset="0.3069" stop-color="#DF0B7D"/>
<stop offset="0.486" stop-color="#C71887"/>
<stop offset="0.6741" stop-color="#A62A96"/>
<stop offset="0.8675" stop-color="#7B42A9"/>
<stop offset="0.8985" stop-color="#7446AC"/>
</radialGradient>
<radialGradient id="paint7_radial_3605_9501" cx="0" cy="0" r="1" gradientUnits="userSpaceOnUse" gradientTransform="translate(208.65 55.8143) scale(23.5602 24.8673)">
<stop stop-color="#F20074"/>
<stop offset="0.1407" stop-color="#ED0376"/>
<stop offset="0.3069" stop-color="#DF0B7D"/>
<stop offset="0.486" stop-color="#C71887"/>
<stop offset="0.6741" stop-color="#A62A96"/>
<stop offset="0.8675" stop-color="#7B42A9"/>
<stop offset="0.8985" stop-color="#7446AC"/>
</radialGradient>
<radialGradient id="paint8_radial_3605_9501" cx="0" cy="0" r="1" gradientUnits="userSpaceOnUse" gradientTransform="translate(204.538 89.3755) rotate(4.2783) scale(15.3563 26.214)">
<stop stop-color="#F20074"/>
<stop offset="0.1407" stop-color="#ED0376"/>
<stop offset="0.3069" stop-color="#DF0B7D"/>
<stop offset="0.486" stop-color="#C71887"/>
<stop offset="0.6741" stop-color="#A62A96"/>
<stop offset="0.8675" stop-color="#7B42A9"/>
<stop offset="0.8985" stop-color="#7446AC"/>
</radialGradient>
<radialGradient id="paint9_radial_3605_9501" cx="0" cy="0" r="1" gradientUnits="userSpaceOnUse" gradientTransform="translate(203.238 97.5315) scale(16.1329 17.0279)">
<stop stop-color="#F20074"/>
<stop offset="0.1407" stop-color="#ED0376"/>
<stop offset="0.3069" stop-color="#DF0B7D"/>
<stop offset="0.486" stop-color="#C71887"/>
<stop offset="0.6741" stop-color="#A62A96"/>
<stop offset="0.8675" stop-color="#7B42A9"/>
<stop offset="0.8985" stop-color="#7446AC"/>
</radialGradient>
<radialGradient id="paint10_radial_3605_9501" cx="0" cy="0" r="1" gradientUnits="userSpaceOnUse" gradientTransform="translate(219.973 29.7928) scale(63.5553 67.0811)">
<stop stop-color="#F20074"/>
<stop offset="0.1407" stop-color="#ED0376"/>
<stop offset="0.3069" stop-color="#DF0B7D"/>
<stop offset="0.486" stop-color="#C71887"/>
<stop offset="0.6741" stop-color="#A62A96"/>
<stop offset="0.8675" stop-color="#7B42A9"/>
<stop offset="0.8985" stop-color="#7446AC"/>
</radialGradient>
<radialGradient id="paint11_radial_3605_9501" cx="0" cy="0" r="1" gradientUnits="userSpaceOnUse" gradientTransform="translate(227.502 69.1006) scale(16.1735 17.0712)">
<stop stop-color="#F20074"/>
<stop offset="0.1407" stop-color="#ED0376"/>
<stop offset="0.3069" stop-color="#DF0B7D"/>
<stop offset="0.486" stop-color="#C71887"/>
<stop offset="0.6741" stop-color="#A62A96"/>
<stop offset="0.8675" stop-color="#7B42A9"/>
<stop offset="0.8985" stop-color="#7446AC"/>
</radialGradient>
<radialGradient id="paint12_radial_3605_9501" cx="0" cy="0" r="1" gradientUnits="userSpaceOnUse" gradientTransform="translate(223.426 79.3798) scale(11.1866 11.8072)">
<stop stop-color="#F20074"/>
<stop offset="0.1407" stop-color="#ED0376"/>
<stop offset="0.3069" stop-color="#DF0B7D"/>
<stop offset="0.486" stop-color="#C71887"/>
<stop offset="0.6741" stop-color="#A62A96"/>
<stop offset="0.8675" stop-color="#7B42A9"/>
<stop offset="0.8985" stop-color="#7446AC"/>
</radialGradient>
<radialGradient id="paint13_radial_3605_9501" cx="0" cy="0" r="1" gradientUnits="userSpaceOnUse" gradientTransform="translate(220.948 100.841) scale(9.46581 9.99098)">
<stop stop-color="#F20074"/>
<stop offset="0.1407" stop-color="#ED0376"/>
<stop offset="0.3069" stop-color="#DF0B7D"/>
<stop offset="0.486" stop-color="#C71887"/>
<stop offset="0.6741" stop-color="#A62A96"/>
<stop offset="0.8675" stop-color="#7B42A9"/>
<stop offset="0.8985" stop-color="#7446AC"/>
</radialGradient>
<radialGradient id="paint14_radial_3605_9501" cx="0" cy="0" r="1" gradientUnits="userSpaceOnUse" gradientTransform="translate(222.93 66.2161) scale(31.0057 32.7257)">
<stop stop-color="#F20074"/>
<stop offset="0.1407" stop-color="#ED0376"/>
<stop offset="0.3069" stop-color="#DF0B7D"/>
<stop offset="0.486" stop-color="#C71887"/>
<stop offset="0.6741" stop-color="#A62A96"/>
<stop offset="0.8675" stop-color="#7B42A9"/>
<stop offset="0.8985" stop-color="#7446AC"/>
</radialGradient>
<radialGradient id="paint15_radial_3605_9501" cx="0" cy="0" r="1" gradientUnits="userSpaceOnUse" gradientTransform="translate(182.333 35.133) scale(45.3306 47.8456)">
<stop stop-color="#F20074"/>
<stop offset="0.1407" stop-color="#ED0376"/>
<stop offset="0.3069" stop-color="#DF0B7D"/>
<stop offset="0.486" stop-color="#C71887"/>
<stop offset="0.6741" stop-color="#A62A96"/>
<stop offset="0.8675" stop-color="#7B42A9"/>
<stop offset="0.8985" stop-color="#7446AC"/>
</radialGradient>
<radialGradient id="paint16_radial_3605_9501" cx="0" cy="0" r="1" gradientUnits="userSpaceOnUse" gradientTransform="translate(185.051 75.4359) scale(10.9544 11.5622)">
<stop stop-color="#F20074"/>
<stop offset="0.1407" stop-color="#ED0376"/>
<stop offset="0.3069" stop-color="#DF0B7D"/>
<stop offset="0.486" stop-color="#C71887"/>
<stop offset="0.6741" stop-color="#A62A96"/>
<stop offset="0.8675" stop-color="#7B42A9"/>
<stop offset="0.8985" stop-color="#7446AC"/>
</radialGradient>
<radialGradient id="paint17_radial_3605_9501" cx="0" cy="0" r="1" gradientUnits="userSpaceOnUse" gradientTransform="translate(187.564 50.4851) scale(27.4833 29.0079)">
<stop stop-color="#F20074"/>
<stop offset="0.1407" stop-color="#ED0376"/>
<stop offset="0.3069" stop-color="#DF0B7D"/>
<stop offset="0.486" stop-color="#C71887"/>
<stop offset="0.6741" stop-color="#A62A96"/>
<stop offset="0.8675" stop-color="#7B42A9"/>
<stop offset="0.8985" stop-color="#7446AC"/>
</radialGradient>
<radialGradient id="paint18_radial_3605_9501" cx="0" cy="0" r="1" gradientUnits="userSpaceOnUse" gradientTransform="translate(199.741 64.2356) scale(8.01167 8.45631)">
<stop stop-color="#F20074"/>
<stop offset="0.1407" stop-color="#ED0376"/>
<stop offset="0.3069" stop-color="#DF0B7D"/>
<stop offset="0.486" stop-color="#C71887"/>
<stop offset="0.6741" stop-color="#A62A96"/>
<stop offset="0.8675" stop-color="#7B42A9"/>
<stop offset="0.8985" stop-color="#7446AC"/>
</radialGradient>
<radialGradient id="paint19_radial_3605_9501" cx="0" cy="0" r="1" gradientUnits="userSpaceOnUse" gradientTransform="translate(185.347 65.5102) scale(40.9125 43.1822)">
<stop stop-color="#F20074"/>
<stop offset="0.1407" stop-color="#ED0376"/>
<stop offset="0.3069" stop-color="#DF0B7D"/>
<stop offset="0.486" stop-color="#C71887"/>
<stop offset="0.6741" stop-color="#A62A96"/>
<stop offset="0.8675" stop-color="#7B42A9"/>
<stop offset="0.8985" stop-color="#7446AC"/>
</radialGradient>
<radialGradient id="paint20_radial_3605_9501" cx="0" cy="0" r="1" gradientUnits="userSpaceOnUse" gradientTransform="translate(187.182 89.2139) scale(10.7262 11.3214)">
<stop stop-color="#F20074"/>
<stop offset="0.1407" stop-color="#ED0376"/>
<stop offset="0.3069" stop-color="#DF0B7D"/>
<stop offset="0.486" stop-color="#C71887"/>
<stop offset="0.6741" stop-color="#A62A96"/>
<stop offset="0.8675" stop-color="#7B42A9"/>
<stop offset="0.8985" stop-color="#7446AC"/>
</radialGradient>
<radialGradient id="paint21_radial_3605_9501" cx="0" cy="0" r="1" gradientUnits="userSpaceOnUse" gradientTransform="translate(197.305 105.501) scale(9.02692 9.52762)">
<stop stop-color="#F20074"/>
<stop offset="0.1407" stop-color="#ED0376"/>
<stop offset="0.3069" stop-color="#DF0B7D"/>
<stop offset="0.486" stop-color="#C71887"/>
<stop offset="0.6741" stop-color="#A62A96"/>
<stop offset="0.8675" stop-color="#7B42A9"/>
<stop offset="0.8985" stop-color="#7446AC"/>
</radialGradient>
<radialGradient id="paint22_radial_3605_9501" cx="0" cy="0" r="1" gradientUnits="userSpaceOnUse" gradientTransform="translate(186.619 88.5145) scale(19.8707 20.9731)">
<stop stop-color="#F20074"/>
<stop offset="0.1407" stop-color="#ED0376"/>
<stop offset="0.3069" stop-color="#DF0B7D"/>
<stop offset="0.486" stop-color="#C71887"/>
<stop offset="0.6741" stop-color="#A62A96"/>
<stop offset="0.8675" stop-color="#7B42A9"/>
<stop offset="0.8985" stop-color="#7446AC"/>
</radialGradient>
<linearGradient id="paint23_linear_3605_9501" x1="60.9848" y1="254.337" x2="218.373" y2="476.115" gradientUnits="userSpaceOnUse">
<stop stop-color="#6155FF" stop-opacity="0.35"/>
<stop offset="0.7787" stop-color="white" stop-opacity="0"/>
</linearGradient>
<linearGradient id="paint24_linear_3605_9501" x1="145.5" y1="290.375" x2="145.5" y2="409" gradientUnits="userSpaceOnUse">
<stop stop-color="#1E1353"/>
<stop offset="1" stop-color="#13191B"/>
</linearGradient>
<clipPath id="clip0_3605_9501">
<rect width="43.8" height="43.8" fill="white" transform="translate(123.6 350.6)"/>
</clipPath>
</defs>
</svg>
