<svg width="100" height="100" viewBox="0 0 100 100" fill="none" xmlns="http://www.w3.org/2000/svg">
<path d="M93.2004 26.0323C93.2004 31.9436 93.1637 37.8594 93.0904 43.7797L81.9966 49.6222L78.1612 47.6976V43.3811L66.7649 49.4022L66.8749 69.5004L72.6486 66.3935V75.3841L78.1474 72.5247L78.065 63.273L74.7107 64.8539L70.8753 62.7643L70.9578 56.9768L77.9137 52.7428L87.0555 58.3378L92.7192 55.066L93.0629 73.6245L49.9936 97.4755L41.0718 92.6916L41.168 83.3298L44.3023 84.842C44.0091 76.2089 43.9037 67.3238 43.9861 58.1866C43.9861 54.0625 44.0961 50.1171 44.2061 46.1717L50.0073 49.2648L55.6711 46.1167C55.6711 59.0297 55.694 71.9336 55.7398 84.8283L66.1463 78.9033L58.7092 74.628V44.5221L93.2004 26.0323Z" fill="#6155FF"/>
<path d="M10.0585 24.4376L49.8698 2.5249L89.8598 24.5201L80.8555 29.4415L49.9248 12.4365L18.8291 29.6615L10.0585 24.4376Z" fill="white"/>
<path d="M28.0121 34.0197L36.0816 29.3045L50.2822 36.9616L63.6031 29.1671L71.7413 34.0197L50.2135 46.0484L28.0121 34.0197Z" fill="white"/>
<path d="M34.5142 69.6379L41.1678 66.0087V44.7146L14.4299 30.2803V37.9099L11.378 36.4527V28.4382L6.99275 26.3486V42.845L14.5673 46.6529C14.4849 48.715 14.3886 50.7771 14.3062 52.8254L7.2402 49.0312L6.86903 57.9942L14.3611 61.9396V68.9368L6.80029 65.0602C6.86903 68.002 6.92402 70.9439 6.99275 73.8858L36.1089 89.6536V80.4431L22.6231 72.8135L22.6918 63.0119L34.5142 69.6379ZM22.0045 53.0316C22.2107 49.911 22.4031 46.7904 22.6093 43.6836L33.442 49.5398L33.0708 58.8878L22.0045 53.0316Z" fill="white"/>
</svg>
