<svg xmlns="http://www.w3.org/2000/svg" width="217" height="123" fill="none"><path fill="#27272A" fill-opacity=".5" fill-rule="evenodd" d="M46.75 82h91c.515 0 1.017-.056 1.5-.161.483.105.985.161 1.5.161h52a7 7 0 1 0 0-14h-6a7 7 0 1 1 0-14h19a7 7 0 1 0 0-14h-22a7 7 0 1 0 0-14h-64a7 7 0 1 0 0-14h-57a7 7 0 1 0 0 14h-40a7 7 0 1 0 0 14h25a7 7 0 1 1 0 14h-40a7 7 0 1 0 0 14h39a7 7 0 1 0 0 14Zm163 0a7 7 0 1 0 0-14 7 7 0 0 0 0 14Z" clip-rule="evenodd"/><path fill="#18181B" fill-rule="evenodd" d="M96.869 60.307A12.095 12.095 0 0 0 96.75 62c0 6.627 5.373 12 12 12s12-5.373 12-12c0-.575-.04-1.14-.119-1.693h29.119V87a3 3 0 0 1-3 3h-76a3 3 0 0 1-3-3V60.307h29.119Z" clip-rule="evenodd"/><path fill="#262626" fill-rule="evenodd" d="M121.75 60c0 7.18-5.82 13-13 13s-13-5.82-13-13c0-.233.006-.464.018-.693H67.75l9.56-28.268A3 3 0 0 1 80.152 29h57.196c1.286 0 2.429.82 2.842 2.039l9.56 28.268h-28.018c.012.23.018.46.018.693Z" clip-rule="evenodd"/><path fill="#171717" fill-rule="evenodd" d="M119.848 60.955c0 5.547-4.969 11.045-11.098 11.045-6.129 0-11.098-5.498-11.098-11.045 0-.18.006-1.359.016-1.536H76.75l8.161-19.843C85.263 38.633 86.24 38 87.337 38h42.826c1.098 0 2.074.634 2.426 1.575l8.161 19.844h-20.918c.01.177.016 1.356.016 1.536Z" clip-rule="evenodd"/><path stroke="#6751D6" stroke-width="2.5" d="M69 59.512V86c0 .966.784 1.75 1.75 1.75h76A1.75 1.75 0 0 0 148.5 86V59.512l-9.495-28.073a1.75 1.75 0 0 0-1.657-1.189H80.152a1.75 1.75 0 0 0-1.657 1.19L69 59.511Z" clip-rule="evenodd"/><path stroke="#6751D6" stroke-linecap="round" stroke-linejoin="round" stroke-width="2.5" d="M81.75 60h12.745c1.877 0 1.877 1.319 1.877 2 0 6.627 5.496 12 12.276 12 6.78 0 12.276-5.373 12.276-12 0-.681 0-2 1.876-2h24.95m-73.426 0h2.427-2.427ZM133.85 6.303l-11.1 12.453M107.85 2v16.756V2Zm-26.1 4.303 11.1 12.453-11.1-12.453Z"/><path fill="#52525B" d="M66.25 118h-1.456l-5.856-8.88V118h-1.456v-11.168h1.456l5.856 8.864v-8.864h1.456V118Zm6.306.144a4.537 4.537 0 0 1-2.24-.56A4.066 4.066 0 0 1 68.748 116c-.373-.693-.56-1.493-.56-2.4 0-.896.192-1.685.576-2.368a4.013 4.013 0 0 1 1.6-1.584c.672-.373 1.424-.56 2.256-.56.832 0 1.584.187 2.256.56.672.363 1.2.885 1.584 1.568.395.683.592 1.477.592 2.384 0 .907-.203 1.707-.608 2.4a4.114 4.114 0 0 1-1.616 1.584 4.66 4.66 0 0 1-2.272.56Zm0-1.28c.523 0 1.013-.123 1.472-.368a2.744 2.744 0 0 0 1.104-1.104c.288-.491.432-1.088.432-1.792s-.139-1.301-.416-1.792c-.277-.491-.64-.853-1.088-1.088a2.986 2.986 0 0 0-1.456-.368c-.533 0-1.024.123-1.472.368-.437.235-.79.597-1.056 1.088-.267.491-.4 1.088-.4 1.792 0 .715.128 1.317.384 1.808.267.491.619.859 1.056 1.104.437.235.917.352 1.44.352Zm19.268-10.016V118h-1.456v-5.056h-5.68V118h-1.456v-11.152h1.456v4.896h5.68v-4.896h1.456Zm3.238.96a.958.958 0 0 1-.704-.288.958.958 0 0 1-.288-.704c0-.277.096-.512.288-.704a.958.958 0 0 1 .704-.288c.267 0 .49.096.672.288a.958.958 0 0 1 .288.704.958.958 0 0 1-.288.704.887.887 0 0 1-.672.288Zm.704 1.424V118H94.31v-8.768h1.456Zm6.098-.144c.757 0 1.418.165 1.984.496.576.331 1.002.747 1.28 1.248v-1.6h1.472v8.96c0 .8-.171 1.509-.512 2.128a3.629 3.629 0 0 1-1.472 1.472c-.63.352-1.366.528-2.208.528-1.152 0-2.112-.272-2.88-.816-.768-.544-1.222-1.285-1.36-2.224h1.44c.16.533.49.96.992 1.28.501.331 1.104.496 1.808.496.8 0 1.45-.251 1.952-.752.512-.501.768-1.205.768-2.112v-1.84c-.288.512-.715.939-1.28 1.28-.566.341-1.227.512-1.984.512a4.059 4.059 0 0 1-2.128-.576 4.043 4.043 0 0 1-1.488-1.616c-.363-.693-.544-1.483-.544-2.368 0-.896.181-1.68.544-2.352a3.948 3.948 0 0 1 1.488-1.584 4.15 4.15 0 0 1 2.128-.56Zm3.264 4.512c0-.661-.134-1.237-.4-1.728a2.758 2.758 0 0 0-1.088-1.12 2.851 2.851 0 0 0-1.488-.4c-.544 0-1.04.128-1.488.384a2.785 2.785 0 0 0-1.072 1.12c-.267.491-.4 1.067-.4 1.728 0 .672.133 1.259.4 1.76.266.491.624.869 1.072 1.136.448.256.944.384 1.488.384s1.04-.128 1.488-.384a2.87 2.87 0 0 0 1.088-1.136c.266-.501.4-1.083.4-1.744Zm8.284-4.528a3.71 3.71 0 0 1 1.792.432 2.92 2.92 0 0 1 1.248 1.264c.309.565.464 1.253.464 2.064V118h-1.44v-4.96c0-.875-.219-1.541-.656-2-.437-.469-1.035-.704-1.792-.704-.768 0-1.381.24-1.84.72-.448.48-.672 1.179-.672 2.096V118h-1.456v-11.84h1.456v4.32a2.879 2.879 0 0 1 1.184-1.04 3.917 3.917 0 0 1 1.712-.368Zm7.339-2.912V118h-1.456v-11.84h1.456Zm3.233 1.648a.958.958 0 0 1-.704-.288.958.958 0 0 1-.288-.704c0-.277.096-.512.288-.704a.958.958 0 0 1 .704-.288c.267 0 .491.096.672.288a.958.958 0 0 1 .288.704.958.958 0 0 1-.288.704.886.886 0 0 1-.672.288Zm.704 1.424V118h-1.456v-8.768h1.456Zm6.098-.144c.757 0 1.418.165 1.984.496.576.331 1.002.747 1.28 1.248v-1.6h1.472v8.96c0 .8-.171 1.509-.512 2.128a3.629 3.629 0 0 1-1.472 1.472c-.63.352-1.366.528-2.208.528-1.152 0-2.112-.272-2.88-.816-.768-.544-1.222-1.285-1.36-2.224h1.44c.16.533.49.96.992 1.28.501.331 1.104.496 1.808.496.8 0 1.45-.251 1.952-.752.512-.501.768-1.205.768-2.112v-1.84c-.288.512-.715.939-1.28 1.28-.566.341-1.227.512-1.984.512a4.056 4.056 0 0 1-2.128-.576 4.033 4.033 0 0 1-1.488-1.616c-.363-.693-.544-1.483-.544-2.368 0-.896.181-1.68.544-2.352a3.938 3.938 0 0 1 1.488-1.584 4.148 4.148 0 0 1 2.128-.56Zm3.264 4.512c0-.661-.134-1.237-.4-1.728a2.758 2.758 0 0 0-1.088-1.12 2.851 2.851 0 0 0-1.488-.4c-.544 0-1.04.128-1.488.384a2.78 2.78 0 0 0-1.072 1.12c-.267.491-.4 1.067-.4 1.728 0 .672.133 1.259.4 1.76.266.491.624.869 1.072 1.136.448.256.944.384 1.488.384s1.04-.128 1.488-.384a2.87 2.87 0 0 0 1.088-1.136c.266-.501.4-1.083.4-1.744Zm8.284-4.528a3.71 3.71 0 0 1 1.792.432 2.92 2.92 0 0 1 1.248 1.264c.309.565.464 1.253.464 2.064V118h-1.44v-4.96c0-.875-.219-1.541-.656-2-.437-.469-1.035-.704-1.792-.704-.768 0-1.381.24-1.84.72-.448.48-.672 1.179-.672 2.096V118h-1.456v-11.84h1.456v4.32a2.879 2.879 0 0 1 1.184-1.04 3.917 3.917 0 0 1 1.712-.368Zm7.658 1.36v5.168c0 .427.091.731.272.912.182.171.496.256.944.256h1.072V118h-1.312c-.81 0-1.418-.187-1.824-.56-.405-.373-.608-.987-.608-1.84v-5.168H147.4v-1.2h1.136v-2.208h1.456v2.208h2.288v1.2h-2.288Zm7.157 7.712c-.672 0-1.275-.112-1.808-.336-.534-.235-.955-.555-1.264-.96a2.59 2.59 0 0 1-.512-1.424h1.504c.042.437.245.795.608 1.072.373.277.858.416 1.456.416.554 0 .992-.123 1.312-.368.32-.245.48-.555.48-.928 0-.384-.171-.667-.512-.848-.342-.192-.87-.379-1.584-.56a13.017 13.017 0 0 1-1.6-.512 3.026 3.026 0 0 1-1.056-.784c-.288-.352-.432-.811-.432-1.376 0-.448.133-.859.4-1.232.266-.373.645-.667 1.136-.88.49-.224 1.05-.336 1.68-.336.97 0 1.754.245 2.352.736.597.491.917 1.163.96 2.016h-1.456a1.494 1.494 0 0 0-.56-1.104c-.331-.277-.779-.416-1.344-.416-.523 0-.939.112-1.248.336-.31.224-.464.517-.464.88 0 .288.09.528.272.72.192.181.426.331.704.448.288.107.682.229 1.184.368.629.171 1.141.341 1.536.512.394.16.73.405 1.008.736.288.331.437.763.448 1.296 0 .48-.134.912-.4 1.296-.267.384-.646.688-1.136.912-.48.213-1.035.32-1.664.32Z"/></svg>