<svg xmlns="http://www.w3.org/2000/svg" width="120" height="120" fill="none"><g filter="url(#a)"><circle cx="60" cy="57.2" r="40.7" fill="url(#b)"/><circle cx="60" cy="57.2" r="39.9" stroke="#1D2729" stroke-width="1.6"/></g><g clip-path="url(#c)"><path fill="#fff" d="M61 59.6c.1-1.6.9-3 2.1-4a7 7 0 0 1 4.5-1.7 7 7 0 0 1 4.5 1.6 5.8 5.8 0 0 1 2.1 4.1c0 1.7-.6 3.3-1.8 4.4a7 7 0 0 1-9.7 0 5.7 5.7 0 0 1-1.7-4.4Z"/><path fill="#FF7021" d="M50.5 63c0 .6.2 1.8.5 2.8a16.7 16.7 0 0 0 9 9.7 18.2 18.2 0 0 0 20.5-4.2 15.1 15.1 0 0 0 3.9-8.7 14.4 14.4 0 0 0-2.2-8.8 16 16 0 0 0-3.8-4.2L63.2 38c-1-.8-2.8-.8-3.9 0-1 .8-1.2 2-.2 2.9l6.3 5.1H46c-1.6 0-3.1 1.1-3.4 2.5-.4 1.3.7 2.4 2.4 2.4h9.8L37.3 64.3c-1.7 1.3-2.3 3.4-1.2 4.8 1 1.3 3.3 1.3 5 0l9.5-7.9-.1 1.7Zm24.6 3.5c-2 2-4.7 3.1-7.7 3.1s-5.8-1-7.7-3.1c-1-1-1.7-2.1-2.2-3.3a8.6 8.6 0 0 1 .6-7.2c.6-1 1.4-2 2.4-2.8a11 11 0 0 1 6.9-2.4c2.5 0 5 .9 6.9 2.4 1 .8 1.8 1.8 2.3 2.8a8.7 8.7 0 0 1-1.5 10.5Z"/></g><defs><linearGradient id="b" x1="60" x2="60" y1="-34.5" y2="97.9" gradientUnits="userSpaceOnUse"><stop stop-color="#1E1353"/><stop offset="1" stop-color="#13191B"/></linearGradient><clipPath id="c"><path fill="#fff" d="M35.5 32.7h49v49h-49z"/></clipPath><filter id="a" width="118.9" height="118.9" x=".5" y="1" color-interpolation-filters="sRGB" filterUnits="userSpaceOnUse"><feFlood flood-opacity="0" result="BackgroundImageFix"/><feColorMatrix in="SourceAlpha" result="hardAlpha" values="0 0 0 0 0 0 0 0 0 0 0 0 0 0 0 0 0 0 127 0"/><feMorphology in="SourceAlpha" operator="dilate" radius="5.7" result="effect1_dropShadow_6242_14092"/><feOffset dy="3.3"/><feGaussianBlur stdDeviation="6.5"/><feComposite in2="hardAlpha" operator="out"/><feColorMatrix values="0 0 0 0 0 0 0 0 0 0 0 0 0 0 0 0 0 0 0.25 0"/><feBlend in2="BackgroundImageFix" result="effect1_dropShadow_6242_14092"/><feBlend in="SourceGraphic" in2="effect1_dropShadow_6242_14092" result="shape"/></filter></defs></svg>