<svg xmlns="http://www.w3.org/2000/svg" width="257" height="257" fill="none"><path stroke="url(#a)" stroke-dasharray="9.95 15.64" stroke-width=".7" d="M130.6 2.4c5.1 0 10.1.5 15 1.2v.3c3.2.5 6.3 1 9.4 1.7l.1-.3c5 1 9.8 2.4 14.5 4v.4c3 1 6 2.2 8.8 3.5l.2-.3c4.6 2 9 4.3 13.4 6.8l-.2.3c2.8 1.7 5.5 3.4 8 5.2l.3-.3c4.1 3 8 6 11.8 9.4l-.2.2c2.4 2.2 4.7 4.4 6.9 6.7l.2-.3c3.5 3.7 6.8 7.5 9.8 11.5l-.2.2c1.9 2.6 3.7 5.2 5.4 7.9l.3-.2c2.8 4.2 5.2 8.6 7.4 13.2l-.3.1a125 125 0 0 1 3.8 8.8l.4-.1c1.8 4.6 3.3 9.4 4.6 14.3l-.3.1c.8 3 1.4 6.2 2 9.4h.4c.8 4.8 1.4 9.8 1.7 14.9h-.3a126.7 126.7 0 0 1 .1 9.6h.4c-.1 5.1-.5 10.1-1.2 15h-.3c-.5 3.2-1 6.3-1.7 9.4l.3.1c-1 5-2.4 9.8-4 14.5h-.4c-1 3-2.2 6-3.5 8.8l.3.2c-2 4.6-4.3 9-6.9 13.4l-.3-.2c-1.6 2.8-3.3 5.5-5.1 8l.3.3c-3 4.1-6 8-9.4 11.8l-.3-.2c-2 2.4-4.3 4.7-6.6 6.9l.2.2c-3.6 3.5-7.4 6.8-11.4 9.8l-.3-.2c-2.5 1.9-5.1 3.7-7.8 5.4l.2.3c-4.2 2.8-8.6 5.2-13.2 7.4l-.1-.3c-2.9 1.4-5.8 2.7-8.8 3.8l.1.4a125 125 0 0 1-14.3 4.6l-.1-.3c-3.1.8-6.2 1.4-9.4 2v.4c-4.8.8-9.8 1.4-15 1.7v-.3a126.7 126.7 0 0 1-9.5.1v.4c-5.1-.1-10.1-.5-15-1.2v-.3c-3.2-.5-6.4-1-9.5-1.7v.3c-5-1-9.8-2.4-14.5-4v-.4c-3-1-6-2.2-8.9-3.5v.3c-4.7-2-9.2-4.3-13.5-6.9l.2-.3c-2.8-1.6-5.5-3.3-8.1-5.1l-.2.3c-4.1-3-8.1-6-11.8-9.4l.2-.3c-2.4-2-4.7-4.3-7-6.6l-.2.2c-3.5-3.6-6.7-7.4-9.8-11.4l.3-.3c-2-2.5-3.7-5.1-5.5-7.8l-.3.2c-2.7-4.2-5.1-8.6-7.3-13.2l.3-.1c-1.4-2.9-2.7-5.8-3.9-8.8l-.3.1c-1.8-4.6-3.4-9.4-4.6-14.3l.3-.1c-.8-3.1-1.5-6.2-2-9.4h-.4c-.8-4.8-1.4-9.8-1.7-15h.3l-.1-3.5v-6h-.4c0-5.1.5-10.1 1.2-15h.3c.5-3.2 1-6.4 1.7-9.5h-.3c1-5 2.4-9.8 4-14.5h.4c1-3 2.2-6 3.5-8.9h-.3c2-4.7 4.3-9.2 6.8-13.5l.3.2c1.7-2.8 3.4-5.5 5.2-8.1l-.3-.2c3-4.1 6-8.1 9.4-11.8l.2.2 6.7-7-.3-.2c3.7-3.5 7.5-6.7 11.5-9.8l.2.3c2.6-2 5.2-3.7 7.9-5.5l-.2-.3c4.2-2.7 8.6-5.1 13.2-7.3l.1.3c2.9-1.4 5.8-2.7 8.8-3.9l-.1-.3c4.6-1.8 9.4-3.4 14.3-4.6l.1.3c3-.8 6.2-1.5 9.4-2v-.4c4.8-.8 9.8-1.4 14.9-1.7v.3a127.8 127.8 0 0 1 9.6-.2v-.3ZM135 237a110.2 110.2 0 0 1-9.5.2v.7a111.1 111.1 0 0 0 9.6-.2v-.7Zm-33.9-2.4c3 .7 6.2 1.4 9.4 1.9v-.4l.1-.3c-3.1-.5-6.3-1.2-9.3-2l-.2.8Zm58-1.8c-3 .9-6.1 1.6-9.2 2.3v.6c3.2-.6 6.3-1.4 9.4-2.3l-.2-.6Zm-80.8-7.3-.2.4c2.8 1.4 5.7 2.7 8.7 4l.1-.4.2-.3c-3-1.2-5.9-2.5-8.7-4l-.1.3Zm103.3-2.2c-2.8 1.5-5.6 3-8.5 4.3l.2.3.1.3c3-1.3 5.8-2.8 8.6-4.3l-.2-.3-.2-.3Zm-46.3-6.3a90.7 90.7 0 0 1-10.9.2v.7a90.5 90.5 0 0 0 11-.2v-.7Zm-77.7-4.8c2.5 2.1 5 4 7.6 5.9l.4-.6c-2.6-1.8-5-3.8-7.5-5.8l-.5.5Zm143.8-3.2c-2.3 2.1-4.8 4.1-7.3 6l.4.6c2.6-2 5-4 7.4-6.1l-.5-.5ZM97 212v.4c3.3 1.3 6.8 2.3 10.4 3.2l.1-.4v-.3c-3.5-.9-7-2-10.3-3.2l-.2.4Zm65.6-1.5a88.5 88.5 0 0 1-10.3 3.5v.4l.2.3c3.5-1 7-2.2 10.3-3.6v-.3l-.2-.3Zm-90-12.2-.2.3c2.9 2.2 5.9 4.3 9 6.2l.2-.3.2-.3c-3.1-1.9-6.1-4-9-6.2l-.2.3Zm113.7-2.5a89.5 89.5 0 0 1-8.6 6.6l.1.3.2.3c3.1-2 6-4.2 8.8-6.6l-.2-.3-.3-.3Zm-145.5-1.4c1.9 2.6 4 5 6 7.4l.6-.5c-2.1-2.3-4.2-4.8-6-7.3l-.6.4Zm176.9-3.7c-1.8 2.6-3.8 5-5.8 7.5l.5.5c2.1-2.5 4-5 5.9-7.6l-.3-.2-.3-.2Zm-83 4.3a68.2 68.2 0 0 1-10.3.2v.7a69.3 69.3 0 0 0 10.4-.2l-.1-.7Zm-35.8-6-.1.2c3 1.5 6.3 2.8 9.6 3.8l.1-.3.1-.4c-3.3-1-6.5-2.2-9.5-3.7l-.2.3Zm60.9-1.6c-3 1.6-6.1 3-9.4 4.1l.2.7c3.3-1.1 6.5-2.5 9.5-4.1l-.1-.4-.2-.3Zm-106.1-9.8-.3.2c2 3.1 4.2 6 6.6 8.8l.3-.2.2-.3a89.5 89.5 0 0 1-6.5-8.6l-.3.1Zm150.7-3c-1.9 3-4 6-6.2 9l.3.1.3.3c2.2-3 4.3-6 6.2-9l-.3-.2-.3-.2Zm-176-1.4-.2.1c1.3 3 2.7 5.8 4.3 8.6l.3-.2.3-.2c-1.5-2.8-3-5.6-4.3-8.5l-.3.2Zm201-4c-1.2 3-2.5 5.8-4 8.6l.3.2.4.2 4-8.7-.4-.2-.3-.1Zm-151.8 4c2.3 2.6 4.8 5 7.5 7.2l.4-.5a67.6 67.6 0 0 1-7.4-7.1l-.5.5ZM180 171a67.6 67.6 0 0 1-7.1 7.3l.5.6c2.5-2.3 5-4.8 7.1-7.5l-.5-.4Zm-45.9 6.2a50 50 0 0 1-10 .2v.7a50.7 50.7 0 0 0 10.1-.2v-.7Zm-34.5-7.8a50 50 0 0 0 9 5l.2-.7c-3-1.4-6-3-8.8-5l-.4.7Zm58.3-1.7c-2.7 2-5.6 3.7-8.6 5.2l.1.3.2.3c3-1.4 6-3.2 8.7-5.2l-.2-.3-.2-.3Zm-116-15.4h-.3c1 3.6 2.1 7 3.5 10.4h.4l.3-.2a88.6 88.6 0 0 1-3.6-10.3H42Zm173-3.4c-.8 3.5-1.8 7-3 10.4l.3.1.3.2c1.3-3.5 2.3-7 3.2-10.5l-.4-.1-.3-.1Zm-150.8 1.6c1.1 3.3 2.5 6.5 4.1 9.5l.3-.1.3-.2c-1.6-3-3-6.1-4-9.4l-.7.2Zm128.3-2.6c-1 3.3-2.2 6.5-3.7 9.5l.3.2.3.1c1.5-3 2.8-6.3 3.8-9.6l-.7-.2Zm-109.2 1.5-.3.2c1.4 3 3.2 6 5.2 8.7l.3-.2.3-.2c-2-2.7-3.8-5.6-5.2-8.6l-.3.1Zm90.5-1.8c-1.4 3-3 6-5 8.7l.4.3.3.2a50 50 0 0 0 5-9l-.4-.1-.3-.1Zm-152.8 2.3h-.4c.7 3.2 1.4 6.3 2.3 9.4l.7-.2c-.9-3-1.6-6.1-2.3-9.2H21Zm215-4.1c-.5 3.1-1.2 6.2-2 9.3l.8.2c.7-3.1 1.4-6.2 1.9-9.4h-.4l-.3-.1ZM18.4 125.5a111.8 111.8 0 0 0 .2 9.6h.7l-.2-3.6v-6h-.7Zm20-1.1a91.3 91.3 0 0 0 .2 11h.7l-.3-4.1v-6.9h-.7Zm22-.1a68.8 68.8 0 0 0 .2 10.4h.4l.3-.1a68 68 0 0 1-.2-3.8v-6.5h-.7Zm17.8-.3a50.7 50.7 0 0 0 .2 10.2h.7l-.3-4.4v-.7c0-1.7 0-3.3.2-5h-.8Zm99.4-1.8h-.4a50 50 0 0 1 .2 10l.4.1h.3c.2-1.4.2-3 .2-4.4v-.7c0-1.7-.2-3.4-.4-5h-.3Zm17.5-.4a68.2 68.2 0 0 1 .2 10.2h.7V127c0-1.7 0-3.5-.2-5.2h-.7Zm22-.8a90.7 90.7 0 0 1 .2 11h.7l.1-4.1v-1.4c0-1.9-.1-3.7-.3-5.5h-.7Zm20 .4a110.3 110.3 0 0 1 .2 9.5h.7v-4.8l-.2-4.8h-.7ZM21.7 101c-.8 3-1.4 6.2-2 9.4h.4l.4.1c.5-3.1 1.1-6.3 2-9.3l-.8-.2ZM233 97.3c.9 3 1.6 6 2.3 9.2h.3l.3-.1a109 109 0 0 0-2.3-9.3l-.6.2ZM87 99.6a50 50 0 0 0-5 9l.7.2c1.4-3 3-6 4.9-8.8l-.6-.4Zm80.7-1c2 2.6 3.7 5.5 5.2 8.5l.6-.3a50 50 0 0 0-5.2-8.7l-.6.4ZM67 98.5c-1.5 3.1-2.8 6.4-3.8 9.7l.3.1.3.1c1-3.3 2.3-6.5 3.8-9.5l-.3-.2-.3-.1Zm120.7-2h-.3c1.6 3 3 6.2 4.1 9.5l.4-.1.3-.2a67.5 67.5 0 0 0-4.1-9.5l-.4.2Zm-144 .2c-1.2 3.4-2.2 7-3.1 10.5l.3.1h.4c.8-3.5 1.9-7 3.2-10.3l-.4-.2H44Zm167.1-3-.3.1c1.4 3.3 2.6 6.8 3.5 10.3h.4l.3-.2c-1-3.5-2.2-7-3.6-10.4l-.3.2Zm-104.1-11a50 50 0 0 0-8.7 5.3l.4.6c2.7-2 5.6-3.8 8.6-5.2l-.3-.6Zm40.9-.4-.1.3c3 1.4 6 3 8.7 4.9l.3-.3.2-.3a50 50 0 0 0-9-5l-.1.4ZM30.4 78.1c-1.4 2.8-2.8 5.7-4 8.7l.4.1.3.2c1.2-3 2.5-5.9 4-8.7l-.4-.1-.3-.2Zm193.3-3.5-.3.2c1.5 2.7 3 5.6 4.3 8.5l.3-.2.3-.1c-1.3-3-2.8-5.8-4.3-8.6l-.3.2ZM83 77.6c-2.6 2.2-5 4.7-7.2 7.4l.6.4c2.2-2.6 4.5-5 7-7.4l-.4-.5Zm88-1.2c2.6 2.2 5 4.5 7.3 7l.6-.4c-2.3-2.6-4.8-5-7.5-7.2l-.4.6Zm-113.3-4a90.2 90.2 0 0 0-6.3 9l.3.1.3.2c2-3.1 4-6.1 6.3-9l-.3-.2-.3-.2Zm138.5-2.5-.3.2c2.4 2.8 4.6 5.7 6.6 8.7l.3-.2.3-.2c-2-3-4.2-6-6.6-8.7l-.3.2Zm-69 8.2c-1.7 0-3.4.1-5 .3v.7a50 50 0 0 1 10-.1l.1-.4v-.4l-5-.1Zm-21.4-14a67.5 67.5 0 0 0-9.5 4.1l.2.3.2.3c3-1.6 6.1-3 9.4-4l-.1-.4-.2-.3Zm42-.2c3.4 1 6.6 2.3 9.6 3.8l.2-.3.1-.4c-3-1.4-6.3-2.7-9.6-3.7l-.2.6ZM44 57.6c-2 2.5-4 5-5.8 7.6l.6.4c1.8-2.6 3.7-5 5.8-7.5l-.6-.5ZM209 55c2.2 2.4 4.2 4.8 6.2 7.4l.5-.5c-2-2.5-4-5-6.1-7.3l-.5.4ZM127 60.3c-1.7 0-3.5.1-5.2.3v.7a68.1 68.1 0 0 1 10.3-.2v-.7H127Zm-48.5-7c-3 2-6 4.2-8.7 6.6l.2.3.2.2c2.8-2.3 5.7-4.5 8.7-6.5l-.2-.3-.2-.3Zm96.5-1.6-.2.3c3 2 6 4 9 6.3l.1-.3.3-.3a90.3 90.3 0 0 0-9-6.3l-.2.3Zm-113-11c-2.6 1.9-5 4-7.4 6l.4.6c2.4-2.1 4.8-4.2 7.4-6l-.5-.6Zm129-2.2-.1.3c2.6 1.8 5 3.7 7.5 5.8l.5-.6c-2.5-2-5-4-7.6-5.8l-.2.3Zm-86.9 3c-3.5 1-7 2.2-10.4 3.6l.2.4.1.3c3.3-1.4 6.8-2.6 10.3-3.6V42l-.2-.3Zm45-.5-.1.4c3.5.8 7 1.9 10.4 3.2l.1-.4.2-.3c-3.5-1.3-7-2.3-10.5-3.2l-.1.3Zm-22.5-2.7c-1.9 0-3.7.1-5.5.3v.7a90.6 90.6 0 0 1 11-.2v-.8h-5.5ZM83 28c-3 1.3-5.8 2.7-8.6 4.3l.2.3.2.3c2.7-1.5 5.6-3 8.5-4.3l-.2-.3-.1-.3Zm86.4-1.3-.1.3c3 1.2 5.8 2.5 8.6 4l.2-.4.2-.3c-2.9-1.4-5.8-2.8-8.7-4l-.2.4Zm-63-6.3a109 109 0 0 0-9.3 2.3l.2.7c3-.9 6-1.6 9.2-2.3V21l-.1-.4Zm39.4-.4v.4c3.1.5 6.2 1.1 9.3 2l.2-.8c-3.1-.8-6.2-1.4-9.4-2v.4Zm-19.7-1.7c-1.6 0-3.2 0-4.8.2v.7a111 111 0 0 1 9.6-.2v-.7h-4.8Z"/><g filter="url(#b)"><circle cx="134" cy="127.2" r="40.7" fill="url(#c)"/><circle cx="134" cy="127.2" r="39.9" stroke="#1D2729" stroke-width="1.6"/></g><g clip-path="url(#d)"><path fill="#fff" d="M135 129.6c0-1.6.9-3 2.1-4a7 7 0 0 1 4.5-1.7 7 7 0 0 1 4.5 1.6 5.8 5.8 0 0 1 2.1 4.1c0 1.7-.6 3.3-1.8 4.4a7 7 0 0 1-4.8 2 7 7 0 0 1-4.8-2 5.7 5.7 0 0 1-1.8-4.4Z"/><path fill="#FF7021" d="M124.5 133c0 .6.2 1.8.5 2.8a16.7 16.7 0 0 0 9 9.7 18.2 18.2 0 0 0 20.5-4.2 15.1 15.1 0 0 0 3.9-8.7 14.4 14.4 0 0 0-2.2-8.8 16 16 0 0 0-3.8-4.2L137.2 108c-1-.8-2.8-.8-3.9 0-1 .8-1.2 2-.2 2.9l6.3 5.1H120c-1.6 0-3.1 1.1-3.4 2.5-.4 1.3.7 2.4 2.4 2.4h9.8l-17.5 13.5c-1.7 1.3-2.3 3.4-1.2 4.8 1 1.3 3.3 1.3 5 0l9.5-7.9-.1 1.7Zm24.6 3.5c-2 2-4.7 3.1-7.7 3.1s-5.8-1-7.7-3.1c-1-1-1.7-2.1-2.2-3.3a8.6 8.6 0 0 1 .6-7.2c.6-1 1.4-2 2.4-2.8a11 11 0 0 1 6.9-2.4c2.5 0 5 .9 6.9 2.4 1 .8 1.8 1.8 2.3 2.8a8.8 8.8 0 0 1-1.5 10.5Z"/></g><defs><linearGradient id="a" x1="235.4" x2="44.6" y1="24.8" y2="218.7" gradientUnits="userSpaceOnUse"><stop stop-color="#6155FF" stop-opacity=".3"/><stop offset=".8" stop-color="#fff" stop-opacity="0"/></linearGradient><linearGradient id="c" x1="134" x2="134" y1="35.5" y2="167.9" gradientUnits="userSpaceOnUse"><stop stop-color="#1E1353"/><stop offset="1" stop-color="#13191B"/></linearGradient><clipPath id="d"><path fill="#fff" d="M109.5 102.7h49v49h-49z"/></clipPath><filter id="b" width="118.9" height="118.9" x="74.5" y="71" color-interpolation-filters="sRGB" filterUnits="userSpaceOnUse"><feFlood flood-opacity="0" result="BackgroundImageFix"/><feColorMatrix in="SourceAlpha" result="hardAlpha" values="0 0 0 0 0 0 0 0 0 0 0 0 0 0 0 0 0 0 127 0"/><feMorphology in="SourceAlpha" operator="dilate" radius="5.7" result="effect1_dropShadow_6242_14087"/><feOffset dy="3.3"/><feGaussianBlur stdDeviation="6.5"/><feComposite in2="hardAlpha" operator="out"/><feColorMatrix values="0 0 0 0 0 0 0 0 0 0 0 0 0 0 0 0 0 0 0.25 0"/><feBlend in2="BackgroundImageFix" result="effect1_dropShadow_6242_14087"/><feBlend in="SourceGraphic" in2="effect1_dropShadow_6242_14087" result="shape"/></filter></defs></svg>