<svg xmlns="http://www.w3.org/2000/svg" width="1291" height="1293" fill="none"><path fill="url(#a)" d="M645.7 2.6a644.7 644.7 0 1 0 0 1289.4 644.7 644.7 0 0 0 0-1289.4Z"/><path fill="url(#b)" d="M645.7 1292a645 645 0 0 0 615.2-451.4c-412 5.5-491.9 170.7-678.8 245a623.6 623.6 0 0 0-216.4 142.7 642.3 642.3 0 0 0 280 63.8Z" opacity=".3"/><path fill="url(#c)" d="M648.6 1A645 645 0 0 0 33.4 452.2c412-5.4 491.9-170.7 678.8-245A623.6 623.6 0 0 0 928.6 64.8 642.2 642.2 0 0 0 648.6 1Z" opacity=".3"/><path fill="url(#d)" d="M95.5 983.7A647.2 647.2 0 0 0 395 1241.5c212-170.5 671.6-308.7 850.8-358.1a648.9 648.9 0 0 0 33.9-353.5c-309.4 24-523.1 280.3-804.1 316.6-184 23.8-306.8 86-380 137.1Z" opacity=".3"/><path fill="url(#e)" d="M1195.6 311A647.3 647.3 0 0 0 896 53.3C684.2 223.7 224.5 362 45.3 411.4a649 649 0 0 0-33.9 353.5c309.4-24 523.2-280.4 804.1-316.7 184-23.8 306.8-86 380-137.1Z" opacity=".3"/><path fill="url(#f)" d="M721.7 1168a47.5 47.5 0 1 0 92.4 22.2 47.5 47.5 0 0 0-92.4-22.1Z"/><path fill="url(#g)" d="M963.5 1091.4a17.6 17.6 0 1 1 35-5 17.6 17.6 0 0 1-35 5Z"/><path fill="url(#h)" d="M198 896.1a43 43 0 1 0 68.6 51.6 43 43 0 0 0-68.7-51.6Z"/><path fill="url(#i)" d="M739.8 199.1a43 43 0 1 0 68.7 51.6 43 43 0 0 0-68.7-51.6Z"/><path fill="url(#j)" d="M174.3 371.8a43 43 0 1 0 68.7 51.6 43 43 0 0 0-68.7-51.6Z"/><path fill="url(#k)" d="M886.2 872.5a26.4 26.4 0 1 0 39 35.5 26.4 26.4 0 0 0-39-35.5Z"/><path fill="url(#l)" d="M974.4 542.9a26.4 26.4 0 1 0 39 35.4 26.4 26.4 0 0 0-39-35.4Z"/><path fill="url(#m)" d="M364.1 1058.3a38.6 38.6 0 1 0 47.2 61.2 38.6 38.6 0 0 0-47.2-61.2Z"/><path fill="url(#n)" d="M1107 895.8a33.4 33.4 0 1 0 53.2 40.6 33.4 33.4 0 0 0-53.2-40.6Z"/><defs><linearGradient id="a" x1="857.2" x2="389.6" y1="1210.6" y2="44" gradientUnits="userSpaceOnUse"><stop stop-color="#F94C51"/><stop offset=".1" stop-color="#CC4751"/><stop offset=".2" stop-color="#A54251"/><stop offset=".3" stop-color="#843E51"/><stop offset=".4" stop-color="#693B51"/><stop offset=".5" stop-color="#543951"/><stop offset=".6" stop-color="#463751"/><stop offset=".8" stop-color="#3D3651"/><stop offset="1" stop-color="#3B3652"/></linearGradient><linearGradient id="b" x1="900.5" x2="768.9" y1="1278.9" y2="910" gradientUnits="userSpaceOnUse"><stop stop-color="#D64D51"/><stop offset=".3" stop-color="#9C4451"/><stop offset=".8" stop-color="#563A51"/><stop offset="1" stop-color="#3B3652"/></linearGradient><linearGradient id="c" x1="393.8" x2="510.2" y1="14.1" y2="430.6" gradientUnits="userSpaceOnUse"><stop stop-color="#D64D51"/><stop offset=".3" stop-color="#9C4451"/><stop offset=".8" stop-color="#563A51"/><stop offset="1" stop-color="#3B3652"/></linearGradient><linearGradient id="d" x1="822.9" x2="622.3" y1="1136" y2="573.8" gradientUnits="userSpaceOnUse"><stop stop-color="#D64D51"/><stop offset=".3" stop-color="#9C4451"/><stop offset=".8" stop-color="#563A51"/><stop offset="1" stop-color="#3B3652"/></linearGradient><linearGradient id="e" x1="468.2" x2="668.8" y1="158.7" y2="720.9" gradientUnits="userSpaceOnUse"><stop stop-color="#D64D51"/><stop offset=".3" stop-color="#9C4451"/><stop offset=".8" stop-color="#563A51"/><stop offset="1" stop-color="#3B3652"/></linearGradient><linearGradient id="f" x1="765.4" x2="773.1" y1="1096.7" y2="1359.1" gradientUnits="userSpaceOnUse"><stop stop-color="#D64D51"/><stop offset=".4" stop-color="#8D4251"/><stop offset=".8" stop-color="#523951"/><stop offset="1" stop-color="#3B3652"/></linearGradient><linearGradient id="g" x1="975.8" x2="992.3" y1="1058.7" y2="1154.8" gradientUnits="userSpaceOnUse"><stop stop-color="#D64D51"/><stop offset=".4" stop-color="#8D4251"/><stop offset=".8" stop-color="#523951"/><stop offset="1" stop-color="#3B3652"/></linearGradient><linearGradient id="h" x1="205.1" x2="239.7" y1="792.9" y2="957" gradientUnits="userSpaceOnUse"><stop stop-color="#D64D51"/><stop offset=".4" stop-color="#8D4251"/><stop offset=".8" stop-color="#523951"/><stop offset="1" stop-color="#3B3652"/></linearGradient><linearGradient id="i" x1="747" x2="781.5" y1="95.8" y2="260" gradientUnits="userSpaceOnUse"><stop stop-color="#D64D51"/><stop offset=".4" stop-color="#8D4251"/><stop offset=".8" stop-color="#523951"/><stop offset="1" stop-color="#3B3652"/></linearGradient><linearGradient id="j" x1="181.5" x2="216" y1="268.5" y2="432.7" gradientUnits="userSpaceOnUse"><stop stop-color="#D64D51"/><stop offset=".4" stop-color="#8D4251"/><stop offset=".8" stop-color="#523951"/><stop offset="1" stop-color="#3B3652"/></linearGradient><linearGradient id="k" x1="897.9" x2="922.7" y1="845.1" y2="988.8" gradientUnits="userSpaceOnUse"><stop stop-color="#D64D51"/><stop offset=".4" stop-color="#8D4251"/><stop offset=".8" stop-color="#523951"/><stop offset="1" stop-color="#3B3652"/></linearGradient><linearGradient id="l" x1="986.1" x2="1010.9" y1="515.4" y2="659.1" gradientUnits="userSpaceOnUse"><stop stop-color="#D64D51"/><stop offset=".4" stop-color="#8D4251"/><stop offset=".8" stop-color="#523951"/><stop offset="1" stop-color="#3B3652"/></linearGradient><linearGradient id="m" x1="415.3" x2="327.8" y1="1027.7" y2="1222.3" gradientUnits="userSpaceOnUse"><stop stop-color="#D64D51"/><stop offset=".1" stop-color="#BF4951"/><stop offset=".2" stop-color="#974351"/><stop offset=".4" stop-color="#753E51"/><stop offset=".5" stop-color="#5B3A51"/><stop offset=".7" stop-color="#493851"/><stop offset=".8" stop-color="#3E3651"/><stop offset="1" stop-color="#3B3652"/></linearGradient><linearGradient id="n" x1="1157.5" x2="1081.8" y1="863.1" y2="1031.6" gradientUnits="userSpaceOnUse"><stop stop-color="#D64D51"/><stop offset=".1" stop-color="#BF4951"/><stop offset=".2" stop-color="#974351"/><stop offset=".4" stop-color="#753E51"/><stop offset=".5" stop-color="#5B3A51"/><stop offset=".7" stop-color="#493851"/><stop offset=".8" stop-color="#3E3651"/><stop offset="1" stop-color="#3B3652"/></linearGradient></defs></svg>