<svg xmlns="http://www.w3.org/2000/svg" width="288" height="288" fill="none"><path stroke="url(#a)" stroke-dasharray="9.95 15.64" stroke-width=".71" d="M20.53 119.53c.98-5 2.26-9.86 3.8-14.6l.33.11c1-3.05 2.1-6.05 3.31-8.99l-.33-.13c1.93-4.7 4.13-9.22 6.58-13.58l.31.17c1.57-2.8 3.24-5.52 5.01-8.16l-.3-.2c2.81-4.2 5.86-8.21 9.12-12.02l.27.23c2.08-2.43 4.26-4.77 6.51-7.03l-.25-.25c3.56-3.57 7.33-6.91 11.29-10.02l.22.28c2.5-1.97 5.1-3.85 7.75-5.63l-.2-.3c4.17-2.8 8.52-5.34 13.01-7.63l.16.32c2.85-1.45 5.75-2.8 8.7-4.02l-.14-.33c4.63-1.93 9.4-3.58 14.25-4.95l.1.34c3.07-.87 6.17-1.61 9.32-2.24l-.07-.35c4.9-.98 9.89-1.67 14.94-2.06l.03.35c3.17-.24 6.36-.36 9.57-.36v-.36c4.98 0 10 .3 15.06.9l-.04.36a127.64 127.64 0 0 1 9.47 1.5l.07-.35c5 .99 9.87 2.26 14.6 3.8l-.1.33c3.05 1 6.05 2.1 8.99 3.31l.13-.33c4.69 1.94 9.22 4.14 13.58 6.58l-.18.31c2.8 1.57 5.52 3.24 8.17 5.01l.2-.3c4.2 2.81 8.21 5.86 12.02 9.12l-.23.27c2.43 2.09 4.77 4.26 7.03 6.51l.25-.25c3.56 3.56 6.9 7.33 10.02 11.29l-.28.22a126.3 126.3 0 0 1 5.63 7.75l.3-.2c2.8 4.18 5.34 8.52 7.63 13.01l-.32.16c1.45 2.85 2.8 5.75 4.02 8.7l.33-.14c1.93 4.63 3.58 9.4 4.95 14.26l-.34.1c.86 3.06 1.61 6.16 2.24 9.3l.35-.06c.98 4.9 1.67 9.89 2.06 14.94l-.35.03c.24 3.17.36 6.36.36 9.57h.36c0 4.98-.3 10-.9 15.06l-.36-.04a128.38 128.38 0 0 1-1.5 9.47l.35.07c-.99 5-2.26 9.87-3.8 14.6l-.33-.1c-1 3.05-2.1 6.05-3.31 8.99l.32.13a124.94 124.94 0 0 1-6.57 13.58l-.31-.18a124.9 124.9 0 0 1-5.01 8.17l.3.2c-2.81 4.2-5.86 8.21-9.13 12.02l-.26-.23a125.55 125.55 0 0 1-6.51 7.03l.25.25c-3.57 3.56-7.34 6.9-11.29 10.02l-.22-.28c-2.5 1.97-5.1 3.85-7.75 5.63l.2.3c-4.18 2.8-8.52 5.34-13.01 7.63l-.17-.32a125.66 125.66 0 0 1-8.7 4.02l.14.33a125.63 125.63 0 0 1-14.25 4.95l-.1-.34c-3.06.86-6.16 1.61-9.3 2.24l.06.35a125 125 0 0 1-14.94 2.06l-.03-.35c-3.17.24-6.36.36-9.57.36v.36c-4.98 0-10.01-.3-15.06-.9l.04-.36c-1.19-.14-2.38-.3-3.56-.48l-1.2-.18a127.6 127.6 0 0 1-4.72-.84l-.07.35c-5-.99-9.86-2.26-14.6-3.8l.11-.33c-3.05-1-6.05-2.1-8.99-3.31l-.14.32a124.73 124.73 0 0 1-13.57-6.57l.17-.31c-2.8-1.57-5.52-3.24-8.16-5.01l-.2.3c-4.2-2.81-8.22-5.86-12.02-9.13l.23-.26a125.45 125.45 0 0 1-7.03-6.51l-.25.25c-3.57-3.56-6.91-7.33-10.02-11.29l.28-.22c-1.97-2.5-3.85-5.1-5.63-7.75l-.3.2a126.4 126.4 0 0 1-7.63-13.01l.32-.17a125.54 125.54 0 0 1-4.02-8.7l-.33.15a125.51 125.51 0 0 1-4.95-14.26l.34-.1c-.87-3.06-1.61-6.16-2.24-9.3l-.35.06c-.98-4.9-1.67-9.89-2.06-14.94l.35-.03a124.8 124.8 0 0 1-.36-9.57h-.36c0-4.98.3-10 .9-15.06l.36.04a128.14 128.14 0 0 1 1.5-9.48l-.35-.06Zm231.85 36.78a111.8 111.8 0 0 1-1.5 9.41l.7.15a111.29 111.29 0 0 0 1.5-9.48l-.7-.08Zm-8.35 32.96c1.31-2.89 2.5-5.86 3.56-8.9l-.33-.1-.34-.13a108.32 108.32 0 0 1-3.54 8.84l.65.3Zm8.4-57.4c.35 3.14.56 6.3.63 9.5h.36l.35-.01c-.07-3.22-.28-6.4-.63-9.56l-.7.07Zm-21.28 78.31.29.22c1.93-2.54 3.75-5.16 5.46-7.88l-.3-.18-.3-.2c-1.7 2.7-3.51 5.3-5.43 7.83l.28.21Zm15.87-102.13c1.04 2.99 1.96 6.03 2.74 9.11l.35-.08.34-.09c-.79-3.1-1.7-6.17-2.76-9.18l-.34.12-.33.12Zm-14.26 44.46a90.26 90.26 0 0 1-1.7 10.77l.7.15a91.1 91.1 0 0 0 1.71-10.85l-.7-.07Zm-18.31 75.67a110.2 110.2 0 0 0 7.07-6.46l-.5-.5a109.7 109.7 0 0 1-7.03 6.42l.46.54Zm21.98-142.16c1.68 2.7 3.25 5.45 4.7 8.28l.63-.32a110.5 110.5 0 0 0-4.73-8.33l-.6.38Zm-15.28 103.42.3.18a89.3 89.3 0 0 0 5-9.8l-.33-.13-.33-.14a88.59 88.59 0 0 1-4.95 9.7l.31.19Zm9.93-64.8a88.41 88.41 0 0 1 1.7 10.77l.36-.03.35-.04c-.35-3.67-.93-7.3-1.72-10.85l-.34.08-.35.08Zm-27.77 86.4.23.27a90.3 90.3 0 0 0 7.77-7.76l-.26-.23-.27-.24a89.57 89.57 0 0 1-7.7 7.7l.23.26Zm17.52-112.36a89.57 89.57 0 0 1 4.95 9.7l.33-.14.33-.14a90.28 90.28 0 0 0-5-9.78l-.3.18-.3.18Zm-26.89 143.08a110.5 110.5 0 0 0 8.33-4.73l-.38-.6a109.66 109.66 0 0 1-8.27 4.7l.32.63ZM221.22 66.9c2.24 2.25 4.38 4.6 6.42 7.03l.54-.46c-2.05-2.45-4.2-4.8-6.46-7.08l-.25.26-.25.25Zm-10.3 82.47a68.3 68.3 0 0 1-1.6 10.14l.69.16a69.14 69.14 0 0 0 1.62-10.24l-.71-.06Zm-12.23 34.17.29.21a67.5 67.5 0 0 0 5.41-8.83l-.31-.16-.32-.16a66.79 66.79 0 0 1-5.36 8.74l.29.2Zm9.22-60.2a66.9 66.9 0 0 1 2.4 9.96l.7-.1a67.54 67.54 0 0 0-2.43-10.08l-.34.11-.33.1ZM179.68 226.1l.14.33a90.18 90.18 0 0 0 9.78-5l-.19-.3-.18-.3a89.2 89.2 0 0 1-9.7 4.94l.15.33Zm23.4-148.97a89.54 89.54 0 0 1 7.7 7.7l.26-.23.27-.23a90.23 90.23 0 0 0-7.76-7.78l-.23.27-.24.27ZM170.84 250.1l.09.34c3.1-.79 6.17-1.7 9.17-2.76l-.11-.34-.12-.33a108.92 108.92 0 0 1-9.12 2.74l.1.35Zm31.3-198.49c2.7 1.7 5.3 3.51 7.83 5.43l.21-.29.22-.28a109.36 109.36 0 0 0-7.88-5.46l-.18.3-.2.3Zm-22.59 150.15a68.34 68.34 0 0 0 8.38-6.1l-.46-.53a67.64 67.64 0 0 1-8.29 6.02l.37.6Zm15.59-101.33a67.5 67.5 0 0 1 6.02 8.3l.6-.38a68.36 68.36 0 0 0-6.08-8.38l-.54.46Zm-1.85 46.25a49.58 49.58 0 0 1-1.57 9.92l.34.1.35.08a50.76 50.76 0 0 0 1.6-10.06l-.36-.02-.36-.02Zm-13.79 32.6a50.05 50.05 0 0 0 6.42-7.9l-.6-.4a49.35 49.35 0 0 1-6.32 7.8l.5.5Zm8.55-57.63a49.4 49.4 0 0 1 3.6 9.37l.35-.09.34-.1a50 50 0 0 0-3.66-9.5l-.31.16-.32.16Zm-35.5 111.48.03.35a89.2 89.2 0 0 0 10.84-1.72l-.07-.34-.08-.35a88.37 88.37 0 0 1-10.76 1.7l.03.36Zm27-171.01a88.44 88.44 0 0 1 9.7 4.94l.19-.3.18-.3a89.14 89.14 0 0 0-9.8-5l-.13.33-.15.33ZM154.72 211c3.43-.56 6.8-1.37 10.07-2.43l-.11-.33-.11-.34a66.75 66.75 0 0 1-9.97 2.4l.12.7ZM174.6 84.16a66.78 66.78 0 0 1 8.74 5.36l.2-.3.21-.28a67.51 67.51 0 0 0-8.83-5.41l-.32.63ZM156.98 192l.1.34c3.3-.9 6.48-2.13 9.5-3.66l-.16-.31-.16-.32a49.32 49.32 0 0 1-9.37 3.6l.09.35ZM171 102.6a49.35 49.35 0 0 1 7.8 6.32l.25-.25.25-.25a50.11 50.11 0 0 0-7.91-6.42l-.2.3-.2.3Zm-24.45 150.82.01.36c3.22-.08 6.4-.3 9.56-.64l-.08-.7c-3.13.34-6.3.55-9.5.62l.01.36ZM180.15 41c3 1.05 5.96 2.24 8.83 3.53l.3-.64c-2.9-1.31-5.87-2.5-8.9-3.56l-.12.33-.12.34Zm-58.1 210.58a110 110 0 0 0 9.48 1.5l.08-.7c-1.18-.14-2.36-.3-3.54-.47l-1.18-.18a112 112 0 0 1-4.7-.85l-.14.7Zm2.44-19.83a91.28 91.28 0 0 0 10.85 1.72l.07-.7a91.3 91.3 0 0 1-4.06-.5l-1.35-.2a91.5 91.5 0 0 1-5.36-1.01l-.15.7Zm3.76-21.75a68.01 68.01 0 0 0 10.24 1.63l.02-.36.03-.35a68.7 68.7 0 0 1-3.81-.42l-1.28-.2c-1.7-.26-3.39-.6-5.04-.99l-.08.35-.08.34Zm2.88-17.6a50.7 50.7 0 0 0 10.06 1.6l.02-.35.02-.36a49.9 49.9 0 0 1-4.37-.44l-.63-.1a50.21 50.21 0 0 1-4.92-1.03l-.1.34-.08.35Zm15.58-98.13-.02.36a50.02 50.02 0 0 1 9.92 1.57l.1-.34.08-.35c-1.42-.37-2.88-.69-4.35-.94l-.64-.1c-1.7-.28-3.39-.46-5.07-.55l-.02.35ZM149.37 77a68.14 68.14 0 0 1 10.14 1.6l.16-.69a68.7 68.7 0 0 0-3.8-.78l-1.29-.22a68.8 68.8 0 0 0-5.15-.62l-.06.7Zm3.14-21.84a90.6 90.6 0 0 1 10.77 1.7l.15-.7c-1.33-.29-2.68-.55-4.04-.79l-1.36-.23a91.19 91.19 0 0 0-5.45-.7l-.07.72Zm3.8-19.62a110.94 110.94 0 0 1 9.41 1.5l.15-.7c-1.18-.24-2.35-.46-3.54-.66l-1.19-.2c-1.58-.25-3.17-.46-4.75-.64l-.08.7Zm-57.67 208.5c2.9 1.3 5.86 2.49 8.9 3.55l.12-.33.12-.34a108.5 108.5 0 0 1-8.84-3.54l-.3.65Zm33.23-208.55c3.14-.35 6.3-.56 9.5-.63v-.36l-.01-.36c-3.22.08-6.4.3-9.56.64l.07.7ZM108.62 179.5a50.08 50.08 0 0 0 7.91 6.42l.4-.6a49.35 49.35 0 0 1-7.8-6.32l-.5.5Zm13.04-79.63a49.38 49.38 0 0 1 9.37-3.6l-.18-.7c-3.3.9-6.5 2.14-9.51 3.67l.32.63Zm-17.5 99.1a67.51 67.51 0 0 0 8.84 5.42l.16-.31.16-.32a66.78 66.78 0 0 1-8.74-5.36l-.2.29-.21.29Zm19.07-119.3.1.34a66.75 66.75 0 0 1 9.97-2.4l-.05-.35-.06-.35c-3.44.56-6.8 1.37-10.07 2.43l.1.33ZM98.3 221.46a89.4 89.4 0 0 0 9.79 4.98l.14-.32.14-.33a88.61 88.61 0 0 1-9.7-4.94l-.19.3-.18.3Zm26.27-164.97.08.35a88.56 88.56 0 0 1 10.76-1.7l-.03-.36-.04-.35c-3.67.35-7.3.93-10.85 1.71l.08.35Zm-29 100.58c.9 3.3 2.14 6.49 3.67 9.51l.63-.32a49.32 49.32 0 0 1-3.6-9.37l-.7.18Zm6.73-40.34.3.2a49.4 49.4 0 0 1 6.32-7.8l-.25-.26-.25-.25a50.01 50.01 0 0 0-6.42 7.91l.3.2Zm-24.78 114.7c2.54 1.94 5.16 3.76 7.87 5.47l.2-.3.18-.3c-2.7-1.7-5.3-3.51-7.82-5.43l-.22.28-.21.29Zm30.41-190.87.12.34c2.99-1.04 6.03-1.96 9.11-2.74l-.08-.35-.1-.34c-3.1.79-6.16 1.7-9.17 2.76l.12.33Zm-21.78 139a68.32 68.32 0 0 0 6.09 8.37l.54-.46a67.67 67.67 0 0 1-6.02-8.29l-.6.37Zm14.3-86.78a67.57 67.57 0 0 1 8.29-6.02l-.38-.6a68.28 68.28 0 0 0-8.38 6.08l.46.54ZM76.6 203.54a90.15 90.15 0 0 0 7.75 7.77l.24-.26.24-.27a89.53 89.53 0 0 1-7.7-7.7l-.27.23-.26.23ZM98.5 66.78l.17.3a89.44 89.44 0 0 1 9.7-4.95l-.14-.32-.14-.33a90.2 90.2 0 0 0-9.78 5l.18.3Zm-4.05 69.34c-.27 1.7-.45 3.39-.54 5.07l.35.02.36.02a50.02 50.02 0 0 1 1.57-9.92l-.34-.1-.35-.08c-.43 1.62-.78 3.29-1.05 4.99Zm-17.55 18.6c.56 3.44 1.37 6.81 2.43 10.08l.33-.11.34-.11a66.8 66.8 0 0 1-2.4-9.97l-.35.06-.35.06Zm7.25-41.4a66.7 66.7 0 0 1 5.36-8.74l-.3-.2-.28-.21a67.46 67.46 0 0 0-5.41 8.83l.63.32ZM59.74 214.45c2.04 2.45 4.2 4.8 6.45 7.07l.5-.5c-2.23-2.25-4.38-4.6-6.41-7.03l-.54.46ZM86.02 51.49c2.7-1.68 5.45-3.25 8.28-4.7l-.32-.63a110.36 110.36 0 0 0-8.33 4.73l.37.6Zm-9.11 81.85a68.79 68.79 0 0 0-.62 5.15l.35.03.36.02a68.2 68.2 0 0 1 1.6-10.13l-.34-.08-.35-.08a68.8 68.8 0 0 0-1 5.09Zm-15.43 46.48a90.29 90.29 0 0 0 5 9.78l.3-.19.3-.17a89.59 89.59 0 0 1-4.95-9.7l-.32.14-.33.14Zm15.4-95.22.26.24a89.52 89.52 0 0 1 7.7-7.7l-.23-.27-.23-.26a90.22 90.22 0 0 0-7.78 7.75l.27.24ZM46.15 193.94c1.45 2.85 3.03 5.63 4.73 8.33l.6-.38a109.5 109.5 0 0 1-4.7-8.27l-.63.32Zm20.48-127.5.26.26c2.25-2.24 4.6-4.39 7.03-6.42l-.46-.54c-2.45 2.04-4.81 4.2-7.08 6.45l.25.26Zm-12.21 86.14c.35 3.67.93 7.3 1.71 10.84l.35-.07.35-.08a88.48 88.48 0 0 1-1.7-10.76l-.36.03-.35.04Zm7.37-44.35.33.14a88.53 88.53 0 0 1 4.94-9.7l-.3-.19-.3-.18a89.21 89.21 0 0 0-5 9.79l.33.14Zm-6.66 21.66a91.38 91.38 0 0 0-.7 5.45l.71.07a90.62 90.62 0 0 1 1.71-10.77l-.7-.15a91.4 91.4 0 0 0-1.02 5.4Zm-17.67 41.04c.79 3.1 1.7 6.17 2.76 9.17l.33-.11.34-.12a108.63 108.63 0 0 1-2.74-9.12l-.35.1-.34.08Zm13.85-85.35.3.2c1.7-2.7 3.51-5.31 5.43-7.83l-.29-.21-.28-.22a109.33 109.33 0 0 0-5.46 7.87l.3.2Zm-17.18 60.98c.08 3.22.3 6.4.64 9.56l.7-.08c-.34-3.13-.55-6.3-.62-9.5l-.36.01-.36.01Zm6.52-38.9.34.12c1.05-3.02 2.23-5.97 3.53-8.84l-.64-.3c-1.31 2.9-2.5 5.86-3.56 8.9l.33.12Zm-5.17 19.11c-.26 1.59-.47 3.17-.65 4.76l.7.08a110.88 110.88 0 0 1 1.5-9.41l-.7-.15c-.32 1.56-.6 3.14-.85 4.72Z"/><g filter="url(#b)"><circle cx="145.5" cy="138.5" r="36.5" fill="url(#c)"/><circle cx="145.5" cy="138.5" r="35.77" stroke="#1D2729" stroke-width="1.46"/></g><g clip-path="url(#d)"><path fill="#0ACF83" d="M138.21 160.4a7.3 7.3 0 0 0 7.3-7.3v-7.3h-7.3a7.31 7.31 0 0 0 0 14.6Z"/><path fill="#A259FF" d="M130.9 138.5a7.3 7.3 0 0 1 7.31-7.3h7.3v14.6h-7.3a7.3 7.3 0 0 1-7.3-7.3Z"/><path fill="#F24E1E" d="M130.9 123.9a7.3 7.3 0 0 1 7.31-7.3h7.3v14.6h-7.3a7.31 7.31 0 0 1-7.3-7.3Z"/><path fill="#FF7262" d="M145.51 116.6h7.3a7.3 7.3 0 0 1 0 14.6h-7.3v-14.6Z"/><path fill="#1ABCFE" d="M160.11 138.5a7.3 7.3 0 1 1-14.61-.01 7.3 7.3 0 0 1 14.61.01Z"/></g><defs><linearGradient id="a" x1="60.98" x2="218.37" y1="20.34" y2="242.12" gradientUnits="userSpaceOnUse"><stop stop-color="#6155FF" stop-opacity=".35"/><stop offset=".78" stop-color="#fff" stop-opacity="0"/></linearGradient><linearGradient id="c" x1="145.5" x2="145.5" y1="56.38" y2="175" gradientUnits="userSpaceOnUse"><stop stop-color="#1E1353"/><stop offset="1" stop-color="#13191B"/></linearGradient><clipPath id="d"><path fill="#fff" d="M123.6 116.6h43.8v43.8h-43.8z"/></clipPath><filter id="b" width="106.58" height="106.58" x="92.21" y="88.13" color-interpolation-filters="sRGB" filterUnits="userSpaceOnUse"><feFlood flood-opacity="0" result="BackgroundImageFix"/><feColorMatrix in="SourceAlpha" result="hardAlpha" values="0 0 0 0 0 0 0 0 0 0 0 0 0 0 0 0 0 0 127 0"/><feMorphology in="SourceAlpha" operator="dilate" radius="5.11" result="effect1_dropShadow_6242_14050"/><feOffset dy="2.92"/><feGaussianBlur stdDeviation="5.84"/><feComposite in2="hardAlpha" operator="out"/><feColorMatrix values="0 0 0 0 0 0 0 0 0 0 0 0 0 0 0 0 0 0 0.25 0"/><feBlend in2="BackgroundImageFix" result="effect1_dropShadow_6242_14050"/><feBlend in="SourceGraphic" in2="effect1_dropShadow_6242_14050" result="shape"/></filter></defs></svg>