<svg xmlns="http://www.w3.org/2000/svg" width="288" height="288" fill="none"><path stroke="url(#a)" stroke-dasharray="9.95 15.64" stroke-width=".7" d="m21 120 3-15h1l3-9 6-14 1 1 5-9h-1l9-12h1l6-7 11-10 8-5v-1l13-7 9-4 14-5 9-2 15-3v1l10-1 15 1a128 128 0 0 1 9 2l15 3v1l9 3 14 6-1 1 9 5v-1l12 9v1l7 6 10 11 5 8h1l7 13 4 9 5 14 2 9 2 15v10h1l-1 15a128 128 0 0 1-2 9l-3 15h-1l-3 9-6 14-1-1-5 9h1l-9 12h-1l-6 7-11 10-8 5v1l-13 7-9 4-14 5-9 2-15 2h-10v1l-15-1-3-1h-2l-4-1-15-3v-1l-9-3-14-6 1-1-9-5v1l-12-9v-1l-7-6-10-11-5-8h-1l-7-13-4-9-5-14-2-9-3-15h1l-1-10 1-15a128 128 0 0 1 2-9Zm231 36a112 112 0 0 1-1 10h1a111 111 0 0 0 1-10h-1Zm-8 33 4-9h-1l-4 9h1Zm8-57 1 9h1l-1-9h-1Zm-21 78 6-7v-1h-1l-5 8Zm16-102 3 9-2-9h-1Zm-14 45a90 90 0 0 1-2 10h1a91 91 0 0 0 1-10Zm-19 75 8-6-1-1-7 7Zm22-142 5 8h1l-5-8h-1Zm-15 103v1l5-10-5 9Zm10-64 2 10-1-11-1 1Zm-28 86h1l7-7v-1l-8 8Zm18-112 5 9-5-10v1Zm-27 143 8-5v-1l-8 5v1Zm27-175 7 7v-1l-6-7-1 1Zm-10 82a68 68 0 0 1-2 11h1a69 69 0 0 0 2-11h-1Zm-12 35 5-9-6 8 1 1Zm9-61 2 10h1l-2-10h-1Zm-28 103 10-5h-1l-9 5Zm23-149 8 8v-1l-7-7h-1Zm-32 173 9-2v-1l-9 3Zm31-198 8 5v-1l-7-5h-1v1Zm-22 150 8-6-1-1-8 6 1 1Zm15-102 6 9 1-1-6-8h-1Zm-2 47a50 50 0 0 1-1 10 51 51 0 0 0 2-10h-1Zm-13 32 6-8h-1l-6 8h1Zm8-57 4 9-3-10h-1v1Zm-35 111 10-1v-1l-10 2Zm27-171 9 5 1-1-10-5v1Zm-25 149 10-2v-1l-10 2v1Zm20-127 8 6 1-1-9-5Zm-18 108 10-3-1-1-9 4Zm14-89 8 6v-1l-8-6v1Zm-24 150v1l9-1v-1l-9 1Zm33-212 9 4v-1l-9-4v1Zm-58 211a110 110 0 0 0 10 1v-1h-5l-5-1v1Zm2-20a91 91 0 0 0 11 1l-4-1h-1l-5-1-1 1Zm4-22a68 68 0 0 0 10 2l1-1-4-1h-2l-5-1v1Zm3-18a51 51 0 0 0 10 2v-1h-5l-5-1Zm16-98v1a50 50 0 0 1 10 1l-5-1v-1h-5Zm2-17a68 68 0 0 1 11 2v-1l-4-1h-1l-6-1v1Zm4-22a91 91 0 0 1 10 2v-1l-4-1h-1l-5-1v1Zm3-19a111 111 0 0 1 10 1v-1h-4l-1-1h-5v1ZM99 244l9 4v-1l-9-4v1Zm33-209h9v-1l-9 1Zm-23 145 8 6v-1l-8-6v1Zm13-80 9-4-10 3 1 1Zm-18 99 9 5-8-6-1 1Zm19-119 10-2v-1l-10 2v1ZM98 221l10 5-9-5h-1Zm27-165v1l10-2v-1l-11 2h1ZM96 157l3 10 1-1-4-9Zm6-40h1l6-8h-1l-6 8ZM78 231l7 6h1v-1l-8-5Zm30-190 9-3v-1l-9 3v1ZM86 180l6 8 1-1-6-8-1 1Zm14-87 9-6-1-1-8 6v1ZM77 204l7 7h1l-8-8v1ZM99 67l9-5v-1l-10 5 1 1Zm-5 69v5h1a50 50 0 0 1 1-10l-2 5Zm-17 19 2 10h1l-2-10h-1Zm7-42 6-8-1-1-5 9ZM60 214l6 8 1-1-7-7ZM86 51l8-4v-1l-8 5Zm-9 82-1 5 1 1a68 68 0 0 1 2-11h-1l-1 5Zm-16 47 5 10 1-1-5-9h-1Zm16-95 8-8h-1l-7 7v1ZM46 194l5 8-4-8h-1ZM67 66v1l7-7h-1l-7 6h1Zm-13 87 2 10h1l-2-10h-1Zm8-45 5-9v-1h-1l-5 10h1Zm-7 22-1 5h1a91 91 0 0 1 2-10l-1-1-1 6Zm-18 41 3 9h1l-3-9h-1Zm14-85h1l5-8h-1l-5 7v1Zm-17 61 1 9v-9h-1Zm7-39 4-9h-1l-4 9h1Zm-6 19v5h1a111 111 0 0 1 1-10h-1l-1 5Z"/><g filter="url(#b)"><circle cx="145.5" cy="138.5" r="36.5" fill="url(#c)"/><circle cx="145.5" cy="138.5" r="35.8" stroke="#1D2729" stroke-width="1.5"/></g><g clip-path="url(#d)"><path fill="#0ACF83" d="M138 160a7 7 0 0 0 8-7v-7h-8a7 7 0 0 0 0 14Z"/><path fill="#A259FF" d="M131 139a7 7 0 0 1 7-8h8v15h-8a7 7 0 0 1-7-7Z"/><path fill="#F24E1E" d="M131 124a7 7 0 0 1 7-7h8v14h-8a7 7 0 0 1-7-7Z"/><path fill="#FF7262" d="M146 117h7a7 7 0 0 1 0 14h-7v-14Z"/><path fill="#1ABCFE" d="M160 139a7 7 0 1 1-15-1 7 7 0 0 1 15 1Z"/></g><defs><linearGradient id="a" x1="61" x2="218.4" y1="20.3" y2="242.1" gradientUnits="userSpaceOnUse"><stop stop-color="#6155FF" stop-opacity=".3"/><stop offset=".8" stop-color="#fff" stop-opacity="0"/></linearGradient><linearGradient id="c" x1="145.5" x2="145.5" y1="56.4" y2="175" gradientUnits="userSpaceOnUse"><stop stop-color="#1E1353"/><stop offset="1" stop-color="#13191B"/></linearGradient><clipPath id="d"><path fill="#fff" d="M124 117h44v44h-44z"/></clipPath><filter id="b" width="106.6" height="106.6" x="92.2" y="88.1" color-interpolation-filters="sRGB" filterUnits="userSpaceOnUse"><feFlood flood-opacity="0" result="BackgroundImageFix"/><feColorMatrix in="SourceAlpha" result="hardAlpha" values="0 0 0 0 0 0 0 0 0 0 0 0 0 0 0 0 0 0 127 0"/><feMorphology in="SourceAlpha" operator="dilate" radius="5.1" result="effect1_dropShadow_6242_14050"/><feOffset dy="2.9"/><feGaussianBlur stdDeviation="5.8"/><feComposite in2="hardAlpha" operator="out"/><feColorMatrix values="0 0 0 0 0 0 0 0 0 0 0 0 0 0 0 0 0 0 0.25 0"/><feBlend in2="BackgroundImageFix" result="effect1_dropShadow_6242_14050"/><feBlend in="SourceGraphic" in2="effect1_dropShadow_6242_14050" result="shape"/></filter></defs></svg>