<svg xmlns="http://www.w3.org/2000/svg" width="107" height="107" fill="none"><g filter="url(#a)"><circle cx="53.5" cy="50.5" r="36.5" fill="url(#b)"/><circle cx="53.5" cy="50.5" r="35.77" stroke="#1D2729" stroke-width="1.46"/></g><g clip-path="url(#c)"><path fill="#0ACF83" d="M46.21 72.4a7.3 7.3 0 0 0 7.3-7.3v-7.3h-7.3a7.3 7.3 0 0 0 0 14.6Z"/><path fill="#A259FF" d="M38.9 50.5a7.3 7.3 0 0 1 7.31-7.3h7.3v14.6h-7.3a7.31 7.31 0 0 1-7.3-7.3Z"/><path fill="#F24E1E" d="M38.9 35.9a7.3 7.3 0 0 1 7.31-7.3h7.3v14.6h-7.3a7.31 7.31 0 0 1-7.3-7.3Z"/><path fill="#FF7262" d="M53.51 28.6h7.3a7.3 7.3 0 0 1 0 14.6h-7.3V28.6Z"/><path fill="#1ABCFE" d="M68.11 50.5a7.3 7.3 0 1 1-14.62-.02 7.3 7.3 0 0 1 14.62.02Z"/></g><defs><linearGradient id="b" x1="53.5" x2="53.5" y1="-31.63" y2="87" gradientUnits="userSpaceOnUse"><stop stop-color="#1E1353"/><stop offset="1" stop-color="#13191B"/></linearGradient><clipPath id="c"><path fill="#fff" d="M31.6 28.6h43.8v43.8H31.6z"/></clipPath><filter id="a" width="106.58" height="106.58" x=".21" y=".13" color-interpolation-filters="sRGB" filterUnits="userSpaceOnUse"><feFlood flood-opacity="0" result="BackgroundImageFix"/><feColorMatrix in="SourceAlpha" result="hardAlpha" values="0 0 0 0 0 0 0 0 0 0 0 0 0 0 0 0 0 0 127 0"/><feMorphology in="SourceAlpha" operator="dilate" radius="5.11" result="effect1_dropShadow_6242_14056"/><feOffset dy="2.92"/><feGaussianBlur stdDeviation="5.84"/><feComposite in2="hardAlpha" operator="out"/><feColorMatrix values="0 0 0 0 0 0 0 0 0 0 0 0 0 0 0 0 0 0 0.25 0"/><feBlend in2="BackgroundImageFix" result="effect1_dropShadow_6242_14056"/><feBlend in="SourceGraphic" in2="effect1_dropShadow_6242_14056" result="shape"/></filter></defs></svg>