<svg xmlns="http://www.w3.org/2000/svg" width="222" height="222" fill="none"><path stroke="url(#a)" stroke-dasharray="7.64 12.01" stroke-width=".5" d="M16 92c1-4 1-8 3-11l2-7 5-11h1l3-6 7-9 5-6 9-7 6-5 10-6v1c2-1 4-3 7-3l-1-1 11-3 8-2 11-2h7l12 1a98 98 0 0 1 7 1c4 1 8 1 11 3l7 2 11 5v1l6 3 9 7 6 5 7 9 5 6 6 10h-1c2 2 3 4 3 7l1-1 4 11h-1l2 8 2 11v7l-1 12a98 98 0 0 1-1 7c0 4-1 8-3 11l-2 7-5 11-4 6-7 9-5 6-9 7-6 5-10 6v-1c-2 2-4 3-7 3l1 1-11 4v-1l-8 2-11 2h-7l-12-1h-4l-3-1c-4 0-8-1-11-3l-7-2-11-5-6-4-9-7-6-5-7-9-5-6-6-10h1c-1-2-3-4-3-7l-1 1-3-11-2-8-2-11v-7l1-12a98 98 0 0 1 1-7Zm178 28a84 84 0 0 1-1 7 85 85 0 0 0 1-7Zm-7 25 3-7-3 7Zm7-44v8h1l-1-8Zm-17 60 1 1 4-7h-1l-4 6Zm13-78 2 7-2-7Zm-11 34a69 69 0 0 1-2 8h1a70 70 0 0 0 1-8Zm-15 58h1l5-5-6 5Zm18-109 3 6h1l-4-6Zm-12 79v1l4-8h-1l-3 7Zm7-49 2 8-1-8h-1Zm-21 66 6-6-6 6Zm14-86 3 7h1l-4-8v1Zm-21 109v1l6-4-6 3Zm21-134 5 6v-1l-5-5Zm-8 64a52 52 0 0 1-1 7v1a53 53 0 0 0 1-8Zm-9 26 4-7h-1l-4 7h1Zm7-46 1 7h1l-2-7Zm-22 79 8-4h-1l-7 3v1Zm18-115 6 6-6-6Zm-25 133 7-2-7 2Zm24-152 6 4 1-1-7-4v1Zm-17 115 6-5-6 4v1Zm12-78 4 6h1l-5-6Zm-2 36a38 38 0 0 1-1 7h1a39 39 0 0 0 1-7h-1Zm-10 24v1l5-6-1-1-5 6h1Zm6-44 3 8 1-1-3-7h-1Zm-27 86 8-1v-1l-8 2Zm21-131 7 3h1l-8-4v1Zm-19 114 8-2h-1l-7 1v1Zm15-97 7 4v-1l-7-4v1Zm-13 82v1l7-3v-1l-8 3h1Zm10-68 6 5v-1h1l-6-5-1 1Zm-18 116 7-1h-7v1Zm25-164 7 3-7-3ZM94 193a85 85 0 0 0 7 1l-3-1h-4Zm2-15a70 70 0 0 0 8 1l-3-1h-1l-4-1v1Zm2-17a53 53 0 0 0 8 1h-3l-1-1h-4Zm3-13a39 39 0 0 0 7 1v-1h-3l-4-1v1Zm12-75a38 38 0 0 1 7 1v-1h-3l-4-1v1Zm2-14a52 52 0 0 1 7 1h1l-3-1h-5Zm2-17a69 69 0 0 1 8 2v-1h-3l-1-1h-4Zm3-15a85 85 0 0 1 7 1l-2-1h-5ZM76 187l7 3-7-3Zm25-160h8v-1l-8 1ZM83 138l6 5 1-1-6-5v1h-1Zm10-62v1l8-3-1-1-7 3Zm-13 77 7 4v-1l-7-4v1Zm15-92 7-1v-1l-7 2ZM75 170l8 4v-1l-7-3h-1ZM96 43v1l8-2-8 1Zm-23 78 3 7h1l-3-8v1h-1Zm6-31 5-6h-1v-1l-5 6 1 1Zm-19 88 6 4v-1l-6-4v1ZM83 31l7-2-7 2ZM66 138l5 6-4-6h-1Zm11-67 6-4v-1l-6 5Zm-18 85 6 6-6-6ZM76 51v1l7-4v-1l-8 4h1Zm-3 53-1 4h1a38 38 0 0 1 1-7h-1v3Zm-14 15 2 8v-1l-1-7h-1Zm5-32h1l4-7h-1l-4 7Zm-18 78 5 5-5-6v1ZM66 39v1l6-4v-1l-6 4Zm-7 63v4a52 52 0 0 1 1-7v-1l-1 4Zm-12 36 4 8v-1h1l-4-7h-1Zm12-73 6-6-6 6Zm-24 84 4 6h1l-4-6h-1Zm16-98 6-5h-1l-5 5Zm-9 66 1 8h1l-2-8Zm5-34h1l3-7v-1l-4 8Zm-5 17v4a70 70 0 0 1 2-8h-1l-1 4Zm-13 31 2 7-2-7Zm10-65h1l4-6h-1l-4 6Zm-13 47 1 7v-7h-1Zm5-30 3-7-3 7Zm-4 14v4a85 85 0 0 1 1-7l-1 3Z"/><path fill="url(#b)" d="M98 75a33 33 0 1 0 0 66 33 33 0 0 0 0-66Z"/><path fill="url(#c)" d="M98 141c15 0 27-10 31-23-21 0-25 8-34 12l-11 7c4 3 9 4 14 4Z" opacity=".3"/><path fill="url(#d)" d="M98 75c-15 0-27 10-31 23 21 0 25-9 34-12 5-2 9-5 11-8-4-2-9-3-14-3Z" opacity=".3"/><path fill="url(#e)" d="M70 125c3 6 9 10 15 13 11-9 34-16 43-18a33 33 0 0 0 2-18c-16 1-27 14-41 16-9 1-15 4-19 7Z" opacity=".3"/><path fill="url(#f)" d="M126 91c-4-6-9-11-15-13-11 8-35 15-44 18a33 33 0 0 0-1 18c15-1 26-14 40-16 10-1 16-5 20-7Z" opacity=".3"/><path fill="url(#g)" d="M102 134a2 2 0 1 0 4 2 2 2 0 0 0-4-2Z"/><path fill="url(#h)" d="M114 131a1 1 0 1 1 2-1 1 1 0 0 1-2 1Z"/><path fill="url(#i)" d="M75 121a2 2 0 1 0 4 2 2 2 0 0 0-4-2Z"/><path fill="url(#j)" d="M103 85a2 2 0 1 0 3 3 2 2 0 0 0-3-3Z"/><path fill="url(#k)" d="M74 94a2 2 0 1 0 3 3 2 2 0 0 0-3-3Z"/><path fill="url(#l)" d="M110 119a1 1 0 1 0 2 2 1 1 0 0 0-2-2Z"/><path fill="url(#m)" d="M115 103a1 1 0 1 0 2 1 1 1 0 0 0-2-1Z"/><path fill="url(#n)" d="M84 129a2 2 0 1 0 2 3 2 2 0 0 0-2-3Z"/><path fill="url(#o)" d="M121 121a2 2 0 1 0 3 2 2 2 0 0 0-3-2Z"/><defs><linearGradient id="a" x1="46.8" x2="167.6" y1="15.6" y2="185.9" gradientUnits="userSpaceOnUse"><stop stop-color="#6155FF" stop-opacity=".3"/><stop offset=".8" stop-color="#fff" stop-opacity="0"/></linearGradient><linearGradient id="b" x1="108.6" x2="84.8" y1="136.6" y2="77.2" gradientUnits="userSpaceOnUse"><stop stop-color="#F94C51"/><stop offset=".1" stop-color="#CC4751"/><stop offset=".2" stop-color="#A54251"/><stop offset=".3" stop-color="#843E51"/><stop offset=".4" stop-color="#693B51"/><stop offset=".5" stop-color="#543951"/><stop offset=".6" stop-color="#463751"/><stop offset=".8" stop-color="#3D3651"/><stop offset="1" stop-color="#3B3652"/></linearGradient><linearGradient id="c" x1="110.8" x2="104.1" y1="140.1" y2="121.3" gradientUnits="userSpaceOnUse"><stop stop-color="#D64D51"/><stop offset=".3" stop-color="#9C4451"/><stop offset=".8" stop-color="#563A51"/><stop offset="1" stop-color="#3B3652"/></linearGradient><linearGradient id="d" x1="85" x2="90.9" y1="75.7" y2="96.9" gradientUnits="userSpaceOnUse"><stop stop-color="#D64D51"/><stop offset=".3" stop-color="#9C4451"/><stop offset=".8" stop-color="#563A51"/><stop offset="1" stop-color="#3B3652"/></linearGradient><linearGradient id="e" x1="106.9" x2="96.7" y1="132.8" y2="104.2" gradientUnits="userSpaceOnUse"><stop stop-color="#D64D51"/><stop offset=".3" stop-color="#9C4451"/><stop offset=".8" stop-color="#563A51"/><stop offset="1" stop-color="#3B3652"/></linearGradient><linearGradient id="f" x1="88.8" x2="99" y1="83" y2="111.7" gradientUnits="userSpaceOnUse"><stop stop-color="#D64D51"/><stop offset=".3" stop-color="#9C4451"/><stop offset=".8" stop-color="#563A51"/><stop offset="1" stop-color="#3B3652"/></linearGradient><linearGradient id="g" x1="103.9" x2="104.3" y1="130.8" y2="144.2" gradientUnits="userSpaceOnUse"><stop stop-color="#D64D51"/><stop offset=".4" stop-color="#8D4251"/><stop offset=".8" stop-color="#523951"/><stop offset="1" stop-color="#3B3652"/></linearGradient><linearGradient id="h" x1="114.7" x2="115.5" y1="128.9" y2="133.8" gradientUnits="userSpaceOnUse"><stop stop-color="#D64D51"/><stop offset=".4" stop-color="#8D4251"/><stop offset=".8" stop-color="#523951"/><stop offset="1" stop-color="#3B3652"/></linearGradient><linearGradient id="i" x1="75.4" x2="77.2" y1="115.3" y2="123.7" gradientUnits="userSpaceOnUse"><stop stop-color="#D64D51"/><stop offset=".4" stop-color="#8D4251"/><stop offset=".8" stop-color="#523951"/><stop offset="1" stop-color="#3B3652"/></linearGradient><linearGradient id="j" x1="103" x2="104.8" y1="79.8" y2="88.2" gradientUnits="userSpaceOnUse"><stop stop-color="#D64D51"/><stop offset=".4" stop-color="#8D4251"/><stop offset=".8" stop-color="#523951"/><stop offset="1" stop-color="#3B3652"/></linearGradient><linearGradient id="k" x1="74.2" x2="76" y1="88.6" y2="97" gradientUnits="userSpaceOnUse"><stop stop-color="#D64D51"/><stop offset=".4" stop-color="#8D4251"/><stop offset=".8" stop-color="#523951"/><stop offset="1" stop-color="#3B3652"/></linearGradient><linearGradient id="l" x1="110.7" x2="111.9" y1="118" y2="125.3" gradientUnits="userSpaceOnUse"><stop stop-color="#D64D51"/><stop offset=".4" stop-color="#8D4251"/><stop offset=".8" stop-color="#523951"/><stop offset="1" stop-color="#3B3652"/></linearGradient><linearGradient id="m" x1="115.2" x2="116.4" y1="101.2" y2="108.5" gradientUnits="userSpaceOnUse"><stop stop-color="#D64D51"/><stop offset=".4" stop-color="#8D4251"/><stop offset=".8" stop-color="#523951"/><stop offset="1" stop-color="#3B3652"/></linearGradient><linearGradient id="n" x1="86.1" x2="81.7" y1="127.3" y2="137.2" gradientUnits="userSpaceOnUse"><stop stop-color="#D64D51"/><stop offset=".1" stop-color="#BF4951"/><stop offset=".2" stop-color="#974351"/><stop offset=".4" stop-color="#753E51"/><stop offset=".5" stop-color="#5B3A51"/><stop offset=".7" stop-color="#493851"/><stop offset=".8" stop-color="#3E3651"/><stop offset="1" stop-color="#3B3652"/></linearGradient><linearGradient id="o" x1="123.9" x2="120" y1="118.9" y2="127.5" gradientUnits="userSpaceOnUse"><stop stop-color="#D64D51"/><stop offset=".1" stop-color="#BF4951"/><stop offset=".2" stop-color="#974351"/><stop offset=".4" stop-color="#753E51"/><stop offset=".5" stop-color="#5B3A51"/><stop offset=".7" stop-color="#493851"/><stop offset=".8" stop-color="#3E3651"/><stop offset="1" stop-color="#3B3652"/></linearGradient></defs></svg>