<svg xmlns="http://www.w3.org/2000/svg" width="66" height="66" fill="none"><path fill="url(#a)" d="M33 0a33 33 0 1 0 0 66 33 33 0 0 0 0-66Z"/><path fill="url(#b)" d="M33 66c15 0 27-10 31-23-21 0-25 8-34 12l-11 7c4 3 9 4 14 4Z" opacity=".3"/><path fill="url(#c)" d="M33 0C18 0 6 10 2 23c21 0 25-9 34-12 5-2 9-5 11-8-4-2-9-3-14-3Z" opacity=".3"/><path fill="url(#d)" d="M5 50c3 6 9 10 15 13 11-9 34-16 43-18a33 33 0 0 0 2-18c-16 1-27 14-41 16-9 1-15 4-19 7Z" opacity=".3"/><path fill="url(#e)" d="M61 16c-4-6-9-11-15-13-11 8-35 15-44 18a33 33 0 0 0-1 18c15-1 26-14 40-16 10-1 16-5 20-7Z" opacity=".3"/><defs><linearGradient id="a" x1="43.6" x2="19.8" y1="61.6" y2="2.2" gradientUnits="userSpaceOnUse"><stop stop-color="#F94C51"/><stop offset=".1" stop-color="#CC4751"/><stop offset=".2" stop-color="#A54251"/><stop offset=".3" stop-color="#843E51"/><stop offset=".4" stop-color="#693B51"/><stop offset=".5" stop-color="#543951"/><stop offset=".6" stop-color="#463751"/><stop offset=".8" stop-color="#3D3651"/><stop offset="1" stop-color="#3B3652"/></linearGradient><linearGradient id="b" x1="45.8" x2="39.1" y1="65.1" y2="46.3" gradientUnits="userSpaceOnUse"><stop stop-color="#D64D51"/><stop offset=".3" stop-color="#9C4451"/><stop offset=".8" stop-color="#563A51"/><stop offset="1" stop-color="#3B3652"/></linearGradient><linearGradient id="c" x1="20" x2="25.9" y1=".7" y2="21.9" gradientUnits="userSpaceOnUse"><stop stop-color="#D64D51"/><stop offset=".3" stop-color="#9C4451"/><stop offset=".8" stop-color="#563A51"/><stop offset="1" stop-color="#3B3652"/></linearGradient><linearGradient id="d" x1="41.9" x2="31.7" y1="57.8" y2="29.2" gradientUnits="userSpaceOnUse"><stop stop-color="#D64D51"/><stop offset=".3" stop-color="#9C4451"/><stop offset=".8" stop-color="#563A51"/><stop offset="1" stop-color="#3B3652"/></linearGradient><linearGradient id="e" x1="23.8" x2="34" y1="8" y2="36.7" gradientUnits="userSpaceOnUse"><stop stop-color="#D64D51"/><stop offset=".3" stop-color="#9C4451"/><stop offset=".8" stop-color="#563A51"/><stop offset="1" stop-color="#3B3652"/></linearGradient></defs></svg>