<svg width="133" height="133" viewBox="0 0 133 133" fill="none" xmlns="http://www.w3.org/2000/svg">
<path d="M5.32 0H0V5.32H5.32V0Z" fill="#FAFAFA"/>
<path d="M10.64 0H5.32V5.32H10.64V0Z" fill="#FAFAFA"/>
<path d="M15.96 0H10.64V5.32H15.96V0Z" fill="#FAFAFA"/>
<path d="M21.28 0H15.96V5.32H21.28V0Z" fill="#FAFAFA"/>
<path d="M26.6 0H21.28V5.32H26.6V0Z" fill="#FAFAFA"/>
<path d="M31.92 0H26.6V5.32H31.92V0Z" fill="#FAFAFA"/>
<path d="M37.24 0H31.92V5.32H37.24V0Z" fill="#FAFAFA"/>
<path d="M47.88 0H42.56V5.32H47.88V0Z" fill="#FAFAFA"/>
<path d="M69.16 0H63.84V5.32H69.16V0Z" fill="#FAFAFA"/>
<path d="M74.48 0H69.16V5.32H74.48V0Z" fill="#FAFAFA"/>
<path d="M79.8 0H74.48V5.32H79.8V0Z" fill="#FAFAFA"/>
<path d="M85.12 0H79.8V5.32H85.12V0Z" fill="#FAFAFA"/>
<path d="M90.44 0H85.12V5.32H90.44V0Z" fill="#FAFAFA"/>
<path d="M101.08 0H95.76V5.32H101.08V0Z" fill="#FAFAFA"/>
<path d="M106.4 0H101.08V5.32H106.4V0Z" fill="#FAFAFA"/>
<path d="M111.72 0H106.4V5.32H111.72V0Z" fill="#FAFAFA"/>
<path d="M117.04 0H111.72V5.32H117.04V0Z" fill="#FAFAFA"/>
<path d="M122.36 0H117.04V5.32H122.36V0Z" fill="#FAFAFA"/>
<path d="M127.68 0H122.36V5.32H127.68V0Z" fill="#FAFAFA"/>
<path d="M133 0H127.68V5.32H133V0Z" fill="#FAFAFA"/>
<path d="M5.32 5.32H0V10.64H5.32V5.32Z" fill="#FAFAFA"/>
<path d="M37.24 5.32H31.92L31.92 10.64H37.24V5.32Z" fill="#FAFAFA"/>
<path d="M53.2 5.32H47.88V10.64H53.2V5.32Z" fill="#FAFAFA"/>
<path d="M58.52 5.32H53.2V10.64H58.52V5.32Z" fill="#FAFAFA"/>
<path d="M74.48 5.32H69.16V10.64H74.48V5.32Z" fill="#FAFAFA"/>
<path d="M79.8 5.32H74.48V10.64H79.8V5.32Z" fill="#FAFAFA"/>
<path d="M101.08 5.32H95.76V10.64H101.08V5.32Z" fill="#FAFAFA"/>
<path d="M133 5.32H127.68V10.64H133V5.32Z" fill="#FAFAFA"/>
<path d="M5.32 10.64H0V15.96H5.32V10.64Z" fill="#FAFAFA"/>
<path d="M15.96 10.64H10.64V15.96H15.96V10.64Z" fill="#FAFAFA"/>
<path d="M21.28 10.64H15.96V15.96H21.28V10.64Z" fill="#FAFAFA"/>
<path d="M26.6 10.64H21.28V15.96H26.6V10.64Z" fill="#FAFAFA"/>
<path d="M37.24 10.64H31.92V15.96H37.24V10.64Z" fill="#FAFAFA"/>
<path d="M63.84 10.64H58.52V15.96H63.84V10.64Z" fill="#FAFAFA"/>
<path d="M69.16 10.64H63.84V15.96H69.16V10.64Z" fill="#FAFAFA"/>
<path d="M85.12 10.64H79.8L79.8 15.96H85.12V10.64Z" fill="#FAFAFA"/>
<path d="M101.08 10.64H95.76V15.96H101.08V10.64Z" fill="#FAFAFA"/>
<path d="M111.72 10.64H106.4V15.96H111.72V10.64Z" fill="#FAFAFA"/>
<path d="M117.04 10.64H111.72V15.96H117.04V10.64Z" fill="#FAFAFA"/>
<path d="M122.36 10.64H117.04V15.96H122.36V10.64Z" fill="#FAFAFA"/>
<path d="M133 10.64H127.68V15.96H133V10.64Z" fill="#FAFAFA"/>
<path d="M5.32 15.96H0V21.28H5.32V15.96Z" fill="#FAFAFA"/>
<path d="M15.96 15.96H10.64V21.28H15.96V15.96Z" fill="#FAFAFA"/>
<path d="M21.28 15.96H15.96V21.28H21.28V15.96Z" fill="#FAFAFA"/>
<path d="M26.6 15.96H21.28V21.28H26.6V15.96Z" fill="#FAFAFA"/>
<path d="M37.24 15.96H31.92V21.28H37.24V15.96Z" fill="#FAFAFA"/>
<path d="M47.88 15.96H42.56V21.28H47.88V15.96Z" fill="#FAFAFA"/>
<path d="M53.2 15.96H47.88V21.28H53.2V15.96Z" fill="#FAFAFA"/>
<path d="M58.52 15.96H53.2V21.28H58.52V15.96Z" fill="#FAFAFA"/>
<path d="M63.84 15.96H58.52V21.28H63.84V15.96Z" fill="#FAFAFA"/>
<path d="M69.16 15.96H63.84V21.28H69.16V15.96Z" fill="#FAFAFA"/>
<path d="M74.48 15.96H69.16V21.28H74.48V15.96Z" fill="#FAFAFA"/>
<path d="M101.08 15.96H95.76V21.28H101.08V15.96Z" fill="#FAFAFA"/>
<path d="M111.72 15.96H106.4V21.28H111.72V15.96Z" fill="#FAFAFA"/>
<path d="M117.04 15.96H111.72V21.28H117.04V15.96Z" fill="#FAFAFA"/>
<path d="M122.36 15.96H117.04V21.28H122.36V15.96Z" fill="#FAFAFA"/>
<path d="M133 15.96H127.68V21.28H133V15.96Z" fill="#FAFAFA"/>
<path d="M5.32 21.28H0V26.6H5.32V21.28Z" fill="#FAFAFA"/>
<path d="M15.96 21.28H10.64V26.6H15.96V21.28Z" fill="#FAFAFA"/>
<path d="M21.28 21.28H15.96V26.6H21.28V21.28Z" fill="#FAFAFA"/>
<path d="M26.6 21.28H21.28V26.6H26.6V21.28Z" fill="#FAFAFA"/>
<path d="M37.24 21.28H31.92V26.6H37.24V21.28Z" fill="#FAFAFA"/>
<path d="M47.88 21.28H42.56V26.6H47.88V21.28Z" fill="#FAFAFA"/>
<path d="M53.2 21.28H47.88V26.6H53.2V21.28Z" fill="#FAFAFA"/>
<path d="M74.48 21.28H69.16V26.6H74.48V21.28Z" fill="#FAFAFA"/>
<path d="M85.12 21.28H79.8V26.6H85.12V21.28Z" fill="#FAFAFA"/>
<path d="M90.44 21.28H85.12V26.6H90.44V21.28Z" fill="#FAFAFA"/>
<path d="M101.08 21.28H95.76V26.6H101.08V21.28Z" fill="#FAFAFA"/>
<path d="M111.72 21.28H106.4V26.6H111.72V21.28Z" fill="#FAFAFA"/>
<path d="M117.04 21.28H111.72V26.6H117.04V21.28Z" fill="#FAFAFA"/>
<path d="M122.36 21.28H117.04V26.6H122.36V21.28Z" fill="#FAFAFA"/>
<path d="M133 21.28H127.68V26.6H133V21.28Z" fill="#FAFAFA"/>
<path d="M5.32 26.6H0V31.92H5.32V26.6Z" fill="#FAFAFA"/>
<path d="M37.24 26.6H31.92V31.92H37.24V26.6Z" fill="#FAFAFA"/>
<path d="M47.88 26.6H42.56V31.92H47.88V26.6Z" fill="#FAFAFA"/>
<path d="M58.52 26.6H53.2V31.92H58.52V26.6Z" fill="#FAFAFA"/>
<path d="M74.48 26.6H69.16V31.92H74.48V26.6Z" fill="#FAFAFA"/>
<path d="M79.8 26.6H74.48V31.92H79.8L79.8 26.6Z" fill="#FAFAFA"/>
<path d="M85.12 26.6H79.8L79.8 31.92H85.12V26.6Z" fill="#FAFAFA"/>
<path d="M101.08 26.6H95.76V31.92H101.08V26.6Z" fill="#FAFAFA"/>
<path d="M133 26.6H127.68V31.92H133V26.6Z" fill="#FAFAFA"/>
<path d="M5.32 31.92H0V37.24H5.32V31.92Z" fill="#FAFAFA"/>
<path d="M10.64 31.92L5.32 31.92V37.24H10.64V31.92Z" fill="#FAFAFA"/>
<path d="M15.96 31.92H10.64V37.24H15.96V31.92Z" fill="#FAFAFA"/>
<path d="M21.28 31.92H15.96V37.24H21.28V31.92Z" fill="#FAFAFA"/>
<path d="M26.6 31.92H21.28V37.24H26.6V31.92Z" fill="#FAFAFA"/>
<path d="M31.92 31.92L26.6 31.92V37.24H31.92L31.92 31.92Z" fill="#FAFAFA"/>
<path d="M37.24 31.92H31.92L31.92 37.24H37.24V31.92Z" fill="#FAFAFA"/>
<path d="M47.88 31.92H42.56V37.24H47.88V31.92Z" fill="#FAFAFA"/>
<path d="M58.52 31.92H53.2V37.24H58.52V31.92Z" fill="#FAFAFA"/>
<path d="M69.16 31.92L63.84 31.92V37.24H69.16V31.92Z" fill="#FAFAFA"/>
<path d="M79.8 31.92H74.48V37.24H79.8V31.92Z" fill="#FAFAFA"/>
<path d="M90.44 31.92L85.12 31.92V37.24H90.44V31.92Z" fill="#FAFAFA"/>
<path d="M101.08 31.92H95.76V37.24H101.08V31.92Z" fill="#FAFAFA"/>
<path d="M106.4 31.92L101.08 31.92V37.24H106.4V31.92Z" fill="#FAFAFA"/>
<path d="M111.72 31.92H106.4V37.24H111.72V31.92Z" fill="#FAFAFA"/>
<path d="M117.04 31.92H111.72V37.24H117.04V31.92Z" fill="#FAFAFA"/>
<path d="M122.36 31.92H117.04V37.24H122.36V31.92Z" fill="#FAFAFA"/>
<path d="M127.68 31.92L122.36 31.92V37.24H127.68V31.92Z" fill="#FAFAFA"/>
<path d="M133 31.92H127.68V37.24H133V31.92Z" fill="#FAFAFA"/>
<path d="M47.88 37.24H42.56V42.56H47.88V37.24Z" fill="#FAFAFA"/>
<path d="M53.2 37.24H47.88V42.56H53.2V37.24Z" fill="#FAFAFA"/>
<path d="M69.16 37.24H63.84V42.56H69.16V37.24Z" fill="#FAFAFA"/>
<path d="M79.8 37.24H74.48V42.56H79.8V37.24Z" fill="#FAFAFA"/>
<path d="M85.12 37.24H79.8V42.56H85.12V37.24Z" fill="#FAFAFA"/>
<path d="M5.32 42.56H0V47.88H5.32V42.56Z" fill="#FAFAFA"/>
<path d="M10.64 42.56H5.32V47.88H10.64V42.56Z" fill="#FAFAFA"/>
<path d="M15.96 42.56H10.64V47.88H15.96V42.56Z" fill="#FAFAFA"/>
<path d="M26.6 42.56H21.28V47.88H26.6V42.56Z" fill="#FAFAFA"/>
<path d="M37.24 42.56H31.92V47.88H37.24V42.56Z" fill="#FAFAFA"/>
<path d="M47.88 42.56H42.56V47.88H47.88V42.56Z" fill="#FAFAFA"/>
<path d="M53.2 42.56H47.88V47.88H53.2V42.56Z" fill="#FAFAFA"/>
<path d="M63.84 42.56H58.52V47.88H63.84V42.56Z" fill="#FAFAFA"/>
<path d="M74.48 42.56H69.16V47.88H74.48V42.56Z" fill="#FAFAFA"/>
<path d="M79.8 42.56H74.48V47.88H79.8V42.56Z" fill="#FAFAFA"/>
<path d="M85.12 42.56H79.8V47.88H85.12V42.56Z" fill="#FAFAFA"/>
<path d="M95.76 42.56H90.44V47.88H95.76V42.56Z" fill="#FAFAFA"/>
<path d="M101.08 42.56H95.76V47.88H101.08V42.56Z" fill="#FAFAFA"/>
<path d="M106.4 42.56H101.08V47.88H106.4V42.56Z" fill="#FAFAFA"/>
<path d="M111.72 42.56H106.4V47.88H111.72V42.56Z" fill="#FAFAFA"/>
<path d="M117.04 42.56H111.72V47.88H117.04V42.56Z" fill="#FAFAFA"/>
<path d="M133 42.56H127.68V47.88H133V42.56Z" fill="#FAFAFA"/>
<path d="M15.96 47.88H10.64V53.2H15.96V47.88Z" fill="#FAFAFA"/>
<path d="M21.28 47.88H15.96V53.2H21.28V47.88Z" fill="#FAFAFA"/>
<path d="M58.52 47.88H53.2V53.2H58.52V47.88Z" fill="#FAFAFA"/>
<path d="M74.48 47.88H69.16V53.2H74.48V47.88Z" fill="#FAFAFA"/>
<path d="M79.8 47.88H74.48V53.2H79.8V47.88Z" fill="#FAFAFA"/>
<path d="M85.12 47.88H79.8V53.2H85.12V47.88Z" fill="#FAFAFA"/>
<path d="M90.44 47.88H85.12V53.2H90.44V47.88Z" fill="#FAFAFA"/>
<path d="M106.4 47.88H101.08V53.2H106.4V47.88Z" fill="#FAFAFA"/>
<path d="M117.04 47.88H111.72V53.2H117.04V47.88Z" fill="#FAFAFA"/>
<path d="M122.36 47.88H117.04V53.2H122.36V47.88Z" fill="#FAFAFA"/>
<path d="M127.68 47.88H122.36V53.2H127.68V47.88Z" fill="#FAFAFA"/>
<path d="M133 47.88H127.68V53.2H133V47.88Z" fill="#FAFAFA"/>
<path d="M5.32 53.2H0V58.52H5.32V53.2Z" fill="#FAFAFA"/>
<path d="M10.64 53.2H5.32V58.52H10.64V53.2Z" fill="#FAFAFA"/>
<path d="M15.96 53.2H10.64V58.52H15.96V53.2Z" fill="#FAFAFA"/>
<path d="M37.24 53.2H31.92V58.52H37.24V53.2Z" fill="#FAFAFA"/>
<path d="M42.56 53.2H37.24V58.52H42.56V53.2Z" fill="#FAFAFA"/>
<path d="M47.88 53.2H42.56V58.52H47.88V53.2Z" fill="#FAFAFA"/>
<path d="M58.52 53.2H53.2V58.52H58.52V53.2Z" fill="#FAFAFA"/>
<path d="M74.48 53.2H69.16V58.52H74.48V53.2Z" fill="#FAFAFA"/>
<path d="M90.44 53.2H85.12V58.52H90.44V53.2Z" fill="#FAFAFA"/>
<path d="M101.08 53.2H95.76V58.52H101.08V53.2Z" fill="#FAFAFA"/>
<path d="M111.72 53.2H106.4V58.52H111.72V53.2Z" fill="#FAFAFA"/>
<path d="M127.68 53.2H122.36V58.52H127.68V53.2Z" fill="#FAFAFA"/>
<path d="M10.64 58.52H5.32V63.84H10.64V58.52Z" fill="#FAFAFA"/>
<path d="M15.96 58.52H10.64V63.84H15.96V58.52Z" fill="#FAFAFA"/>
<path d="M21.28 58.52H15.96V63.84H21.28V58.52Z" fill="#FAFAFA"/>
<path d="M42.56 58.52H37.24V63.84H42.56V58.52Z" fill="#FAFAFA"/>
<path d="M58.52 58.52H53.2V63.84H58.52V58.52Z" fill="#FAFAFA"/>
<path d="M69.16 58.52H63.84V63.84H69.16V58.52Z" fill="#FAFAFA"/>
<path d="M90.44 58.52H85.12V63.84H90.44V58.52Z" fill="#FAFAFA"/>
<path d="M95.76 58.52H90.44V63.84H95.76V58.52Z" fill="#FAFAFA"/>
<path d="M106.4 58.52H101.08V63.84H106.4V58.52Z" fill="#FAFAFA"/>
<path d="M111.72 58.52H106.4V63.84H111.72V58.52Z" fill="#FAFAFA"/>
<path d="M122.36 58.52H117.04V63.84H122.36V58.52Z" fill="#FAFAFA"/>
<path d="M127.68 58.52H122.36V63.84H127.68V58.52Z" fill="#FAFAFA"/>
<path d="M133 58.52H127.68V63.84H133V58.52Z" fill="#FAFAFA"/>
<path d="M5.32 63.84H0V69.16H5.32V63.84Z" fill="#FAFAFA"/>
<path d="M21.28 63.84H15.96V69.16H21.28V63.84Z" fill="#FAFAFA"/>
<path d="M26.6 63.84H21.28V69.16H26.6V63.84Z" fill="#FAFAFA"/>
<path d="M37.24 63.84H31.92V69.16H37.24V63.84Z" fill="#FAFAFA"/>
<path d="M63.84 63.84H58.52V69.16H63.84V63.84Z" fill="#FAFAFA"/>
<path d="M74.48 63.84H69.16V69.16H74.48V63.84Z" fill="#FAFAFA"/>
<path d="M85.12 63.84H79.8V69.16H85.12V63.84Z" fill="#FAFAFA"/>
<path d="M90.44 63.84H85.12V69.16H90.44V63.84Z" fill="#FAFAFA"/>
<path d="M101.08 63.84H95.76V69.16H101.08V63.84Z" fill="#FAFAFA"/>
<path d="M117.04 63.84H111.72V69.16H117.04V63.84Z" fill="#FAFAFA"/>
<path d="M127.68 63.84H122.36V69.16H127.68V63.84Z" fill="#FAFAFA"/>
<path d="M133 63.84H127.68V69.16H133V63.84Z" fill="#FAFAFA"/>
<path d="M10.64 69.16H5.32V74.48H10.64V69.16Z" fill="#FAFAFA"/>
<path d="M15.96 69.16H10.64V74.48H15.96V69.16Z" fill="#FAFAFA"/>
<path d="M26.6 69.16H21.28V74.48H26.6V69.16Z" fill="#FAFAFA"/>
<path d="M31.92 69.16H26.6V74.48H31.92L31.92 69.16Z" fill="#FAFAFA"/>
<path d="M47.88 69.16H42.56V74.48H47.88V69.16Z" fill="#FAFAFA"/>
<path d="M69.16 69.16H63.84V74.48H69.16V69.16Z" fill="#FAFAFA"/>
<path d="M85.12 69.16H79.8V74.48H85.12V69.16Z" fill="#FAFAFA"/>
<path d="M101.08 69.16H95.76V74.48H101.08V69.16Z" fill="#FAFAFA"/>
<path d="M106.4 69.16H101.08V74.48H106.4V69.16Z" fill="#FAFAFA"/>
<path d="M111.72 69.16H106.4V74.48H111.72V69.16Z" fill="#FAFAFA"/>
<path d="M117.04 69.16H111.72V74.48H117.04V69.16Z" fill="#FAFAFA"/>
<path d="M122.36 69.16H117.04V74.48H122.36V69.16Z" fill="#FAFAFA"/>
<path d="M127.68 69.16H122.36V74.48H127.68V69.16Z" fill="#FAFAFA"/>
<path d="M133 69.16H127.68V74.48H133V69.16Z" fill="#FAFAFA"/>
<path d="M5.32 74.48H0V79.8H5.32V74.48Z" fill="#FAFAFA"/>
<path d="M15.96 74.48H10.64V79.8H15.96V74.48Z" fill="#FAFAFA"/>
<path d="M21.28 74.48H15.96V79.8H21.28V74.48Z" fill="#FAFAFA"/>
<path d="M26.6 74.48H21.28V79.8H26.6V74.48Z" fill="#FAFAFA"/>
<path d="M31.92 74.48H26.6V79.8H31.92V74.48Z" fill="#FAFAFA"/>
<path d="M37.24 74.48H31.92V79.8H37.24V74.48Z" fill="#FAFAFA"/>
<path d="M42.56 74.48H37.24V79.8H42.56V74.48Z" fill="#FAFAFA"/>
<path d="M47.88 74.48H42.56V79.8H47.88V74.48Z" fill="#FAFAFA"/>
<path d="M53.2 74.48H47.88V79.8H53.2V74.48Z" fill="#FAFAFA"/>
<path d="M58.52 74.48H53.2V79.8H58.52V74.48Z" fill="#FAFAFA"/>
<path d="M63.84 74.48H58.52V79.8H63.84V74.48Z" fill="#FAFAFA"/>
<path d="M69.16 74.48H63.84V79.8H69.16V74.48Z" fill="#FAFAFA"/>
<path d="M79.8 74.48H74.48V79.8H79.8L79.8 74.48Z" fill="#FAFAFA"/>
<path d="M85.12 74.48H79.8L79.8 79.8H85.12V74.48Z" fill="#FAFAFA"/>
<path d="M101.08 74.48H95.76V79.8H101.08V74.48Z" fill="#FAFAFA"/>
<path d="M21.28 79.8H15.96V85.12H21.28V79.8Z" fill="#FAFAFA"/>
<path d="M42.56 79.8H37.24V85.12H42.56V79.8Z" fill="#FAFAFA"/>
<path d="M47.88 79.8H42.56V85.12H47.88V79.8Z" fill="#FAFAFA"/>
<path d="M53.2 79.8H47.88V85.12H53.2V79.8Z" fill="#FAFAFA"/>
<path d="M58.52 79.8H53.2V85.12H58.52V79.8Z" fill="#FAFAFA"/>
<path d="M63.84 79.8H58.52V85.12H63.84V79.8Z" fill="#FAFAFA"/>
<path d="M74.48 79.8H69.16V85.12H74.48V79.8Z" fill="#FAFAFA"/>
<path d="M79.8 79.8H74.48V85.12H79.8V79.8Z" fill="#FAFAFA"/>
<path d="M90.44 79.8L85.12 79.8V85.12H90.44V79.8Z" fill="#FAFAFA"/>
<path d="M106.4 79.8L101.08 79.8V85.12H106.4V79.8Z" fill="#FAFAFA"/>
<path d="M111.72 79.8H106.4V85.12H111.72V79.8Z" fill="#FAFAFA"/>
<path d="M10.64 85.12H5.32V90.44H10.64V85.12Z" fill="#FAFAFA"/>
<path d="M21.28 85.12H15.96V90.44H21.28V85.12Z" fill="#FAFAFA"/>
<path d="M26.6 85.12H21.28V90.44H26.6V85.12Z" fill="#FAFAFA"/>
<path d="M37.24 85.12H31.92V90.44H37.24V85.12Z" fill="#FAFAFA"/>
<path d="M47.88 85.12H42.56V90.44H47.88V85.12Z" fill="#FAFAFA"/>
<path d="M69.16 85.12H63.84V90.44H69.16V85.12Z" fill="#FAFAFA"/>
<path d="M90.44 85.12H85.12V90.44H90.44V85.12Z" fill="#FAFAFA"/>
<path d="M95.76 85.12H90.44V90.44H95.76V85.12Z" fill="#FAFAFA"/>
<path d="M101.08 85.12H95.76V90.44H101.08V85.12Z" fill="#FAFAFA"/>
<path d="M106.4 85.12H101.08V90.44H106.4V85.12Z" fill="#FAFAFA"/>
<path d="M111.72 85.12H106.4V90.44H111.72V85.12Z" fill="#FAFAFA"/>
<path d="M117.04 85.12H111.72V90.44H117.04V85.12Z" fill="#FAFAFA"/>
<path d="M122.36 85.12H117.04V90.44H122.36V85.12Z" fill="#FAFAFA"/>
<path d="M133 85.12H127.68V90.44H133V85.12Z" fill="#FAFAFA"/>
<path d="M47.88 90.44H42.56V95.76H47.88V90.44Z" fill="#FAFAFA"/>
<path d="M79.8 90.44H74.48V95.76H79.8V90.44Z" fill="#FAFAFA"/>
<path d="M85.12 90.44H79.8V95.76H85.12V90.44Z" fill="#FAFAFA"/>
<path d="M90.44 90.44H85.12V95.76H90.44V90.44Z" fill="#FAFAFA"/>
<path d="M111.72 90.44H106.4V95.76H111.72V90.44Z" fill="#FAFAFA"/>
<path d="M117.04 90.44H111.72V95.76H117.04V90.44Z" fill="#FAFAFA"/>
<path d="M122.36 90.44H117.04V95.76H122.36V90.44Z" fill="#FAFAFA"/>
<path d="M5.32 95.76H0V101.08H5.32V95.76Z" fill="#FAFAFA"/>
<path d="M10.64 95.76H5.32V101.08H10.64V95.76Z" fill="#FAFAFA"/>
<path d="M15.96 95.76H10.64V101.08H15.96V95.76Z" fill="#FAFAFA"/>
<path d="M21.28 95.76H15.96V101.08H21.28V95.76Z" fill="#FAFAFA"/>
<path d="M26.6 95.76H21.28V101.08H26.6V95.76Z" fill="#FAFAFA"/>
<path d="M31.92 95.76H26.6V101.08H31.92V95.76Z" fill="#FAFAFA"/>
<path d="M37.24 95.76H31.92V101.08H37.24V95.76Z" fill="#FAFAFA"/>
<path d="M69.16 95.76H63.84V101.08H69.16V95.76Z" fill="#FAFAFA"/>
<path d="M90.44 95.76H85.12V101.08H90.44V95.76Z" fill="#FAFAFA"/>
<path d="M101.08 95.76H95.76V101.08H101.08V95.76Z" fill="#FAFAFA"/>
<path d="M111.72 95.76H106.4V101.08H111.72V95.76Z" fill="#FAFAFA"/>
<path d="M117.04 95.76H111.72V101.08H117.04V95.76Z" fill="#FAFAFA"/>
<path d="M127.68 95.76H122.36V101.08H127.68V95.76Z" fill="#FAFAFA"/>
<path d="M5.32 101.08H0V106.4H5.32V101.08Z" fill="#FAFAFA"/>
<path d="M37.24 101.08H31.92L31.92 106.4H37.24V101.08Z" fill="#FAFAFA"/>
<path d="M53.2 101.08H47.88V106.4H53.2V101.08Z" fill="#FAFAFA"/>
<path d="M58.52 101.08H53.2V106.4H58.52V101.08Z" fill="#FAFAFA"/>
<path d="M63.84 101.08H58.52V106.4H63.84V101.08Z" fill="#FAFAFA"/>
<path d="M69.16 101.08H63.84V106.4H69.16V101.08Z" fill="#FAFAFA"/>
<path d="M85.12 101.08H79.8V106.4H85.12V101.08Z" fill="#FAFAFA"/>
<path d="M90.44 101.08H85.12V106.4H90.44V101.08Z" fill="#FAFAFA"/>
<path d="M111.72 101.08H106.4V106.4H111.72V101.08Z" fill="#FAFAFA"/>
<path d="M127.68 101.08H122.36V106.4H127.68V101.08Z" fill="#FAFAFA"/>
<path d="M5.32 106.4H0V111.72H5.32V106.4Z" fill="#FAFAFA"/>
<path d="M15.96 106.4H10.64V111.72H15.96V106.4Z" fill="#FAFAFA"/>
<path d="M21.28 106.4H15.96V111.72H21.28V106.4Z" fill="#FAFAFA"/>
<path d="M26.6 106.4H21.28V111.72H26.6V106.4Z" fill="#FAFAFA"/>
<path d="M37.24 106.4H31.92V111.72H37.24V106.4Z" fill="#FAFAFA"/>
<path d="M47.88 106.4H42.56V111.72H47.88V106.4Z" fill="#FAFAFA"/>
<path d="M53.2 106.4H47.88V111.72H53.2V106.4Z" fill="#FAFAFA"/>
<path d="M74.48 106.4H69.16V111.72H74.48V106.4Z" fill="#FAFAFA"/>
<path d="M79.8 106.4H74.48V111.72H79.8L79.8 106.4Z" fill="#FAFAFA"/>
<path d="M90.44 106.4H85.12V111.72H90.44V106.4Z" fill="#FAFAFA"/>
<path d="M95.76 106.4H90.44V111.72H95.76V106.4Z" fill="#FAFAFA"/>
<path d="M101.08 106.4H95.76V111.72H101.08V106.4Z" fill="#FAFAFA"/>
<path d="M106.4 106.4H101.08V111.72H106.4V106.4Z" fill="#FAFAFA"/>
<path d="M111.72 106.4H106.4V111.72H111.72V106.4Z" fill="#FAFAFA"/>
<path d="M122.36 106.4H117.04V111.72H122.36V106.4Z" fill="#FAFAFA"/>
<path d="M127.68 106.4H122.36V111.72H127.68V106.4Z" fill="#FAFAFA"/>
<path d="M5.32 111.72H0V117.04H5.32V111.72Z" fill="#FAFAFA"/>
<path d="M15.96 111.72H10.64V117.04H15.96V111.72Z" fill="#FAFAFA"/>
<path d="M21.28 111.72H15.96V117.04H21.28V111.72Z" fill="#FAFAFA"/>
<path d="M26.6 111.72H21.28V117.04H26.6V111.72Z" fill="#FAFAFA"/>
<path d="M37.24 111.72H31.92V117.04H37.24V111.72Z" fill="#FAFAFA"/>
<path d="M53.2 111.72H47.88V117.04H53.2V111.72Z" fill="#FAFAFA"/>
<path d="M58.52 111.72H53.2V117.04H58.52V111.72Z" fill="#FAFAFA"/>
<path d="M63.84 111.72H58.52V117.04H63.84V111.72Z" fill="#FAFAFA"/>
<path d="M79.8 111.72H74.48V117.04H79.8V111.72Z" fill="#FAFAFA"/>
<path d="M85.12 111.72H79.8V117.04H85.12V111.72Z" fill="#FAFAFA"/>
<path d="M122.36 111.72H117.04V117.04H122.36V111.72Z" fill="#FAFAFA"/>
<path d="M133 111.72H127.68V117.04H133V111.72Z" fill="#FAFAFA"/>
<path d="M5.32 117.04H0V122.36H5.32V117.04Z" fill="#FAFAFA"/>
<path d="M15.96 117.04H10.64V122.36H15.96V117.04Z" fill="#FAFAFA"/>
<path d="M21.28 117.04H15.96V122.36H21.28V117.04Z" fill="#FAFAFA"/>
<path d="M26.6 117.04H21.28V122.36H26.6V117.04Z" fill="#FAFAFA"/>
<path d="M37.24 117.04H31.92V122.36H37.24V117.04Z" fill="#FAFAFA"/>
<path d="M47.88 117.04H42.56V122.36H47.88V117.04Z" fill="#FAFAFA"/>
<path d="M53.2 117.04H47.88V122.36H53.2V117.04Z" fill="#FAFAFA"/>
<path d="M63.84 117.04H58.52V122.36H63.84V117.04Z" fill="#FAFAFA"/>
<path d="M79.8 117.04H74.48V122.36H79.8V117.04Z" fill="#FAFAFA"/>
<path d="M85.12 117.04H79.8V122.36H85.12V117.04Z" fill="#FAFAFA"/>
<path d="M90.44 117.04H85.12V122.36H90.44V117.04Z" fill="#FAFAFA"/>
<path d="M95.76 117.04H90.44V122.36H95.76V117.04Z" fill="#FAFAFA"/>
<path d="M122.36 117.04H117.04V122.36H122.36V117.04Z" fill="#FAFAFA"/>
<path d="M127.68 117.04H122.36V122.36H127.68V117.04Z" fill="#FAFAFA"/>
<path d="M5.32 122.36H0V127.68H5.32V122.36Z" fill="#FAFAFA"/>
<path d="M37.24 122.36H31.92V127.68H37.24V122.36Z" fill="#FAFAFA"/>
<path d="M47.88 122.36H42.56V127.68H47.88V122.36Z" fill="#FAFAFA"/>
<path d="M53.2 122.36H47.88V127.68H53.2V122.36Z" fill="#FAFAFA"/>
<path d="M63.84 122.36H58.52V127.68H63.84V122.36Z" fill="#FAFAFA"/>
<path d="M74.48 122.36H69.16V127.68H74.48V122.36Z" fill="#FAFAFA"/>
<path d="M79.8 122.36H74.48V127.68H79.8V122.36Z" fill="#FAFAFA"/>
<path d="M90.44 122.36H85.12V127.68H90.44V122.36Z" fill="#FAFAFA"/>
<path d="M95.76 122.36H90.44V127.68H95.76V122.36Z" fill="#FAFAFA"/>
<path d="M117.04 122.36H111.72V127.68H117.04V122.36Z" fill="#FAFAFA"/>
<path d="M122.36 122.36H117.04V127.68H122.36V122.36Z" fill="#FAFAFA"/>
<path d="M127.68 122.36H122.36V127.68H127.68V122.36Z" fill="#FAFAFA"/>
<path d="M5.32 127.68H0V133H5.32V127.68Z" fill="#FAFAFA"/>
<path d="M10.64 127.68H5.32V133H10.64V127.68Z" fill="#FAFAFA"/>
<path d="M15.96 127.68H10.64V133H15.96V127.68Z" fill="#FAFAFA"/>
<path d="M21.28 127.68H15.96V133H21.28V127.68Z" fill="#FAFAFA"/>
<path d="M26.6 127.68H21.28V133H26.6V127.68Z" fill="#FAFAFA"/>
<path d="M31.92 127.68H26.6V133H31.92L31.92 127.68Z" fill="#FAFAFA"/>
<path d="M37.24 127.68H31.92L31.92 133H37.24V127.68Z" fill="#FAFAFA"/>
<path d="M47.88 127.68H42.56V133H47.88V127.68Z" fill="#FAFAFA"/>
<path d="M58.52 127.68H53.2V133H58.52V127.68Z" fill="#FAFAFA"/>
<path d="M63.84 127.68H58.52V133H63.84V127.68Z" fill="#FAFAFA"/>
<path d="M69.16 127.68H63.84V133H69.16V127.68Z" fill="#FAFAFA"/>
<path d="M79.8 127.68H74.48V133H79.8V127.68Z" fill="#FAFAFA"/>
<path d="M85.12 127.68H79.8V133H85.12V127.68Z" fill="#FAFAFA"/>
<path d="M101.08 127.68H95.76V133H101.08V127.68Z" fill="#FAFAFA"/>
<path d="M111.72 127.68H106.4V133H111.72V127.68Z" fill="#FAFAFA"/>
<path d="M117.04 127.68H111.72V133H117.04V127.68Z" fill="#FAFAFA"/>
<path d="M122.36 127.68H117.04V133H122.36V127.68Z" fill="#FAFAFA"/>
<path d="M127.68 127.68H122.36V133H127.68V127.68Z" fill="#FAFAFA"/>
<path d="M133 127.68H127.68V133H133V127.68Z" fill="#FAFAFA"/>
</svg>
