<svg xmlns="http://www.w3.org/2000/svg" width="1440" height="1024" fill="none"><g clip-path="url(#a)"><g filter="url(#b)" opacity=".7"><path fill="url(#c)" d="M0 0h950v82H0z" transform="matrix(.668 .744 -.634 .773 -72 66)"/></g><g filter="url(#d)" opacity=".7"><path fill="url(#e)" d="M0 0h1189v82H0z" transform="matrix(.668 .744 -.634 .773 87 -23)"/></g><g filter="url(#f)" opacity=".7"><path fill="url(#g)" d="M0 0h782v93H0z" transform="matrix(.668 .744 -.634 .773 330 -45)"/></g><g filter="url(#h)" opacity=".7"><path fill="url(#i)" d="M0 0h581v93H0z" transform="matrix(.668 .744 -.634 .773 493 -133)"/></g><g filter="url(#j)" opacity=".3"><path fill="#6751D6" d="m-112 283 331 407-37 41-331-407z"/></g></g><defs><filter id="b" width="872.5" height="956.2" x="-217.2" y="-26.9" color-interpolation-filters="sRGB" filterUnits="userSpaceOnUse"><feFlood flood-opacity="0" result="BackgroundImageFix"/><feBlend in="SourceGraphic" in2="BackgroundImageFix" result="shape"/><feGaussianBlur result="effect1_foregroundBlur_3604_9490" stdDeviation="46.5"/></filter><filter id="d" width="1082.3" height="1184.2" x="-83.3" y="-141.2" color-interpolation-filters="sRGB" filterUnits="userSpaceOnUse"><feFlood flood-opacity="0" result="BackgroundImageFix"/><feBlend in="SourceGraphic" in2="BackgroundImageFix" result="shape"/><feGaussianBlur result="effect1_foregroundBlur_3604_9490" stdDeviation="59"/></filter><filter id="f" width="801.7" height="874.1" x="161.5" y="-154.9" color-interpolation-filters="sRGB" filterUnits="userSpaceOnUse"><feFlood flood-opacity="0" result="BackgroundImageFix"/><feBlend in="SourceGraphic" in2="BackgroundImageFix" result="shape"/><feGaussianBlur result="effect1_foregroundBlur_3604_9490" stdDeviation="55"/></filter><filter id="h" width="664.9" height="722" x="325.1" y="-242" color-interpolation-filters="sRGB" filterUnits="userSpaceOnUse"><feFlood flood-opacity="0" result="BackgroundImageFix"/><feBlend in="SourceGraphic" in2="BackgroundImageFix" result="shape"/><feGaussianBlur result="effect1_foregroundBlur_3604_9490" stdDeviation="54.5"/></filter><filter id="j" width="585.1" height="665" x="-257.8" y="174.3" color-interpolation-filters="sRGB" filterUnits="userSpaceOnUse"><feFlood flood-opacity="0" result="BackgroundImageFix"/><feBlend in="SourceGraphic" in2="BackgroundImageFix" result="shape"/><feGaussianBlur result="effect1_foregroundBlur_3604_9490" stdDeviation="54.5"/></filter><linearGradient id="c" x1="0" x2="949.5" y1="41.2" y2="41.2" gradientUnits="userSpaceOnUse"><stop stop-color="#6155FF"/><stop offset="1" stop-color="#12191B"/></linearGradient><linearGradient id="e" x1="0" x2="1188.7" y1="41.2" y2="41.2" gradientUnits="userSpaceOnUse"><stop stop-color="#6155FF"/><stop offset="1" stop-color="#12191B"/></linearGradient><linearGradient id="g" x1="0" x2="782.4" y1="46.5" y2="46.5" gradientUnits="userSpaceOnUse"><stop stop-color="#6155FF"/><stop offset="1" stop-color="#12191B"/></linearGradient><linearGradient id="i" x1="0" x2="580.7" y1="46.5" y2="46.5" gradientUnits="userSpaceOnUse"><stop stop-color="#6155FF"/><stop offset="1" stop-color="#12191B"/></linearGradient><clipPath id="a"><path fill="#fff" d="M0 0h1440v1024H0z"/></clipPath></defs></svg>