<svg xmlns="http://www.w3.org/2000/svg" width="194" height="194" fill="none"><path stroke="url(#a)" stroke-dasharray="7.52 11.82" stroke-width=".5" d="m99 2 11 1 7 1 11 3 7 3 10 5 6 4 9 7 5 5 8 9 4 6 6 10h-1l3 6 4 11 1 7h1l1 11a97 97 0 0 1 0 8l-1 11-1 7-3 11h-1l-2 7-5 10-4 6-7 9-5 5-9 8-6 4-10 6v-1l-6 3-11 4-7 1v1l-12 1a97 97 0 0 1-7 0l-11-1-7-1-11-3v-1l-7-2-10-5-6-4-9-7-5-5h-1l-7-9-4-6-6-10-2-6H8l-3-11-1-7H3l-1-12v-7l1-11 1-7 3-11 3-7 5-10 4-6c2-4 4-7 7-9l5-5v-1l9-7 6-4 10-6 6-2V8l11-3 7-1V3l11-1a97 97 0 0 1 8 0Zm3 177a84 84 0 0 1-7 0v1a84 84 0 0 0 7 0v-1Zm-26-2 8 2v-1l-7-1h-1Zm44-1-7 2 7-1v-1Zm-61-5 7 3v-1l-7-3v1Zm78-2-6 3v1l7-4h-1Zm-35-5a68 68 0 0 1-8 0v1a68 68 0 0 0 8 0v-1Zm-58-3 5 4h1l-6-5v1Zm108-3-5 5 6-5h-1Zm-79 3 8 2-8-3v1Zm50-2-8 3 8-2v-1Zm-68-9 6 5 1-1-7-4Zm86-2-7 5 1 1 6-5v-1Zm-110-1 4 6 1-1-5-5Zm134-3-5 6h1l4-5v-1Zm-63 3a52 52 0 0 1-8 1h8v-1Zm-27-4 7 3v-1l-7-2Zm46-1-7 3 7-3Zm-81-7 5 6h1l-5-7-1 1Zm114-3-4 7 5-7h-1Zm-133-1 3 7 1-1-3-6h-1Zm152-3-3 7h1l3-7h-1Zm-114 3 5 5h1l-6-5Zm77-2-5 6 5-5v-1Zm-35 5a38 38 0 0 1-7 0v1a39 39 0 0 0 7 0v-1Zm-26-6 7 4v-1l-6-3h-1Zm44-1-6 4 7-4h-1Zm-87-12h-1l3 8h1l-3-8Zm131-2-3 7v1h1l2-8Zm-114 1h-1l4 7-3-7Zm96-2-2 7 3-7h-1Zm-82 1 4 7v-1l-4-6Zm68-1-3 6v1l4-7h-1Zm-115 1 1 7h1l-2-7Zm162-3-1 7 2-7h-1ZM14 95a84 84 0 0 0 0 7h1l-1-3v-4Zm15-1a69 69 0 0 0 0 8h1v-3l-1-1 1-4h-1Zm17 0a52 52 0 0 0 0 8v-8Zm13 0a38 38 0 0 0 0 7h1v-7h-1Zm75-2a38 38 0 0 1 0 8h1v-8h-1Zm14 0h-1a52 52 0 0 1 1 8v-8Zm16-1v1a68 68 0 0 1 0 8h1v-9h-1Zm15 1a84 84 0 0 1 0 7h1v-7h-1ZM16 76l-1 8 2-7-1-1Zm160-2 2 7v-1l-1-7-1 1ZM66 75l-4 7h1l3-6v-1Zm61-1 4 7-4-7Zm-76 1-3 7 3-7Zm91-2 3 7-3-7ZM33 73l-2 8 3-8h-1Zm126-2 3 8-2-8h-1Zm-78-8-7 4 7-4Zm31-1v1l6 3h1l-7-4Zm-89-3-3 7 3-7Zm146-3v1l3 6h1l-4-7ZM63 59l-6 5h1v1l5-6Zm66-1 6 5-5-6-1 1Zm-85-3-5 6v1l5-7Zm104-2 5 7 1-1-5-6h-1Zm-52 6h-4v1a38 38 0 0 1 8 0v-1h-4ZM80 48l-7 4 7-3v-1Zm32 0 7 3-7-3Zm-79-4-4 5v1l5-6h-1Zm125-2 5 5-5-6v1Zm-62 4h-4a52 52 0 0 1 8 0h-4Zm-37-6-6 5v1l7-5-1-1Zm73-1 7 5-7-5Zm-85-8-6 4 1 1 5-5Zm97-2 6 5v-1l-5-4h-1Zm-65 2-8 3v1l8-3v-1Zm34 0 7 3 1-1-8-2Zm-17-2h-5l1 1a68 68 0 0 1 8 0v-1h-4Zm-33-8-7 3v1h1l6-3v-1Zm65-1 7 3-7-3Zm-48-4-7 1 1 1 7-2h-1Zm30-1 7 2v-1l-7-1Zm-15-1h-3v1a84 84 0 0 1 7-1h-4Z"/><g filter="url(#b)"><circle cx="93" cy="88" r="32" fill="url(#c)"/><circle cx="93" cy="88" r="31.3" stroke="#1D2729" stroke-width="1.3"/></g><g clip-path="url(#d)"><path fill="#EA6C00" d="m82 83 11 22-19-22h8ZM104 83l-11 22 19-22h-8Z"/><path fill="#FDAD00" d="M82 83h22l-11 22-11-22Z"/><path fill="#FDD231" d="m93 71-11 1v11l11-12ZM93 71l11 1v11L93 71Z"/><path fill="#FDAD00" d="m112 83-8-11v11h8Zm-38 0 8-11v11h-8Z"/><path fill="#FEEEB7" d="M93 71 82 83h22L93 71Z"/></g><defs><linearGradient id="a" x1="177.9" x2="33.7" y1="18.8" y2="165.3" gradientUnits="userSpaceOnUse"><stop stop-color="#6155FF" stop-opacity=".3"/><stop offset=".8" stop-color="#fff" stop-opacity="0"/></linearGradient><linearGradient id="c" x1="93" x2="93" y1="16.1" y2="120" gradientUnits="userSpaceOnUse"><stop stop-color="#1E1353"/><stop offset="1" stop-color="#13191B"/></linearGradient><clipPath id="d"><path fill="#fff" d="M74 69h38v38H74z"/></clipPath><filter id="b" width="93.3" height="93.3" x="46.4" y="43.9" color-interpolation-filters="sRGB" filterUnits="userSpaceOnUse"><feFlood flood-opacity="0" result="BackgroundImageFix"/><feColorMatrix in="SourceAlpha" result="hardAlpha" values="0 0 0 0 0 0 0 0 0 0 0 0 0 0 0 0 0 0 127 0"/><feMorphology in="SourceAlpha" operator="dilate" radius="4.5" result="effect1_dropShadow_6242_14066"/><feOffset dy="2.6"/><feGaussianBlur stdDeviation="5.1"/><feComposite in2="hardAlpha" operator="out"/><feColorMatrix values="0 0 0 0 0 0 0 0 0 0 0 0 0 0 0 0 0 0 0.25 0"/><feBlend in2="BackgroundImageFix" result="effect1_dropShadow_6242_14066"/><feBlend in="SourceGraphic" in2="effect1_dropShadow_6242_14066" result="shape"/></filter></defs></svg>