<svg xmlns="http://www.w3.org/2000/svg" width="94" height="95" fill="none"><g filter="url(#a)"><circle cx="47" cy="45" r="32" fill="url(#b)"/><circle cx="47" cy="45" r="31.3" stroke="#1D2729" stroke-width="1.3"/></g><g clip-path="url(#c)"><path fill="#EA6C00" d="M35.6 40 47 62.5 28 40.1h7.7ZM58.5 40 47 62.5l19.2-22.3h-7.7Z"/><path fill="#FDAD00" d="M35.6 40h22.8L47 62.5 35.6 40.1Z"/><path fill="#FDD231" d="m47 27.7-10.8 1.1-.6 11.3L47 27.7ZM47 27.7l10.8 1.1.7 11.3L47 27.7Z"/><path fill="#FDAD00" d="m66.2 40-8.4-11.2.7 11.3h7.7ZM28 40l8.3-11.2-.6 11.3H28Z"/><path fill="#FEEEB7" d="M47 27.7 35.6 40h22.8L47 27.7Z"/></g><defs><linearGradient id="b" x1="47" x2="47" y1="-26.9" y2="77" gradientUnits="userSpaceOnUse"><stop stop-color="#1E1353"/><stop offset="1" stop-color="#13191B"/></linearGradient><clipPath id="c"><path fill="#fff" d="M27.9 25.9h38.3v38.3H27.9z"/></clipPath><filter id="a" width="93.3" height="93.3" x=".4" y=".9" color-interpolation-filters="sRGB" filterUnits="userSpaceOnUse"><feFlood flood-opacity="0" result="BackgroundImageFix"/><feColorMatrix in="SourceAlpha" result="hardAlpha" values="0 0 0 0 0 0 0 0 0 0 0 0 0 0 0 0 0 0 127 0"/><feMorphology in="SourceAlpha" operator="dilate" radius="4.5" result="effect1_dropShadow_6242_14069"/><feOffset dy="2.6"/><feGaussianBlur stdDeviation="5.1"/><feComposite in2="hardAlpha" operator="out"/><feColorMatrix values="0 0 0 0 0 0 0 0 0 0 0 0 0 0 0 0 0 0 0.25 0"/><feBlend in2="BackgroundImageFix" result="effect1_dropShadow_6242_14069"/><feBlend in="SourceGraphic" in2="effect1_dropShadow_6242_14069" result="shape"/></filter></defs></svg>