<svg width="38" height="41" viewBox="0 0 38 41" fill="none" xmlns="http://www.w3.org/2000/svg">
<g clip-path="url(#clip0_6274_14076)">
<path d="M0.0224648 38.1903V2.80974C0.0205568 1.61179 0.71899 0.519097 1.81841 0L22.8837 20.5L1.81841 41C0.722899 40.4766 0.026186 39.3866 0.0224648 38.1903ZM29.5532 26.9935L6.54448 39.939L24.6999 22.2692L29.5545 26.9904L29.5532 26.9935ZM36.7172 18.0201C37.5045 18.6115 37.9698 19.5267 37.978 20.5C37.9887 21.4615 37.5369 22.3717 36.759 22.9556L31.8621 25.7033L26.516 20.5L31.8621 15.2967L36.716 18.0232L36.7172 18.0201ZM6.54448 1.06104L29.5532 14.0065L24.6986 18.7277L6.54448 1.06104Z" fill="#FAFAFA"/>
</g>
<defs>
<clipPath id="clip0_6274_14076">
<rect width="38" height="41" fill="white"/>
</clipPath>
</defs>
</svg>
