<svg width="36" height="41" viewBox="0 0 36 41" fill="none" xmlns="http://www.w3.org/2000/svg">
<path d="M17.7477 1.54639C24.3037 6.6256 31.8221 6.31216 33.9699 6.31216C33.5008 35.2002 29.9204 31.3517 17.7477 39.4517C5.5751 31.3527 2.01681 35.2002 1.5498 6.31216C3.67237 6.31216 11.1918 6.6256 17.7477 1.54639Z" fill="white"/>
<path d="M17.7483 1.54664L18.6949 0.323383C18.4239 0.113741 18.091 0 17.7483 0C17.4057 0 17.0727 0.113741 16.8017 0.323383L17.7483 1.54664ZM33.9704 6.31241L35.5187 6.33766C35.5219 6.13231 35.4842 5.92837 35.4079 5.73773C35.3315 5.54708 35.218 5.37354 35.0739 5.22719C34.9298 5.08085 34.758 4.96464 34.5686 4.88532C34.3791 4.80601 34.1758 4.76517 33.9704 4.7652V6.31241ZM17.7483 39.4519L16.8911 40.7404C17.1449 40.9097 17.4432 41 17.7483 41C18.0534 41 18.3517 40.9097 18.6055 40.7404L17.7483 39.4519ZM1.55037 6.31241V4.7652C1.34509 4.76531 1.14188 4.80625 0.95256 4.88563C0.763243 4.96501 0.591601 5.08124 0.447622 5.22757C0.303643 5.37389 0.190201 5.5474 0.113896 5.73797C0.0375917 5.92855 -5.22958e-05 6.1324 0.00315531 6.33766L1.55037 6.31241ZM16.8017 2.7699C23.8246 8.21094 31.8605 7.86068 33.9715 7.86068V4.7652C31.7879 4.7652 24.786 5.04077 18.697 0.323383L16.8017 2.7699ZM32.4243 6.28717C32.3086 13.4753 32.0036 18.5461 31.4219 22.3021C30.8466 26.0192 30.0251 28.2459 28.967 29.811C27.8952 31.4361 26.5478 32.4006 24.5588 33.5912C22.5488 34.7945 20.0108 36.0914 16.8921 38.1635L18.6066 40.7404C21.5738 38.763 24.0476 37.5029 26.1481 36.247C28.2654 34.9775 30.1271 33.5807 31.5313 31.5444C32.9491 29.4471 33.8705 26.7145 34.4764 22.7754C35.078 18.8753 35.3978 13.5941 35.5166 6.33766L32.4243 6.28717ZM18.6055 38.1635C15.4869 36.0914 12.9499 34.7976 10.9431 33.5912C8.95304 32.4016 7.61093 31.4371 6.54228 29.812C5.49047 28.248 4.66795 26.0255 4.09471 22.3031C3.51411 18.5461 3.21119 13.4753 3.09444 6.28717L0 6.33766C0.118855 13.5952 0.436503 18.8753 1.03604 22.7744C1.64293 26.7134 2.56222 29.446 3.98112 31.5433C5.38108 33.5796 7.24174 34.9775 9.35694 36.247C11.4543 37.5019 13.9271 38.763 16.8953 40.7404L18.6055 38.1635ZM1.54722 7.86068C3.63717 7.86068 11.673 8.21094 18.6918 2.7699L16.7985 0.323383C10.7085 5.04077 3.70659 4.7652 1.54722 4.7652V7.86068Z" fill="#3375BB"/>
</svg>
